<svg class="marks" width="2174" height="560" viewBox="0 0 1087 280" version="1.1" xmlns="http://www.w3.org/2000/svg" xmlns:xlink="http://www.w3.org/1999/xlink"><rect width="1087" height="280" style="fill: white;"></rect><g transform="translate(46,64)"><g class="mark-group role-frame root"><g transform="translate(0,0)"><path class="background" d="M0,0h0v0h0Z" style="fill: none;"></path><g><g class="mark-group role-row-header row_header"><g transform="translate(-1,0)"><path class="background" d="M0,0h0v200h0Z" style="fill: none;"></path><g><g class="mark-group role-axis"><g transform="translate(0.5,0.5)"><path class="background" d="M0,0h0v0h0Z" style="pointer-events: none; fill: none;"></path><g><g class="mark-rule role-axis-tick" style="pointer-events: none;"><line transform="translate(0,200)" x2="-5" y2="0" style="fill: none; stroke: #888; stroke-width: 1; opacity: 1;"></line><line transform="translate(0,167)" x2="-5" y2="0" style="fill: none; stroke: #888; stroke-width: 1; opacity: 1;"></line><line transform="translate(0,133)" x2="-5" y2="0" style="fill: none; stroke: #888; stroke-width: 1; opacity: 1;"></line><line transform="translate(0,100)" x2="-5" y2="0" style="fill: none; stroke: #888; stroke-width: 1; opacity: 1;"></line><line transform="translate(0,67)" x2="-5" y2="0" style="fill: none; stroke: #888; stroke-width: 1; opacity: 1;"></line><line transform="translate(0,33)" x2="-5" y2="0" style="fill: none; stroke: #888; stroke-width: 1; opacity: 1;"></line><line transform="translate(0,0)" x2="-5" y2="0" style="fill: none; stroke: #888; stroke-width: 1; opacity: 1;"></line></g><g class="mark-text role-axis-label" style="pointer-events: none;"><text text-anchor="end" transform="translate(-7,203)" style="font-family: sans-serif; font-size: 10px; fill: #000; opacity: 1;">0</text><text text-anchor="end" transform="translate(-7,169.66666666666669)" style="font-family: sans-serif; font-size: 10px; fill: #000; opacity: 1;">20</text><text text-anchor="end" transform="translate(-7,136.33333333333334)" style="font-family: sans-serif; font-size: 10px; fill: #000; opacity: 1;">40</text><text text-anchor="end" transform="translate(-7,103)" style="font-family: sans-serif; font-size: 10px; fill: #000; opacity: 1;">60</text><text text-anchor="end" transform="translate(-7,69.66666666666667)" style="font-family: sans-serif; font-size: 10px; fill: #000; opacity: 1;">80</text><text text-anchor="end" transform="translate(-7,36.33333333333333)" style="font-family: sans-serif; font-size: 10px; fill: #000; opacity: 1;">100</text><text text-anchor="end" transform="translate(-7,3)" style="font-family: sans-serif; font-size: 10px; fill: #000; opacity: 1;">120</text></g><g class="mark-rule role-axis-domain" style="pointer-events: none;"><line transform="translate(0,200)" x2="0" y2="-200" style="fill: none; stroke: #888; stroke-width: 1; opacity: 1;"></line></g><g class="mark-text role-axis-title" style="pointer-events: none;"><text text-anchor="middle" transform="translate(-29,100) rotate(-90) translate(0,-2)" style="font-family: sans-serif; font-size: 11px; font-weight: bold; fill: #000; opacity: 1;">Throughput (kb/ms)</text></g></g><path class="foreground" d="" style="pointer-events: none; display: none; fill: none;"></path></g></g></g><path class="foreground" d="" style="display: none; fill: none;"></path></g></g><g class="mark-group role-column-footer column_footer"><g transform="translate(0,201)"><path class="background" d="M0,0h140v0h-140Z" style="fill: none;"></path><g><g class="mark-group role-axis"><g transform="translate(0.5,0.5)"><path class="background" d="M0,0h0v0h0Z" style="pointer-events: none; fill: none;"></path><g><g class="mark-rule role-axis-domain" style="pointer-events: none;"><line transform="translate(0,0)" x2="140" y2="0" style="fill: none; stroke: #888; stroke-width: 0; opacity: 1;"></line></g></g><path class="foreground" d="" style="pointer-events: none; display: none; fill: none;"></path></g></g><g class="mark-group role-title"><g transform="translate(70,10)"><path class="background" d="M0,0h0v0h0Z" style="pointer-events: none; fill: none;"></path><g><g class="mark-text role-title-text" style="pointer-events: none;"><text text-anchor="middle" transform="translate(0,-2)" style="font-family: sans-serif; font-size: 10px; fill: #000; opacity: 1;">reymont</text></g></g><path class="foreground" d="" style="pointer-events: none; display: none; fill: none;"></path></g></g></g><path class="foreground" d="" style="display: none; fill: none;"></path></g><g transform="translate(162,201)"><path class="background" d="M0,0h140v0h-140Z" style="fill: none;"></path><g><g class="mark-group role-axis"><g transform="translate(0.5,0.5)"><path class="background" d="M0,0h0v0h0Z" style="pointer-events: none; fill: none;"></path><g><g class="mark-rule role-axis-domain" style="pointer-events: none;"><line transform="translate(0,0)" x2="140" y2="0" style="fill: none; stroke: #888; stroke-width: 0; opacity: 1;"></line></g></g><path class="foreground" d="" style="pointer-events: none; display: none; fill: none;"></path></g></g><g class="mark-group role-title"><g transform="translate(70,10)"><path class="background" d="M0,0h0v0h0Z" style="pointer-events: none; fill: none;"></path><g><g class="mark-text role-title-text" style="pointer-events: none;"><text text-anchor="middle" transform="translate(0,-2)" style="font-family: sans-serif; font-size: 10px; fill: #000; opacity: 1;">samba</text></g></g><path class="foreground" d="" style="pointer-events: none; display: none; fill: none;"></path></g></g></g><path class="foreground" d="" style="display: none; fill: none;"></path></g><g transform="translate(324,201)"><path class="background" d="M0,0h140v0h-140Z" style="fill: none;"></path><g><g class="mark-group role-axis"><g transform="translate(0.5,0.5)"><path class="background" d="M0,0h0v0h0Z" style="pointer-events: none; fill: none;"></path><g><g class="mark-rule role-axis-domain" style="pointer-events: none;"><line transform="translate(0,0)" x2="140" y2="0" style="fill: none; stroke: #888; stroke-width: 0; opacity: 1;"></line></g></g><path class="foreground" d="" style="pointer-events: none; display: none; fill: none;"></path></g></g><g class="mark-group role-title"><g transform="translate(70,10)"><path class="background" d="M0,0h0v0h0Z" style="pointer-events: none; fill: none;"></path><g><g class="mark-text role-title-text" style="pointer-events: none;"><text text-anchor="middle" transform="translate(0,-2)" style="font-family: sans-serif; font-size: 10px; fill: #000; opacity: 1;">sao</text></g></g><path class="foreground" d="" style="pointer-events: none; display: none; fill: none;"></path></g></g></g><path class="foreground" d="" style="display: none; fill: none;"></path></g><g transform="translate(486,201)"><path class="background" d="M0,0h140v0h-140Z" style="fill: none;"></path><g><g class="mark-group role-axis"><g transform="translate(0.5,0.5)"><path class="background" d="M0,0h0v0h0Z" style="pointer-events: none; fill: none;"></path><g><g class="mark-rule role-axis-domain" style="pointer-events: none;"><line transform="translate(0,0)" x2="140" y2="0" style="fill: none; stroke: #888; stroke-width: 0; opacity: 1;"></line></g></g><path class="foreground" d="" style="pointer-events: none; display: none; fill: none;"></path></g></g><g class="mark-group role-title"><g transform="translate(70,10)"><path class="background" d="M0,0h0v0h0Z" style="pointer-events: none; fill: none;"></path><g><g class="mark-text role-title-text" style="pointer-events: none;"><text text-anchor="middle" transform="translate(0,-2)" style="font-family: sans-serif; font-size: 10px; fill: #000; opacity: 1;">webster</text></g></g><path class="foreground" d="" style="pointer-events: none; display: none; fill: none;"></path></g></g></g><path class="foreground" d="" style="display: none; fill: none;"></path></g><g transform="translate(648,201)"><path class="background" d="M0,0h140v0h-140Z" style="fill: none;"></path><g><g class="mark-group role-axis"><g transform="translate(0.5,0.5)"><path class="background" d="M0,0h0v0h0Z" style="pointer-events: none; fill: none;"></path><g><g class="mark-rule role-axis-domain" style="pointer-events: none;"><line transform="translate(0,0)" x2="140" y2="0" style="fill: none; stroke: #888; stroke-width: 0; opacity: 1;"></line></g></g><path class="foreground" d="" style="pointer-events: none; display: none; fill: none;"></path></g></g><g class="mark-group role-title"><g transform="translate(70,10)"><path class="background" d="M0,0h0v0h0Z" style="pointer-events: none; fill: none;"></path><g><g class="mark-text role-title-text" style="pointer-events: none;"><text text-anchor="middle" transform="translate(0,-2)" style="font-family: sans-serif; font-size: 10px; fill: #000; opacity: 1;">xml</text></g></g><path class="foreground" d="" style="pointer-events: none; display: none; fill: none;"></path></g></g></g><path class="foreground" d="" style="display: none; fill: none;"></path></g><g transform="translate(810,201)"><path class="background" d="M0,0h140v0h-140Z" style="fill: none;"></path><g><g class="mark-group role-axis"><g transform="translate(0.5,0.5)"><path class="background" d="M0,0h0v0h0Z" style="pointer-events: none; fill: none;"></path><g><g class="mark-rule role-axis-domain" style="pointer-events: none;"><line transform="translate(0,0)" x2="140" y2="0" style="fill: none; stroke: #888; stroke-width: 0; opacity: 1;"></line></g></g><path class="foreground" d="" style="pointer-events: none; display: none; fill: none;"></path></g></g><g class="mark-group role-title"><g transform="translate(70,10)"><path class="background" d="M0,0h0v0h0Z" style="pointer-events: none; fill: none;"></path><g><g class="mark-text role-title-text" style="pointer-events: none;"><text text-anchor="middle" transform="translate(0,-2)" style="font-family: sans-serif; font-size: 10px; fill: #000; opacity: 1;">x.ray</text></g></g><path class="foreground" d="" style="pointer-events: none; display: none; fill: none;"></path></g></g></g><path class="foreground" d="" style="display: none; fill: none;"></path></g></g><g class="mark-group role-scope cell"><g transform="translate(0,0)"><path class="background" d="M0.5,0.5h140v200h-140Z" style="fill: none; stroke: none;"></path><g><g class="mark-group role-axis"><g transform="translate(0.5,0.5)"><path class="background" d="M0,0h0v0h0Z" style="pointer-events: none; fill: none;"></path><g><g class="mark-rule role-axis-grid" style="pointer-events: none;"><line transform="translate(0,200)" x2="140" y2="0" style="fill: none; stroke: #ddd; stroke-width: 1; opacity: 1;"></line><line transform="translate(0,167)" x2="140" y2="0" style="fill: none; stroke: #ddd; stroke-width: 1; opacity: 1;"></line><line transform="translate(0,133)" x2="140" y2="0" style="fill: none; stroke: #ddd; stroke-width: 1; opacity: 1;"></line><line transform="translate(0,100)" x2="140" y2="0" style="fill: none; stroke: #ddd; stroke-width: 1; opacity: 1;"></line><line transform="translate(0,67)" x2="140" y2="0" style="fill: none; stroke: #ddd; stroke-width: 1; opacity: 1;"></line><line transform="translate(0,33)" x2="140" y2="0" style="fill: none; stroke: #ddd; stroke-width: 1; opacity: 1;"></line><line transform="translate(0,0)" x2="140" y2="0" style="fill: none; stroke: #ddd; stroke-width: 1; opacity: 1;"></line></g></g><path class="foreground" d="" style="pointer-events: none; display: none; fill: none;"></path></g></g><g class="mark-rect role-mark child_layer_0_marks"><path d="M21,182.95h18v17.05000000000001h-18Z" style="fill: #f58518;"></path><path d="M101,174.47h18v25.53h-18Z" style="fill: #eeca3b;"></path><path d="M81,179.48666666666665h18v20.51333333333335h-18Z" style="fill: #54a24b;"></path><path d="M121,35.88333333333333h18v164.11666666666667h-18Z" style="fill: #b279a2;"></path><path d="M61,176.29333333333332h18v23.706666666666678h-18Z" style="fill: #72b7b2;"></path><path d="M41,176.37666666666667h18v23.623333333333335h-18Z" style="fill: #e45756;"></path><path d="M1,186.76h18v13.240000000000009h-18Z" style="fill: #4c78a8;"></path></g><g class="mark-text role-mark child_layer_1_marks"><text text-anchor="start" transform="translate(30,182.95) rotate(270) translate(5,3)" style="font-family: sans-serif; font-size: 11px; fill: black;">129%</text><text text-anchor="start" transform="translate(110,174.47) rotate(270) translate(5,3)" style="font-family: sans-serif; font-size: 11px; fill: black;">193%</text><text text-anchor="start" transform="translate(90,179.48666666666665) rotate(270) translate(5,3)" style="font-family: sans-serif; font-size: 11px; fill: black;">155%</text><text text-anchor="start" transform="translate(130,35.88333333333333) rotate(270) translate(5,3)" style="font-family: sans-serif; font-size: 11px; fill: black;">1240%</text><text text-anchor="start" transform="translate(70,176.29333333333332) rotate(270) translate(5,3)" style="font-family: sans-serif; font-size: 11px; fill: black;">179%</text><text text-anchor="start" transform="translate(50,176.37666666666667) rotate(270) translate(5,3)" style="font-family: sans-serif; font-size: 11px; fill: black;">178%</text><text text-anchor="start" transform="translate(10,186.76) rotate(270) translate(5,3)" style="font-family: sans-serif; font-size: 11px; fill: black;">100%</text></g></g><path class="foreground" d="" style="display: none; fill: none;"></path></g><g transform="translate(162,0)"><path class="background" d="M0.5,0.5h140v200h-140Z" style="fill: none; stroke: none;"></path><g><g class="mark-group role-axis"><g transform="translate(0.5,0.5)"><path class="background" d="M0,0h0v0h0Z" style="pointer-events: none; fill: none;"></path><g><g class="mark-rule role-axis-grid" style="pointer-events: none;"><line transform="translate(0,200)" x2="140" y2="0" style="fill: none; stroke: #ddd; stroke-width: 1; opacity: 1;"></line><line transform="translate(0,167)" x2="140" y2="0" style="fill: none; stroke: #ddd; stroke-width: 1; opacity: 1;"></line><line transform="translate(0,133)" x2="140" y2="0" style="fill: none; stroke: #ddd; stroke-width: 1; opacity: 1;"></line><line transform="translate(0,100)" x2="140" y2="0" style="fill: none; stroke: #ddd; stroke-width: 1; opacity: 1;"></line><line transform="translate(0,67)" x2="140" y2="0" style="fill: none; stroke: #ddd; stroke-width: 1; opacity: 1;"></line><line transform="translate(0,33)" x2="140" y2="0" style="fill: none; stroke: #ddd; stroke-width: 1; opacity: 1;"></line><line transform="translate(0,0)" x2="140" y2="0" style="fill: none; stroke: #ddd; stroke-width: 1; opacity: 1;"></line></g></g><path class="foreground" d="" style="pointer-events: none; display: none; fill: none;"></path></g></g><g class="mark-rect role-mark child_layer_0_marks"><path d="M21,163.14666666666668h18v36.853333333333325h-18Z" style="fill: #f58518;"></path><path d="M101,143.65h18v56.349999999999994h-18Z" style="fill: #eeca3b;"></path><path d="M81,149.94h18v50.06h-18Z" style="fill: #54a24b;"></path><path d="M121,11.78666666666668h18v188.2133333333333h-18Z" style="fill: #b279a2;"></path><path d="M61,153.97333333333333h18v46.02666666666667h-18Z" style="fill: #72b7b2;"></path><path d="M41,156.78333333333333h18v43.21666666666667h-18Z" style="fill: #e45756;"></path><path d="M1,168.79h18v31.210000000000008h-18Z" style="fill: #4c78a8;"></path></g><g class="mark-text role-mark child_layer_1_marks"><text text-anchor="start" transform="translate(30,163.14666666666668) rotate(270) translate(5,3)" style="font-family: sans-serif; font-size: 11px; fill: black;">118%</text><text text-anchor="start" transform="translate(110,143.65) rotate(270) translate(5,3)" style="font-family: sans-serif; font-size: 11px; fill: black;">181%</text><text text-anchor="start" transform="translate(90,149.94) rotate(270) translate(5,3)" style="font-family: sans-serif; font-size: 11px; fill: black;">160%</text><text text-anchor="start" transform="translate(130,11.78666666666668) rotate(270) translate(5,3)" style="font-family: sans-serif; font-size: 11px; fill: black;">603%</text><text text-anchor="start" transform="translate(70,153.97333333333333) rotate(270) translate(5,3)" style="font-family: sans-serif; font-size: 11px; fill: black;">147%</text><text text-anchor="start" transform="translate(50,156.78333333333333) rotate(270) translate(5,3)" style="font-family: sans-serif; font-size: 11px; fill: black;">138%</text><text text-anchor="start" transform="translate(10,168.79) rotate(270) translate(5,3)" style="font-family: sans-serif; font-size: 11px; fill: black;">100%</text></g></g><path class="foreground" d="" style="display: none; fill: none;"></path></g><g transform="translate(324,0)"><path class="background" d="M0.5,0.5h140v200h-140Z" style="fill: none; stroke: none;"></path><g><g class="mark-group role-axis"><g transform="translate(0.5,0.5)"><path class="background" d="M0,0h0v0h0Z" style="pointer-events: none; fill: none;"></path><g><g class="mark-rule role-axis-grid" style="pointer-events: none;"><line transform="translate(0,200)" x2="140" y2="0" style="fill: none; stroke: #ddd; stroke-width: 1; opacity: 1;"></line><line transform="translate(0,167)" x2="140" y2="0" style="fill: none; stroke: #ddd; stroke-width: 1; opacity: 1;"></line><line transform="translate(0,133)" x2="140" y2="0" style="fill: none; stroke: #ddd; stroke-width: 1; opacity: 1;"></line><line transform="translate(0,100)" x2="140" y2="0" style="fill: none; stroke: #ddd; stroke-width: 1; opacity: 1;"></line><line transform="translate(0,67)" x2="140" y2="0" style="fill: none; stroke: #ddd; stroke-width: 1; opacity: 1;"></line><line transform="translate(0,33)" x2="140" y2="0" style="fill: none; stroke: #ddd; stroke-width: 1; opacity: 1;"></line><line transform="translate(0,0)" x2="140" y2="0" style="fill: none; stroke: #ddd; stroke-width: 1; opacity: 1;"></line></g></g><path class="foreground" d="" style="pointer-events: none; display: none; fill: none;"></path></g></g><g class="mark-rect role-mark child_layer_0_marks"><path d="M21,183.73333333333332h18v16.26666666666668h-18Z" style="fill: #f58518;"></path><path d="M101,171.52h18v28.47999999999999h-18Z" style="fill: #eeca3b;"></path><path d="M81,175.19333333333333h18v24.806666666666672h-18Z" style="fill: #54a24b;"></path><path d="M121,31.696666666666683h18v168.3033333333333h-18Z" style="fill: #b279a2;"></path><path d="M61,177.06666666666666h18v22.933333333333337h-18Z" style="fill: #72b7b2;"></path><path d="M41,178.85h18v21.150000000000006h-18Z" style="fill: #e45756;"></path><path d="M1,187.06666666666666h18v12.933333333333337h-18Z" style="fill: #4c78a8;"></path></g><g class="mark-text role-mark child_layer_1_marks"><text text-anchor="start" transform="translate(30,183.73333333333332) rotate(270) translate(5,3)" style="font-family: sans-serif; font-size: 11px; fill: black;">126%</text><text text-anchor="start" transform="translate(110,171.52) rotate(270) translate(5,3)" style="font-family: sans-serif; font-size: 11px; fill: black;">220%</text><text text-anchor="start" transform="translate(90,175.19333333333333) rotate(270) translate(5,3)" style="font-family: sans-serif; font-size: 11px; fill: black;">192%</text><text text-anchor="start" transform="translate(130,31.696666666666683) rotate(270) translate(5,3)" style="font-family: sans-serif; font-size: 11px; fill: black;">1301%</text><text text-anchor="start" transform="translate(70,177.06666666666666) rotate(270) translate(5,3)" style="font-family: sans-serif; font-size: 11px; fill: black;">177%</text><text text-anchor="start" transform="translate(50,178.85) rotate(270) translate(5,3)" style="font-family: sans-serif; font-size: 11px; fill: black;">164%</text><text text-anchor="start" transform="translate(10,187.06666666666666) rotate(270) translate(5,3)" style="font-family: sans-serif; font-size: 11px; fill: black;">100%</text></g></g><path class="foreground" d="" style="display: none; fill: none;"></path></g><g transform="translate(486,0)"><path class="background" d="M0.5,0.5h140v200h-140Z" style="fill: none; stroke: none;"></path><g><g class="mark-group role-axis"><g transform="translate(0.5,0.5)"><path class="background" d="M0,0h0v0h0Z" style="pointer-events: none; fill: none;"></path><g><g class="mark-rule role-axis-grid" style="pointer-events: none;"><line transform="translate(0,200)" x2="140" y2="0" style="fill: none; stroke: #ddd; stroke-width: 1; opacity: 1;"></line><line transform="translate(0,167)" x2="140" y2="0" style="fill: none; stroke: #ddd; stroke-width: 1; opacity: 1;"></line><line transform="translate(0,133)" x2="140" y2="0" style="fill: none; stroke: #ddd; stroke-width: 1; opacity: 1;"></line><line transform="translate(0,100)" x2="140" y2="0" style="fill: none; stroke: #ddd; stroke-width: 1; opacity: 1;"></line><line transform="translate(0,67)" x2="140" y2="0" style="fill: none; stroke: #ddd; stroke-width: 1; opacity: 1;"></line><line transform="translate(0,33)" x2="140" y2="0" style="fill: none; stroke: #ddd; stroke-width: 1; opacity: 1;"></line><line transform="translate(0,0)" x2="140" y2="0" style="fill: none; stroke: #ddd; stroke-width: 1; opacity: 1;"></line></g></g><path class="foreground" d="" style="pointer-events: none; display: none; fill: none;"></path></g></g><g class="mark-rect role-mark child_layer_0_marks"><path d="M21,177.24333333333334h18v22.75666666666666h-18Z" style="fill: #f58518;"></path><path d="M101,161.88333333333333h18v38.116666666666674h-18Z" style="fill: #eeca3b;"></path><path d="M81,167.91333333333333h18v32.08666666666667h-18Z" style="fill: #54a24b;"></path><path d="M121,40.63333333333334h18v159.36666666666667h-18Z" style="fill: #b279a2;"></path><path d="M61,167.31666666666666h18v32.68333333333334h-18Z" style="fill: #72b7b2;"></path><path d="M41,169.03h18v30.97h-18Z" style="fill: #e45756;"></path><path d="M1,178.6h18v21.400000000000006h-18Z" style="fill: #4c78a8;"></path></g><g class="mark-text role-mark child_layer_1_marks"><text text-anchor="start" transform="translate(30,177.24333333333334) rotate(270) translate(5,3)" style="font-family: sans-serif; font-size: 11px; fill: black;">106%</text><text text-anchor="start" transform="translate(110,161.88333333333333) rotate(270) translate(5,3)" style="font-family: sans-serif; font-size: 11px; fill: black;">178%</text><text text-anchor="start" transform="translate(90,167.91333333333333) rotate(270) translate(5,3)" style="font-family: sans-serif; font-size: 11px; fill: black;">150%</text><text text-anchor="start" transform="translate(130,40.63333333333334) rotate(270) translate(5,3)" style="font-family: sans-serif; font-size: 11px; fill: black;">745%</text><text text-anchor="start" transform="translate(70,167.31666666666666) rotate(270) translate(5,3)" style="font-family: sans-serif; font-size: 11px; fill: black;">153%</text><text text-anchor="start" transform="translate(50,169.03) rotate(270) translate(5,3)" style="font-family: sans-serif; font-size: 11px; fill: black;">145%</text><text text-anchor="start" transform="translate(10,178.6) rotate(270) translate(5,3)" style="font-family: sans-serif; font-size: 11px; fill: black;">100%</text></g></g><path class="foreground" d="" style="display: none; fill: none;"></path></g><g transform="translate(648,0)"><path class="background" d="M0.5,0.5h140v200h-140Z" style="fill: none; stroke: none;"></path><g><g class="mark-group role-axis"><g transform="translate(0.5,0.5)"><path class="background" d="M0,0h0v0h0Z" style="pointer-events: none; fill: none;"></path><g><g class="mark-rule role-axis-grid" style="pointer-events: none;"><line transform="translate(0,200)" x2="140" y2="0" style="fill: none; stroke: #ddd; stroke-width: 1; opacity: 1;"></line><line transform="translate(0,167)" x2="140" y2="0" style="fill: none; stroke: #ddd; stroke-width: 1; opacity: 1;"></line><line transform="translate(0,133)" x2="140" y2="0" style="fill: none; stroke: #ddd; stroke-width: 1; opacity: 1;"></line><line transform="translate(0,100)" x2="140" y2="0" style="fill: none; stroke: #ddd; stroke-width: 1; opacity: 1;"></line><line transform="translate(0,67)" x2="140" y2="0" style="fill: none; stroke: #ddd; stroke-width: 1; opacity: 1;"></line><line transform="translate(0,33)" x2="140" y2="0" style="fill: none; stroke: #ddd; stroke-width: 1; opacity: 1;"></line><line transform="translate(0,0)" x2="140" y2="0" style="fill: none; stroke: #ddd; stroke-width: 1; opacity: 1;"></line></g></g><path class="foreground" d="" style="pointer-events: none; display: none; fill: none;"></path></g></g><g class="mark-rect role-mark child_layer_0_marks"><path d="M21,146.24333333333334h18v53.75666666666666h-18Z" style="fill: #f58518;"></path><path d="M101,112.99h18v87.01h-18Z" style="fill: #eeca3b;"></path><path d="M81,126.07666666666665h18v73.92333333333335h-18Z" style="fill: #54a24b;"></path><path d="M121,13.05000000000003h18v186.94999999999996h-18Z" style="fill: #b279a2;"></path><path d="M61,138.93666666666667h18v61.06333333333333h-18Z" style="fill: #72b7b2;"></path><path d="M41,136.95666666666665h18v63.04333333333335h-18Z" style="fill: #e45756;"></path><path d="M1,156.48h18v43.52000000000001h-18Z" style="fill: #4c78a8;"></path></g><g class="mark-text role-mark child_layer_1_marks"><text text-anchor="start" transform="translate(30,146.24333333333334) rotate(270) translate(5,3)" style="font-family: sans-serif; font-size: 11px; fill: black;">124%</text><text text-anchor="start" transform="translate(110,112.99) rotate(270) translate(5,3)" style="font-family: sans-serif; font-size: 11px; fill: black;">200%</text><text text-anchor="start" transform="translate(90,126.07666666666665) rotate(270) translate(5,3)" style="font-family: sans-serif; font-size: 11px; fill: black;">170%</text><text text-anchor="start" transform="translate(130,13.05000000000003) rotate(270) translate(5,3)" style="font-family: sans-serif; font-size: 11px; fill: black;">430%</text><text text-anchor="start" transform="translate(70,138.93666666666667) rotate(270) translate(5,3)" style="font-family: sans-serif; font-size: 11px; fill: black;">140%</text><text text-anchor="start" transform="translate(50,136.95666666666665) rotate(270) translate(5,3)" style="font-family: sans-serif; font-size: 11px; fill: black;">145%</text><text text-anchor="start" transform="translate(10,156.48) rotate(270) translate(5,3)" style="font-family: sans-serif; font-size: 11px; fill: black;">100%</text></g></g><path class="foreground" d="" style="display: none; fill: none;"></path></g><g transform="translate(810,0)"><path class="background" d="M0.5,0.5h140v200h-140Z" style="fill: none; stroke: none;"></path><g><g class="mark-group role-axis"><g transform="translate(0.5,0.5)"><path class="background" d="M0,0h0v0h0Z" style="pointer-events: none; fill: none;"></path><g><g class="mark-rule role-axis-grid" style="pointer-events: none;"><line transform="translate(0,200)" x2="140" y2="0" style="fill: none; stroke: #ddd; stroke-width: 1; opacity: 1;"></line><line transform="translate(0,167)" x2="140" y2="0" style="fill: none; stroke: #ddd; stroke-width: 1; opacity: 1;"></line><line transform="translate(0,133)" x2="140" y2="0" style="fill: none; stroke: #ddd; stroke-width: 1; opacity: 1;"></line><line transform="translate(0,100)" x2="140" y2="0" style="fill: none; stroke: #ddd; stroke-width: 1; opacity: 1;"></line><line transform="translate(0,67)" x2="140" y2="0" style="fill: none; stroke: #ddd; stroke-width: 1; opacity: 1;"></line><line transform="translate(0,33)" x2="140" y2="0" style="fill: none; stroke: #ddd; stroke-width: 1; opacity: 1;"></line><line transform="translate(0,0)" x2="140" y2="0" style="fill: none; stroke: #ddd; stroke-width: 1; opacity: 1;"></line></g></g><path class="foreground" d="" style="pointer-events: none; display: none; fill: none;"></path></g></g><g class="mark-rect role-mark child_layer_0_marks"><path d="M21,176.15666666666667h18v23.843333333333334h-18Z" style="fill: #f58518;"></path><path d="M101,163.05h18v36.94999999999999h-18Z" style="fill: #eeca3b;"></path><path d="M81,164.97000000000003h18v35.02999999999997h-18Z" style="fill: #54a24b;"></path><path d="M121,34.94999999999999h18v165.05h-18Z" style="fill: #b279a2;"></path><path d="M61,169.72h18v30.28h-18Z" style="fill: #72b7b2;"></path><path d="M41,172.13666666666668h18v27.863333333333316h-18Z" style="fill: #e45756;"></path><path d="M1,180.83333333333334h18v19.166666666666657h-18Z" style="fill: #4c78a8;"></path></g><g class="mark-text role-mark child_layer_1_marks"><text text-anchor="start" transform="translate(30,176.15666666666667) rotate(270) translate(5,3)" style="font-family: sans-serif; font-size: 11px; fill: black;">124%</text><text text-anchor="start" transform="translate(110,163.05) rotate(270) translate(5,3)" style="font-family: sans-serif; font-size: 11px; fill: black;">193%</text><text text-anchor="start" transform="translate(90,164.97000000000003) rotate(270) translate(5,3)" style="font-family: sans-serif; font-size: 11px; fill: black;">183%</text><text text-anchor="start" transform="translate(130,34.94999999999999) rotate(270) translate(5,3)" style="font-family: sans-serif; font-size: 11px; fill: black;">861%</text><text text-anchor="start" transform="translate(70,169.72) rotate(270) translate(5,3)" style="font-family: sans-serif; font-size: 11px; fill: black;">158%</text><text text-anchor="start" transform="translate(50,172.13666666666668) rotate(270) translate(5,3)" style="font-family: sans-serif; font-size: 11px; fill: black;">145%</text><text text-anchor="start" transform="translate(10,180.83333333333334) rotate(270) translate(5,3)" style="font-family: sans-serif; font-size: 11px; fill: black;">100%</text></g></g><path class="foreground" d="" style="display: none; fill: none;"></path></g></g><g class="mark-group role-title"><g transform="translate(497.5,-58.21333333333331)"><path class="background" d="M0,0h0v0h0Z" style="pointer-events: none; fill: none;"></path><g><g class="mark-text role-title-text" style="pointer-events: none;"><text text-anchor="middle" transform="translate(0,10)" style="font-family: sans-serif; font-size: 13px; font-weight: bold; fill: #000; opacity: 1;">Deflater throughput for Silesia corpus (part2) at compression level 6 on i7-8650U / 1900MHz</text></g></g><path class="foreground" d="" style="pointer-events: none; display: none; fill: none;"></path></g></g><g class="mark-group role-legend"><g transform="translate(969,0)"><path class="background" d="M0,0h67v89h-67Z" style="pointer-events: none; fill: none;"></path><g><g class="mark-group role-legend-entry"><g transform="translate(0,0)"><path class="background" d="M0,0h0v0h0Z" style="pointer-events: none; fill: none;"></path><g><g class="mark-group role-scope"><g transform="translate(0,0)"><path class="background" d="M0,0h67v11h-67Z" style="pointer-events: none; fill: none; opacity: 1;"></path><g><g class="mark-symbol role-legend-symbol" style="pointer-events: none;"><path transform="translate(6,6)" d="M-5,-5h10v10h-10Z" style="fill: #4c78a8; stroke-width: 1.5; opacity: 1;"></path></g><g class="mark-text role-legend-label" style="pointer-events: none;"><text text-anchor="start" transform="translate(16,9)" style="font-family: sans-serif; font-size: 10px; fill: #000; opacity: 1;">zlib</text></g></g><path class="foreground" d="" style="pointer-events: none; display: none; fill: none;"></path></g><g transform="translate(0,13)"><path class="background" d="M0,0h67v11h-67Z" style="pointer-events: none; fill: none; opacity: 1;"></path><g><g class="mark-symbol role-legend-symbol" style="pointer-events: none;"><path transform="translate(6,6)" d="M-5,-5h10v10h-10Z" style="fill: #f58518; stroke-width: 1.5; opacity: 1;"></path></g><g class="mark-text role-legend-label" style="pointer-events: none;"><text text-anchor="start" transform="translate(16,9)" style="font-family: sans-serif; font-size: 10px; fill: #000; opacity: 1;">chromium</text></g></g><path class="foreground" d="" style="pointer-events: none; display: none; fill: none;"></path></g><g transform="translate(0,26)"><path class="background" d="M0,0h67v11h-67Z" style="pointer-events: none; fill: none; opacity: 1;"></path><g><g class="mark-symbol role-legend-symbol" style="pointer-events: none;"><path transform="translate(6,6)" d="M-5,-5h10v10h-10Z" style="fill: #e45756; stroke-width: 1.5; opacity: 1;"></path></g><g class="mark-text role-legend-label" style="pointer-events: none;"><text text-anchor="start" transform="translate(16,9)" style="font-family: sans-serif; font-size: 10px; fill: #000; opacity: 1;">ng</text></g></g><path class="foreground" d="" style="pointer-events: none; display: none; fill: none;"></path></g><g transform="translate(0,39)"><path class="background" d="M0,0h67v11h-67Z" style="pointer-events: none; fill: none; opacity: 1;"></path><g><g class="mark-symbol role-legend-symbol" style="pointer-events: none;"><path transform="translate(6,6)" d="M-5,-5h10v10h-10Z" style="fill: #72b7b2; stroke-width: 1.5; opacity: 1;"></path></g><g class="mark-text role-legend-label" style="pointer-events: none;"><text text-anchor="start" transform="translate(16,9)" style="font-family: sans-serif; font-size: 10px; fill: #000; opacity: 1;">jtkukunas</text></g></g><path class="foreground" d="" style="pointer-events: none; display: none; fill: none;"></path></g><g transform="translate(0,52)"><path class="background" d="M0,0h67v11h-67Z" style="pointer-events: none; fill: none; opacity: 1;"></path><g><g class="mark-symbol role-legend-symbol" style="pointer-events: none;"><path transform="translate(6,6)" d="M-5,-5h10v10h-10Z" style="fill: #54a24b; stroke-width: 1.5; opacity: 1;"></path></g><g class="mark-text role-legend-label" style="pointer-events: none;"><text text-anchor="start" transform="translate(16,9)" style="font-family: sans-serif; font-size: 10px; fill: #000; opacity: 1;">ipp</text></g></g><path class="foreground" d="" style="pointer-events: none; display: none; fill: none;"></path></g><g transform="translate(0,65)"><path class="background" d="M0,0h67v11h-67Z" style="pointer-events: none; fill: none; opacity: 1;"></path><g><g class="mark-symbol role-legend-symbol" style="pointer-events: none;"><path transform="translate(6,6)" d="M-5,-5h10v10h-10Z" style="fill: #eeca3b; stroke-width: 1.5; opacity: 1;"></path></g><g class="mark-text role-legend-label" style="pointer-events: none;"><text text-anchor="start" transform="translate(16,9)" style="font-family: sans-serif; font-size: 10px; fill: #000; opacity: 1;">cloudflare</text></g></g><path class="foreground" d="" style="pointer-events: none; display: none; fill: none;"></path></g><g transform="translate(0,78)"><path class="background" d="M0,0h67v11h-67Z" style="pointer-events: none; fill: none; opacity: 1;"></path><g><g class="mark-symbol role-legend-symbol" style="pointer-events: none;"><path transform="translate(6,6)" d="M-5,-5h10v10h-10Z" style="fill: #b279a2; stroke-width: 1.5; opacity: 1;"></path></g><g class="mark-text role-legend-label" style="pointer-events: none;"><text text-anchor="start" transform="translate(16,9)" style="font-family: sans-serif; font-size: 10px; fill: #000; opacity: 1;">isal</text></g></g><path class="foreground" d="" style="pointer-events: none; display: none; fill: none;"></path></g></g></g><path class="foreground" d="" style="pointer-events: none; display: none; fill: none;"></path></g></g></g><path class="foreground" d="" style="pointer-events: none; display: none; fill: none;"></path></g></g></g><path class="foreground" d="" style="display: none; fill: none;"></path></g></g></g></svg>