<svg class="marks" width="2174" height="566" viewBox="0 0 1087 283" version="1.1" xmlns="http://www.w3.org/2000/svg" xmlns:xlink="http://www.w3.org/1999/xlink"><rect width="1087" height="283" style="fill: white;"></rect><g transform="translate(46,67)"><g class="mark-group role-frame root"><g transform="translate(0,0)"><path class="background" d="M0,0h0v0h0Z" style="fill: none;"></path><g><g class="mark-group role-row-header row_header"><g transform="translate(-1,0)"><path class="background" d="M0,0h0v200h0Z" style="fill: none;"></path><g><g class="mark-group role-axis"><g transform="translate(0.5,0.5)"><path class="background" d="M0,0h0v0h0Z" style="pointer-events: none; fill: none;"></path><g><g class="mark-rule role-axis-tick" style="pointer-events: none;"><line transform="translate(0,200)" x2="-5" y2="0" style="fill: none; stroke: #888; stroke-width: 1; opacity: 1;"></line><line transform="translate(0,171)" x2="-5" y2="0" style="fill: none; stroke: #888; stroke-width: 1; opacity: 1;"></line><line transform="translate(0,143)" x2="-5" y2="0" style="fill: none; stroke: #888; stroke-width: 1; opacity: 1;"></line><line transform="translate(0,114)" x2="-5" y2="0" style="fill: none; stroke: #888; stroke-width: 1; opacity: 1;"></line><line transform="translate(0,86)" x2="-5" y2="0" style="fill: none; stroke: #888; stroke-width: 1; opacity: 1;"></line><line transform="translate(0,57)" x2="-5" y2="0" style="fill: none; stroke: #888; stroke-width: 1; opacity: 1;"></line><line transform="translate(0,29)" x2="-5" y2="0" style="fill: none; stroke: #888; stroke-width: 1; opacity: 1;"></line><line transform="translate(0,0)" x2="-5" y2="0" style="fill: none; stroke: #888; stroke-width: 1; opacity: 1;"></line></g><g class="mark-text role-axis-label" style="pointer-events: none;"><text text-anchor="end" transform="translate(-7,203)" style="font-family: sans-serif; font-size: 10px; fill: #000; opacity: 1;">0</text><text text-anchor="end" transform="translate(-7,174.42857142857144)" style="font-family: sans-serif; font-size: 10px; fill: #000; opacity: 1;">20</text><text text-anchor="end" transform="translate(-7,145.85714285714286)" style="font-family: sans-serif; font-size: 10px; fill: #000; opacity: 1;">40</text><text text-anchor="end" transform="translate(-7,117.28571428571428)" style="font-family: sans-serif; font-size: 10px; fill: #000; opacity: 1;">60</text><text text-anchor="end" transform="translate(-7,88.71428571428572)" style="font-family: sans-serif; font-size: 10px; fill: #000; opacity: 1;">80</text><text text-anchor="end" transform="translate(-7,60.14285714285714)" style="font-family: sans-serif; font-size: 10px; fill: #000; opacity: 1;">100</text><text text-anchor="end" transform="translate(-7,31.57142857142858)" style="font-family: sans-serif; font-size: 10px; fill: #000; opacity: 1;">120</text><text text-anchor="end" transform="translate(-7,3)" style="font-family: sans-serif; font-size: 10px; fill: #000; opacity: 1;">140</text></g><g class="mark-rule role-axis-domain" style="pointer-events: none;"><line transform="translate(0,200)" x2="0" y2="-200" style="fill: none; stroke: #888; stroke-width: 1; opacity: 1;"></line></g><g class="mark-text role-axis-title" style="pointer-events: none;"><text text-anchor="middle" transform="translate(-29,100) rotate(-90) translate(0,-2)" style="font-family: sans-serif; font-size: 11px; font-weight: bold; fill: #000; opacity: 1;">Throughput (kb/ms)</text></g></g><path class="foreground" d="" style="pointer-events: none; display: none; fill: none;"></path></g></g></g><path class="foreground" d="" style="display: none; fill: none;"></path></g></g><g class="mark-group role-column-footer column_footer"><g transform="translate(0,201)"><path class="background" d="M0,0h140v0h-140Z" style="fill: none;"></path><g><g class="mark-group role-axis"><g transform="translate(0.5,0.5)"><path class="background" d="M0,0h0v0h0Z" style="pointer-events: none; fill: none;"></path><g><g class="mark-rule role-axis-domain" style="pointer-events: none;"><line transform="translate(0,0)" x2="140" y2="0" style="fill: none; stroke: #888; stroke-width: 0; opacity: 1;"></line></g></g><path class="foreground" d="" style="pointer-events: none; display: none; fill: none;"></path></g></g><g class="mark-group role-title"><g transform="translate(70,10)"><path class="background" d="M0,0h0v0h0Z" style="pointer-events: none; fill: none;"></path><g><g class="mark-text role-title-text" style="pointer-events: none;"><text text-anchor="middle" transform="translate(0,-2)" style="font-family: sans-serif; font-size: 10px; fill: #000; opacity: 1;">dickens</text></g></g><path class="foreground" d="" style="pointer-events: none; display: none; fill: none;"></path></g></g></g><path class="foreground" d="" style="display: none; fill: none;"></path></g><g transform="translate(162,201)"><path class="background" d="M0,0h140v0h-140Z" style="fill: none;"></path><g><g class="mark-group role-axis"><g transform="translate(0.5,0.5)"><path class="background" d="M0,0h0v0h0Z" style="pointer-events: none; fill: none;"></path><g><g class="mark-rule role-axis-domain" style="pointer-events: none;"><line transform="translate(0,0)" x2="140" y2="0" style="fill: none; stroke: #888; stroke-width: 0; opacity: 1;"></line></g></g><path class="foreground" d="" style="pointer-events: none; display: none; fill: none;"></path></g></g><g class="mark-group role-title"><g transform="translate(70,10)"><path class="background" d="M0,0h0v0h0Z" style="pointer-events: none; fill: none;"></path><g><g class="mark-text role-title-text" style="pointer-events: none;"><text text-anchor="middle" transform="translate(0,-2)" style="font-family: sans-serif; font-size: 10px; fill: #000; opacity: 1;">mozilla</text></g></g><path class="foreground" d="" style="pointer-events: none; display: none; fill: none;"></path></g></g></g><path class="foreground" d="" style="display: none; fill: none;"></path></g><g transform="translate(324,201)"><path class="background" d="M0,0h140v0h-140Z" style="fill: none;"></path><g><g class="mark-group role-axis"><g transform="translate(0.5,0.5)"><path class="background" d="M0,0h0v0h0Z" style="pointer-events: none; fill: none;"></path><g><g class="mark-rule role-axis-domain" style="pointer-events: none;"><line transform="translate(0,0)" x2="140" y2="0" style="fill: none; stroke: #888; stroke-width: 0; opacity: 1;"></line></g></g><path class="foreground" d="" style="pointer-events: none; display: none; fill: none;"></path></g></g><g class="mark-group role-title"><g transform="translate(70,10)"><path class="background" d="M0,0h0v0h0Z" style="pointer-events: none; fill: none;"></path><g><g class="mark-text role-title-text" style="pointer-events: none;"><text text-anchor="middle" transform="translate(0,-2)" style="font-family: sans-serif; font-size: 10px; fill: #000; opacity: 1;">mr</text></g></g><path class="foreground" d="" style="pointer-events: none; display: none; fill: none;"></path></g></g></g><path class="foreground" d="" style="display: none; fill: none;"></path></g><g transform="translate(486,201)"><path class="background" d="M0,0h140v0h-140Z" style="fill: none;"></path><g><g class="mark-group role-axis"><g transform="translate(0.5,0.5)"><path class="background" d="M0,0h0v0h0Z" style="pointer-events: none; fill: none;"></path><g><g class="mark-rule role-axis-domain" style="pointer-events: none;"><line transform="translate(0,0)" x2="140" y2="0" style="fill: none; stroke: #888; stroke-width: 0; opacity: 1;"></line></g></g><path class="foreground" d="" style="pointer-events: none; display: none; fill: none;"></path></g></g><g class="mark-group role-title"><g transform="translate(70,10)"><path class="background" d="M0,0h0v0h0Z" style="pointer-events: none; fill: none;"></path><g><g class="mark-text role-title-text" style="pointer-events: none;"><text text-anchor="middle" transform="translate(0,-2)" style="font-family: sans-serif; font-size: 10px; fill: #000; opacity: 1;">nci</text></g></g><path class="foreground" d="" style="pointer-events: none; display: none; fill: none;"></path></g></g></g><path class="foreground" d="" style="display: none; fill: none;"></path></g><g transform="translate(648,201)"><path class="background" d="M0,0h140v0h-140Z" style="fill: none;"></path><g><g class="mark-group role-axis"><g transform="translate(0.5,0.5)"><path class="background" d="M0,0h0v0h0Z" style="pointer-events: none; fill: none;"></path><g><g class="mark-rule role-axis-domain" style="pointer-events: none;"><line transform="translate(0,0)" x2="140" y2="0" style="fill: none; stroke: #888; stroke-width: 0; opacity: 1;"></line></g></g><path class="foreground" d="" style="pointer-events: none; display: none; fill: none;"></path></g></g><g class="mark-group role-title"><g transform="translate(70,10)"><path class="background" d="M0,0h0v0h0Z" style="pointer-events: none; fill: none;"></path><g><g class="mark-text role-title-text" style="pointer-events: none;"><text text-anchor="middle" transform="translate(0,-2)" style="font-family: sans-serif; font-size: 10px; fill: #000; opacity: 1;">ooffice</text></g></g><path class="foreground" d="" style="pointer-events: none; display: none; fill: none;"></path></g></g></g><path class="foreground" d="" style="display: none; fill: none;"></path></g><g transform="translate(810,201)"><path class="background" d="M0,0h140v0h-140Z" style="fill: none;"></path><g><g class="mark-group role-axis"><g transform="translate(0.5,0.5)"><path class="background" d="M0,0h0v0h0Z" style="pointer-events: none; fill: none;"></path><g><g class="mark-rule role-axis-domain" style="pointer-events: none;"><line transform="translate(0,0)" x2="140" y2="0" style="fill: none; stroke: #888; stroke-width: 0; opacity: 1;"></line></g></g><path class="foreground" d="" style="pointer-events: none; display: none; fill: none;"></path></g></g><g class="mark-group role-title"><g transform="translate(70,10)"><path class="background" d="M0,0h0v0h0Z" style="pointer-events: none; fill: none;"></path><g><g class="mark-text role-title-text" style="pointer-events: none;"><text text-anchor="middle" transform="translate(0,-2)" style="font-family: sans-serif; font-size: 10px; fill: #000; opacity: 1;">osdb</text></g></g><path class="foreground" d="" style="pointer-events: none; display: none; fill: none;"></path></g></g></g><path class="foreground" d="" style="display: none; fill: none;"></path></g></g><g class="mark-group role-scope cell"><g transform="translate(0,0)"><path class="background" d="M0.5,0.5h140v200h-140Z" style="fill: none; stroke: none;"></path><g><g class="mark-group role-axis"><g transform="translate(0.5,0.5)"><path class="background" d="M0,0h0v0h0Z" style="pointer-events: none; fill: none;"></path><g><g class="mark-rule role-axis-grid" style="pointer-events: none;"><line transform="translate(0,200)" x2="140" y2="0" style="fill: none; stroke: #ddd; stroke-width: 1; opacity: 1;"></line><line transform="translate(0,171)" x2="140" y2="0" style="fill: none; stroke: #ddd; stroke-width: 1; opacity: 1;"></line><line transform="translate(0,143)" x2="140" y2="0" style="fill: none; stroke: #ddd; stroke-width: 1; opacity: 1;"></line><line transform="translate(0,114)" x2="140" y2="0" style="fill: none; stroke: #ddd; stroke-width: 1; opacity: 1;"></line><line transform="translate(0,86)" x2="140" y2="0" style="fill: none; stroke: #ddd; stroke-width: 1; opacity: 1;"></line><line transform="translate(0,57)" x2="140" y2="0" style="fill: none; stroke: #ddd; stroke-width: 1; opacity: 1;"></line><line transform="translate(0,29)" x2="140" y2="0" style="fill: none; stroke: #ddd; stroke-width: 1; opacity: 1;"></line><line transform="translate(0,0)" x2="140" y2="0" style="fill: none; stroke: #ddd; stroke-width: 1; opacity: 1;"></line></g></g><path class="foreground" d="" style="pointer-events: none; display: none; fill: none;"></path></g></g><g class="mark-rect role-mark child_layer_0_marks"><path d="M21,186.75428571428571h18v13.245714285714286h-18Z" style="fill: #f58518;"></path><path d="M101,175.44h18v24.560000000000002h-18Z" style="fill: #eeca3b;"></path><path d="M81,179.6942857142857h18v20.305714285714288h-18Z" style="fill: #54a24b;"></path><path d="M121,58.682857142857124h18v141.31714285714287h-18Z" style="fill: #b279a2;"></path><path d="M61,179.90285714285713h18v20.09714285714287h-18Z" style="fill: #72b7b2;"></path><path d="M41,180.29999999999998h18v19.700000000000017h-18Z" style="fill: #e45756;"></path><path d="M1,188.78857142857143h18v11.21142857142857h-18Z" style="fill: #4c78a8;"></path></g><g class="mark-text role-mark child_layer_1_marks"><text text-anchor="start" transform="translate(30,186.75428571428571) rotate(270) translate(5,3)" style="font-family: sans-serif; font-size: 11px; fill: black;">118%</text><text text-anchor="start" transform="translate(110,175.44) rotate(270) translate(5,3)" style="font-family: sans-serif; font-size: 11px; fill: black;">219%</text><text text-anchor="start" transform="translate(90,179.6942857142857) rotate(270) translate(5,3)" style="font-family: sans-serif; font-size: 11px; fill: black;">181%</text><text text-anchor="start" transform="translate(130,58.682857142857124) rotate(270) translate(5,3)" style="font-family: sans-serif; font-size: 11px; fill: black;">1260%</text><text text-anchor="start" transform="translate(70,179.90285714285713) rotate(270) translate(5,3)" style="font-family: sans-serif; font-size: 11px; fill: black;">179%</text><text text-anchor="start" transform="translate(50,180.29999999999998) rotate(270) translate(5,3)" style="font-family: sans-serif; font-size: 11px; fill: black;">176%</text><text text-anchor="start" transform="translate(10,188.78857142857143) rotate(270) translate(5,3)" style="font-family: sans-serif; font-size: 11px; fill: black;">100%</text></g></g><path class="foreground" d="" style="display: none; fill: none;"></path></g><g transform="translate(162,0)"><path class="background" d="M0.5,0.5h140v200h-140Z" style="fill: none; stroke: none;"></path><g><g class="mark-group role-axis"><g transform="translate(0.5,0.5)"><path class="background" d="M0,0h0v0h0Z" style="pointer-events: none; fill: none;"></path><g><g class="mark-rule role-axis-grid" style="pointer-events: none;"><line transform="translate(0,200)" x2="140" y2="0" style="fill: none; stroke: #ddd; stroke-width: 1; opacity: 1;"></line><line transform="translate(0,171)" x2="140" y2="0" style="fill: none; stroke: #ddd; stroke-width: 1; opacity: 1;"></line><line transform="translate(0,143)" x2="140" y2="0" style="fill: none; stroke: #ddd; stroke-width: 1; opacity: 1;"></line><line transform="translate(0,114)" x2="140" y2="0" style="fill: none; stroke: #ddd; stroke-width: 1; opacity: 1;"></line><line transform="translate(0,86)" x2="140" y2="0" style="fill: none; stroke: #ddd; stroke-width: 1; opacity: 1;"></line><line transform="translate(0,57)" x2="140" y2="0" style="fill: none; stroke: #ddd; stroke-width: 1; opacity: 1;"></line><line transform="translate(0,29)" x2="140" y2="0" style="fill: none; stroke: #ddd; stroke-width: 1; opacity: 1;"></line><line transform="translate(0,0)" x2="140" y2="0" style="fill: none; stroke: #ddd; stroke-width: 1; opacity: 1;"></line></g></g><path class="foreground" d="" style="pointer-events: none; display: none; fill: none;"></path></g></g><g class="mark-rect role-mark child_layer_0_marks"><path d="M21,174.31714285714287h18v25.68285714285713h-18Z" style="fill: #f58518;"></path><path d="M101,164.38857142857142h18v35.611428571428576h-18Z" style="fill: #eeca3b;"></path><path d="M81,168.54285714285714h18v31.457142857142856h-18Z" style="fill: #54a24b;"></path><path d="M121,50.262857142857165h18v149.73714285714283h-18Z" style="fill: #b279a2;"></path><path d="M61,167.50285714285712h18v32.497142857142876h-18Z" style="fill: #72b7b2;"></path><path d="M41,168.32857142857142h18v31.671428571428578h-18Z" style="fill: #e45756;"></path><path d="M1,183.15142857142857h18v16.848571428571432h-18Z" style="fill: #4c78a8;"></path></g><g class="mark-text role-mark child_layer_1_marks"><text text-anchor="start" transform="translate(30,174.31714285714287) rotate(270) translate(5,3)" style="font-family: sans-serif; font-size: 11px; fill: black;">152%</text><text text-anchor="start" transform="translate(110,164.38857142857142) rotate(270) translate(5,3)" style="font-family: sans-serif; font-size: 11px; fill: black;">211%</text><text text-anchor="start" transform="translate(90,168.54285714285714) rotate(270) translate(5,3)" style="font-family: sans-serif; font-size: 11px; fill: black;">187%</text><text text-anchor="start" transform="translate(130,50.262857142857165) rotate(270) translate(5,3)" style="font-family: sans-serif; font-size: 11px; fill: black;">889%</text><text text-anchor="start" transform="translate(70,167.50285714285712) rotate(270) translate(5,3)" style="font-family: sans-serif; font-size: 11px; fill: black;">193%</text><text text-anchor="start" transform="translate(50,168.32857142857142) rotate(270) translate(5,3)" style="font-family: sans-serif; font-size: 11px; fill: black;">188%</text><text text-anchor="start" transform="translate(10,183.15142857142857) rotate(270) translate(5,3)" style="font-family: sans-serif; font-size: 11px; fill: black;">100%</text></g></g><path class="foreground" d="" style="display: none; fill: none;"></path></g><g transform="translate(324,0)"><path class="background" d="M0.5,0.5h140v200h-140Z" style="fill: none; stroke: none;"></path><g><g class="mark-group role-axis"><g transform="translate(0.5,0.5)"><path class="background" d="M0,0h0v0h0Z" style="pointer-events: none; fill: none;"></path><g><g class="mark-rule role-axis-grid" style="pointer-events: none;"><line transform="translate(0,200)" x2="140" y2="0" style="fill: none; stroke: #ddd; stroke-width: 1; opacity: 1;"></line><line transform="translate(0,171)" x2="140" y2="0" style="fill: none; stroke: #ddd; stroke-width: 1; opacity: 1;"></line><line transform="translate(0,143)" x2="140" y2="0" style="fill: none; stroke: #ddd; stroke-width: 1; opacity: 1;"></line><line transform="translate(0,114)" x2="140" y2="0" style="fill: none; stroke: #ddd; stroke-width: 1; opacity: 1;"></line><line transform="translate(0,86)" x2="140" y2="0" style="fill: none; stroke: #ddd; stroke-width: 1; opacity: 1;"></line><line transform="translate(0,57)" x2="140" y2="0" style="fill: none; stroke: #ddd; stroke-width: 1; opacity: 1;"></line><line transform="translate(0,29)" x2="140" y2="0" style="fill: none; stroke: #ddd; stroke-width: 1; opacity: 1;"></line><line transform="translate(0,0)" x2="140" y2="0" style="fill: none; stroke: #ddd; stroke-width: 1; opacity: 1;"></line></g></g><path class="foreground" d="" style="pointer-events: none; display: none; fill: none;"></path></g></g><g class="mark-rect role-mark child_layer_0_marks"><path d="M21,184.22h18v15.780000000000001h-18Z" style="fill: #f58518;"></path><path d="M101,169.96571428571428h18v30.034285714285716h-18Z" style="fill: #eeca3b;"></path><path d="M81,175.64h18v24.360000000000014h-18Z" style="fill: #54a24b;"></path><path d="M121,23.599999999999998h18v176.4h-18Z" style="fill: #b279a2;"></path><path d="M61,170.6914285714286h18v29.308571428571412h-18Z" style="fill: #72b7b2;"></path><path d="M41,172.32h18v27.680000000000007h-18Z" style="fill: #e45756;"></path><path d="M1,186.7657142857143h18v13.234285714285704h-18Z" style="fill: #4c78a8;"></path></g><g class="mark-text role-mark child_layer_1_marks"><text text-anchor="start" transform="translate(30,184.22) rotate(270) translate(5,3)" style="font-family: sans-serif; font-size: 11px; fill: black;">119%</text><text text-anchor="start" transform="translate(110,169.96571428571428) rotate(270) translate(5,3)" style="font-family: sans-serif; font-size: 11px; fill: black;">227%</text><text text-anchor="start" transform="translate(90,175.64) rotate(270) translate(5,3)" style="font-family: sans-serif; font-size: 11px; fill: black;">184%</text><text text-anchor="start" transform="translate(130,23.599999999999998) rotate(270) translate(5,3)" style="font-family: sans-serif; font-size: 11px; fill: black;">1333%</text><text text-anchor="start" transform="translate(70,170.6914285714286) rotate(270) translate(5,3)" style="font-family: sans-serif; font-size: 11px; fill: black;">221%</text><text text-anchor="start" transform="translate(50,172.32) rotate(270) translate(5,3)" style="font-family: sans-serif; font-size: 11px; fill: black;">209%</text><text text-anchor="start" transform="translate(10,186.7657142857143) rotate(270) translate(5,3)" style="font-family: sans-serif; font-size: 11px; fill: black;">100%</text></g></g><path class="foreground" d="" style="display: none; fill: none;"></path></g><g transform="translate(486,0)"><path class="background" d="M0.5,0.5h140v200h-140Z" style="fill: none; stroke: none;"></path><g><g class="mark-group role-axis"><g transform="translate(0.5,0.5)"><path class="background" d="M0,0h0v0h0Z" style="pointer-events: none; fill: none;"></path><g><g class="mark-rule role-axis-grid" style="pointer-events: none;"><line transform="translate(0,200)" x2="140" y2="0" style="fill: none; stroke: #ddd; stroke-width: 1; opacity: 1;"></line><line transform="translate(0,171)" x2="140" y2="0" style="fill: none; stroke: #ddd; stroke-width: 1; opacity: 1;"></line><line transform="translate(0,143)" x2="140" y2="0" style="fill: none; stroke: #ddd; stroke-width: 1; opacity: 1;"></line><line transform="translate(0,114)" x2="140" y2="0" style="fill: none; stroke: #ddd; stroke-width: 1; opacity: 1;"></line><line transform="translate(0,86)" x2="140" y2="0" style="fill: none; stroke: #ddd; stroke-width: 1; opacity: 1;"></line><line transform="translate(0,57)" x2="140" y2="0" style="fill: none; stroke: #ddd; stroke-width: 1; opacity: 1;"></line><line transform="translate(0,29)" x2="140" y2="0" style="fill: none; stroke: #ddd; stroke-width: 1; opacity: 1;"></line><line transform="translate(0,0)" x2="140" y2="0" style="fill: none; stroke: #ddd; stroke-width: 1; opacity: 1;"></line></g></g><path class="foreground" d="" style="pointer-events: none; display: none; fill: none;"></path></g></g><g class="mark-rect role-mark child_layer_0_marks"><path d="M21,139.6057142857143h18v60.3942857142857h-18Z" style="fill: #f58518;"></path><path d="M101,104.8542857142857h18v95.1457142857143h-18Z" style="fill: #eeca3b;"></path><path d="M81,104.0657142857143h18v95.9342857142857h-18Z" style="fill: #54a24b;"></path><path d="M121,8.782857142857093h18v191.2171428571429h-18Z" style="fill: #b279a2;"></path><path d="M61,136.3542857142857h18v63.64571428571429h-18Z" style="fill: #72b7b2;"></path><path d="M41,137.04857142857142h18v62.95142857142858h-18Z" style="fill: #e45756;"></path><path d="M1,149.04h18v50.96000000000001h-18Z" style="fill: #4c78a8;"></path></g><g class="mark-text role-mark child_layer_1_marks"><text text-anchor="start" transform="translate(30,139.6057142857143) rotate(270) translate(5,3)" style="font-family: sans-serif; font-size: 11px; fill: black;">119%</text><text text-anchor="start" transform="translate(110,104.8542857142857) rotate(270) translate(5,3)" style="font-family: sans-serif; font-size: 11px; fill: black;">187%</text><text text-anchor="start" transform="translate(90,104.0657142857143) rotate(270) translate(5,3)" style="font-family: sans-serif; font-size: 11px; fill: black;">188%</text><text text-anchor="start" transform="translate(130,8.782857142857093) rotate(270) translate(5,3)" style="font-family: sans-serif; font-size: 11px; fill: black;">375%</text><text text-anchor="start" transform="translate(70,136.3542857142857) rotate(270) translate(5,3)" style="font-family: sans-serif; font-size: 11px; fill: black;">125%</text><text text-anchor="start" transform="translate(50,137.04857142857142) rotate(270) translate(5,3)" style="font-family: sans-serif; font-size: 11px; fill: black;">124%</text><text text-anchor="start" transform="translate(10,149.04) rotate(270) translate(5,3)" style="font-family: sans-serif; font-size: 11px; fill: black;">100%</text></g></g><path class="foreground" d="" style="display: none; fill: none;"></path></g><g transform="translate(648,0)"><path class="background" d="M0.5,0.5h140v200h-140Z" style="fill: none; stroke: none;"></path><g><g class="mark-group role-axis"><g transform="translate(0.5,0.5)"><path class="background" d="M0,0h0v0h0Z" style="pointer-events: none; fill: none;"></path><g><g class="mark-rule role-axis-grid" style="pointer-events: none;"><line transform="translate(0,200)" x2="140" y2="0" style="fill: none; stroke: #ddd; stroke-width: 1; opacity: 1;"></line><line transform="translate(0,171)" x2="140" y2="0" style="fill: none; stroke: #ddd; stroke-width: 1; opacity: 1;"></line><line transform="translate(0,143)" x2="140" y2="0" style="fill: none; stroke: #ddd; stroke-width: 1; opacity: 1;"></line><line transform="translate(0,114)" x2="140" y2="0" style="fill: none; stroke: #ddd; stroke-width: 1; opacity: 1;"></line><line transform="translate(0,86)" x2="140" y2="0" style="fill: none; stroke: #ddd; stroke-width: 1; opacity: 1;"></line><line transform="translate(0,57)" x2="140" y2="0" style="fill: none; stroke: #ddd; stroke-width: 1; opacity: 1;"></line><line transform="translate(0,29)" x2="140" y2="0" style="fill: none; stroke: #ddd; stroke-width: 1; opacity: 1;"></line><line transform="translate(0,0)" x2="140" y2="0" style="fill: none; stroke: #ddd; stroke-width: 1; opacity: 1;"></line></g></g><path class="foreground" d="" style="pointer-events: none; display: none; fill: none;"></path></g></g><g class="mark-rect role-mark child_layer_0_marks"><path d="M21,182.72h18v17.28h-18Z" style="fill: #f58518;"></path><path d="M101,171.05142857142857h18v28.948571428571427h-18Z" style="fill: #eeca3b;"></path><path d="M81,173.53714285714287h18v26.462857142857132h-18Z" style="fill: #54a24b;"></path><path d="M121,60.857142857142875h18v139.1428571428571h-18Z" style="fill: #b279a2;"></path><path d="M61,176.04857142857142h18v23.95142857142858h-18Z" style="fill: #72b7b2;"></path><path d="M41,176.54857142857142h18v23.45142857142858h-18Z" style="fill: #e45756;"></path><path d="M1,187.00857142857143h18v12.991428571428571h-18Z" style="fill: #4c78a8;"></path></g><g class="mark-text role-mark child_layer_1_marks"><text text-anchor="start" transform="translate(30,182.72) rotate(270) translate(5,3)" style="font-family: sans-serif; font-size: 11px; fill: black;">133%</text><text text-anchor="start" transform="translate(110,171.05142857142857) rotate(270) translate(5,3)" style="font-family: sans-serif; font-size: 11px; fill: black;">223%</text><text text-anchor="start" transform="translate(90,173.53714285714287) rotate(270) translate(5,3)" style="font-family: sans-serif; font-size: 11px; fill: black;">204%</text><text text-anchor="start" transform="translate(130,60.857142857142875) rotate(270) translate(5,3)" style="font-family: sans-serif; font-size: 11px; fill: black;">1071%</text><text text-anchor="start" transform="translate(70,176.04857142857142) rotate(270) translate(5,3)" style="font-family: sans-serif; font-size: 11px; fill: black;">184%</text><text text-anchor="start" transform="translate(50,176.54857142857142) rotate(270) translate(5,3)" style="font-family: sans-serif; font-size: 11px; fill: black;">181%</text><text text-anchor="start" transform="translate(10,187.00857142857143) rotate(270) translate(5,3)" style="font-family: sans-serif; font-size: 11px; fill: black;">100%</text></g></g><path class="foreground" d="" style="display: none; fill: none;"></path></g><g transform="translate(810,0)"><path class="background" d="M0.5,0.5h140v200h-140Z" style="fill: none; stroke: none;"></path><g><g class="mark-group role-axis"><g transform="translate(0.5,0.5)"><path class="background" d="M0,0h0v0h0Z" style="pointer-events: none; fill: none;"></path><g><g class="mark-rule role-axis-grid" style="pointer-events: none;"><line transform="translate(0,200)" x2="140" y2="0" style="fill: none; stroke: #ddd; stroke-width: 1; opacity: 1;"></line><line transform="translate(0,171)" x2="140" y2="0" style="fill: none; stroke: #ddd; stroke-width: 1; opacity: 1;"></line><line transform="translate(0,143)" x2="140" y2="0" style="fill: none; stroke: #ddd; stroke-width: 1; opacity: 1;"></line><line transform="translate(0,114)" x2="140" y2="0" style="fill: none; stroke: #ddd; stroke-width: 1; opacity: 1;"></line><line transform="translate(0,86)" x2="140" y2="0" style="fill: none; stroke: #ddd; stroke-width: 1; opacity: 1;"></line><line transform="translate(0,57)" x2="140" y2="0" style="fill: none; stroke: #ddd; stroke-width: 1; opacity: 1;"></line><line transform="translate(0,29)" x2="140" y2="0" style="fill: none; stroke: #ddd; stroke-width: 1; opacity: 1;"></line><line transform="translate(0,0)" x2="140" y2="0" style="fill: none; stroke: #ddd; stroke-width: 1; opacity: 1;"></line></g></g><path class="foreground" d="" style="pointer-events: none; display: none; fill: none;"></path></g></g><g class="mark-rect role-mark child_layer_0_marks"><path d="M21,171.17714285714288h18v28.822857142857117h-18Z" style="fill: #f58518;"></path><path d="M101,152.58h18v47.41999999999999h-18Z" style="fill: #eeca3b;"></path><path d="M81,155.98857142857142h18v44.01142857142858h-18Z" style="fill: #54a24b;"></path><path d="M121,50.28285714285714h18v149.71714285714285h-18Z" style="fill: #b279a2;"></path><path d="M61,160.55142857142857h18v39.44857142857143h-18Z" style="fill: #72b7b2;"></path><path d="M41,163.06571428571428h18v36.93428571428572h-18Z" style="fill: #e45756;"></path><path d="M1,179.38857142857142h18v20.611428571428576h-18Z" style="fill: #4c78a8;"></path></g><g class="mark-text role-mark child_layer_1_marks"><text text-anchor="start" transform="translate(30,171.17714285714288) rotate(270) translate(5,3)" style="font-family: sans-serif; font-size: 11px; fill: black;">140%</text><text text-anchor="start" transform="translate(110,152.58) rotate(270) translate(5,3)" style="font-family: sans-serif; font-size: 11px; fill: black;">230%</text><text text-anchor="start" transform="translate(90,155.98857142857142) rotate(270) translate(5,3)" style="font-family: sans-serif; font-size: 11px; fill: black;">214%</text><text text-anchor="start" transform="translate(130,50.28285714285714) rotate(270) translate(5,3)" style="font-family: sans-serif; font-size: 11px; fill: black;">726%</text><text text-anchor="start" transform="translate(70,160.55142857142857) rotate(270) translate(5,3)" style="font-family: sans-serif; font-size: 11px; fill: black;">191%</text><text text-anchor="start" transform="translate(50,163.06571428571428) rotate(270) translate(5,3)" style="font-family: sans-serif; font-size: 11px; fill: black;">179%</text><text text-anchor="start" transform="translate(10,179.38857142857142) rotate(270) translate(5,3)" style="font-family: sans-serif; font-size: 11px; fill: black;">100%</text></g></g><path class="foreground" d="" style="display: none; fill: none;"></path></g></g><g class="mark-group role-title"><g transform="translate(497.5,-61.2171428571429)"><path class="background" d="M0,0h0v0h0Z" style="pointer-events: none; fill: none;"></path><g><g class="mark-text role-title-text" style="pointer-events: none;"><text text-anchor="middle" transform="translate(0,10)" style="font-family: sans-serif; font-size: 13px; font-weight: bold; fill: #000; opacity: 1;">Deflater throughput for Silesia corpus (part1) at compression level 6 on i7-8650U / 1900MHz</text></g></g><path class="foreground" d="" style="pointer-events: none; display: none; fill: none;"></path></g></g><g class="mark-group role-legend"><g transform="translate(969,0)"><path class="background" d="M0,0h67v89h-67Z" style="pointer-events: none; fill: none;"></path><g><g class="mark-group role-legend-entry"><g transform="translate(0,0)"><path class="background" d="M0,0h0v0h0Z" style="pointer-events: none; fill: none;"></path><g><g class="mark-group role-scope"><g transform="translate(0,0)"><path class="background" d="M0,0h67v11h-67Z" style="pointer-events: none; fill: none; opacity: 1;"></path><g><g class="mark-symbol role-legend-symbol" style="pointer-events: none;"><path transform="translate(6,6)" d="M-5,-5h10v10h-10Z" style="fill: #4c78a8; stroke-width: 1.5; opacity: 1;"></path></g><g class="mark-text role-legend-label" style="pointer-events: none;"><text text-anchor="start" transform="translate(16,9)" style="font-family: sans-serif; font-size: 10px; fill: #000; opacity: 1;">zlib</text></g></g><path class="foreground" d="" style="pointer-events: none; display: none; fill: none;"></path></g><g transform="translate(0,13)"><path class="background" d="M0,0h67v11h-67Z" style="pointer-events: none; fill: none; opacity: 1;"></path><g><g class="mark-symbol role-legend-symbol" style="pointer-events: none;"><path transform="translate(6,6)" d="M-5,-5h10v10h-10Z" style="fill: #f58518; stroke-width: 1.5; opacity: 1;"></path></g><g class="mark-text role-legend-label" style="pointer-events: none;"><text text-anchor="start" transform="translate(16,9)" style="font-family: sans-serif; font-size: 10px; fill: #000; opacity: 1;">chromium</text></g></g><path class="foreground" d="" style="pointer-events: none; display: none; fill: none;"></path></g><g transform="translate(0,26)"><path class="background" d="M0,0h67v11h-67Z" style="pointer-events: none; fill: none; opacity: 1;"></path><g><g class="mark-symbol role-legend-symbol" style="pointer-events: none;"><path transform="translate(6,6)" d="M-5,-5h10v10h-10Z" style="fill: #e45756; stroke-width: 1.5; opacity: 1;"></path></g><g class="mark-text role-legend-label" style="pointer-events: none;"><text text-anchor="start" transform="translate(16,9)" style="font-family: sans-serif; font-size: 10px; fill: #000; opacity: 1;">ng</text></g></g><path class="foreground" d="" style="pointer-events: none; display: none; fill: none;"></path></g><g transform="translate(0,39)"><path class="background" d="M0,0h67v11h-67Z" style="pointer-events: none; fill: none; opacity: 1;"></path><g><g class="mark-symbol role-legend-symbol" style="pointer-events: none;"><path transform="translate(6,6)" d="M-5,-5h10v10h-10Z" style="fill: #72b7b2; stroke-width: 1.5; opacity: 1;"></path></g><g class="mark-text role-legend-label" style="pointer-events: none;"><text text-anchor="start" transform="translate(16,9)" style="font-family: sans-serif; font-size: 10px; fill: #000; opacity: 1;">jtkukunas</text></g></g><path class="foreground" d="" style="pointer-events: none; display: none; fill: none;"></path></g><g transform="translate(0,52)"><path class="background" d="M0,0h67v11h-67Z" style="pointer-events: none; fill: none; opacity: 1;"></path><g><g class="mark-symbol role-legend-symbol" style="pointer-events: none;"><path transform="translate(6,6)" d="M-5,-5h10v10h-10Z" style="fill: #54a24b; stroke-width: 1.5; opacity: 1;"></path></g><g class="mark-text role-legend-label" style="pointer-events: none;"><text text-anchor="start" transform="translate(16,9)" style="font-family: sans-serif; font-size: 10px; fill: #000; opacity: 1;">ipp</text></g></g><path class="foreground" d="" style="pointer-events: none; display: none; fill: none;"></path></g><g transform="translate(0,65)"><path class="background" d="M0,0h67v11h-67Z" style="pointer-events: none; fill: none; opacity: 1;"></path><g><g class="mark-symbol role-legend-symbol" style="pointer-events: none;"><path transform="translate(6,6)" d="M-5,-5h10v10h-10Z" style="fill: #eeca3b; stroke-width: 1.5; opacity: 1;"></path></g><g class="mark-text role-legend-label" style="pointer-events: none;"><text text-anchor="start" transform="translate(16,9)" style="font-family: sans-serif; font-size: 10px; fill: #000; opacity: 1;">cloudflare</text></g></g><path class="foreground" d="" style="pointer-events: none; display: none; fill: none;"></path></g><g transform="translate(0,78)"><path class="background" d="M0,0h67v11h-67Z" style="pointer-events: none; fill: none; opacity: 1;"></path><g><g class="mark-symbol role-legend-symbol" style="pointer-events: none;"><path transform="translate(6,6)" d="M-5,-5h10v10h-10Z" style="fill: #b279a2; stroke-width: 1.5; opacity: 1;"></path></g><g class="mark-text role-legend-label" style="pointer-events: none;"><text text-anchor="start" transform="translate(16,9)" style="font-family: sans-serif; font-size: 10px; fill: #000; opacity: 1;">isal</text></g></g><path class="foreground" d="" style="pointer-events: none; display: none; fill: none;"></path></g></g></g><path class="foreground" d="" style="pointer-events: none; display: none; fill: none;"></path></g></g></g><path class="foreground" d="" style="pointer-events: none; display: none; fill: none;"></path></g></g></g><path class="foreground" d="" style="display: none; fill: none;"></path></g></g></g></svg>