<svg class="marks" width="1280" height="960" viewBox="0 0 640 480" version="1.1" xmlns="http://www.w3.org/2000/svg" xmlns:xlink="http://www.w3.org/1999/xlink"><rect width="640" height="480" style="fill: white;"></rect><g transform="translate(45,27)"><g class="mark-group role-frame root"><g transform="translate(0,0)"><path class="background" d="M0.5,0.5h589v416h-589Z" style="fill: none; stroke: #ddd;"></path><g><g class="mark-group role-axis"><g transform="translate(0.5,416.5)"><path class="background" d="M0,0h0v0h0Z" style="pointer-events: none; fill: none;"></path><g><g class="mark-rule role-axis-grid" style="pointer-events: none;"><line transform="translate(0,-416)" x2="0" y2="416" style="fill: none; stroke: #ddd; stroke-width: 1; opacity: 1;"></line><line transform="translate(118,-416)" x2="0" y2="416" style="fill: none; stroke: #ddd; stroke-width: 1; opacity: 1;"></line><line transform="translate(236,-416)" x2="0" y2="416" style="fill: none; stroke: #ddd; stroke-width: 1; opacity: 1;"></line><line transform="translate(353,-416)" x2="0" y2="416" style="fill: none; stroke: #ddd; stroke-width: 1; opacity: 1;"></line><line transform="translate(471,-416)" x2="0" y2="416" style="fill: none; stroke: #ddd; stroke-width: 1; opacity: 1;"></line><line transform="translate(589,-416)" x2="0" y2="416" style="fill: none; stroke: #ddd; stroke-width: 1; opacity: 1;"></line><line transform="translate(59,-416)" x2="0" y2="416" style="fill: none; stroke: #ddd; stroke-width: 1; opacity: 1;"></line><line transform="translate(177,-416)" x2="0" y2="416" style="fill: none; stroke: #ddd; stroke-width: 1; opacity: 1;"></line><line transform="translate(295,-416)" x2="0" y2="416" style="fill: none; stroke: #ddd; stroke-width: 1; opacity: 1;"></line><line transform="translate(412,-416)" x2="0" y2="416" style="fill: none; stroke: #ddd; stroke-width: 1; opacity: 1;"></line><line transform="translate(530,-416)" x2="0" y2="416" style="fill: none; stroke: #ddd; stroke-width: 1; opacity: 1;"></line></g></g><path class="foreground" d="" style="pointer-events: none; display: none; fill: none;"></path></g></g><g class="mark-group role-axis"><g transform="translate(0.5,0.5)"><path class="background" d="M0,0h0v0h0Z" style="pointer-events: none; fill: none;"></path><g><g class="mark-rule role-axis-grid" style="pointer-events: none;"><line transform="translate(0,416)" x2="589" y2="0" style="fill: none; stroke: #ddd; stroke-width: 1; opacity: 1;"></line><line transform="translate(0,370)" x2="589" y2="0" style="fill: none; stroke: #ddd; stroke-width: 1; opacity: 1;"></line><line transform="translate(0,324)" x2="589" y2="0" style="fill: none; stroke: #ddd; stroke-width: 1; opacity: 1;"></line><line transform="translate(0,277)" x2="589" y2="0" style="fill: none; stroke: #ddd; stroke-width: 1; opacity: 1;"></line><line transform="translate(0,231)" x2="589" y2="0" style="fill: none; stroke: #ddd; stroke-width: 1; opacity: 1;"></line><line transform="translate(0,185)" x2="589" y2="0" style="fill: none; stroke: #ddd; stroke-width: 1; opacity: 1;"></line><line transform="translate(0,139)" x2="589" y2="0" style="fill: none; stroke: #ddd; stroke-width: 1; opacity: 1;"></line><line transform="translate(0,92)" x2="589" y2="0" style="fill: none; stroke: #ddd; stroke-width: 1; opacity: 1;"></line><line transform="translate(0,46)" x2="589" y2="0" style="fill: none; stroke: #ddd; stroke-width: 1; opacity: 1;"></line><line transform="translate(0,0)" x2="589" y2="0" style="fill: none; stroke: #ddd; stroke-width: 1; opacity: 1;"></line></g></g><path class="foreground" d="" style="pointer-events: none; display: none; fill: none;"></path></g></g><g class="mark-group role-axis"><g transform="translate(0.5,416.5)"><path class="background" d="M0,0h0v0h0Z" style="pointer-events: none; fill: none;"></path><g><g class="mark-rule role-axis-tick" style="pointer-events: none;"><line transform="translate(0,0)" x2="0" y2="5" style="fill: none; stroke: #888; stroke-width: 1; opacity: 1;"></line><line transform="translate(118,0)" x2="0" y2="5" style="fill: none; stroke: #888; stroke-width: 1; opacity: 1;"></line><line transform="translate(236,0)" x2="0" y2="5" style="fill: none; stroke: #888; stroke-width: 1; opacity: 1;"></line><line transform="translate(353,0)" x2="0" y2="5" style="fill: none; stroke: #888; stroke-width: 1; opacity: 1;"></line><line transform="translate(471,0)" x2="0" y2="5" style="fill: none; stroke: #888; stroke-width: 1; opacity: 1;"></line><line transform="translate(589,0)" x2="0" y2="5" style="fill: none; stroke: #888; stroke-width: 1; opacity: 1;"></line><line transform="translate(59,0)" x2="0" y2="5" style="fill: none; stroke: #888; stroke-width: 1; opacity: 1;"></line><line transform="translate(177,0)" x2="0" y2="5" style="fill: none; stroke: #888; stroke-width: 1; opacity: 1;"></line><line transform="translate(295,0)" x2="0" y2="5" style="fill: none; stroke: #888; stroke-width: 1; opacity: 1;"></line><line transform="translate(412,0)" x2="0" y2="5" style="fill: none; stroke: #888; stroke-width: 1; opacity: 1;"></line><line transform="translate(530,0)" x2="0" y2="5" style="fill: none; stroke: #888; stroke-width: 1; opacity: 1;"></line></g><g class="mark-text role-axis-label" style="pointer-events: none;"><text text-anchor="start" transform="translate(0,15)" style="font-family: sans-serif; font-size: 10px; fill: #000; opacity: 1;">1.50</text><text text-anchor="middle" transform="translate(117.80000000000011,15)" style="font-family: sans-serif; font-size: 10px; fill: #000; opacity: 1;">1.60</text><text text-anchor="middle" transform="translate(235.59999999999994,15)" style="font-family: sans-serif; font-size: 10px; fill: #000; opacity: 1;">1.70</text><text text-anchor="middle" transform="translate(353.40000000000003,15)" style="font-family: sans-serif; font-size: 10px; fill: #000; opacity: 1;">1.80</text><text text-anchor="middle" transform="translate(471.1999999999999,15)" style="font-family: sans-serif; font-size: 10px; fill: #000; opacity: 1;">1.90</text><text text-anchor="end" transform="translate(589,15)" style="font-family: sans-serif; font-size: 10px; fill: #000; opacity: 1;">2.00</text><text text-anchor="middle" transform="translate(58.900000000000055,15)" style="font-family: sans-serif; font-size: 10px; fill: #000; opacity: 1;">1.55</text><text text-anchor="middle" transform="translate(176.6999999999999,15)" style="font-family: sans-serif; font-size: 10px; fill: #000; opacity: 1;">1.65</text><text text-anchor="middle" transform="translate(294.5,15)" style="font-family: sans-serif; font-size: 10px; fill: #000; opacity: 1;">1.75</text><text text-anchor="middle" transform="translate(412.3000000000001,15)" style="font-family: sans-serif; font-size: 10px; fill: #000; opacity: 1;">1.85</text><text text-anchor="middle" transform="translate(530.0999999999999,15)" style="font-family: sans-serif; font-size: 10px; fill: #000; opacity: 1;">1.95</text></g><g class="mark-rule role-axis-domain" style="pointer-events: none;"><line transform="translate(0,0)" x2="589" y2="0" style="fill: none; stroke: #888; stroke-width: 1; opacity: 1;"></line></g><g class="mark-text role-axis-title" style="pointer-events: none;"><text text-anchor="middle" transform="translate(294.5,30)" style="font-family: sans-serif; font-size: 11px; font-weight: bold; fill: #000; opacity: 1;">Compression ratio</text></g></g><path class="foreground" d="" style="pointer-events: none; display: none; fill: none;"></path></g></g><g class="mark-group role-axis"><g transform="translate(0.5,0.5)"><path class="background" d="M0,0h0v0h0Z" style="pointer-events: none; fill: none;"></path><g><g class="mark-rule role-axis-tick" style="pointer-events: none;"><line transform="translate(0,416)" x2="-5" y2="0" style="fill: none; stroke: #888; stroke-width: 1; opacity: 1;"></line><line transform="translate(0,370)" x2="-5" y2="0" style="fill: none; stroke: #888; stroke-width: 1; opacity: 1;"></line><line transform="translate(0,324)" x2="-5" y2="0" style="fill: none; stroke: #888; stroke-width: 1; opacity: 1;"></line><line transform="translate(0,277)" x2="-5" y2="0" style="fill: none; stroke: #888; stroke-width: 1; opacity: 1;"></line><line transform="translate(0,231)" x2="-5" y2="0" style="fill: none; stroke: #888; stroke-width: 1; opacity: 1;"></line><line transform="translate(0,185)" x2="-5" y2="0" style="fill: none; stroke: #888; stroke-width: 1; opacity: 1;"></line><line transform="translate(0,139)" x2="-5" y2="0" style="fill: none; stroke: #888; stroke-width: 1; opacity: 1;"></line><line transform="translate(0,92)" x2="-5" y2="0" style="fill: none; stroke: #888; stroke-width: 1; opacity: 1;"></line><line transform="translate(0,46)" x2="-5" y2="0" style="fill: none; stroke: #888; stroke-width: 1; opacity: 1;"></line><line transform="translate(0,0)" x2="-5" y2="0" style="fill: none; stroke: #888; stroke-width: 1; opacity: 1;"></line></g><g class="mark-text role-axis-label" style="pointer-events: none;"><text text-anchor="end" transform="translate(-7,419)" style="font-family: sans-serif; font-size: 10px; fill: #000; opacity: 1;">0</text><text text-anchor="end" transform="translate(-7,372.77777777777777)" style="font-family: sans-serif; font-size: 10px; fill: #000; opacity: 1;">20</text><text text-anchor="end" transform="translate(-7,326.55555555555554)" style="font-family: sans-serif; font-size: 10px; fill: #000; opacity: 1;">40</text><text text-anchor="end" transform="translate(-7,280.33333333333337)" style="font-family: sans-serif; font-size: 10px; fill: #000; opacity: 1;">60</text><text text-anchor="end" transform="translate(-7,234.11111111111111)" style="font-family: sans-serif; font-size: 10px; fill: #000; opacity: 1;">80</text><text text-anchor="end" transform="translate(-7,187.88888888888889)" style="font-family: sans-serif; font-size: 10px; fill: #000; opacity: 1;">100</text><text text-anchor="end" transform="translate(-7,141.66666666666669)" style="font-family: sans-serif; font-size: 10px; fill: #000; opacity: 1;">120</text><text text-anchor="end" transform="translate(-7,95.44444444444444)" style="font-family: sans-serif; font-size: 10px; fill: #000; opacity: 1;">140</text><text text-anchor="end" transform="translate(-7,49.22222222222224)" style="font-family: sans-serif; font-size: 10px; fill: #000; opacity: 1;">160</text><text text-anchor="end" transform="translate(-7,3)" style="font-family: sans-serif; font-size: 10px; fill: #000; opacity: 1;">180</text></g><g class="mark-rule role-axis-domain" style="pointer-events: none;"><line transform="translate(0,416)" x2="0" y2="-416" style="fill: none; stroke: #888; stroke-width: 1; opacity: 1;"></line></g><g class="mark-text role-axis-title" style="pointer-events: none;"><text text-anchor="middle" transform="translate(-29,208) rotate(-90) translate(0,-2)" style="font-family: sans-serif; font-size: 11px; font-weight: bold; fill: #000; opacity: 1;">Throughput (kb/ms)</text></g></g><path class="foreground" d="" style="pointer-events: none; display: none; fill: none;"></path></g></g><g class="mark-group role-scope layer_0_layer_0_layer_0_pathgroup"><g transform="translate(0,0)"><path class="background" d="M0,0h589v416h-589Z" style="fill: none;"></path><g><g class="mark-line role-mark layer_0_layer_0_layer_0_marks"><path d="M412.3000000000001,343.58826666666664L435.8600000000001,347.9516444444444L459.4199999999999,353.87733333333335L482.9799999999999,358.8092444444444L518.3199999999999,368.4604444444444L577.22,388.0448L577.22,392.6161777777778L577.22,397.58506666666665L577.22,399.7159111111111" style="fill: none; stroke: #eeca3b; stroke-width: 2;"></path></g></g><path class="foreground" d="" style="display: none; fill: none;"></path></g><g transform="translate(0,0)"><path class="background" d="M0,0h589v416h-589Z" style="fill: none;"></path><g><g class="mark-line role-mark layer_0_layer_0_layer_0_marks"><path d="M412.3000000000001,333.29457777777776L435.8600000000001,337.7457777777778L459.4199999999999,343.31555555555553L482.9799999999999,350.688L518.3199999999999,363.08017777777775L518.3199999999999,369.1676444444444L518.3199999999999,371.84853333333336L518.3199999999999,378.82346666666666L518.3199999999999,382.7338666666667" style="fill: none; stroke: #e45756; stroke-width: 2;"></path></g></g><path class="foreground" d="" style="display: none; fill: none;"></path></g><g transform="translate(0,0)"><path class="background" d="M0,0h589v416h-589Z" style="fill: none;"></path><g><g class="mark-line role-mark layer_0_layer_0_layer_0_marks"><path d="M141.36000000000013,105.58079999999993L447.6399999999999,335.0417777777778L447.6399999999999,335.28675555555554L459.4199999999999,335.8968888888889L482.9799999999999,351.55235555555555L518.3199999999999,366.4220444444444L518.3199999999999,373.1889777777777L518.3199999999999,373.6142222222222L518.3199999999999,376.52160000000003L518.3199999999999,377.8065777777778" style="fill: none; stroke: #f58518; stroke-width: 2;"></path></g></g><path class="foreground" d="" style="display: none; fill: none;"></path></g><g transform="translate(0,0)"><path class="background" d="M0,0h589v416h-589Z" style="fill: none;"></path><g><g class="mark-line role-mark layer_0_layer_0_layer_0_marks"><path d="M82.46000000000008,28.14008888888887L341.62000000000006,46.12977777777779L388.74000000000007,68.36266666666671L412.3000000000001,190.89777777777778" style="fill: none; stroke: #4c78a8; stroke-width: 2;"></path></g></g><path class="foreground" d="" style="display: none; fill: none;"></path></g><g transform="translate(0,0)"><path class="background" d="M0,0h589v416h-589Z" style="fill: none;"></path><g><g class="mark-line role-mark layer_0_layer_0_layer_0_marks"><path d="M412.3000000000001,340.79644444444443L435.8600000000001,345.4695111111111L459.4199999999999,350.4568888888889L494.75999999999993,362.8536888888889L506.5399999999999,364.6332444444444L577.22,377.2519111111111L577.22,392.40355555555556L577.22,397.60355555555554L577.22,399.5957333333333" style="fill: none; stroke: #72b7b2; stroke-width: 2;"></path></g></g><path class="foreground" d="" style="display: none; fill: none;"></path></g><g transform="translate(0,0)"><path class="background" d="M0,0h589v416h-589Z" style="fill: none;"></path><g><g class="mark-line role-mark layer_0_layer_0_layer_0_marks"><path d="M23.56000000000002,232.90453333333332L424.0800000000001,349.3984L459.4199999999999,355.7123555555556L494.75999999999993,366.0476444444445L565.4399999999999,371.1552L577.22,378.06080000000003L577.22,392.5191111111111L577.22,397.65902222222223L577.22,399.43857777777777" style="fill: none; stroke: #54a24b; stroke-width: 2;"></path></g></g><path class="foreground" d="" style="display: none; fill: none;"></path></g><g transform="translate(0,0)"><path class="background" d="M0,0h589v416h-589Z" style="fill: none;"></path><g><g class="mark-line role-mark layer_0_layer_0_layer_0_marks"><path d="M435.8600000000001,363.3159111111111L471.1999999999999,366.78257777777776L506.5399999999999,375.31982222222223L530.0999999999999,377.63093333333336L553.66,386.80604444444447L577.22,394.98275555555557L577.22,397.96871111111113L577.22,401.86986666666667L577.22,403.0808888888889" style="fill: none; stroke: #b279a2; stroke-width: 2;"></path></g></g><path class="foreground" d="" style="display: none; fill: none;"></path></g></g><g class="mark-symbol role-mark layer_0_layer_0_layer_1_marks"><path transform="translate(412.3000000000001,343.58826666666664)" d="M2.7386127875258306,0A2.7386127875258306,2.7386127875258306,0,1,1,-2.7386127875258306,0A2.7386127875258306,2.7386127875258306,0,1,1,2.7386127875258306,0" style="fill: #eeca3b; stroke-width: 2; opacity: 1;"></path><path transform="translate(435.8600000000001,347.9516444444444)" d="M2.7386127875258306,0A2.7386127875258306,2.7386127875258306,0,1,1,-2.7386127875258306,0A2.7386127875258306,2.7386127875258306,0,1,1,2.7386127875258306,0" style="fill: #eeca3b; stroke-width: 2; opacity: 1;"></path><path transform="translate(459.4199999999999,353.87733333333335)" d="M2.7386127875258306,0A2.7386127875258306,2.7386127875258306,0,1,1,-2.7386127875258306,0A2.7386127875258306,2.7386127875258306,0,1,1,2.7386127875258306,0" style="fill: #eeca3b; stroke-width: 2; opacity: 1;"></path><path transform="translate(482.9799999999999,358.8092444444444)" d="M2.7386127875258306,0A2.7386127875258306,2.7386127875258306,0,1,1,-2.7386127875258306,0A2.7386127875258306,2.7386127875258306,0,1,1,2.7386127875258306,0" style="fill: #eeca3b; stroke-width: 2; opacity: 1;"></path><path transform="translate(518.3199999999999,368.4604444444444)" d="M2.7386127875258306,0A2.7386127875258306,2.7386127875258306,0,1,1,-2.7386127875258306,0A2.7386127875258306,2.7386127875258306,0,1,1,2.7386127875258306,0" style="fill: #eeca3b; stroke-width: 2; opacity: 1;"></path><path transform="translate(577.22,388.0448)" d="M2.7386127875258306,0A2.7386127875258306,2.7386127875258306,0,1,1,-2.7386127875258306,0A2.7386127875258306,2.7386127875258306,0,1,1,2.7386127875258306,0" style="fill: #eeca3b; stroke-width: 2; opacity: 1;"></path><path transform="translate(577.22,392.6161777777778)" d="M2.7386127875258306,0A2.7386127875258306,2.7386127875258306,0,1,1,-2.7386127875258306,0A2.7386127875258306,2.7386127875258306,0,1,1,2.7386127875258306,0" style="fill: #eeca3b; stroke-width: 2; opacity: 1;"></path><path transform="translate(577.22,397.58506666666665)" d="M2.7386127875258306,0A2.7386127875258306,2.7386127875258306,0,1,1,-2.7386127875258306,0A2.7386127875258306,2.7386127875258306,0,1,1,2.7386127875258306,0" style="fill: #eeca3b; stroke-width: 2; opacity: 1;"></path><path transform="translate(577.22,399.7159111111111)" d="M2.7386127875258306,0A2.7386127875258306,2.7386127875258306,0,1,1,-2.7386127875258306,0A2.7386127875258306,2.7386127875258306,0,1,1,2.7386127875258306,0" style="fill: #eeca3b; stroke-width: 2; opacity: 1;"></path><path transform="translate(412.3000000000001,333.29457777777776)" d="M2.7386127875258306,0A2.7386127875258306,2.7386127875258306,0,1,1,-2.7386127875258306,0A2.7386127875258306,2.7386127875258306,0,1,1,2.7386127875258306,0" style="fill: #e45756; stroke-width: 2; opacity: 1;"></path><path transform="translate(435.8600000000001,337.7457777777778)" d="M2.7386127875258306,0A2.7386127875258306,2.7386127875258306,0,1,1,-2.7386127875258306,0A2.7386127875258306,2.7386127875258306,0,1,1,2.7386127875258306,0" style="fill: #e45756; stroke-width: 2; opacity: 1;"></path><path transform="translate(459.4199999999999,343.31555555555553)" d="M2.7386127875258306,0A2.7386127875258306,2.7386127875258306,0,1,1,-2.7386127875258306,0A2.7386127875258306,2.7386127875258306,0,1,1,2.7386127875258306,0" style="fill: #e45756; stroke-width: 2; opacity: 1;"></path><path transform="translate(482.9799999999999,350.688)" d="M2.7386127875258306,0A2.7386127875258306,2.7386127875258306,0,1,1,-2.7386127875258306,0A2.7386127875258306,2.7386127875258306,0,1,1,2.7386127875258306,0" style="fill: #e45756; stroke-width: 2; opacity: 1;"></path><path transform="translate(518.3199999999999,363.08017777777775)" d="M2.7386127875258306,0A2.7386127875258306,2.7386127875258306,0,1,1,-2.7386127875258306,0A2.7386127875258306,2.7386127875258306,0,1,1,2.7386127875258306,0" style="fill: #e45756; stroke-width: 2; opacity: 1;"></path><path transform="translate(518.3199999999999,369.1676444444444)" d="M2.7386127875258306,0A2.7386127875258306,2.7386127875258306,0,1,1,-2.7386127875258306,0A2.7386127875258306,2.7386127875258306,0,1,1,2.7386127875258306,0" style="fill: #e45756; stroke-width: 2; opacity: 1;"></path><path transform="translate(518.3199999999999,371.84853333333336)" d="M2.7386127875258306,0A2.7386127875258306,2.7386127875258306,0,1,1,-2.7386127875258306,0A2.7386127875258306,2.7386127875258306,0,1,1,2.7386127875258306,0" style="fill: #e45756; stroke-width: 2; opacity: 1;"></path><path transform="translate(518.3199999999999,378.82346666666666)" d="M2.7386127875258306,0A2.7386127875258306,2.7386127875258306,0,1,1,-2.7386127875258306,0A2.7386127875258306,2.7386127875258306,0,1,1,2.7386127875258306,0" style="fill: #e45756; stroke-width: 2; opacity: 1;"></path><path transform="translate(518.3199999999999,382.7338666666667)" d="M2.7386127875258306,0A2.7386127875258306,2.7386127875258306,0,1,1,-2.7386127875258306,0A2.7386127875258306,2.7386127875258306,0,1,1,2.7386127875258306,0" style="fill: #e45756; stroke-width: 2; opacity: 1;"></path><path transform="translate(141.36000000000013,105.58079999999993)" d="M2.7386127875258306,0A2.7386127875258306,2.7386127875258306,0,1,1,-2.7386127875258306,0A2.7386127875258306,2.7386127875258306,0,1,1,2.7386127875258306,0" style="fill: #f58518; stroke-width: 2; opacity: 1;"></path><path transform="translate(447.6399999999999,335.0417777777778)" d="M2.7386127875258306,0A2.7386127875258306,2.7386127875258306,0,1,1,-2.7386127875258306,0A2.7386127875258306,2.7386127875258306,0,1,1,2.7386127875258306,0" style="fill: #f58518; stroke-width: 2; opacity: 1;"></path><path transform="translate(447.6399999999999,335.28675555555554)" d="M2.7386127875258306,0A2.7386127875258306,2.7386127875258306,0,1,1,-2.7386127875258306,0A2.7386127875258306,2.7386127875258306,0,1,1,2.7386127875258306,0" style="fill: #f58518; stroke-width: 2; opacity: 1;"></path><path transform="translate(459.4199999999999,335.8968888888889)" d="M2.7386127875258306,0A2.7386127875258306,2.7386127875258306,0,1,1,-2.7386127875258306,0A2.7386127875258306,2.7386127875258306,0,1,1,2.7386127875258306,0" style="fill: #f58518; stroke-width: 2; opacity: 1;"></path><path transform="translate(482.9799999999999,351.55235555555555)" d="M2.7386127875258306,0A2.7386127875258306,2.7386127875258306,0,1,1,-2.7386127875258306,0A2.7386127875258306,2.7386127875258306,0,1,1,2.7386127875258306,0" style="fill: #f58518; stroke-width: 2; opacity: 1;"></path><path transform="translate(518.3199999999999,366.4220444444444)" d="M2.7386127875258306,0A2.7386127875258306,2.7386127875258306,0,1,1,-2.7386127875258306,0A2.7386127875258306,2.7386127875258306,0,1,1,2.7386127875258306,0" style="fill: #f58518; stroke-width: 2; opacity: 1;"></path><path transform="translate(518.3199999999999,373.1889777777777)" d="M2.7386127875258306,0A2.7386127875258306,2.7386127875258306,0,1,1,-2.7386127875258306,0A2.7386127875258306,2.7386127875258306,0,1,1,2.7386127875258306,0" style="fill: #f58518; stroke-width: 2; opacity: 1;"></path><path transform="translate(518.3199999999999,373.6142222222222)" d="M2.7386127875258306,0A2.7386127875258306,2.7386127875258306,0,1,1,-2.7386127875258306,0A2.7386127875258306,2.7386127875258306,0,1,1,2.7386127875258306,0" style="fill: #f58518; stroke-width: 2; opacity: 1;"></path><path transform="translate(518.3199999999999,376.52160000000003)" d="M2.7386127875258306,0A2.7386127875258306,2.7386127875258306,0,1,1,-2.7386127875258306,0A2.7386127875258306,2.7386127875258306,0,1,1,2.7386127875258306,0" style="fill: #f58518; stroke-width: 2; opacity: 1;"></path><path transform="translate(518.3199999999999,377.8065777777778)" d="M2.7386127875258306,0A2.7386127875258306,2.7386127875258306,0,1,1,-2.7386127875258306,0A2.7386127875258306,2.7386127875258306,0,1,1,2.7386127875258306,0" style="fill: #f58518; stroke-width: 2; opacity: 1;"></path><path transform="translate(82.46000000000008,28.14008888888887)" d="M2.7386127875258306,0A2.7386127875258306,2.7386127875258306,0,1,1,-2.7386127875258306,0A2.7386127875258306,2.7386127875258306,0,1,1,2.7386127875258306,0" style="fill: #4c78a8; stroke-width: 2; opacity: 1;"></path><path transform="translate(341.62000000000006,46.12977777777779)" d="M2.7386127875258306,0A2.7386127875258306,2.7386127875258306,0,1,1,-2.7386127875258306,0A2.7386127875258306,2.7386127875258306,0,1,1,2.7386127875258306,0" style="fill: #4c78a8; stroke-width: 2; opacity: 1;"></path><path transform="translate(388.74000000000007,68.36266666666671)" d="M2.7386127875258306,0A2.7386127875258306,2.7386127875258306,0,1,1,-2.7386127875258306,0A2.7386127875258306,2.7386127875258306,0,1,1,2.7386127875258306,0" style="fill: #4c78a8; stroke-width: 2; opacity: 1;"></path><path transform="translate(412.3000000000001,190.89777777777778)" d="M2.7386127875258306,0A2.7386127875258306,2.7386127875258306,0,1,1,-2.7386127875258306,0A2.7386127875258306,2.7386127875258306,0,1,1,2.7386127875258306,0" style="fill: #4c78a8; stroke-width: 2; opacity: 1;"></path><path transform="translate(412.3000000000001,340.79644444444443)" d="M2.7386127875258306,0A2.7386127875258306,2.7386127875258306,0,1,1,-2.7386127875258306,0A2.7386127875258306,2.7386127875258306,0,1,1,2.7386127875258306,0" style="fill: #72b7b2; stroke-width: 2; opacity: 1;"></path><path transform="translate(435.8600000000001,345.4695111111111)" d="M2.7386127875258306,0A2.7386127875258306,2.7386127875258306,0,1,1,-2.7386127875258306,0A2.7386127875258306,2.7386127875258306,0,1,1,2.7386127875258306,0" style="fill: #72b7b2; stroke-width: 2; opacity: 1;"></path><path transform="translate(459.4199999999999,350.4568888888889)" d="M2.7386127875258306,0A2.7386127875258306,2.7386127875258306,0,1,1,-2.7386127875258306,0A2.7386127875258306,2.7386127875258306,0,1,1,2.7386127875258306,0" style="fill: #72b7b2; stroke-width: 2; opacity: 1;"></path><path transform="translate(494.75999999999993,362.8536888888889)" d="M2.7386127875258306,0A2.7386127875258306,2.7386127875258306,0,1,1,-2.7386127875258306,0A2.7386127875258306,2.7386127875258306,0,1,1,2.7386127875258306,0" style="fill: #72b7b2; stroke-width: 2; opacity: 1;"></path><path transform="translate(506.5399999999999,364.6332444444444)" d="M2.7386127875258306,0A2.7386127875258306,2.7386127875258306,0,1,1,-2.7386127875258306,0A2.7386127875258306,2.7386127875258306,0,1,1,2.7386127875258306,0" style="fill: #72b7b2; stroke-width: 2; opacity: 1;"></path><path transform="translate(577.22,377.2519111111111)" d="M2.7386127875258306,0A2.7386127875258306,2.7386127875258306,0,1,1,-2.7386127875258306,0A2.7386127875258306,2.7386127875258306,0,1,1,2.7386127875258306,0" style="fill: #72b7b2; stroke-width: 2; opacity: 1;"></path><path transform="translate(577.22,392.40355555555556)" d="M2.7386127875258306,0A2.7386127875258306,2.7386127875258306,0,1,1,-2.7386127875258306,0A2.7386127875258306,2.7386127875258306,0,1,1,2.7386127875258306,0" style="fill: #72b7b2; stroke-width: 2; opacity: 1;"></path><path transform="translate(577.22,397.60355555555554)" d="M2.7386127875258306,0A2.7386127875258306,2.7386127875258306,0,1,1,-2.7386127875258306,0A2.7386127875258306,2.7386127875258306,0,1,1,2.7386127875258306,0" style="fill: #72b7b2; stroke-width: 2; opacity: 1;"></path><path transform="translate(577.22,399.5957333333333)" d="M2.7386127875258306,0A2.7386127875258306,2.7386127875258306,0,1,1,-2.7386127875258306,0A2.7386127875258306,2.7386127875258306,0,1,1,2.7386127875258306,0" style="fill: #72b7b2; stroke-width: 2; opacity: 1;"></path><path transform="translate(23.56000000000002,232.90453333333332)" d="M2.7386127875258306,0A2.7386127875258306,2.7386127875258306,0,1,1,-2.7386127875258306,0A2.7386127875258306,2.7386127875258306,0,1,1,2.7386127875258306,0" style="fill: #54a24b; stroke-width: 2; opacity: 1;"></path><path transform="translate(424.0800000000001,349.3984)" d="M2.7386127875258306,0A2.7386127875258306,2.7386127875258306,0,1,1,-2.7386127875258306,0A2.7386127875258306,2.7386127875258306,0,1,1,2.7386127875258306,0" style="fill: #54a24b; stroke-width: 2; opacity: 1;"></path><path transform="translate(459.4199999999999,355.7123555555556)" d="M2.7386127875258306,0A2.7386127875258306,2.7386127875258306,0,1,1,-2.7386127875258306,0A2.7386127875258306,2.7386127875258306,0,1,1,2.7386127875258306,0" style="fill: #54a24b; stroke-width: 2; opacity: 1;"></path><path transform="translate(494.75999999999993,366.0476444444445)" d="M2.7386127875258306,0A2.7386127875258306,2.7386127875258306,0,1,1,-2.7386127875258306,0A2.7386127875258306,2.7386127875258306,0,1,1,2.7386127875258306,0" style="fill: #54a24b; stroke-width: 2; opacity: 1;"></path><path transform="translate(565.4399999999999,371.1552)" d="M2.7386127875258306,0A2.7386127875258306,2.7386127875258306,0,1,1,-2.7386127875258306,0A2.7386127875258306,2.7386127875258306,0,1,1,2.7386127875258306,0" style="fill: #54a24b; stroke-width: 2; opacity: 1;"></path><path transform="translate(577.22,378.06080000000003)" d="M2.7386127875258306,0A2.7386127875258306,2.7386127875258306,0,1,1,-2.7386127875258306,0A2.7386127875258306,2.7386127875258306,0,1,1,2.7386127875258306,0" style="fill: #54a24b; stroke-width: 2; opacity: 1;"></path><path transform="translate(577.22,392.5191111111111)" d="M2.7386127875258306,0A2.7386127875258306,2.7386127875258306,0,1,1,-2.7386127875258306,0A2.7386127875258306,2.7386127875258306,0,1,1,2.7386127875258306,0" style="fill: #54a24b; stroke-width: 2; opacity: 1;"></path><path transform="translate(577.22,397.65902222222223)" d="M2.7386127875258306,0A2.7386127875258306,2.7386127875258306,0,1,1,-2.7386127875258306,0A2.7386127875258306,2.7386127875258306,0,1,1,2.7386127875258306,0" style="fill: #54a24b; stroke-width: 2; opacity: 1;"></path><path transform="translate(577.22,399.43857777777777)" d="M2.7386127875258306,0A2.7386127875258306,2.7386127875258306,0,1,1,-2.7386127875258306,0A2.7386127875258306,2.7386127875258306,0,1,1,2.7386127875258306,0" style="fill: #54a24b; stroke-width: 2; opacity: 1;"></path><path transform="translate(435.8600000000001,363.3159111111111)" d="M2.7386127875258306,0A2.7386127875258306,2.7386127875258306,0,1,1,-2.7386127875258306,0A2.7386127875258306,2.7386127875258306,0,1,1,2.7386127875258306,0" style="fill: #b279a2; stroke-width: 2; opacity: 1;"></path><path transform="translate(471.1999999999999,366.78257777777776)" d="M2.7386127875258306,0A2.7386127875258306,2.7386127875258306,0,1,1,-2.7386127875258306,0A2.7386127875258306,2.7386127875258306,0,1,1,2.7386127875258306,0" style="fill: #b279a2; stroke-width: 2; opacity: 1;"></path><path transform="translate(506.5399999999999,375.31982222222223)" d="M2.7386127875258306,0A2.7386127875258306,2.7386127875258306,0,1,1,-2.7386127875258306,0A2.7386127875258306,2.7386127875258306,0,1,1,2.7386127875258306,0" style="fill: #b279a2; stroke-width: 2; opacity: 1;"></path><path transform="translate(530.0999999999999,377.63093333333336)" d="M2.7386127875258306,0A2.7386127875258306,2.7386127875258306,0,1,1,-2.7386127875258306,0A2.7386127875258306,2.7386127875258306,0,1,1,2.7386127875258306,0" style="fill: #b279a2; stroke-width: 2; opacity: 1;"></path><path transform="translate(553.66,386.80604444444447)" d="M2.7386127875258306,0A2.7386127875258306,2.7386127875258306,0,1,1,-2.7386127875258306,0A2.7386127875258306,2.7386127875258306,0,1,1,2.7386127875258306,0" style="fill: #b279a2; stroke-width: 2; opacity: 1;"></path><path transform="translate(577.22,394.98275555555557)" d="M2.7386127875258306,0A2.7386127875258306,2.7386127875258306,0,1,1,-2.7386127875258306,0A2.7386127875258306,2.7386127875258306,0,1,1,2.7386127875258306,0" style="fill: #b279a2; stroke-width: 2; opacity: 1;"></path><path transform="translate(577.22,397.96871111111113)" d="M2.7386127875258306,0A2.7386127875258306,2.7386127875258306,0,1,1,-2.7386127875258306,0A2.7386127875258306,2.7386127875258306,0,1,1,2.7386127875258306,0" style="fill: #b279a2; stroke-width: 2; opacity: 1;"></path><path transform="translate(577.22,401.86986666666667)" d="M2.7386127875258306,0A2.7386127875258306,2.7386127875258306,0,1,1,-2.7386127875258306,0A2.7386127875258306,2.7386127875258306,0,1,1,2.7386127875258306,0" style="fill: #b279a2; stroke-width: 2; opacity: 1;"></path><path transform="translate(577.22,403.0808888888889)" d="M2.7386127875258306,0A2.7386127875258306,2.7386127875258306,0,1,1,-2.7386127875258306,0A2.7386127875258306,2.7386127875258306,0,1,1,2.7386127875258306,0" style="fill: #b279a2; stroke-width: 2; opacity: 1;"></path></g><g class="mark-text role-mark layer_0_layer_1_marks"><text text-anchor="end" transform="translate(417.3000000000001,338.58826666666664)" style="font-family: sans-serif; font-size: 11px; fill: #eeca3b;">1</text><text text-anchor="end" transform="translate(440.8600000000001,342.9516444444444)" style="font-family: sans-serif; font-size: 11px; fill: #eeca3b;">2</text><text text-anchor="end" transform="translate(464.4199999999999,348.87733333333335)" style="font-family: sans-serif; font-size: 11px; fill: #eeca3b;">3</text><text text-anchor="end" transform="translate(487.9799999999999,353.8092444444444)" style="font-family: sans-serif; font-size: 11px; fill: #eeca3b;">4</text><text text-anchor="end" transform="translate(523.3199999999999,363.4604444444444)" style="font-family: sans-serif; font-size: 11px; fill: #eeca3b;">5</text><text text-anchor="end" transform="translate(582.22,383.0448)" style="font-family: sans-serif; font-size: 11px; fill: #eeca3b;">6</text><text text-anchor="end" transform="translate(582.22,387.6161777777778)" style="font-family: sans-serif; font-size: 11px; fill: #eeca3b;">7</text><text text-anchor="end" transform="translate(582.22,392.58506666666665)" style="font-family: sans-serif; font-size: 11px; fill: #eeca3b;">8</text><text text-anchor="end" transform="translate(582.22,394.7159111111111)" style="font-family: sans-serif; font-size: 11px; fill: #eeca3b;">9</text><text text-anchor="end" transform="translate(417.3000000000001,328.29457777777776)" style="font-family: sans-serif; font-size: 11px; fill: #e45756;">1</text><text text-anchor="end" transform="translate(440.8600000000001,332.7457777777778)" style="font-family: sans-serif; font-size: 11px; fill: #e45756;">2</text><text text-anchor="end" transform="translate(464.4199999999999,338.31555555555553)" style="font-family: sans-serif; font-size: 11px; fill: #e45756;">3</text><text text-anchor="end" transform="translate(487.9799999999999,345.688)" style="font-family: sans-serif; font-size: 11px; fill: #e45756;">4</text><text text-anchor="end" transform="translate(523.3199999999999,358.08017777777775)" style="font-family: sans-serif; font-size: 11px; fill: #e45756;">5</text><text text-anchor="end" transform="translate(523.3199999999999,364.1676444444444)" style="font-family: sans-serif; font-size: 11px; fill: #e45756;">6</text><text text-anchor="end" transform="translate(523.3199999999999,366.84853333333336)" style="font-family: sans-serif; font-size: 11px; fill: #e45756;">7</text><text text-anchor="end" transform="translate(523.3199999999999,373.82346666666666)" style="font-family: sans-serif; font-size: 11px; fill: #e45756;">8</text><text text-anchor="end" transform="translate(523.3199999999999,377.7338666666667)" style="font-family: sans-serif; font-size: 11px; fill: #e45756;">9</text><text text-anchor="end" transform="translate(146.36000000000013,100.58079999999993)" style="font-family: sans-serif; font-size: 11px; fill: #f58518;">-2</text><text text-anchor="end" transform="translate(452.6399999999999,330.0417777777778)" style="font-family: sans-serif; font-size: 11px; fill: #f58518;">1</text><text text-anchor="end" transform="translate(452.6399999999999,330.28675555555554)" style="font-family: sans-serif; font-size: 11px; fill: #f58518;">2</text><text text-anchor="end" transform="translate(464.4199999999999,330.8968888888889)" style="font-family: sans-serif; font-size: 11px; fill: #f58518;">3</text><text text-anchor="end" transform="translate(487.9799999999999,346.55235555555555)" style="font-family: sans-serif; font-size: 11px; fill: #f58518;">4</text><text text-anchor="end" transform="translate(523.3199999999999,361.4220444444444)" style="font-family: sans-serif; font-size: 11px; fill: #f58518;">5</text><text text-anchor="end" transform="translate(523.3199999999999,368.1889777777777)" style="font-family: sans-serif; font-size: 11px; fill: #f58518;">6</text><text text-anchor="end" transform="translate(523.3199999999999,368.6142222222222)" style="font-family: sans-serif; font-size: 11px; fill: #f58518;">7</text><text text-anchor="end" transform="translate(523.3199999999999,371.52160000000003)" style="font-family: sans-serif; font-size: 11px; fill: #f58518;">8</text><text text-anchor="end" transform="translate(523.3199999999999,372.8065777777778)" style="font-family: sans-serif; font-size: 11px; fill: #f58518;">9</text><text text-anchor="end" transform="translate(87.46000000000008,23.14008888888887)" style="font-family: sans-serif; font-size: 11px; fill: #4c78a8;">0</text><text text-anchor="end" transform="translate(346.62000000000006,41.12977777777779)" style="font-family: sans-serif; font-size: 11px; fill: #4c78a8;">1</text><text text-anchor="end" transform="translate(393.74000000000007,63.36266666666671)" style="font-family: sans-serif; font-size: 11px; fill: #4c78a8;">2</text><text text-anchor="end" transform="translate(417.3000000000001,185.89777777777778)" style="font-family: sans-serif; font-size: 11px; fill: #4c78a8;">3</text><text text-anchor="end" transform="translate(417.3000000000001,335.79644444444443)" style="font-family: sans-serif; font-size: 11px; fill: #72b7b2;">1</text><text text-anchor="end" transform="translate(440.8600000000001,340.4695111111111)" style="font-family: sans-serif; font-size: 11px; fill: #72b7b2;">2</text><text text-anchor="end" transform="translate(464.4199999999999,345.4568888888889)" style="font-family: sans-serif; font-size: 11px; fill: #72b7b2;">3</text><text text-anchor="end" transform="translate(499.75999999999993,357.8536888888889)" style="font-family: sans-serif; font-size: 11px; fill: #72b7b2;">4</text><text text-anchor="end" transform="translate(511.5399999999999,359.6332444444444)" style="font-family: sans-serif; font-size: 11px; fill: #72b7b2;">5</text><text text-anchor="end" transform="translate(582.22,372.2519111111111)" style="font-family: sans-serif; font-size: 11px; fill: #72b7b2;">6</text><text text-anchor="end" transform="translate(582.22,387.40355555555556)" style="font-family: sans-serif; font-size: 11px; fill: #72b7b2;">7</text><text text-anchor="end" transform="translate(582.22,392.60355555555554)" style="font-family: sans-serif; font-size: 11px; fill: #72b7b2;">8</text><text text-anchor="end" transform="translate(582.22,394.5957333333333)" style="font-family: sans-serif; font-size: 11px; fill: #72b7b2;">9</text><text text-anchor="end" transform="translate(28.56000000000002,227.90453333333332)" style="font-family: sans-serif; font-size: 11px; fill: #54a24b;">1</text><text text-anchor="end" transform="translate(429.0800000000001,344.3984)" style="font-family: sans-serif; font-size: 11px; fill: #54a24b;">2</text><text text-anchor="end" transform="translate(464.4199999999999,350.7123555555556)" style="font-family: sans-serif; font-size: 11px; fill: #54a24b;">3</text><text text-anchor="end" transform="translate(499.75999999999993,361.0476444444445)" style="font-family: sans-serif; font-size: 11px; fill: #54a24b;">4</text><text text-anchor="end" transform="translate(570.4399999999999,366.1552)" style="font-family: sans-serif; font-size: 11px; fill: #54a24b;">5</text><text text-anchor="end" transform="translate(582.22,373.06080000000003)" style="font-family: sans-serif; font-size: 11px; fill: #54a24b;">6</text><text text-anchor="end" transform="translate(582.22,387.5191111111111)" style="font-family: sans-serif; font-size: 11px; fill: #54a24b;">7</text><text text-anchor="end" transform="translate(582.22,392.65902222222223)" style="font-family: sans-serif; font-size: 11px; fill: #54a24b;">8</text><text text-anchor="end" transform="translate(582.22,394.43857777777777)" style="font-family: sans-serif; font-size: 11px; fill: #54a24b;">9</text><text text-anchor="end" transform="translate(440.8600000000001,358.3159111111111)" style="font-family: sans-serif; font-size: 11px; fill: #b279a2;">1</text><text text-anchor="end" transform="translate(476.1999999999999,361.78257777777776)" style="font-family: sans-serif; font-size: 11px; fill: #b279a2;">2</text><text text-anchor="end" transform="translate(511.5399999999999,370.31982222222223)" style="font-family: sans-serif; font-size: 11px; fill: #b279a2;">3</text><text text-anchor="end" transform="translate(535.0999999999999,372.63093333333336)" style="font-family: sans-serif; font-size: 11px; fill: #b279a2;">4</text><text text-anchor="end" transform="translate(558.66,381.80604444444447)" style="font-family: sans-serif; font-size: 11px; fill: #b279a2;">5</text><text text-anchor="end" transform="translate(582.22,389.98275555555557)" style="font-family: sans-serif; font-size: 11px; fill: #b279a2;">6</text><text text-anchor="end" transform="translate(582.22,392.96871111111113)" style="font-family: sans-serif; font-size: 11px; fill: #b279a2;">7</text><text text-anchor="end" transform="translate(582.22,396.86986666666667)" style="font-family: sans-serif; font-size: 11px; fill: #b279a2;">8</text><text text-anchor="end" transform="translate(582.22,398.0808888888889)" style="font-family: sans-serif; font-size: 11px; fill: #b279a2;">9</text></g><g class="mark-group role-title"><g transform="translate(294.5,-22)"><path class="background" d="M0,0h0v0h0Z" style="pointer-events: none; fill: none;"></path><g><g class="mark-text role-title-text" style="pointer-events: none;"><text text-anchor="middle" transform="translate(0,10)" style="font-family: sans-serif; font-size: 13px; font-weight: bold; fill: #000; opacity: 1;">Deflater throughput/ratio per level for 'silesia/ooffice' on i7-8650U / 1900MHz</text></g></g><path class="foreground" d="" style="pointer-events: none; display: none; fill: none;"></path></g></g><g class="mark-group role-legend"><g transform="translate(506,0)"><path class="background" d="M0.5,0.5h83v125h-83Z" style="pointer-events: none; fill: #ffffff; stroke: #000000;"></path><g><g class="mark-group role-legend-entry"><g transform="translate(8,8)"><path class="background" d="M0,0h0v0h0Z" style="pointer-events: none; fill: none;"></path><g><g class="mark-group role-scope"><g transform="translate(0,0)"><path class="background" d="M0,0h67v12.5h-67Z" style="pointer-events: none; fill: none; opacity: 1;"></path><g><g class="mark-symbol role-legend-symbol" style="pointer-events: none;"><path transform="translate(6,6)" d="M5,0A5,5,0,1,1,-5,0A5,5,0,1,1,5,0" style="fill: #4c78a8; stroke: #4c78a8; stroke-width: 1.5; opacity: 1;"></path></g><g class="mark-text role-legend-label" style="pointer-events: none;"><text text-anchor="start" transform="translate(16,9)" style="font-family: sans-serif; font-size: 10px; fill: #000; opacity: 1;">isal</text></g></g><path class="foreground" d="" style="pointer-events: none; display: none; fill: none;"></path></g><g transform="translate(0,16)"><path class="background" d="M0,0h67v12.5h-67Z" style="pointer-events: none; fill: none; opacity: 1;"></path><g><g class="mark-symbol role-legend-symbol" style="pointer-events: none;"><path transform="translate(6,6)" d="M5,0A5,5,0,1,1,-5,0A5,5,0,1,1,5,0" style="fill: #f58518; stroke: #f58518; stroke-width: 1.5; opacity: 1;"></path></g><g class="mark-text role-legend-label" style="pointer-events: none;"><text text-anchor="start" transform="translate(16,9)" style="font-family: sans-serif; font-size: 10px; fill: #000; opacity: 1;">ipp</text></g></g><path class="foreground" d="" style="pointer-events: none; display: none; fill: none;"></path></g><g transform="translate(0,32)"><path class="background" d="M0,0h67v12.5h-67Z" style="pointer-events: none; fill: none; opacity: 1;"></path><g><g class="mark-symbol role-legend-symbol" style="pointer-events: none;"><path transform="translate(6,6)" d="M5,0A5,5,0,1,1,-5,0A5,5,0,1,1,5,0" style="fill: #e45756; stroke: #e45756; stroke-width: 1.5; opacity: 1;"></path></g><g class="mark-text role-legend-label" style="pointer-events: none;"><text text-anchor="start" transform="translate(16,9)" style="font-family: sans-serif; font-size: 10px; fill: #000; opacity: 1;">cloudflare</text></g></g><path class="foreground" d="" style="pointer-events: none; display: none; fill: none;"></path></g><g transform="translate(0,48)"><path class="background" d="M0,0h67v12.5h-67Z" style="pointer-events: none; fill: none; opacity: 1;"></path><g><g class="mark-symbol role-legend-symbol" style="pointer-events: none;"><path transform="translate(6,6)" d="M5,0A5,5,0,1,1,-5,0A5,5,0,1,1,5,0" style="fill: #72b7b2; stroke: #72b7b2; stroke-width: 1.5; opacity: 1;"></path></g><g class="mark-text role-legend-label" style="pointer-events: none;"><text text-anchor="start" transform="translate(16,9)" style="font-family: sans-serif; font-size: 10px; fill: #000; opacity: 1;">jtkukunas</text></g></g><path class="foreground" d="" style="pointer-events: none; display: none; fill: none;"></path></g><g transform="translate(0,64)"><path class="background" d="M0,0h67v12.5h-67Z" style="pointer-events: none; fill: none; opacity: 1;"></path><g><g class="mark-symbol role-legend-symbol" style="pointer-events: none;"><path transform="translate(6,6)" d="M5,0A5,5,0,1,1,-5,0A5,5,0,1,1,5,0" style="fill: #54a24b; stroke: #54a24b; stroke-width: 1.5; opacity: 1;"></path></g><g class="mark-text role-legend-label" style="pointer-events: none;"><text text-anchor="start" transform="translate(16,9)" style="font-family: sans-serif; font-size: 10px; fill: #000; opacity: 1;">ng</text></g></g><path class="foreground" d="" style="pointer-events: none; display: none; fill: none;"></path></g><g transform="translate(0,80)"><path class="background" d="M0,0h67v12.5h-67Z" style="pointer-events: none; fill: none; opacity: 1;"></path><g><g class="mark-symbol role-legend-symbol" style="pointer-events: none;"><path transform="translate(6,6)" d="M5,0A5,5,0,1,1,-5,0A5,5,0,1,1,5,0" style="fill: #eeca3b; stroke: #eeca3b; stroke-width: 1.5; opacity: 1;"></path></g><g class="mark-text role-legend-label" style="pointer-events: none;"><text text-anchor="start" transform="translate(16,9)" style="font-family: sans-serif; font-size: 10px; fill: #000; opacity: 1;">chromium</text></g></g><path class="foreground" d="" style="pointer-events: none; display: none; fill: none;"></path></g><g transform="translate(0,96)"><path class="background" d="M0,0h67v12.5h-67Z" style="pointer-events: none; fill: none; opacity: 1;"></path><g><g class="mark-symbol role-legend-symbol" style="pointer-events: none;"><path transform="translate(6,6)" d="M5,0A5,5,0,1,1,-5,0A5,5,0,1,1,5,0" style="fill: #b279a2; stroke: #b279a2; stroke-width: 1.5; opacity: 1;"></path></g><g class="mark-text role-legend-label" style="pointer-events: none;"><text text-anchor="start" transform="translate(16,9)" style="font-family: sans-serif; font-size: 10px; fill: #000; opacity: 1;">zlib</text></g></g><path class="foreground" d="" style="pointer-events: none; display: none; fill: none;"></path></g></g></g><path class="foreground" d="" style="pointer-events: none; display: none; fill: none;"></path></g></g></g><path class="foreground" d="" style="pointer-events: none; display: none; fill: none;"></path></g></g></g><path class="foreground" d="" style="display: none; fill: none;"></path></g></g></g></svg>