<svg class="marks" width="1694" height="572" viewBox="0 0 847 286" version="1.1" xmlns="http://www.w3.org/2000/svg" xmlns:xlink="http://www.w3.org/1999/xlink"><rect width="847" height="286" style="fill: white;"></rect><g transform="translate(46,70)"><g class="mark-group role-frame root"><g transform="translate(0,0)"><path class="background" d="M0,0h0v0h0Z" style="fill: none;"></path><g><g class="mark-group role-row-header row_header"><g transform="translate(-1,0)"><path class="background" d="M0,0h0v200h0Z" style="fill: none;"></path><g><g class="mark-group role-axis"><g transform="translate(0.5,0.5)"><path class="background" d="M0,0h0v0h0Z" style="pointer-events: none; fill: none;"></path><g><g class="mark-rule role-axis-tick" style="pointer-events: none;"><line transform="translate(0,200)" x2="-5" y2="0" style="fill: none; stroke: #888; stroke-width: 1; opacity: 1;"></line><line transform="translate(0,164)" x2="-5" y2="0" style="fill: none; stroke: #888; stroke-width: 1; opacity: 1;"></line><line transform="translate(0,127)" x2="-5" y2="0" style="fill: none; stroke: #888; stroke-width: 1; opacity: 1;"></line><line transform="translate(0,91)" x2="-5" y2="0" style="fill: none; stroke: #888; stroke-width: 1; opacity: 1;"></line><line transform="translate(0,55)" x2="-5" y2="0" style="fill: none; stroke: #888; stroke-width: 1; opacity: 1;"></line><line transform="translate(0,18)" x2="-5" y2="0" style="fill: none; stroke: #888; stroke-width: 1; opacity: 1;"></line></g><g class="mark-text role-axis-label" style="pointer-events: none;"><text text-anchor="end" transform="translate(-7,203)" style="font-family: sans-serif; font-size: 10px; fill: #000; opacity: 1;">0</text><text text-anchor="end" transform="translate(-7,166.63636363636363)" style="font-family: sans-serif; font-size: 10px; fill: #000; opacity: 1;">20</text><text text-anchor="end" transform="translate(-7,130.27272727272725)" style="font-family: sans-serif; font-size: 10px; fill: #000; opacity: 1;">40</text><text text-anchor="end" transform="translate(-7,93.90909090909092)" style="font-family: sans-serif; font-size: 10px; fill: #000; opacity: 1;">60</text><text text-anchor="end" transform="translate(-7,57.54545454545454)" style="font-family: sans-serif; font-size: 10px; fill: #000; opacity: 1;">80</text><text text-anchor="end" transform="translate(-7,21.181818181818187)" style="font-family: sans-serif; font-size: 10px; fill: #000; opacity: 1;">100</text></g><g class="mark-rule role-axis-domain" style="pointer-events: none;"><line transform="translate(0,200)" x2="0" y2="-200" style="fill: none; stroke: #888; stroke-width: 1; opacity: 1;"></line></g><g class="mark-text role-axis-title" style="pointer-events: none;"><text text-anchor="middle" transform="translate(-29,100) rotate(-90) translate(0,-2)" style="font-family: sans-serif; font-size: 11px; font-weight: bold; fill: #000; opacity: 1;">Throughput (kb/ms)</text></g></g><path class="foreground" d="" style="pointer-events: none; display: none; fill: none;"></path></g></g></g><path class="foreground" d="" style="display: none; fill: none;"></path></g></g><g class="mark-group role-column-footer column_footer"><g transform="translate(0,201)"><path class="background" d="M0,0h100v0h-100Z" style="fill: none;"></path><g><g class="mark-group role-axis"><g transform="translate(0.5,0.5)"><path class="background" d="M0,0h0v0h0Z" style="pointer-events: none; fill: none;"></path><g><g class="mark-rule role-axis-domain" style="pointer-events: none;"><line transform="translate(0,0)" x2="100" y2="0" style="fill: none; stroke: #888; stroke-width: 0; opacity: 1;"></line></g></g><path class="foreground" d="" style="pointer-events: none; display: none; fill: none;"></path></g></g><g class="mark-group role-title"><g transform="translate(50,10)"><path class="background" d="M0,0h0v0h0Z" style="pointer-events: none; fill: none;"></path><g><g class="mark-text role-title-text" style="pointer-events: none;"><text text-anchor="middle" transform="translate(0,-2)" style="font-family: sans-serif; font-size: 10px; fill: #000; opacity: 1;">dickens</text></g></g><path class="foreground" d="" style="pointer-events: none; display: none; fill: none;"></path></g></g></g><path class="foreground" d="" style="display: none; fill: none;"></path></g><g transform="translate(122,201)"><path class="background" d="M0,0h100v0h-100Z" style="fill: none;"></path><g><g class="mark-group role-axis"><g transform="translate(0.5,0.5)"><path class="background" d="M0,0h0v0h0Z" style="pointer-events: none; fill: none;"></path><g><g class="mark-rule role-axis-domain" style="pointer-events: none;"><line transform="translate(0,0)" x2="100" y2="0" style="fill: none; stroke: #888; stroke-width: 0; opacity: 1;"></line></g></g><path class="foreground" d="" style="pointer-events: none; display: none; fill: none;"></path></g></g><g class="mark-group role-title"><g transform="translate(50,10)"><path class="background" d="M0,0h0v0h0Z" style="pointer-events: none; fill: none;"></path><g><g class="mark-text role-title-text" style="pointer-events: none;"><text text-anchor="middle" transform="translate(0,-2)" style="font-family: sans-serif; font-size: 10px; fill: #000; opacity: 1;">mozilla</text></g></g><path class="foreground" d="" style="pointer-events: none; display: none; fill: none;"></path></g></g></g><path class="foreground" d="" style="display: none; fill: none;"></path></g><g transform="translate(244,201)"><path class="background" d="M0,0h100v0h-100Z" style="fill: none;"></path><g><g class="mark-group role-axis"><g transform="translate(0.5,0.5)"><path class="background" d="M0,0h0v0h0Z" style="pointer-events: none; fill: none;"></path><g><g class="mark-rule role-axis-domain" style="pointer-events: none;"><line transform="translate(0,0)" x2="100" y2="0" style="fill: none; stroke: #888; stroke-width: 0; opacity: 1;"></line></g></g><path class="foreground" d="" style="pointer-events: none; display: none; fill: none;"></path></g></g><g class="mark-group role-title"><g transform="translate(50,10)"><path class="background" d="M0,0h0v0h0Z" style="pointer-events: none; fill: none;"></path><g><g class="mark-text role-title-text" style="pointer-events: none;"><text text-anchor="middle" transform="translate(0,-2)" style="font-family: sans-serif; font-size: 10px; fill: #000; opacity: 1;">mr</text></g></g><path class="foreground" d="" style="pointer-events: none; display: none; fill: none;"></path></g></g></g><path class="foreground" d="" style="display: none; fill: none;"></path></g><g transform="translate(366,201)"><path class="background" d="M0,0h100v0h-100Z" style="fill: none;"></path><g><g class="mark-group role-axis"><g transform="translate(0.5,0.5)"><path class="background" d="M0,0h0v0h0Z" style="pointer-events: none; fill: none;"></path><g><g class="mark-rule role-axis-domain" style="pointer-events: none;"><line transform="translate(0,0)" x2="100" y2="0" style="fill: none; stroke: #888; stroke-width: 0; opacity: 1;"></line></g></g><path class="foreground" d="" style="pointer-events: none; display: none; fill: none;"></path></g></g><g class="mark-group role-title"><g transform="translate(50,10)"><path class="background" d="M0,0h0v0h0Z" style="pointer-events: none; fill: none;"></path><g><g class="mark-text role-title-text" style="pointer-events: none;"><text text-anchor="middle" transform="translate(0,-2)" style="font-family: sans-serif; font-size: 10px; fill: #000; opacity: 1;">nci</text></g></g><path class="foreground" d="" style="pointer-events: none; display: none; fill: none;"></path></g></g></g><path class="foreground" d="" style="display: none; fill: none;"></path></g><g transform="translate(488,201)"><path class="background" d="M0,0h100v0h-100Z" style="fill: none;"></path><g><g class="mark-group role-axis"><g transform="translate(0.5,0.5)"><path class="background" d="M0,0h0v0h0Z" style="pointer-events: none; fill: none;"></path><g><g class="mark-rule role-axis-domain" style="pointer-events: none;"><line transform="translate(0,0)" x2="100" y2="0" style="fill: none; stroke: #888; stroke-width: 0; opacity: 1;"></line></g></g><path class="foreground" d="" style="pointer-events: none; display: none; fill: none;"></path></g></g><g class="mark-group role-title"><g transform="translate(50,10)"><path class="background" d="M0,0h0v0h0Z" style="pointer-events: none; fill: none;"></path><g><g class="mark-text role-title-text" style="pointer-events: none;"><text text-anchor="middle" transform="translate(0,-2)" style="font-family: sans-serif; font-size: 10px; fill: #000; opacity: 1;">ooffice</text></g></g><path class="foreground" d="" style="pointer-events: none; display: none; fill: none;"></path></g></g></g><path class="foreground" d="" style="display: none; fill: none;"></path></g><g transform="translate(610,201)"><path class="background" d="M0,0h100v0h-100Z" style="fill: none;"></path><g><g class="mark-group role-axis"><g transform="translate(0.5,0.5)"><path class="background" d="M0,0h0v0h0Z" style="pointer-events: none; fill: none;"></path><g><g class="mark-rule role-axis-domain" style="pointer-events: none;"><line transform="translate(0,0)" x2="100" y2="0" style="fill: none; stroke: #888; stroke-width: 0; opacity: 1;"></line></g></g><path class="foreground" d="" style="pointer-events: none; display: none; fill: none;"></path></g></g><g class="mark-group role-title"><g transform="translate(50,10)"><path class="background" d="M0,0h0v0h0Z" style="pointer-events: none; fill: none;"></path><g><g class="mark-text role-title-text" style="pointer-events: none;"><text text-anchor="middle" transform="translate(0,-2)" style="font-family: sans-serif; font-size: 10px; fill: #000; opacity: 1;">osdb</text></g></g><path class="foreground" d="" style="pointer-events: none; display: none; fill: none;"></path></g></g></g><path class="foreground" d="" style="display: none; fill: none;"></path></g></g><g class="mark-group role-scope cell"><g transform="translate(0,0)"><path class="background" d="M0.5,0.5h100v200h-100Z" style="fill: none; stroke: none;"></path><g><g class="mark-group role-axis"><g transform="translate(0.5,0.5)"><path class="background" d="M0,0h0v0h0Z" style="pointer-events: none; fill: none;"></path><g><g class="mark-rule role-axis-grid" style="pointer-events: none;"><line transform="translate(0,200)" x2="100" y2="0" style="fill: none; stroke: #ddd; stroke-width: 1; opacity: 1;"></line><line transform="translate(0,164)" x2="100" y2="0" style="fill: none; stroke: #ddd; stroke-width: 1; opacity: 1;"></line><line transform="translate(0,127)" x2="100" y2="0" style="fill: none; stroke: #ddd; stroke-width: 1; opacity: 1;"></line><line transform="translate(0,91)" x2="100" y2="0" style="fill: none; stroke: #ddd; stroke-width: 1; opacity: 1;"></line><line transform="translate(0,55)" x2="100" y2="0" style="fill: none; stroke: #ddd; stroke-width: 1; opacity: 1;"></line><line transform="translate(0,18)" x2="100" y2="0" style="fill: none; stroke: #ddd; stroke-width: 1; opacity: 1;"></line></g></g><path class="foreground" d="" style="pointer-events: none; display: none; fill: none;"></path></g></g><g class="mark-rect role-mark child_layer_0_marks"><path d="M21,174.92000000000002h18v25.079999999999984h-18Z" style="fill: #f58518;"></path><path d="M61,149.9490909090909h18v50.0509090909091h-18Z" style="fill: #72b7b2;"></path><path d="M81,91.86181818181818h18v108.13818181818182h-18Z" style="fill: #54a24b;"></path><path d="M41,131.42545454545456h18v68.57454545454544h-18Z" style="fill: #e45756;"></path><path d="M1,175.69454545454545h18v24.305454545454552h-18Z" style="fill: #4c78a8;"></path></g><g class="mark-text role-mark child_layer_1_marks"><text text-anchor="start" transform="translate(30,174.92000000000002) rotate(270) translate(5,3)" style="font-family: sans-serif; font-size: 11px; fill: black;">103%</text><text text-anchor="start" transform="translate(70,149.9490909090909) rotate(270) translate(5,3)" style="font-family: sans-serif; font-size: 11px; fill: black;">206%</text><text text-anchor="start" transform="translate(90,91.86181818181818) rotate(270) translate(5,3)" style="font-family: sans-serif; font-size: 11px; fill: black;">445%</text><text text-anchor="start" transform="translate(50,131.42545454545456) rotate(270) translate(5,3)" style="font-family: sans-serif; font-size: 11px; fill: black;">282%</text><text text-anchor="start" transform="translate(10,175.69454545454545) rotate(270) translate(5,3)" style="font-family: sans-serif; font-size: 11px; fill: black;">100%</text></g></g><path class="foreground" d="" style="display: none; fill: none;"></path></g><g transform="translate(122,0)"><path class="background" d="M0.5,0.5h100v200h-100Z" style="fill: none; stroke: none;"></path><g><g class="mark-group role-axis"><g transform="translate(0.5,0.5)"><path class="background" d="M0,0h0v0h0Z" style="pointer-events: none; fill: none;"></path><g><g class="mark-rule role-axis-grid" style="pointer-events: none;"><line transform="translate(0,200)" x2="100" y2="0" style="fill: none; stroke: #ddd; stroke-width: 1; opacity: 1;"></line><line transform="translate(0,164)" x2="100" y2="0" style="fill: none; stroke: #ddd; stroke-width: 1; opacity: 1;"></line><line transform="translate(0,127)" x2="100" y2="0" style="fill: none; stroke: #ddd; stroke-width: 1; opacity: 1;"></line><line transform="translate(0,91)" x2="100" y2="0" style="fill: none; stroke: #ddd; stroke-width: 1; opacity: 1;"></line><line transform="translate(0,55)" x2="100" y2="0" style="fill: none; stroke: #ddd; stroke-width: 1; opacity: 1;"></line><line transform="translate(0,18)" x2="100" y2="0" style="fill: none; stroke: #ddd; stroke-width: 1; opacity: 1;"></line></g></g><path class="foreground" d="" style="pointer-events: none; display: none; fill: none;"></path></g></g><g class="mark-rect role-mark child_layer_0_marks"><path d="M21,153.80727272727273h18v46.19272727272727h-18Z" style="fill: #f58518;"></path><path d="M61,135.92h18v64.08000000000001h-18Z" style="fill: #72b7b2;"></path><path d="M81,73.0909090909091h18v126.9090909090909h-18Z" style="fill: #54a24b;"></path><path d="M41,114.38909090909091h18v85.61090909090909h-18Z" style="fill: #e45756;"></path><path d="M1,164.73454545454547h18v35.26545454545453h-18Z" style="fill: #4c78a8;"></path></g><g class="mark-text role-mark child_layer_1_marks"><text text-anchor="start" transform="translate(30,153.80727272727273) rotate(270) translate(5,3)" style="font-family: sans-serif; font-size: 11px; fill: black;">131%</text><text text-anchor="start" transform="translate(70,135.92) rotate(270) translate(5,3)" style="font-family: sans-serif; font-size: 11px; fill: black;">182%</text><text text-anchor="start" transform="translate(90,73.0909090909091) rotate(270) translate(5,3)" style="font-family: sans-serif; font-size: 11px; fill: black;">360%</text><text text-anchor="start" transform="translate(50,114.38909090909091) rotate(270) translate(5,3)" style="font-family: sans-serif; font-size: 11px; fill: black;">243%</text><text text-anchor="start" transform="translate(10,164.73454545454547) rotate(270) translate(5,3)" style="font-family: sans-serif; font-size: 11px; fill: black;">100%</text></g></g><path class="foreground" d="" style="display: none; fill: none;"></path></g><g transform="translate(244,0)"><path class="background" d="M0.5,0.5h100v200h-100Z" style="fill: none; stroke: none;"></path><g><g class="mark-group role-axis"><g transform="translate(0.5,0.5)"><path class="background" d="M0,0h0v0h0Z" style="pointer-events: none; fill: none;"></path><g><g class="mark-rule role-axis-grid" style="pointer-events: none;"><line transform="translate(0,200)" x2="100" y2="0" style="fill: none; stroke: #ddd; stroke-width: 1; opacity: 1;"></line><line transform="translate(0,164)" x2="100" y2="0" style="fill: none; stroke: #ddd; stroke-width: 1; opacity: 1;"></line><line transform="translate(0,127)" x2="100" y2="0" style="fill: none; stroke: #ddd; stroke-width: 1; opacity: 1;"></line><line transform="translate(0,91)" x2="100" y2="0" style="fill: none; stroke: #ddd; stroke-width: 1; opacity: 1;"></line><line transform="translate(0,55)" x2="100" y2="0" style="fill: none; stroke: #ddd; stroke-width: 1; opacity: 1;"></line><line transform="translate(0,18)" x2="100" y2="0" style="fill: none; stroke: #ddd; stroke-width: 1; opacity: 1;"></line></g></g><path class="foreground" d="" style="pointer-events: none; display: none; fill: none;"></path></g></g><g class="mark-rect role-mark child_layer_0_marks"><path d="M21,170.29454545454544h18v29.705454545454558h-18Z" style="fill: #f58518;"></path><path d="M61,143.0181818181818h18v56.9818181818182h-18Z" style="fill: #72b7b2;"></path><path d="M81,52.847272727272745h18v147.15272727272725h-18Z" style="fill: #54a24b;"></path><path d="M41,123.96363636363637h18v76.03636363636363h-18Z" style="fill: #e45756;"></path><path d="M1,173.33454545454546h18v26.665454545454537h-18Z" style="fill: #4c78a8;"></path></g><g class="mark-text role-mark child_layer_1_marks"><text text-anchor="start" transform="translate(30,170.29454545454544) rotate(270) translate(5,3)" style="font-family: sans-serif; font-size: 11px; fill: black;">111%</text><text text-anchor="start" transform="translate(70,143.0181818181818) rotate(270) translate(5,3)" style="font-family: sans-serif; font-size: 11px; fill: black;">214%</text><text text-anchor="start" transform="translate(90,52.847272727272745) rotate(270) translate(5,3)" style="font-family: sans-serif; font-size: 11px; fill: black;">552%</text><text text-anchor="start" transform="translate(50,123.96363636363637) rotate(270) translate(5,3)" style="font-family: sans-serif; font-size: 11px; fill: black;">285%</text><text text-anchor="start" transform="translate(10,173.33454545454546) rotate(270) translate(5,3)" style="font-family: sans-serif; font-size: 11px; fill: black;">100%</text></g></g><path class="foreground" d="" style="display: none; fill: none;"></path></g><g transform="translate(366,0)"><path class="background" d="M0.5,0.5h100v200h-100Z" style="fill: none; stroke: none;"></path><g><g class="mark-group role-axis"><g transform="translate(0.5,0.5)"><path class="background" d="M0,0h0v0h0Z" style="pointer-events: none; fill: none;"></path><g><g class="mark-rule role-axis-grid" style="pointer-events: none;"><line transform="translate(0,200)" x2="100" y2="0" style="fill: none; stroke: #ddd; stroke-width: 1; opacity: 1;"></line><line transform="translate(0,164)" x2="100" y2="0" style="fill: none; stroke: #ddd; stroke-width: 1; opacity: 1;"></line><line transform="translate(0,127)" x2="100" y2="0" style="fill: none; stroke: #ddd; stroke-width: 1; opacity: 1;"></line><line transform="translate(0,91)" x2="100" y2="0" style="fill: none; stroke: #ddd; stroke-width: 1; opacity: 1;"></line><line transform="translate(0,55)" x2="100" y2="0" style="fill: none; stroke: #ddd; stroke-width: 1; opacity: 1;"></line><line transform="translate(0,18)" x2="100" y2="0" style="fill: none; stroke: #ddd; stroke-width: 1; opacity: 1;"></line></g></g><path class="foreground" d="" style="pointer-events: none; display: none; fill: none;"></path></g></g><g class="mark-rect role-mark child_layer_0_marks"><path d="M21,87.23636363636362h18v112.76363636363638h-18Z" style="fill: #f58518;"></path><path d="M61,8.065454545454532h18v191.93454545454546h-18Z" style="fill: #72b7b2;"></path><path d="M81,51.53454545454548h18v148.46545454545452h-18Z" style="fill: #54a24b;"></path><path d="M41,5.523636363636353h18v194.47636363636366h-18Z" style="fill: #e45756;"></path><path d="M1,96.36h18v103.64h-18Z" style="fill: #4c78a8;"></path></g><g class="mark-text role-mark child_layer_1_marks"><text text-anchor="start" transform="translate(30,87.23636363636362) rotate(270) translate(5,3)" style="font-family: sans-serif; font-size: 11px; fill: black;">109%</text><text text-anchor="start" transform="translate(70,8.065454545454532) rotate(270) translate(5,3)" style="font-family: sans-serif; font-size: 11px; fill: black;">185%</text><text text-anchor="start" transform="translate(90,51.53454545454548) rotate(270) translate(5,3)" style="font-family: sans-serif; font-size: 11px; fill: black;">143%</text><text text-anchor="start" transform="translate(50,5.523636363636353) rotate(270) translate(5,3)" style="font-family: sans-serif; font-size: 11px; fill: black;">188%</text><text text-anchor="start" transform="translate(10,96.36) rotate(270) translate(5,3)" style="font-family: sans-serif; font-size: 11px; fill: black;">100%</text></g></g><path class="foreground" d="" style="display: none; fill: none;"></path></g><g transform="translate(488,0)"><path class="background" d="M0.5,0.5h100v200h-100Z" style="fill: none; stroke: none;"></path><g><g class="mark-group role-axis"><g transform="translate(0.5,0.5)"><path class="background" d="M0,0h0v0h0Z" style="pointer-events: none; fill: none;"></path><g><g class="mark-rule role-axis-grid" style="pointer-events: none;"><line transform="translate(0,200)" x2="100" y2="0" style="fill: none; stroke: #ddd; stroke-width: 1; opacity: 1;"></line><line transform="translate(0,164)" x2="100" y2="0" style="fill: none; stroke: #ddd; stroke-width: 1; opacity: 1;"></line><line transform="translate(0,127)" x2="100" y2="0" style="fill: none; stroke: #ddd; stroke-width: 1; opacity: 1;"></line><line transform="translate(0,91)" x2="100" y2="0" style="fill: none; stroke: #ddd; stroke-width: 1; opacity: 1;"></line><line transform="translate(0,55)" x2="100" y2="0" style="fill: none; stroke: #ddd; stroke-width: 1; opacity: 1;"></line><line transform="translate(0,18)" x2="100" y2="0" style="fill: none; stroke: #ddd; stroke-width: 1; opacity: 1;"></line></g></g><path class="foreground" d="" style="pointer-events: none; display: none; fill: none;"></path></g></g><g class="mark-rect role-mark child_layer_0_marks"><path d="M21,167.0872727272727h18v32.912727272727295h-18Z" style="fill: #f58518;"></path><path d="M61,142.93454545454546h18v57.06545454545454h-18Z" style="fill: #72b7b2;"></path><path d="M81,87.6h18v112.4h-18Z" style="fill: #54a24b;"></path><path d="M41,127.36000000000001h18v72.63999999999999h-18Z" style="fill: #e45756;"></path><path d="M1,172.01090909090908h18v27.98909090909092h-18Z" style="fill: #4c78a8;"></path></g><g class="mark-text role-mark child_layer_1_marks"><text text-anchor="start" transform="translate(30,167.0872727272727) rotate(270) translate(5,3)" style="font-family: sans-serif; font-size: 11px; fill: black;">118%</text><text text-anchor="start" transform="translate(70,142.93454545454546) rotate(270) translate(5,3)" style="font-family: sans-serif; font-size: 11px; fill: black;">204%</text><text text-anchor="start" transform="translate(90,87.6) rotate(270) translate(5,3)" style="font-family: sans-serif; font-size: 11px; fill: black;">402%</text><text text-anchor="start" transform="translate(50,127.36000000000001) rotate(270) translate(5,3)" style="font-family: sans-serif; font-size: 11px; fill: black;">260%</text><text text-anchor="start" transform="translate(10,172.01090909090908) rotate(270) translate(5,3)" style="font-family: sans-serif; font-size: 11px; fill: black;">100%</text></g></g><path class="foreground" d="" style="display: none; fill: none;"></path></g><g transform="translate(610,0)"><path class="background" d="M0.5,0.5h100v200h-100Z" style="fill: none; stroke: none;"></path><g><g class="mark-group role-axis"><g transform="translate(0.5,0.5)"><path class="background" d="M0,0h0v0h0Z" style="pointer-events: none; fill: none;"></path><g><g class="mark-rule role-axis-grid" style="pointer-events: none;"><line transform="translate(0,200)" x2="100" y2="0" style="fill: none; stroke: #ddd; stroke-width: 1; opacity: 1;"></line><line transform="translate(0,164)" x2="100" y2="0" style="fill: none; stroke: #ddd; stroke-width: 1; opacity: 1;"></line><line transform="translate(0,127)" x2="100" y2="0" style="fill: none; stroke: #ddd; stroke-width: 1; opacity: 1;"></line><line transform="translate(0,91)" x2="100" y2="0" style="fill: none; stroke: #ddd; stroke-width: 1; opacity: 1;"></line><line transform="translate(0,55)" x2="100" y2="0" style="fill: none; stroke: #ddd; stroke-width: 1; opacity: 1;"></line><line transform="translate(0,18)" x2="100" y2="0" style="fill: none; stroke: #ddd; stroke-width: 1; opacity: 1;"></line></g></g><path class="foreground" d="" style="pointer-events: none; display: none; fill: none;"></path></g></g><g class="mark-rect role-mark child_layer_0_marks"><path d="M21,140.92h18v59.08000000000001h-18Z" style="fill: #f58518;"></path><path d="M61,104.44h18v95.56h-18Z" style="fill: #72b7b2;"></path><path d="M81,78.87272727272727h18v121.12727272727273h-18Z" style="fill: #54a24b;"></path><path d="M41,88.42545454545454h18v111.57454545454546h-18Z" style="fill: #e45756;"></path><path d="M1,149.04363636363635h18v50.95636363636365h-18Z" style="fill: #4c78a8;"></path></g><g class="mark-text role-mark child_layer_1_marks"><text text-anchor="start" transform="translate(30,140.92) rotate(270) translate(5,3)" style="font-family: sans-serif; font-size: 11px; fill: black;">116%</text><text text-anchor="start" transform="translate(70,104.44) rotate(270) translate(5,3)" style="font-family: sans-serif; font-size: 11px; fill: black;">188%</text><text text-anchor="start" transform="translate(90,78.87272727272727) rotate(270) translate(5,3)" style="font-family: sans-serif; font-size: 11px; fill: black;">238%</text><text text-anchor="start" transform="translate(50,88.42545454545454) rotate(270) translate(5,3)" style="font-family: sans-serif; font-size: 11px; fill: black;">219%</text><text text-anchor="start" transform="translate(10,149.04363636363635) rotate(270) translate(5,3)" style="font-family: sans-serif; font-size: 11px; fill: black;">100%</text></g></g><path class="foreground" d="" style="display: none; fill: none;"></path></g></g><g class="mark-group role-title"><g transform="translate(377.5,-64.47636363636364)"><path class="background" d="M0,0h0v0h0Z" style="pointer-events: none; fill: none;"></path><g><g class="mark-text role-title-text" style="pointer-events: none;"><text text-anchor="middle" transform="translate(0,10)" style="font-family: sans-serif; font-size: 13px; font-weight: bold; fill: #000; opacity: 1;">Deflater throughput for Silesia corpus (part1) at compression level 6 on Graviton 2</text></g></g><path class="foreground" d="" style="pointer-events: none; display: none; fill: none;"></path></g></g><g class="mark-group role-legend"><g transform="translate(729,0)"><path class="background" d="M0,0h67v63h-67Z" style="pointer-events: none; fill: none;"></path><g><g class="mark-group role-legend-entry"><g transform="translate(0,0)"><path class="background" d="M0,0h0v0h0Z" style="pointer-events: none; fill: none;"></path><g><g class="mark-group role-scope"><g transform="translate(0,0)"><path class="background" d="M0,0h67v11h-67Z" style="pointer-events: none; fill: none; opacity: 1;"></path><g><g class="mark-symbol role-legend-symbol" style="pointer-events: none;"><path transform="translate(6,6)" d="M-5,-5h10v10h-10Z" style="fill: #4c78a8; stroke-width: 1.5; opacity: 1;"></path></g><g class="mark-text role-legend-label" style="pointer-events: none;"><text text-anchor="start" transform="translate(16,9)" style="font-family: sans-serif; font-size: 10px; fill: #000; opacity: 1;">zlib</text></g></g><path class="foreground" d="" style="pointer-events: none; display: none; fill: none;"></path></g><g transform="translate(0,13)"><path class="background" d="M0,0h67v11h-67Z" style="pointer-events: none; fill: none; opacity: 1;"></path><g><g class="mark-symbol role-legend-symbol" style="pointer-events: none;"><path transform="translate(6,6)" d="M-5,-5h10v10h-10Z" style="fill: #f58518; stroke-width: 1.5; opacity: 1;"></path></g><g class="mark-text role-legend-label" style="pointer-events: none;"><text text-anchor="start" transform="translate(16,9)" style="font-family: sans-serif; font-size: 10px; fill: #000; opacity: 1;">chromium</text></g></g><path class="foreground" d="" style="pointer-events: none; display: none; fill: none;"></path></g><g transform="translate(0,26)"><path class="background" d="M0,0h67v11h-67Z" style="pointer-events: none; fill: none; opacity: 1;"></path><g><g class="mark-symbol role-legend-symbol" style="pointer-events: none;"><path transform="translate(6,6)" d="M-5,-5h10v10h-10Z" style="fill: #e45756; stroke-width: 1.5; opacity: 1;"></path></g><g class="mark-text role-legend-label" style="pointer-events: none;"><text text-anchor="start" transform="translate(16,9)" style="font-family: sans-serif; font-size: 10px; fill: #000; opacity: 1;">ng</text></g></g><path class="foreground" d="" style="pointer-events: none; display: none; fill: none;"></path></g><g transform="translate(0,39)"><path class="background" d="M0,0h67v11h-67Z" style="pointer-events: none; fill: none; opacity: 1;"></path><g><g class="mark-symbol role-legend-symbol" style="pointer-events: none;"><path transform="translate(6,6)" d="M-5,-5h10v10h-10Z" style="fill: #72b7b2; stroke-width: 1.5; opacity: 1;"></path></g><g class="mark-text role-legend-label" style="pointer-events: none;"><text text-anchor="start" transform="translate(16,9)" style="font-family: sans-serif; font-size: 10px; fill: #000; opacity: 1;">cloudflare</text></g></g><path class="foreground" d="" style="pointer-events: none; display: none; fill: none;"></path></g><g transform="translate(0,52)"><path class="background" d="M0,0h67v11h-67Z" style="pointer-events: none; fill: none; opacity: 1;"></path><g><g class="mark-symbol role-legend-symbol" style="pointer-events: none;"><path transform="translate(6,6)" d="M-5,-5h10v10h-10Z" style="fill: #54a24b; stroke-width: 1.5; opacity: 1;"></path></g><g class="mark-text role-legend-label" style="pointer-events: none;"><text text-anchor="start" transform="translate(16,9)" style="font-family: sans-serif; font-size: 10px; fill: #000; opacity: 1;">isal</text></g></g><path class="foreground" d="" style="pointer-events: none; display: none; fill: none;"></path></g></g></g><path class="foreground" d="" style="pointer-events: none; display: none; fill: none;"></path></g></g></g><path class="foreground" d="" style="pointer-events: none; display: none; fill: none;"></path></g></g></g><path class="foreground" d="" style="display: none; fill: none;"></path></g></g></g></svg>