<svg class="marks" width="1280" height="960" viewBox="0 0 640 480" version="1.1" xmlns="http://www.w3.org/2000/svg" xmlns:xlink="http://www.w3.org/1999/xlink"><rect width="640" height="480" style="fill: white;"></rect><g transform="translate(45,27)"><g class="mark-group role-frame root"><g transform="translate(0,0)"><path class="background" d="M0.5,0.5h589v416h-589Z" style="fill: none; stroke: #ddd;"></path><g><g class="mark-group role-axis"><g transform="translate(0.5,416.5)"><path class="background" d="M0,0h0v0h0Z" style="pointer-events: none; fill: none;"></path><g><g class="mark-rule role-axis-grid" style="pointer-events: none;"><line transform="translate(0,-416)" x2="0" y2="416" style="fill: none; stroke: #ddd; stroke-width: 1; opacity: 1;"></line><line transform="translate(54,-416)" x2="0" y2="416" style="fill: none; stroke: #ddd; stroke-width: 1; opacity: 1;"></line><line transform="translate(107,-416)" x2="0" y2="416" style="fill: none; stroke: #ddd; stroke-width: 1; opacity: 1;"></line><line transform="translate(161,-416)" x2="0" y2="416" style="fill: none; stroke: #ddd; stroke-width: 1; opacity: 1;"></line><line transform="translate(214,-416)" x2="0" y2="416" style="fill: none; stroke: #ddd; stroke-width: 1; opacity: 1;"></line><line transform="translate(268,-416)" x2="0" y2="416" style="fill: none; stroke: #ddd; stroke-width: 1; opacity: 1;"></line><line transform="translate(321,-416)" x2="0" y2="416" style="fill: none; stroke: #ddd; stroke-width: 1; opacity: 1;"></line><line transform="translate(375,-416)" x2="0" y2="416" style="fill: none; stroke: #ddd; stroke-width: 1; opacity: 1;"></line><line transform="translate(428,-416)" x2="0" y2="416" style="fill: none; stroke: #ddd; stroke-width: 1; opacity: 1;"></line><line transform="translate(482,-416)" x2="0" y2="416" style="fill: none; stroke: #ddd; stroke-width: 1; opacity: 1;"></line><line transform="translate(535,-416)" x2="0" y2="416" style="fill: none; stroke: #ddd; stroke-width: 1; opacity: 1;"></line><line transform="translate(589,-416)" x2="0" y2="416" style="fill: none; stroke: #ddd; stroke-width: 1; opacity: 1;"></line></g></g><path class="foreground" d="" style="pointer-events: none; display: none; fill: none;"></path></g></g><g class="mark-group role-axis"><g transform="translate(0.5,0.5)"><path class="background" d="M0,0h0v0h0Z" style="pointer-events: none; fill: none;"></path><g><g class="mark-rule role-axis-grid" style="pointer-events: none;"><line transform="translate(0,416)" x2="589" y2="0" style="fill: none; stroke: #ddd; stroke-width: 1; opacity: 1;"></line><line transform="translate(0,370)" x2="589" y2="0" style="fill: none; stroke: #ddd; stroke-width: 1; opacity: 1;"></line><line transform="translate(0,324)" x2="589" y2="0" style="fill: none; stroke: #ddd; stroke-width: 1; opacity: 1;"></line><line transform="translate(0,277)" x2="589" y2="0" style="fill: none; stroke: #ddd; stroke-width: 1; opacity: 1;"></line><line transform="translate(0,231)" x2="589" y2="0" style="fill: none; stroke: #ddd; stroke-width: 1; opacity: 1;"></line><line transform="translate(0,185)" x2="589" y2="0" style="fill: none; stroke: #ddd; stroke-width: 1; opacity: 1;"></line><line transform="translate(0,139)" x2="589" y2="0" style="fill: none; stroke: #ddd; stroke-width: 1; opacity: 1;"></line><line transform="translate(0,92)" x2="589" y2="0" style="fill: none; stroke: #ddd; stroke-width: 1; opacity: 1;"></line><line transform="translate(0,46)" x2="589" y2="0" style="fill: none; stroke: #ddd; stroke-width: 1; opacity: 1;"></line><line transform="translate(0,0)" x2="589" y2="0" style="fill: none; stroke: #ddd; stroke-width: 1; opacity: 1;"></line></g></g><path class="foreground" d="" style="pointer-events: none; display: none; fill: none;"></path></g></g><g class="mark-group role-axis"><g transform="translate(0.5,416.5)"><path class="background" d="M0,0h0v0h0Z" style="pointer-events: none; fill: none;"></path><g><g class="mark-rule role-axis-tick" style="pointer-events: none;"><line transform="translate(0,0)" x2="0" y2="5" style="fill: none; stroke: #888; stroke-width: 1; opacity: 1;"></line><line transform="translate(54,0)" x2="0" y2="5" style="fill: none; stroke: #888; stroke-width: 1; opacity: 1;"></line><line transform="translate(107,0)" x2="0" y2="5" style="fill: none; stroke: #888; stroke-width: 1; opacity: 1;"></line><line transform="translate(161,0)" x2="0" y2="5" style="fill: none; stroke: #888; stroke-width: 1; opacity: 1;"></line><line transform="translate(214,0)" x2="0" y2="5" style="fill: none; stroke: #888; stroke-width: 1; opacity: 1;"></line><line transform="translate(268,0)" x2="0" y2="5" style="fill: none; stroke: #888; stroke-width: 1; opacity: 1;"></line><line transform="translate(321,0)" x2="0" y2="5" style="fill: none; stroke: #888; stroke-width: 1; opacity: 1;"></line><line transform="translate(375,0)" x2="0" y2="5" style="fill: none; stroke: #888; stroke-width: 1; opacity: 1;"></line><line transform="translate(428,0)" x2="0" y2="5" style="fill: none; stroke: #888; stroke-width: 1; opacity: 1;"></line><line transform="translate(482,0)" x2="0" y2="5" style="fill: none; stroke: #888; stroke-width: 1; opacity: 1;"></line><line transform="translate(535,0)" x2="0" y2="5" style="fill: none; stroke: #888; stroke-width: 1; opacity: 1;"></line><line transform="translate(589,0)" x2="0" y2="5" style="fill: none; stroke: #888; stroke-width: 1; opacity: 1;"></line></g><g class="mark-text role-axis-label" style="pointer-events: none;"><text text-anchor="start" transform="translate(0,15)" style="font-family: sans-serif; font-size: 10px; fill: #000; opacity: 1;">6.0</text><text text-anchor="middle" transform="translate(53.54545454545455,15)" style="font-family: sans-serif; font-size: 10px; fill: #000; opacity: 1;">6.5</text><text text-anchor="middle" transform="translate(107.0909090909091,15)" style="font-family: sans-serif; font-size: 10px; fill: #000; opacity: 1;">7.0</text><text text-anchor="middle" transform="translate(160.63636363636363,15)" style="font-family: sans-serif; font-size: 10px; fill: #000; opacity: 1;">7.5</text><text text-anchor="middle" transform="translate(214.1818181818182,15)" style="font-family: sans-serif; font-size: 10px; fill: #000; opacity: 1;">8.0</text><text text-anchor="middle" transform="translate(267.7272727272727,15)" style="font-family: sans-serif; font-size: 10px; fill: #000; opacity: 1;">8.5</text><text text-anchor="middle" transform="translate(321.27272727272725,15)" style="font-family: sans-serif; font-size: 10px; fill: #000; opacity: 1;">9.0</text><text text-anchor="middle" transform="translate(374.8181818181818,15)" style="font-family: sans-serif; font-size: 10px; fill: #000; opacity: 1;">9.5</text><text text-anchor="middle" transform="translate(428.3636363636364,15)" style="font-family: sans-serif; font-size: 10px; fill: #000; opacity: 1;">10.0</text><text text-anchor="middle" transform="translate(481.90909090909093,15)" style="font-family: sans-serif; font-size: 10px; fill: #000; opacity: 1;">10.5</text><text text-anchor="middle" transform="translate(535.4545454545454,15)" style="font-family: sans-serif; font-size: 10px; fill: #000; opacity: 1;">11.0</text><text text-anchor="end" transform="translate(589,15)" style="font-family: sans-serif; font-size: 10px; fill: #000; opacity: 1;">11.5</text></g><g class="mark-rule role-axis-domain" style="pointer-events: none;"><line transform="translate(0,0)" x2="589" y2="0" style="fill: none; stroke: #888; stroke-width: 1; opacity: 1;"></line></g><g class="mark-text role-axis-title" style="pointer-events: none;"><text text-anchor="middle" transform="translate(294.5,30)" style="font-family: sans-serif; font-size: 11px; font-weight: bold; fill: #000; opacity: 1;">Compression ratio</text></g></g><path class="foreground" d="" style="pointer-events: none; display: none; fill: none;"></path></g></g><g class="mark-group role-axis"><g transform="translate(0.5,0.5)"><path class="background" d="M0,0h0v0h0Z" style="pointer-events: none; fill: none;"></path><g><g class="mark-rule role-axis-tick" style="pointer-events: none;"><line transform="translate(0,416)" x2="-5" y2="0" style="fill: none; stroke: #888; stroke-width: 1; opacity: 1;"></line><line transform="translate(0,370)" x2="-5" y2="0" style="fill: none; stroke: #888; stroke-width: 1; opacity: 1;"></line><line transform="translate(0,324)" x2="-5" y2="0" style="fill: none; stroke: #888; stroke-width: 1; opacity: 1;"></line><line transform="translate(0,277)" x2="-5" y2="0" style="fill: none; stroke: #888; stroke-width: 1; opacity: 1;"></line><line transform="translate(0,231)" x2="-5" y2="0" style="fill: none; stroke: #888; stroke-width: 1; opacity: 1;"></line><line transform="translate(0,185)" x2="-5" y2="0" style="fill: none; stroke: #888; stroke-width: 1; opacity: 1;"></line><line transform="translate(0,139)" x2="-5" y2="0" style="fill: none; stroke: #888; stroke-width: 1; opacity: 1;"></line><line transform="translate(0,92)" x2="-5" y2="0" style="fill: none; stroke: #888; stroke-width: 1; opacity: 1;"></line><line transform="translate(0,46)" x2="-5" y2="0" style="fill: none; stroke: #888; stroke-width: 1; opacity: 1;"></line><line transform="translate(0,0)" x2="-5" y2="0" style="fill: none; stroke: #888; stroke-width: 1; opacity: 1;"></line></g><g class="mark-text role-axis-label" style="pointer-events: none;"><text text-anchor="end" transform="translate(-7,419)" style="font-family: sans-serif; font-size: 10px; fill: #000; opacity: 1;">0</text><text text-anchor="end" transform="translate(-7,372.77777777777777)" style="font-family: sans-serif; font-size: 10px; fill: #000; opacity: 1;">50</text><text text-anchor="end" transform="translate(-7,326.55555555555554)" style="font-family: sans-serif; font-size: 10px; fill: #000; opacity: 1;">100</text><text text-anchor="end" transform="translate(-7,280.33333333333337)" style="font-family: sans-serif; font-size: 10px; fill: #000; opacity: 1;">150</text><text text-anchor="end" transform="translate(-7,234.11111111111111)" style="font-family: sans-serif; font-size: 10px; fill: #000; opacity: 1;">200</text><text text-anchor="end" transform="translate(-7,187.88888888888889)" style="font-family: sans-serif; font-size: 10px; fill: #000; opacity: 1;">250</text><text text-anchor="end" transform="translate(-7,141.66666666666669)" style="font-family: sans-serif; font-size: 10px; fill: #000; opacity: 1;">300</text><text text-anchor="end" transform="translate(-7,95.44444444444444)" style="font-family: sans-serif; font-size: 10px; fill: #000; opacity: 1;">350</text><text text-anchor="end" transform="translate(-7,49.22222222222224)" style="font-family: sans-serif; font-size: 10px; fill: #000; opacity: 1;">400</text><text text-anchor="end" transform="translate(-7,3)" style="font-family: sans-serif; font-size: 10px; fill: #000; opacity: 1;">450</text></g><g class="mark-rule role-axis-domain" style="pointer-events: none;"><line transform="translate(0,416)" x2="0" y2="-416" style="fill: none; stroke: #888; stroke-width: 1; opacity: 1;"></line></g><g class="mark-text role-axis-title" style="pointer-events: none;"><text text-anchor="middle" transform="translate(-29,208) rotate(-90) translate(0,-2)" style="font-family: sans-serif; font-size: 11px; font-weight: bold; fill: #000; opacity: 1;">Throughput (kb/ms)</text></g></g><path class="foreground" d="" style="pointer-events: none; display: none; fill: none;"></path></g></g><g class="mark-group role-scope layer_0_layer_0_layer_0_pathgroup"><g transform="translate(0,0)"><path class="background" d="M0,0h589v416h-589Z" style="fill: none;"></path><g><g class="mark-line role-mark layer_0_layer_0_layer_0_marks"><path d="M222.7490909090909,282.0073244444444L264.5145454545455,289.32892444444445L304.1381818181818,301.60739555555557L359.82545454545453,340.77425777777773L456.2072727272727,352.0155022222222L480.83818181818185,379.03886222222224L501.1854545454545,384.8684088888889L542.9509090909091,401.83011555555555L560.0854545454546,408.4029155555556" style="fill: none; stroke: #eeca3b; stroke-width: 2;"></path></g></g><path class="foreground" d="" style="display: none; fill: none;"></path></g><g transform="translate(0,0)"><path class="background" d="M0,0h589v416h-589Z" style="fill: none;"></path><g><g class="mark-line role-mark layer_0_layer_0_layer_0_marks"><path d="M222.7490909090909,261.97646222222227L264.5145454545455,265.5466666666667L304.1381818181818,274.93532444444446L359.82545454545453,312.89671111111113L456.2072727272727,326.6468977777778L503.32727272727266,349.0036622222222L522.6036363636365,362.84629333333334L562.2272727272727,391.49112888888885L575.0781818181817,402.2405688888889" style="fill: none; stroke: #e45756; stroke-width: 2;"></path></g></g><path class="foreground" d="" style="display: none; fill: none;"></path></g><g transform="translate(0,0)"><path class="background" d="M0,0h589v416h-589Z" style="fill: none;"></path><g><g class="mark-line role-mark layer_0_layer_0_layer_0_marks"><path d="M58.89999999999998,117.75943111111114L221.67818181818183,307.0893511111111L245.23818181818174,308.12288L253.80545454545444,307.99345777777773L319.13090909090914,322.4480711111111L432.64727272727265,346.8626488888889L478.6963636363637,366.496L479.76727272727277,367.26883555555554L514.0363636363637,381.9101866666666L516.1781818181819,385.80394666666666" style="fill: none; stroke: #f58518; stroke-width: 2;"></path></g></g><path class="foreground" d="" style="display: none; fill: none;"></path></g><g transform="translate(0,0)"><path class="background" d="M0,0h589v416h-589Z" style="fill: none;"></path><g><g class="mark-line role-mark layer_0_layer_0_layer_0_marks"><path d="M101.73636363636365,44.17365333333333L239.88363636363638,36.71893333333331L246.309090909091,44.17365333333333L270.93999999999994,292.864" style="fill: none; stroke: #4c78a8; stroke-width: 2;"></path></g></g><path class="foreground" d="" style="display: none; fill: none;"></path></g><g transform="translate(0,0)"><path class="background" d="M0,0h589v416h-589Z" style="fill: none;"></path><g><g class="mark-line role-mark layer_0_layer_0_layer_0_marks"><path d="M222.7490909090909,289.60995555555553L264.5145454545455,296.6819555555556L304.1381818181818,306.6215822222222L440.14363636363635,346.34680888888886L471.20000000000005,375.8458311111111L473.34181818181816,352.8900266666667L501.1854545454545,384.24718222222225L542.9509090909091,401.46218666666664L560.0854545454546,408.2069333333333" style="fill: none; stroke: #72b7b2; stroke-width: 2;"></path></g></g><path class="foreground" d="" style="display: none; fill: none;"></path></g><g transform="translate(0,0)"><path class="background" d="M0,0h589v416h-589Z" style="fill: none;"></path><g><g class="mark-line role-mark layer_0_layer_0_layer_0_marks"><path d="M23.55999999999997,213.33774222222223L228.10363636363647,272.1176177777777L331.98181818181814,313.55121777777777L399.44909090909096,322.2742755555555L476.5545454545454,339.49667555555556L500.11454545454546,352.9713777777778L522.6036363636365,364.7210666666667L555.8018181818181,393.2475733333333L562.2272727272727,392.44145777777777" style="fill: none; stroke: #54a24b; stroke-width: 2;"></path></g></g><path class="foreground" d="" style="display: none; fill: none;"></path></g><g transform="translate(0,0)"><path class="background" d="M0,0h589v416h-589Z" style="fill: none;"></path><g><g class="mark-line role-mark layer_0_layer_0_layer_0_marks"><path d="M134.93454545454543,340.5486933333333L192.76363636363632,343.62524444444443L253.80545454545444,351.5384888888889L324.4854545454545,363.22901333333334L420.8672727272727,372.32369777777774L479.76727272727277,383.5094755555556L501.1854545454545,389.4111288888889L542.9509090909091,403.82321777777776L560.0854545454546,409.3458488888889" style="fill: none; stroke: #b279a2; stroke-width: 2;"></path></g></g><path class="foreground" d="" style="display: none; fill: none;"></path></g></g><g class="mark-symbol role-mark layer_0_layer_0_layer_1_marks"><path transform="translate(222.7490909090909,282.0073244444444)" d="M2.7386127875258306,0A2.7386127875258306,2.7386127875258306,0,1,1,-2.7386127875258306,0A2.7386127875258306,2.7386127875258306,0,1,1,2.7386127875258306,0" style="fill: #eeca3b; stroke-width: 2; opacity: 1;"></path><path transform="translate(264.5145454545455,289.32892444444445)" d="M2.7386127875258306,0A2.7386127875258306,2.7386127875258306,0,1,1,-2.7386127875258306,0A2.7386127875258306,2.7386127875258306,0,1,1,2.7386127875258306,0" style="fill: #eeca3b; stroke-width: 2; opacity: 1;"></path><path transform="translate(304.1381818181818,301.60739555555557)" d="M2.7386127875258306,0A2.7386127875258306,2.7386127875258306,0,1,1,-2.7386127875258306,0A2.7386127875258306,2.7386127875258306,0,1,1,2.7386127875258306,0" style="fill: #eeca3b; stroke-width: 2; opacity: 1;"></path><path transform="translate(359.82545454545453,340.77425777777773)" d="M2.7386127875258306,0A2.7386127875258306,2.7386127875258306,0,1,1,-2.7386127875258306,0A2.7386127875258306,2.7386127875258306,0,1,1,2.7386127875258306,0" style="fill: #eeca3b; stroke-width: 2; opacity: 1;"></path><path transform="translate(456.2072727272727,352.0155022222222)" d="M2.7386127875258306,0A2.7386127875258306,2.7386127875258306,0,1,1,-2.7386127875258306,0A2.7386127875258306,2.7386127875258306,0,1,1,2.7386127875258306,0" style="fill: #eeca3b; stroke-width: 2; opacity: 1;"></path><path transform="translate(480.83818181818185,379.03886222222224)" d="M2.7386127875258306,0A2.7386127875258306,2.7386127875258306,0,1,1,-2.7386127875258306,0A2.7386127875258306,2.7386127875258306,0,1,1,2.7386127875258306,0" style="fill: #eeca3b; stroke-width: 2; opacity: 1;"></path><path transform="translate(501.1854545454545,384.8684088888889)" d="M2.7386127875258306,0A2.7386127875258306,2.7386127875258306,0,1,1,-2.7386127875258306,0A2.7386127875258306,2.7386127875258306,0,1,1,2.7386127875258306,0" style="fill: #eeca3b; stroke-width: 2; opacity: 1;"></path><path transform="translate(542.9509090909091,401.83011555555555)" d="M2.7386127875258306,0A2.7386127875258306,2.7386127875258306,0,1,1,-2.7386127875258306,0A2.7386127875258306,2.7386127875258306,0,1,1,2.7386127875258306,0" style="fill: #eeca3b; stroke-width: 2; opacity: 1;"></path><path transform="translate(560.0854545454546,408.4029155555556)" d="M2.7386127875258306,0A2.7386127875258306,2.7386127875258306,0,1,1,-2.7386127875258306,0A2.7386127875258306,2.7386127875258306,0,1,1,2.7386127875258306,0" style="fill: #eeca3b; stroke-width: 2; opacity: 1;"></path><path transform="translate(222.7490909090909,261.97646222222227)" d="M2.7386127875258306,0A2.7386127875258306,2.7386127875258306,0,1,1,-2.7386127875258306,0A2.7386127875258306,2.7386127875258306,0,1,1,2.7386127875258306,0" style="fill: #e45756; stroke-width: 2; opacity: 1;"></path><path transform="translate(264.5145454545455,265.5466666666667)" d="M2.7386127875258306,0A2.7386127875258306,2.7386127875258306,0,1,1,-2.7386127875258306,0A2.7386127875258306,2.7386127875258306,0,1,1,2.7386127875258306,0" style="fill: #e45756; stroke-width: 2; opacity: 1;"></path><path transform="translate(304.1381818181818,274.93532444444446)" d="M2.7386127875258306,0A2.7386127875258306,2.7386127875258306,0,1,1,-2.7386127875258306,0A2.7386127875258306,2.7386127875258306,0,1,1,2.7386127875258306,0" style="fill: #e45756; stroke-width: 2; opacity: 1;"></path><path transform="translate(359.82545454545453,312.89671111111113)" d="M2.7386127875258306,0A2.7386127875258306,2.7386127875258306,0,1,1,-2.7386127875258306,0A2.7386127875258306,2.7386127875258306,0,1,1,2.7386127875258306,0" style="fill: #e45756; stroke-width: 2; opacity: 1;"></path><path transform="translate(456.2072727272727,326.6468977777778)" d="M2.7386127875258306,0A2.7386127875258306,2.7386127875258306,0,1,1,-2.7386127875258306,0A2.7386127875258306,2.7386127875258306,0,1,1,2.7386127875258306,0" style="fill: #e45756; stroke-width: 2; opacity: 1;"></path><path transform="translate(503.32727272727266,349.0036622222222)" d="M2.7386127875258306,0A2.7386127875258306,2.7386127875258306,0,1,1,-2.7386127875258306,0A2.7386127875258306,2.7386127875258306,0,1,1,2.7386127875258306,0" style="fill: #e45756; stroke-width: 2; opacity: 1;"></path><path transform="translate(522.6036363636365,362.84629333333334)" d="M2.7386127875258306,0A2.7386127875258306,2.7386127875258306,0,1,1,-2.7386127875258306,0A2.7386127875258306,2.7386127875258306,0,1,1,2.7386127875258306,0" style="fill: #e45756; stroke-width: 2; opacity: 1;"></path><path transform="translate(562.2272727272727,391.49112888888885)" d="M2.7386127875258306,0A2.7386127875258306,2.7386127875258306,0,1,1,-2.7386127875258306,0A2.7386127875258306,2.7386127875258306,0,1,1,2.7386127875258306,0" style="fill: #e45756; stroke-width: 2; opacity: 1;"></path><path transform="translate(575.0781818181817,402.2405688888889)" d="M2.7386127875258306,0A2.7386127875258306,2.7386127875258306,0,1,1,-2.7386127875258306,0A2.7386127875258306,2.7386127875258306,0,1,1,2.7386127875258306,0" style="fill: #e45756; stroke-width: 2; opacity: 1;"></path><path transform="translate(58.89999999999998,117.75943111111114)" d="M2.7386127875258306,0A2.7386127875258306,2.7386127875258306,0,1,1,-2.7386127875258306,0A2.7386127875258306,2.7386127875258306,0,1,1,2.7386127875258306,0" style="fill: #f58518; stroke-width: 2; opacity: 1;"></path><path transform="translate(221.67818181818183,307.0893511111111)" d="M2.7386127875258306,0A2.7386127875258306,2.7386127875258306,0,1,1,-2.7386127875258306,0A2.7386127875258306,2.7386127875258306,0,1,1,2.7386127875258306,0" style="fill: #f58518; stroke-width: 2; opacity: 1;"></path><path transform="translate(245.23818181818174,308.12288)" d="M2.7386127875258306,0A2.7386127875258306,2.7386127875258306,0,1,1,-2.7386127875258306,0A2.7386127875258306,2.7386127875258306,0,1,1,2.7386127875258306,0" style="fill: #f58518; stroke-width: 2; opacity: 1;"></path><path transform="translate(253.80545454545444,307.99345777777773)" d="M2.7386127875258306,0A2.7386127875258306,2.7386127875258306,0,1,1,-2.7386127875258306,0A2.7386127875258306,2.7386127875258306,0,1,1,2.7386127875258306,0" style="fill: #f58518; stroke-width: 2; opacity: 1;"></path><path transform="translate(319.13090909090914,322.4480711111111)" d="M2.7386127875258306,0A2.7386127875258306,2.7386127875258306,0,1,1,-2.7386127875258306,0A2.7386127875258306,2.7386127875258306,0,1,1,2.7386127875258306,0" style="fill: #f58518; stroke-width: 2; opacity: 1;"></path><path transform="translate(432.64727272727265,346.8626488888889)" d="M2.7386127875258306,0A2.7386127875258306,2.7386127875258306,0,1,1,-2.7386127875258306,0A2.7386127875258306,2.7386127875258306,0,1,1,2.7386127875258306,0" style="fill: #f58518; stroke-width: 2; opacity: 1;"></path><path transform="translate(478.6963636363637,366.496)" d="M2.7386127875258306,0A2.7386127875258306,2.7386127875258306,0,1,1,-2.7386127875258306,0A2.7386127875258306,2.7386127875258306,0,1,1,2.7386127875258306,0" style="fill: #f58518; stroke-width: 2; opacity: 1;"></path><path transform="translate(479.76727272727277,367.26883555555554)" d="M2.7386127875258306,0A2.7386127875258306,2.7386127875258306,0,1,1,-2.7386127875258306,0A2.7386127875258306,2.7386127875258306,0,1,1,2.7386127875258306,0" style="fill: #f58518; stroke-width: 2; opacity: 1;"></path><path transform="translate(514.0363636363637,381.9101866666666)" d="M2.7386127875258306,0A2.7386127875258306,2.7386127875258306,0,1,1,-2.7386127875258306,0A2.7386127875258306,2.7386127875258306,0,1,1,2.7386127875258306,0" style="fill: #f58518; stroke-width: 2; opacity: 1;"></path><path transform="translate(516.1781818181819,385.80394666666666)" d="M2.7386127875258306,0A2.7386127875258306,2.7386127875258306,0,1,1,-2.7386127875258306,0A2.7386127875258306,2.7386127875258306,0,1,1,2.7386127875258306,0" style="fill: #f58518; stroke-width: 2; opacity: 1;"></path><path transform="translate(101.73636363636365,44.17365333333333)" d="M2.7386127875258306,0A2.7386127875258306,2.7386127875258306,0,1,1,-2.7386127875258306,0A2.7386127875258306,2.7386127875258306,0,1,1,2.7386127875258306,0" style="fill: #4c78a8; stroke-width: 2; opacity: 1;"></path><path transform="translate(239.88363636363638,36.71893333333331)" d="M2.7386127875258306,0A2.7386127875258306,2.7386127875258306,0,1,1,-2.7386127875258306,0A2.7386127875258306,2.7386127875258306,0,1,1,2.7386127875258306,0" style="fill: #4c78a8; stroke-width: 2; opacity: 1;"></path><path transform="translate(246.309090909091,44.17365333333333)" d="M2.7386127875258306,0A2.7386127875258306,2.7386127875258306,0,1,1,-2.7386127875258306,0A2.7386127875258306,2.7386127875258306,0,1,1,2.7386127875258306,0" style="fill: #4c78a8; stroke-width: 2; opacity: 1;"></path><path transform="translate(270.93999999999994,292.864)" d="M2.7386127875258306,0A2.7386127875258306,2.7386127875258306,0,1,1,-2.7386127875258306,0A2.7386127875258306,2.7386127875258306,0,1,1,2.7386127875258306,0" style="fill: #4c78a8; stroke-width: 2; opacity: 1;"></path><path transform="translate(222.7490909090909,289.60995555555553)" d="M2.7386127875258306,0A2.7386127875258306,2.7386127875258306,0,1,1,-2.7386127875258306,0A2.7386127875258306,2.7386127875258306,0,1,1,2.7386127875258306,0" style="fill: #72b7b2; stroke-width: 2; opacity: 1;"></path><path transform="translate(264.5145454545455,296.6819555555556)" d="M2.7386127875258306,0A2.7386127875258306,2.7386127875258306,0,1,1,-2.7386127875258306,0A2.7386127875258306,2.7386127875258306,0,1,1,2.7386127875258306,0" style="fill: #72b7b2; stroke-width: 2; opacity: 1;"></path><path transform="translate(304.1381818181818,306.6215822222222)" d="M2.7386127875258306,0A2.7386127875258306,2.7386127875258306,0,1,1,-2.7386127875258306,0A2.7386127875258306,2.7386127875258306,0,1,1,2.7386127875258306,0" style="fill: #72b7b2; stroke-width: 2; opacity: 1;"></path><path transform="translate(440.14363636363635,346.34680888888886)" d="M2.7386127875258306,0A2.7386127875258306,2.7386127875258306,0,1,1,-2.7386127875258306,0A2.7386127875258306,2.7386127875258306,0,1,1,2.7386127875258306,0" style="fill: #72b7b2; stroke-width: 2; opacity: 1;"></path><path transform="translate(473.34181818181816,352.8900266666667)" d="M2.7386127875258306,0A2.7386127875258306,2.7386127875258306,0,1,1,-2.7386127875258306,0A2.7386127875258306,2.7386127875258306,0,1,1,2.7386127875258306,0" style="fill: #72b7b2; stroke-width: 2; opacity: 1;"></path><path transform="translate(471.20000000000005,375.8458311111111)" d="M2.7386127875258306,0A2.7386127875258306,2.7386127875258306,0,1,1,-2.7386127875258306,0A2.7386127875258306,2.7386127875258306,0,1,1,2.7386127875258306,0" style="fill: #72b7b2; stroke-width: 2; opacity: 1;"></path><path transform="translate(501.1854545454545,384.24718222222225)" d="M2.7386127875258306,0A2.7386127875258306,2.7386127875258306,0,1,1,-2.7386127875258306,0A2.7386127875258306,2.7386127875258306,0,1,1,2.7386127875258306,0" style="fill: #72b7b2; stroke-width: 2; opacity: 1;"></path><path transform="translate(542.9509090909091,401.46218666666664)" d="M2.7386127875258306,0A2.7386127875258306,2.7386127875258306,0,1,1,-2.7386127875258306,0A2.7386127875258306,2.7386127875258306,0,1,1,2.7386127875258306,0" style="fill: #72b7b2; stroke-width: 2; opacity: 1;"></path><path transform="translate(560.0854545454546,408.2069333333333)" d="M2.7386127875258306,0A2.7386127875258306,2.7386127875258306,0,1,1,-2.7386127875258306,0A2.7386127875258306,2.7386127875258306,0,1,1,2.7386127875258306,0" style="fill: #72b7b2; stroke-width: 2; opacity: 1;"></path><path transform="translate(23.55999999999997,213.33774222222223)" d="M2.7386127875258306,0A2.7386127875258306,2.7386127875258306,0,1,1,-2.7386127875258306,0A2.7386127875258306,2.7386127875258306,0,1,1,2.7386127875258306,0" style="fill: #54a24b; stroke-width: 2; opacity: 1;"></path><path transform="translate(228.10363636363647,272.1176177777777)" d="M2.7386127875258306,0A2.7386127875258306,2.7386127875258306,0,1,1,-2.7386127875258306,0A2.7386127875258306,2.7386127875258306,0,1,1,2.7386127875258306,0" style="fill: #54a24b; stroke-width: 2; opacity: 1;"></path><path transform="translate(331.98181818181814,313.55121777777777)" d="M2.7386127875258306,0A2.7386127875258306,2.7386127875258306,0,1,1,-2.7386127875258306,0A2.7386127875258306,2.7386127875258306,0,1,1,2.7386127875258306,0" style="fill: #54a24b; stroke-width: 2; opacity: 1;"></path><path transform="translate(399.44909090909096,322.2742755555555)" d="M2.7386127875258306,0A2.7386127875258306,2.7386127875258306,0,1,1,-2.7386127875258306,0A2.7386127875258306,2.7386127875258306,0,1,1,2.7386127875258306,0" style="fill: #54a24b; stroke-width: 2; opacity: 1;"></path><path transform="translate(476.5545454545454,339.49667555555556)" d="M2.7386127875258306,0A2.7386127875258306,2.7386127875258306,0,1,1,-2.7386127875258306,0A2.7386127875258306,2.7386127875258306,0,1,1,2.7386127875258306,0" style="fill: #54a24b; stroke-width: 2; opacity: 1;"></path><path transform="translate(500.11454545454546,352.9713777777778)" d="M2.7386127875258306,0A2.7386127875258306,2.7386127875258306,0,1,1,-2.7386127875258306,0A2.7386127875258306,2.7386127875258306,0,1,1,2.7386127875258306,0" style="fill: #54a24b; stroke-width: 2; opacity: 1;"></path><path transform="translate(522.6036363636365,364.7210666666667)" d="M2.7386127875258306,0A2.7386127875258306,2.7386127875258306,0,1,1,-2.7386127875258306,0A2.7386127875258306,2.7386127875258306,0,1,1,2.7386127875258306,0" style="fill: #54a24b; stroke-width: 2; opacity: 1;"></path><path transform="translate(562.2272727272727,392.44145777777777)" d="M2.7386127875258306,0A2.7386127875258306,2.7386127875258306,0,1,1,-2.7386127875258306,0A2.7386127875258306,2.7386127875258306,0,1,1,2.7386127875258306,0" style="fill: #54a24b; stroke-width: 2; opacity: 1;"></path><path transform="translate(555.8018181818181,393.2475733333333)" d="M2.7386127875258306,0A2.7386127875258306,2.7386127875258306,0,1,1,-2.7386127875258306,0A2.7386127875258306,2.7386127875258306,0,1,1,2.7386127875258306,0" style="fill: #54a24b; stroke-width: 2; opacity: 1;"></path><path transform="translate(134.93454545454543,340.5486933333333)" d="M2.7386127875258306,0A2.7386127875258306,2.7386127875258306,0,1,1,-2.7386127875258306,0A2.7386127875258306,2.7386127875258306,0,1,1,2.7386127875258306,0" style="fill: #b279a2; stroke-width: 2; opacity: 1;"></path><path transform="translate(192.76363636363632,343.62524444444443)" d="M2.7386127875258306,0A2.7386127875258306,2.7386127875258306,0,1,1,-2.7386127875258306,0A2.7386127875258306,2.7386127875258306,0,1,1,2.7386127875258306,0" style="fill: #b279a2; stroke-width: 2; opacity: 1;"></path><path transform="translate(253.80545454545444,351.5384888888889)" d="M2.7386127875258306,0A2.7386127875258306,2.7386127875258306,0,1,1,-2.7386127875258306,0A2.7386127875258306,2.7386127875258306,0,1,1,2.7386127875258306,0" style="fill: #b279a2; stroke-width: 2; opacity: 1;"></path><path transform="translate(324.4854545454545,363.22901333333334)" d="M2.7386127875258306,0A2.7386127875258306,2.7386127875258306,0,1,1,-2.7386127875258306,0A2.7386127875258306,2.7386127875258306,0,1,1,2.7386127875258306,0" style="fill: #b279a2; stroke-width: 2; opacity: 1;"></path><path transform="translate(420.8672727272727,372.32369777777774)" d="M2.7386127875258306,0A2.7386127875258306,2.7386127875258306,0,1,1,-2.7386127875258306,0A2.7386127875258306,2.7386127875258306,0,1,1,2.7386127875258306,0" style="fill: #b279a2; stroke-width: 2; opacity: 1;"></path><path transform="translate(479.76727272727277,383.5094755555556)" d="M2.7386127875258306,0A2.7386127875258306,2.7386127875258306,0,1,1,-2.7386127875258306,0A2.7386127875258306,2.7386127875258306,0,1,1,2.7386127875258306,0" style="fill: #b279a2; stroke-width: 2; opacity: 1;"></path><path transform="translate(501.1854545454545,389.4111288888889)" d="M2.7386127875258306,0A2.7386127875258306,2.7386127875258306,0,1,1,-2.7386127875258306,0A2.7386127875258306,2.7386127875258306,0,1,1,2.7386127875258306,0" style="fill: #b279a2; stroke-width: 2; opacity: 1;"></path><path transform="translate(542.9509090909091,403.82321777777776)" d="M2.7386127875258306,0A2.7386127875258306,2.7386127875258306,0,1,1,-2.7386127875258306,0A2.7386127875258306,2.7386127875258306,0,1,1,2.7386127875258306,0" style="fill: #b279a2; stroke-width: 2; opacity: 1;"></path><path transform="translate(560.0854545454546,409.3458488888889)" d="M2.7386127875258306,0A2.7386127875258306,2.7386127875258306,0,1,1,-2.7386127875258306,0A2.7386127875258306,2.7386127875258306,0,1,1,2.7386127875258306,0" style="fill: #b279a2; stroke-width: 2; opacity: 1;"></path></g><g class="mark-text role-mark layer_0_layer_1_marks"><text text-anchor="end" transform="translate(227.7490909090909,277.0073244444444)" style="font-family: sans-serif; font-size: 11px; fill: #eeca3b;">1</text><text text-anchor="end" transform="translate(269.5145454545455,284.32892444444445)" style="font-family: sans-serif; font-size: 11px; fill: #eeca3b;">2</text><text text-anchor="end" transform="translate(309.1381818181818,296.60739555555557)" style="font-family: sans-serif; font-size: 11px; fill: #eeca3b;">3</text><text text-anchor="end" transform="translate(364.82545454545453,335.77425777777773)" style="font-family: sans-serif; font-size: 11px; fill: #eeca3b;">4</text><text text-anchor="end" transform="translate(461.2072727272727,347.0155022222222)" style="font-family: sans-serif; font-size: 11px; fill: #eeca3b;">5</text><text text-anchor="end" transform="translate(485.83818181818185,374.03886222222224)" style="font-family: sans-serif; font-size: 11px; fill: #eeca3b;">6</text><text text-anchor="end" transform="translate(506.1854545454545,379.8684088888889)" style="font-family: sans-serif; font-size: 11px; fill: #eeca3b;">7</text><text text-anchor="end" transform="translate(547.9509090909091,396.83011555555555)" style="font-family: sans-serif; font-size: 11px; fill: #eeca3b;">8</text><text text-anchor="end" transform="translate(565.0854545454546,403.4029155555556)" style="font-family: sans-serif; font-size: 11px; fill: #eeca3b;">9</text><text text-anchor="end" transform="translate(227.7490909090909,256.97646222222227)" style="font-family: sans-serif; font-size: 11px; fill: #e45756;">1</text><text text-anchor="end" transform="translate(269.5145454545455,260.5466666666667)" style="font-family: sans-serif; font-size: 11px; fill: #e45756;">2</text><text text-anchor="end" transform="translate(309.1381818181818,269.93532444444446)" style="font-family: sans-serif; font-size: 11px; fill: #e45756;">3</text><text text-anchor="end" transform="translate(364.82545454545453,307.89671111111113)" style="font-family: sans-serif; font-size: 11px; fill: #e45756;">4</text><text text-anchor="end" transform="translate(461.2072727272727,321.6468977777778)" style="font-family: sans-serif; font-size: 11px; fill: #e45756;">5</text><text text-anchor="end" transform="translate(508.32727272727266,344.0036622222222)" style="font-family: sans-serif; font-size: 11px; fill: #e45756;">6</text><text text-anchor="end" transform="translate(527.6036363636365,357.84629333333334)" style="font-family: sans-serif; font-size: 11px; fill: #e45756;">7</text><text text-anchor="end" transform="translate(567.2272727272727,386.49112888888885)" style="font-family: sans-serif; font-size: 11px; fill: #e45756;">8</text><text text-anchor="end" transform="translate(580.0781818181817,397.2405688888889)" style="font-family: sans-serif; font-size: 11px; fill: #e45756;">9</text><text text-anchor="end" transform="translate(63.89999999999998,112.75943111111114)" style="font-family: sans-serif; font-size: 11px; fill: #f58518;">-2</text><text text-anchor="end" transform="translate(226.67818181818183,302.0893511111111)" style="font-family: sans-serif; font-size: 11px; fill: #f58518;">1</text><text text-anchor="end" transform="translate(250.23818181818174,303.12288)" style="font-family: sans-serif; font-size: 11px; fill: #f58518;">2</text><text text-anchor="end" transform="translate(258.80545454545444,302.99345777777773)" style="font-family: sans-serif; font-size: 11px; fill: #f58518;">3</text><text text-anchor="end" transform="translate(324.13090909090914,317.4480711111111)" style="font-family: sans-serif; font-size: 11px; fill: #f58518;">4</text><text text-anchor="end" transform="translate(437.64727272727265,341.8626488888889)" style="font-family: sans-serif; font-size: 11px; fill: #f58518;">5</text><text text-anchor="end" transform="translate(483.6963636363637,361.496)" style="font-family: sans-serif; font-size: 11px; fill: #f58518;">6</text><text text-anchor="end" transform="translate(484.76727272727277,362.26883555555554)" style="font-family: sans-serif; font-size: 11px; fill: #f58518;">7</text><text text-anchor="end" transform="translate(519.0363636363637,376.9101866666666)" style="font-family: sans-serif; font-size: 11px; fill: #f58518;">8</text><text text-anchor="end" transform="translate(521.1781818181819,380.80394666666666)" style="font-family: sans-serif; font-size: 11px; fill: #f58518;">9</text><text text-anchor="end" transform="translate(106.73636363636365,39.17365333333333)" style="font-family: sans-serif; font-size: 11px; fill: #4c78a8;">0</text><text text-anchor="end" transform="translate(244.88363636363638,31.71893333333331)" style="font-family: sans-serif; font-size: 11px; fill: #4c78a8;">1</text><text text-anchor="end" transform="translate(251.309090909091,39.17365333333333)" style="font-family: sans-serif; font-size: 11px; fill: #4c78a8;">2</text><text text-anchor="end" transform="translate(275.93999999999994,287.864)" style="font-family: sans-serif; font-size: 11px; fill: #4c78a8;">3</text><text text-anchor="end" transform="translate(227.7490909090909,284.60995555555553)" style="font-family: sans-serif; font-size: 11px; fill: #72b7b2;">1</text><text text-anchor="end" transform="translate(269.5145454545455,291.6819555555556)" style="font-family: sans-serif; font-size: 11px; fill: #72b7b2;">2</text><text text-anchor="end" transform="translate(309.1381818181818,301.6215822222222)" style="font-family: sans-serif; font-size: 11px; fill: #72b7b2;">3</text><text text-anchor="end" transform="translate(445.14363636363635,341.34680888888886)" style="font-family: sans-serif; font-size: 11px; fill: #72b7b2;">4</text><text text-anchor="end" transform="translate(478.34181818181816,347.8900266666667)" style="font-family: sans-serif; font-size: 11px; fill: #72b7b2;">5</text><text text-anchor="end" transform="translate(476.20000000000005,370.8458311111111)" style="font-family: sans-serif; font-size: 11px; fill: #72b7b2;">6</text><text text-anchor="end" transform="translate(506.1854545454545,379.24718222222225)" style="font-family: sans-serif; font-size: 11px; fill: #72b7b2;">7</text><text text-anchor="end" transform="translate(547.9509090909091,396.46218666666664)" style="font-family: sans-serif; font-size: 11px; fill: #72b7b2;">8</text><text text-anchor="end" transform="translate(565.0854545454546,403.2069333333333)" style="font-family: sans-serif; font-size: 11px; fill: #72b7b2;">9</text><text text-anchor="end" transform="translate(28.55999999999997,208.33774222222223)" style="font-family: sans-serif; font-size: 11px; fill: #54a24b;">1</text><text text-anchor="end" transform="translate(233.10363636363647,267.1176177777777)" style="font-family: sans-serif; font-size: 11px; fill: #54a24b;">2</text><text text-anchor="end" transform="translate(336.98181818181814,308.55121777777777)" style="font-family: sans-serif; font-size: 11px; fill: #54a24b;">3</text><text text-anchor="end" transform="translate(404.44909090909096,317.2742755555555)" style="font-family: sans-serif; font-size: 11px; fill: #54a24b;">4</text><text text-anchor="end" transform="translate(481.5545454545454,334.49667555555556)" style="font-family: sans-serif; font-size: 11px; fill: #54a24b;">5</text><text text-anchor="end" transform="translate(505.11454545454546,347.9713777777778)" style="font-family: sans-serif; font-size: 11px; fill: #54a24b;">6</text><text text-anchor="end" transform="translate(527.6036363636365,359.7210666666667)" style="font-family: sans-serif; font-size: 11px; fill: #54a24b;">7</text><text text-anchor="end" transform="translate(567.2272727272727,387.44145777777777)" style="font-family: sans-serif; font-size: 11px; fill: #54a24b;">8</text><text text-anchor="end" transform="translate(560.8018181818181,388.2475733333333)" style="font-family: sans-serif; font-size: 11px; fill: #54a24b;">9</text><text text-anchor="end" transform="translate(139.93454545454543,335.5486933333333)" style="font-family: sans-serif; font-size: 11px; fill: #b279a2;">1</text><text text-anchor="end" transform="translate(197.76363636363632,338.62524444444443)" style="font-family: sans-serif; font-size: 11px; fill: #b279a2;">2</text><text text-anchor="end" transform="translate(258.80545454545444,346.5384888888889)" style="font-family: sans-serif; font-size: 11px; fill: #b279a2;">3</text><text text-anchor="end" transform="translate(329.4854545454545,358.22901333333334)" style="font-family: sans-serif; font-size: 11px; fill: #b279a2;">4</text><text text-anchor="end" transform="translate(425.8672727272727,367.32369777777774)" style="font-family: sans-serif; font-size: 11px; fill: #b279a2;">5</text><text text-anchor="end" transform="translate(484.76727272727277,378.5094755555556)" style="font-family: sans-serif; font-size: 11px; fill: #b279a2;">6</text><text text-anchor="end" transform="translate(506.1854545454545,384.4111288888889)" style="font-family: sans-serif; font-size: 11px; fill: #b279a2;">7</text><text text-anchor="end" transform="translate(547.9509090909091,398.82321777777776)" style="font-family: sans-serif; font-size: 11px; fill: #b279a2;">8</text><text text-anchor="end" transform="translate(565.0854545454546,404.3458488888889)" style="font-family: sans-serif; font-size: 11px; fill: #b279a2;">9</text></g><g class="mark-group role-title"><g transform="translate(294.5,-22)"><path class="background" d="M0,0h0v0h0Z" style="pointer-events: none; fill: none;"></path><g><g class="mark-text role-title-text" style="pointer-events: none;"><text text-anchor="middle" transform="translate(0,10)" style="font-family: sans-serif; font-size: 13px; font-weight: bold; fill: #000; opacity: 1;">Deflater throughput/ratio per level for 'silesia/nci' on i7-8650U / 1900MHz</text></g></g><path class="foreground" d="" style="pointer-events: none; display: none; fill: none;"></path></g></g><g class="mark-group role-legend"><g transform="translate(506,0)"><path class="background" d="M0.5,0.5h83v125h-83Z" style="pointer-events: none; fill: #ffffff; stroke: #000000;"></path><g><g class="mark-group role-legend-entry"><g transform="translate(8,8)"><path class="background" d="M0,0h0v0h0Z" style="pointer-events: none; fill: none;"></path><g><g class="mark-group role-scope"><g transform="translate(0,0)"><path class="background" d="M0,0h67v12.5h-67Z" style="pointer-events: none; fill: none; opacity: 1;"></path><g><g class="mark-symbol role-legend-symbol" style="pointer-events: none;"><path transform="translate(6,6)" d="M5,0A5,5,0,1,1,-5,0A5,5,0,1,1,5,0" style="fill: #4c78a8; stroke: #4c78a8; stroke-width: 1.5; opacity: 1;"></path></g><g class="mark-text role-legend-label" style="pointer-events: none;"><text text-anchor="start" transform="translate(16,9)" style="font-family: sans-serif; font-size: 10px; fill: #000; opacity: 1;">isal</text></g></g><path class="foreground" d="" style="pointer-events: none; display: none; fill: none;"></path></g><g transform="translate(0,16)"><path class="background" d="M0,0h67v12.5h-67Z" style="pointer-events: none; fill: none; opacity: 1;"></path><g><g class="mark-symbol role-legend-symbol" style="pointer-events: none;"><path transform="translate(6,6)" d="M5,0A5,5,0,1,1,-5,0A5,5,0,1,1,5,0" style="fill: #f58518; stroke: #f58518; stroke-width: 1.5; opacity: 1;"></path></g><g class="mark-text role-legend-label" style="pointer-events: none;"><text text-anchor="start" transform="translate(16,9)" style="font-family: sans-serif; font-size: 10px; fill: #000; opacity: 1;">ipp</text></g></g><path class="foreground" d="" style="pointer-events: none; display: none; fill: none;"></path></g><g transform="translate(0,32)"><path class="background" d="M0,0h67v12.5h-67Z" style="pointer-events: none; fill: none; opacity: 1;"></path><g><g class="mark-symbol role-legend-symbol" style="pointer-events: none;"><path transform="translate(6,6)" d="M5,0A5,5,0,1,1,-5,0A5,5,0,1,1,5,0" style="fill: #e45756; stroke: #e45756; stroke-width: 1.5; opacity: 1;"></path></g><g class="mark-text role-legend-label" style="pointer-events: none;"><text text-anchor="start" transform="translate(16,9)" style="font-family: sans-serif; font-size: 10px; fill: #000; opacity: 1;">cloudflare</text></g></g><path class="foreground" d="" style="pointer-events: none; display: none; fill: none;"></path></g><g transform="translate(0,48)"><path class="background" d="M0,0h67v12.5h-67Z" style="pointer-events: none; fill: none; opacity: 1;"></path><g><g class="mark-symbol role-legend-symbol" style="pointer-events: none;"><path transform="translate(6,6)" d="M5,0A5,5,0,1,1,-5,0A5,5,0,1,1,5,0" style="fill: #72b7b2; stroke: #72b7b2; stroke-width: 1.5; opacity: 1;"></path></g><g class="mark-text role-legend-label" style="pointer-events: none;"><text text-anchor="start" transform="translate(16,9)" style="font-family: sans-serif; font-size: 10px; fill: #000; opacity: 1;">jtkukunas</text></g></g><path class="foreground" d="" style="pointer-events: none; display: none; fill: none;"></path></g><g transform="translate(0,64)"><path class="background" d="M0,0h67v12.5h-67Z" style="pointer-events: none; fill: none; opacity: 1;"></path><g><g class="mark-symbol role-legend-symbol" style="pointer-events: none;"><path transform="translate(6,6)" d="M5,0A5,5,0,1,1,-5,0A5,5,0,1,1,5,0" style="fill: #54a24b; stroke: #54a24b; stroke-width: 1.5; opacity: 1;"></path></g><g class="mark-text role-legend-label" style="pointer-events: none;"><text text-anchor="start" transform="translate(16,9)" style="font-family: sans-serif; font-size: 10px; fill: #000; opacity: 1;">ng</text></g></g><path class="foreground" d="" style="pointer-events: none; display: none; fill: none;"></path></g><g transform="translate(0,80)"><path class="background" d="M0,0h67v12.5h-67Z" style="pointer-events: none; fill: none; opacity: 1;"></path><g><g class="mark-symbol role-legend-symbol" style="pointer-events: none;"><path transform="translate(6,6)" d="M5,0A5,5,0,1,1,-5,0A5,5,0,1,1,5,0" style="fill: #eeca3b; stroke: #eeca3b; stroke-width: 1.5; opacity: 1;"></path></g><g class="mark-text role-legend-label" style="pointer-events: none;"><text text-anchor="start" transform="translate(16,9)" style="font-family: sans-serif; font-size: 10px; fill: #000; opacity: 1;">chromium</text></g></g><path class="foreground" d="" style="pointer-events: none; display: none; fill: none;"></path></g><g transform="translate(0,96)"><path class="background" d="M0,0h67v12.5h-67Z" style="pointer-events: none; fill: none; opacity: 1;"></path><g><g class="mark-symbol role-legend-symbol" style="pointer-events: none;"><path transform="translate(6,6)" d="M5,0A5,5,0,1,1,-5,0A5,5,0,1,1,5,0" style="fill: #b279a2; stroke: #b279a2; stroke-width: 1.5; opacity: 1;"></path></g><g class="mark-text role-legend-label" style="pointer-events: none;"><text text-anchor="start" transform="translate(16,9)" style="font-family: sans-serif; font-size: 10px; fill: #000; opacity: 1;">zlib</text></g></g><path class="foreground" d="" style="pointer-events: none; display: none; fill: none;"></path></g></g></g><path class="foreground" d="" style="pointer-events: none; display: none; fill: none;"></path></g></g></g><path class="foreground" d="" style="pointer-events: none; display: none; fill: none;"></path></g></g></g><path class="foreground" d="" style="display: none; fill: none;"></path></g></g></g></svg>