<svg class="marks" width="1544" height="566" viewBox="0 0 772 283" version="1.1" xmlns="http://www.w3.org/2000/svg" xmlns:xlink="http://www.w3.org/1999/xlink"><rect width="772" height="283" style="fill: white;"></rect><g transform="translate(40,67)"><g class="mark-group role-frame root"><g transform="translate(0,0)"><path class="background" d="M0,0h0v0h0Z" style="fill: none;"></path><g><g class="mark-group role-row-header row_header"><g transform="translate(-1,0)"><path class="background" d="M0,0h0v200h0Z" style="fill: none;"></path><g><g class="mark-group role-axis"><g transform="translate(0.5,0.5)"><path class="background" d="M0,0h0v0h0Z" style="pointer-events: none; fill: none;"></path><g><g class="mark-rule role-axis-tick" style="pointer-events: none;"><line transform="translate(0,200)" x2="-5" y2="0" style="fill: none; stroke: #888; stroke-width: 1; opacity: 1;"></line><line transform="translate(0,156)" x2="-5" y2="0" style="fill: none; stroke: #888; stroke-width: 1; opacity: 1;"></line><line transform="translate(0,111)" x2="-5" y2="0" style="fill: none; stroke: #888; stroke-width: 1; opacity: 1;"></line><line transform="translate(0,67)" x2="-5" y2="0" style="fill: none; stroke: #888; stroke-width: 1; opacity: 1;"></line><line transform="translate(0,22)" x2="-5" y2="0" style="fill: none; stroke: #888; stroke-width: 1; opacity: 1;"></line></g><g class="mark-text role-axis-label" style="pointer-events: none;"><text text-anchor="end" transform="translate(-7,203)" style="font-family: sans-serif; font-size: 10px; fill: #000; opacity: 1;">0</text><text text-anchor="end" transform="translate(-7,158.55555555555557)" style="font-family: sans-serif; font-size: 10px; fill: #000; opacity: 1;">20</text><text text-anchor="end" transform="translate(-7,114.11111111111111)" style="font-family: sans-serif; font-size: 10px; fill: #000; opacity: 1;">40</text><text text-anchor="end" transform="translate(-7,69.66666666666667)" style="font-family: sans-serif; font-size: 10px; fill: #000; opacity: 1;">60</text><text text-anchor="end" transform="translate(-7,25.222222222222232)" style="font-family: sans-serif; font-size: 10px; fill: #000; opacity: 1;">80</text></g><g class="mark-rule role-axis-domain" style="pointer-events: none;"><line transform="translate(0,200)" x2="0" y2="-200" style="fill: none; stroke: #888; stroke-width: 1; opacity: 1;"></line></g><g class="mark-text role-axis-title" style="pointer-events: none;"><text text-anchor="middle" transform="translate(-23,100) rotate(-90) translate(0,-2)" style="font-family: sans-serif; font-size: 11px; font-weight: bold; fill: #000; opacity: 1;">Throughput (kb/ms)</text></g></g><path class="foreground" d="" style="pointer-events: none; display: none; fill: none;"></path></g></g></g><path class="foreground" d="" style="display: none; fill: none;"></path></g></g><g class="mark-group role-column-footer column_footer"><g transform="translate(0,201)"><path class="background" d="M0,0h80v0h-80Z" style="fill: none;"></path><g><g class="mark-group role-axis"><g transform="translate(0.5,0.5)"><path class="background" d="M0,0h0v0h0Z" style="pointer-events: none; fill: none;"></path><g><g class="mark-rule role-axis-domain" style="pointer-events: none;"><line transform="translate(0,0)" x2="80" y2="0" style="fill: none; stroke: #888; stroke-width: 0; opacity: 1;"></line></g></g><path class="foreground" d="" style="pointer-events: none; display: none; fill: none;"></path></g></g><g class="mark-group role-title"><g transform="translate(40,10)"><path class="background" d="M0,0h0v0h0Z" style="pointer-events: none; fill: none;"></path><g><g class="mark-text role-title-text" style="pointer-events: none;"><text text-anchor="middle" transform="translate(0,-2)" style="font-family: sans-serif; font-size: 10px; fill: #000; opacity: 1;">reymont</text></g></g><path class="foreground" d="" style="pointer-events: none; display: none; fill: none;"></path></g></g></g><path class="foreground" d="" style="display: none; fill: none;"></path></g><g transform="translate(102,201)"><path class="background" d="M0,0h80v0h-80Z" style="fill: none;"></path><g><g class="mark-group role-axis"><g transform="translate(0.5,0.5)"><path class="background" d="M0,0h0v0h0Z" style="pointer-events: none; fill: none;"></path><g><g class="mark-rule role-axis-domain" style="pointer-events: none;"><line transform="translate(0,0)" x2="80" y2="0" style="fill: none; stroke: #888; stroke-width: 0; opacity: 1;"></line></g></g><path class="foreground" d="" style="pointer-events: none; display: none; fill: none;"></path></g></g><g class="mark-group role-title"><g transform="translate(40,10)"><path class="background" d="M0,0h0v0h0Z" style="pointer-events: none; fill: none;"></path><g><g class="mark-text role-title-text" style="pointer-events: none;"><text text-anchor="middle" transform="translate(0,-2)" style="font-family: sans-serif; font-size: 10px; fill: #000; opacity: 1;">samba</text></g></g><path class="foreground" d="" style="pointer-events: none; display: none; fill: none;"></path></g></g></g><path class="foreground" d="" style="display: none; fill: none;"></path></g><g transform="translate(204,201)"><path class="background" d="M0,0h80v0h-80Z" style="fill: none;"></path><g><g class="mark-group role-axis"><g transform="translate(0.5,0.5)"><path class="background" d="M0,0h0v0h0Z" style="pointer-events: none; fill: none;"></path><g><g class="mark-rule role-axis-domain" style="pointer-events: none;"><line transform="translate(0,0)" x2="80" y2="0" style="fill: none; stroke: #888; stroke-width: 0; opacity: 1;"></line></g></g><path class="foreground" d="" style="pointer-events: none; display: none; fill: none;"></path></g></g><g class="mark-group role-title"><g transform="translate(40,10)"><path class="background" d="M0,0h0v0h0Z" style="pointer-events: none; fill: none;"></path><g><g class="mark-text role-title-text" style="pointer-events: none;"><text text-anchor="middle" transform="translate(0,-2)" style="font-family: sans-serif; font-size: 10px; fill: #000; opacity: 1;">sao</text></g></g><path class="foreground" d="" style="pointer-events: none; display: none; fill: none;"></path></g></g></g><path class="foreground" d="" style="display: none; fill: none;"></path></g><g transform="translate(306,201)"><path class="background" d="M0,0h80v0h-80Z" style="fill: none;"></path><g><g class="mark-group role-axis"><g transform="translate(0.5,0.5)"><path class="background" d="M0,0h0v0h0Z" style="pointer-events: none; fill: none;"></path><g><g class="mark-rule role-axis-domain" style="pointer-events: none;"><line transform="translate(0,0)" x2="80" y2="0" style="fill: none; stroke: #888; stroke-width: 0; opacity: 1;"></line></g></g><path class="foreground" d="" style="pointer-events: none; display: none; fill: none;"></path></g></g><g class="mark-group role-title"><g transform="translate(40,10)"><path class="background" d="M0,0h0v0h0Z" style="pointer-events: none; fill: none;"></path><g><g class="mark-text role-title-text" style="pointer-events: none;"><text text-anchor="middle" transform="translate(0,-2)" style="font-family: sans-serif; font-size: 10px; fill: #000; opacity: 1;">webster</text></g></g><path class="foreground" d="" style="pointer-events: none; display: none; fill: none;"></path></g></g></g><path class="foreground" d="" style="display: none; fill: none;"></path></g><g transform="translate(408,201)"><path class="background" d="M0,0h80v0h-80Z" style="fill: none;"></path><g><g class="mark-group role-axis"><g transform="translate(0.5,0.5)"><path class="background" d="M0,0h0v0h0Z" style="pointer-events: none; fill: none;"></path><g><g class="mark-rule role-axis-domain" style="pointer-events: none;"><line transform="translate(0,0)" x2="80" y2="0" style="fill: none; stroke: #888; stroke-width: 0; opacity: 1;"></line></g></g><path class="foreground" d="" style="pointer-events: none; display: none; fill: none;"></path></g></g><g class="mark-group role-title"><g transform="translate(40,10)"><path class="background" d="M0,0h0v0h0Z" style="pointer-events: none; fill: none;"></path><g><g class="mark-text role-title-text" style="pointer-events: none;"><text text-anchor="middle" transform="translate(0,-2)" style="font-family: sans-serif; font-size: 10px; fill: #000; opacity: 1;">xml</text></g></g><path class="foreground" d="" style="pointer-events: none; display: none; fill: none;"></path></g></g></g><path class="foreground" d="" style="display: none; fill: none;"></path></g><g transform="translate(510,201)"><path class="background" d="M0,0h80v0h-80Z" style="fill: none;"></path><g><g class="mark-group role-axis"><g transform="translate(0.5,0.5)"><path class="background" d="M0,0h0v0h0Z" style="pointer-events: none; fill: none;"></path><g><g class="mark-rule role-axis-domain" style="pointer-events: none;"><line transform="translate(0,0)" x2="80" y2="0" style="fill: none; stroke: #888; stroke-width: 0; opacity: 1;"></line></g></g><path class="foreground" d="" style="pointer-events: none; display: none; fill: none;"></path></g></g><g class="mark-group role-title"><g transform="translate(40,10)"><path class="background" d="M0,0h0v0h0Z" style="pointer-events: none; fill: none;"></path><g><g class="mark-text role-title-text" style="pointer-events: none;"><text text-anchor="middle" transform="translate(0,-2)" style="font-family: sans-serif; font-size: 10px; fill: #000; opacity: 1;">x.ray</text></g></g><path class="foreground" d="" style="pointer-events: none; display: none; fill: none;"></path></g></g></g><path class="foreground" d="" style="display: none; fill: none;"></path></g></g><g class="mark-group role-scope cell"><g transform="translate(0,0)"><path class="background" d="M0.5,0.5h80v200h-80Z" style="fill: none; stroke: none;"></path><g><g class="mark-group role-axis"><g transform="translate(0.5,0.5)"><path class="background" d="M0,0h0v0h0Z" style="pointer-events: none; fill: none;"></path><g><g class="mark-rule role-axis-grid" style="pointer-events: none;"><line transform="translate(0,200)" x2="80" y2="0" style="fill: none; stroke: #ddd; stroke-width: 1; opacity: 1;"></line><line transform="translate(0,156)" x2="80" y2="0" style="fill: none; stroke: #ddd; stroke-width: 1; opacity: 1;"></line><line transform="translate(0,111)" x2="80" y2="0" style="fill: none; stroke: #ddd; stroke-width: 1; opacity: 1;"></line><line transform="translate(0,67)" x2="80" y2="0" style="fill: none; stroke: #ddd; stroke-width: 1; opacity: 1;"></line><line transform="translate(0,22)" x2="80" y2="0" style="fill: none; stroke: #ddd; stroke-width: 1; opacity: 1;"></line></g></g><path class="foreground" d="" style="pointer-events: none; display: none; fill: none;"></path></g></g><g class="mark-rect role-mark child_layer_0_marks"><path d="M1,118.69333333333331h18v81.30666666666669h-18Z" style="fill: #4c78a8;"></path><path d="M61,68.15111111111112h18v131.8488888888889h-18Z" style="fill: #72b7b2;"></path><path d="M41,120.2311111111111h18v79.7688888888889h-18Z" style="fill: #e45756;"></path><path d="M21,120.13333333333334h18v79.86666666666666h-18Z" style="fill: #f58518;"></path></g><g class="mark-text role-mark child_layer_1_marks"><text text-anchor="start" transform="translate(10,118.69333333333331) rotate(270) translate(5,3)" style="font-family: sans-serif; font-size: 11px; fill: black;">100%</text><text text-anchor="start" transform="translate(70,68.15111111111112) rotate(270) translate(5,3)" style="font-family: sans-serif; font-size: 11px; fill: black;">162%</text><text text-anchor="start" transform="translate(50,120.2311111111111) rotate(270) translate(5,3)" style="font-family: sans-serif; font-size: 11px; fill: black;">98%</text><text text-anchor="start" transform="translate(30,120.13333333333334) rotate(270) translate(5,3)" style="font-family: sans-serif; font-size: 11px; fill: black;">98%</text></g></g><path class="foreground" d="" style="display: none; fill: none;"></path></g><g transform="translate(102,0)"><path class="background" d="M0.5,0.5h80v200h-80Z" style="fill: none; stroke: none;"></path><g><g class="mark-group role-axis"><g transform="translate(0.5,0.5)"><path class="background" d="M0,0h0v0h0Z" style="pointer-events: none; fill: none;"></path><g><g class="mark-rule role-axis-grid" style="pointer-events: none;"><line transform="translate(0,200)" x2="80" y2="0" style="fill: none; stroke: #ddd; stroke-width: 1; opacity: 1;"></line><line transform="translate(0,156)" x2="80" y2="0" style="fill: none; stroke: #ddd; stroke-width: 1; opacity: 1;"></line><line transform="translate(0,111)" x2="80" y2="0" style="fill: none; stroke: #ddd; stroke-width: 1; opacity: 1;"></line><line transform="translate(0,67)" x2="80" y2="0" style="fill: none; stroke: #ddd; stroke-width: 1; opacity: 1;"></line><line transform="translate(0,22)" x2="80" y2="0" style="fill: none; stroke: #ddd; stroke-width: 1; opacity: 1;"></line></g></g><path class="foreground" d="" style="pointer-events: none; display: none; fill: none;"></path></g></g><g class="mark-rect role-mark child_layer_0_marks"><path d="M1,104.46666666666667h18v95.53333333333333h-18Z" style="fill: #4c78a8;"></path><path d="M61,48.77333333333331h18v151.2266666666667h-18Z" style="fill: #72b7b2;"></path><path d="M41,105.44444444444443h18v94.55555555555557h-18Z" style="fill: #e45756;"></path><path d="M21,105.93777777777777h18v94.06222222222223h-18Z" style="fill: #f58518;"></path></g><g class="mark-text role-mark child_layer_1_marks"><text text-anchor="start" transform="translate(10,104.46666666666667) rotate(270) translate(5,3)" style="font-family: sans-serif; font-size: 11px; fill: black;">100%</text><text text-anchor="start" transform="translate(70,48.77333333333331) rotate(270) translate(5,3)" style="font-family: sans-serif; font-size: 11px; fill: black;">158%</text><text text-anchor="start" transform="translate(50,105.44444444444443) rotate(270) translate(5,3)" style="font-family: sans-serif; font-size: 11px; fill: black;">99%</text><text text-anchor="start" transform="translate(30,105.93777777777777) rotate(270) translate(5,3)" style="font-family: sans-serif; font-size: 11px; fill: black;">98%</text></g></g><path class="foreground" d="" style="display: none; fill: none;"></path></g><g transform="translate(204,0)"><path class="background" d="M0.5,0.5h80v200h-80Z" style="fill: none; stroke: none;"></path><g><g class="mark-group role-axis"><g transform="translate(0.5,0.5)"><path class="background" d="M0,0h0v0h0Z" style="pointer-events: none; fill: none;"></path><g><g class="mark-rule role-axis-grid" style="pointer-events: none;"><line transform="translate(0,200)" x2="80" y2="0" style="fill: none; stroke: #ddd; stroke-width: 1; opacity: 1;"></line><line transform="translate(0,156)" x2="80" y2="0" style="fill: none; stroke: #ddd; stroke-width: 1; opacity: 1;"></line><line transform="translate(0,111)" x2="80" y2="0" style="fill: none; stroke: #ddd; stroke-width: 1; opacity: 1;"></line><line transform="translate(0,67)" x2="80" y2="0" style="fill: none; stroke: #ddd; stroke-width: 1; opacity: 1;"></line><line transform="translate(0,22)" x2="80" y2="0" style="fill: none; stroke: #ddd; stroke-width: 1; opacity: 1;"></line></g></g><path class="foreground" d="" style="pointer-events: none; display: none; fill: none;"></path></g></g><g class="mark-rect role-mark child_layer_0_marks"><path d="M1,52.37333333333329h18v147.62666666666672h-18Z" style="fill: #4c78a8;"></path><path d="M61,8.519999999999971h18v191.48000000000002h-18Z" style="fill: #72b7b2;"></path><path d="M41,51.066666666666684h18v148.9333333333333h-18Z" style="fill: #e45756;"></path><path d="M21,49.04444444444442h18v150.95555555555558h-18Z" style="fill: #f58518;"></path></g><g class="mark-text role-mark child_layer_1_marks"><text text-anchor="start" transform="translate(10,52.37333333333329) rotate(270) translate(5,3)" style="font-family: sans-serif; font-size: 11px; fill: black;">100%</text><text text-anchor="start" transform="translate(70,8.519999999999971) rotate(270) translate(5,3)" style="font-family: sans-serif; font-size: 11px; fill: black;">130%</text><text text-anchor="start" transform="translate(50,51.066666666666684) rotate(270) translate(5,3)" style="font-family: sans-serif; font-size: 11px; fill: black;">101%</text><text text-anchor="start" transform="translate(30,49.04444444444442) rotate(270) translate(5,3)" style="font-family: sans-serif; font-size: 11px; fill: black;">102%</text></g></g><path class="foreground" d="" style="display: none; fill: none;"></path></g><g transform="translate(306,0)"><path class="background" d="M0.5,0.5h80v200h-80Z" style="fill: none; stroke: none;"></path><g><g class="mark-group role-axis"><g transform="translate(0.5,0.5)"><path class="background" d="M0,0h0v0h0Z" style="pointer-events: none; fill: none;"></path><g><g class="mark-rule role-axis-grid" style="pointer-events: none;"><line transform="translate(0,200)" x2="80" y2="0" style="fill: none; stroke: #ddd; stroke-width: 1; opacity: 1;"></line><line transform="translate(0,156)" x2="80" y2="0" style="fill: none; stroke: #ddd; stroke-width: 1; opacity: 1;"></line><line transform="translate(0,111)" x2="80" y2="0" style="fill: none; stroke: #ddd; stroke-width: 1; opacity: 1;"></line><line transform="translate(0,67)" x2="80" y2="0" style="fill: none; stroke: #ddd; stroke-width: 1; opacity: 1;"></line><line transform="translate(0,22)" x2="80" y2="0" style="fill: none; stroke: #ddd; stroke-width: 1; opacity: 1;"></line></g></g><path class="foreground" d="" style="pointer-events: none; display: none; fill: none;"></path></g></g><g class="mark-rect role-mark child_layer_0_marks"><path d="M1,117.57333333333335h18v82.42666666666665h-18Z" style="fill: #4c78a8;"></path><path d="M61,69.65777777777777h18v130.34222222222223h-18Z" style="fill: #72b7b2;"></path><path d="M41,119.51555555555555h18v80.48444444444445h-18Z" style="fill: #e45756;"></path><path d="M21,119.73777777777777h18v80.26222222222223h-18Z" style="fill: #f58518;"></path></g><g class="mark-text role-mark child_layer_1_marks"><text text-anchor="start" transform="translate(10,117.57333333333335) rotate(270) translate(5,3)" style="font-family: sans-serif; font-size: 11px; fill: black;">100%</text><text text-anchor="start" transform="translate(70,69.65777777777777) rotate(270) translate(5,3)" style="font-family: sans-serif; font-size: 11px; fill: black;">158%</text><text text-anchor="start" transform="translate(50,119.51555555555555) rotate(270) translate(5,3)" style="font-family: sans-serif; font-size: 11px; fill: black;">98%</text><text text-anchor="start" transform="translate(30,119.73777777777777) rotate(270) translate(5,3)" style="font-family: sans-serif; font-size: 11px; fill: black;">97%</text></g></g><path class="foreground" d="" style="display: none; fill: none;"></path></g><g transform="translate(408,0)"><path class="background" d="M0.5,0.5h80v200h-80Z" style="fill: none; stroke: none;"></path><g><g class="mark-group role-axis"><g transform="translate(0.5,0.5)"><path class="background" d="M0,0h0v0h0Z" style="pointer-events: none; fill: none;"></path><g><g class="mark-rule role-axis-grid" style="pointer-events: none;"><line transform="translate(0,200)" x2="80" y2="0" style="fill: none; stroke: #ddd; stroke-width: 1; opacity: 1;"></line><line transform="translate(0,156)" x2="80" y2="0" style="fill: none; stroke: #ddd; stroke-width: 1; opacity: 1;"></line><line transform="translate(0,111)" x2="80" y2="0" style="fill: none; stroke: #ddd; stroke-width: 1; opacity: 1;"></line><line transform="translate(0,67)" x2="80" y2="0" style="fill: none; stroke: #ddd; stroke-width: 1; opacity: 1;"></line><line transform="translate(0,22)" x2="80" y2="0" style="fill: none; stroke: #ddd; stroke-width: 1; opacity: 1;"></line></g></g><path class="foreground" d="" style="pointer-events: none; display: none; fill: none;"></path></g></g><g class="mark-rect role-mark child_layer_0_marks"><path d="M1,133.66222222222223h18v66.33777777777777h-18Z" style="fill: #4c78a8;"></path><path d="M61,88.69777777777779h18v111.30222222222221h-18Z" style="fill: #72b7b2;"></path><path d="M41,134.6311111111111h18v65.3688888888889h-18Z" style="fill: #e45756;"></path><path d="M21,134.9066666666667h18v65.0933333333333h-18Z" style="fill: #f58518;"></path></g><g class="mark-text role-mark child_layer_1_marks"><text text-anchor="start" transform="translate(10,133.66222222222223) rotate(270) translate(5,3)" style="font-family: sans-serif; font-size: 11px; fill: black;">100%</text><text text-anchor="start" transform="translate(70,88.69777777777779) rotate(270) translate(5,3)" style="font-family: sans-serif; font-size: 11px; fill: black;">168%</text><text text-anchor="start" transform="translate(50,134.6311111111111) rotate(270) translate(5,3)" style="font-family: sans-serif; font-size: 11px; fill: black;">99%</text><text text-anchor="start" transform="translate(30,134.9066666666667) rotate(270) translate(5,3)" style="font-family: sans-serif; font-size: 11px; fill: black;">98%</text></g></g><path class="foreground" d="" style="display: none; fill: none;"></path></g><g transform="translate(510,0)"><path class="background" d="M0.5,0.5h80v200h-80Z" style="fill: none; stroke: none;"></path><g><g class="mark-group role-axis"><g transform="translate(0.5,0.5)"><path class="background" d="M0,0h0v0h0Z" style="pointer-events: none; fill: none;"></path><g><g class="mark-rule role-axis-grid" style="pointer-events: none;"><line transform="translate(0,200)" x2="80" y2="0" style="fill: none; stroke: #ddd; stroke-width: 1; opacity: 1;"></line><line transform="translate(0,156)" x2="80" y2="0" style="fill: none; stroke: #ddd; stroke-width: 1; opacity: 1;"></line><line transform="translate(0,111)" x2="80" y2="0" style="fill: none; stroke: #ddd; stroke-width: 1; opacity: 1;"></line><line transform="translate(0,67)" x2="80" y2="0" style="fill: none; stroke: #ddd; stroke-width: 1; opacity: 1;"></line><line transform="translate(0,22)" x2="80" y2="0" style="fill: none; stroke: #ddd; stroke-width: 1; opacity: 1;"></line></g></g><path class="foreground" d="" style="pointer-events: none; display: none; fill: none;"></path></g></g><g class="mark-rect role-mark child_layer_0_marks"><path d="M1,81.97333333333331h18v118.02666666666669h-18Z" style="fill: #4c78a8;"></path><path d="M61,55.16000000000001h18v144.83999999999997h-18Z" style="fill: #72b7b2;"></path><path d="M41,81.53333333333335h18v118.46666666666665h-18Z" style="fill: #e45756;"></path><path d="M21,82.41777777777779h18v117.58222222222221h-18Z" style="fill: #f58518;"></path></g><g class="mark-text role-mark child_layer_1_marks"><text text-anchor="start" transform="translate(10,81.97333333333331) rotate(270) translate(5,3)" style="font-family: sans-serif; font-size: 11px; fill: black;">100%</text><text text-anchor="start" transform="translate(70,55.16000000000001) rotate(270) translate(5,3)" style="font-family: sans-serif; font-size: 11px; fill: black;">123%</text><text text-anchor="start" transform="translate(50,81.53333333333335) rotate(270) translate(5,3)" style="font-family: sans-serif; font-size: 11px; fill: black;">100%</text><text text-anchor="start" transform="translate(30,82.41777777777779) rotate(270) translate(5,3)" style="font-family: sans-serif; font-size: 11px; fill: black;">100%</text></g></g><path class="foreground" d="" style="display: none; fill: none;"></path></g></g><g class="mark-group role-title"><g transform="translate(346,-61.48000000000003)"><path class="background" d="M0,0h0v0h0Z" style="pointer-events: none; fill: none;"></path><g><g class="mark-text role-title-text" style="pointer-events: none;"><text text-anchor="middle" transform="translate(0,10)" style="font-family: sans-serif; font-size: 13px; font-weight: bold; fill: #000; opacity: 1;">Inflater throughput for Silesia corpus (part2) on i7-8650U / 1900MHz</text></g></g><path class="foreground" d="" style="pointer-events: none; display: none; fill: none;"></path></g></g><g class="mark-group role-legend"><g transform="translate(609,0)"><path class="background" d="M0,0h118v50h-118Z" style="pointer-events: none; fill: none;"></path><g><g class="mark-group role-legend-entry"><g transform="translate(0,0)"><path class="background" d="M0,0h0v0h0Z" style="pointer-events: none; fill: none;"></path><g><g class="mark-group role-scope"><g transform="translate(0,0)"><path class="background" d="M0,0h118v11h-118Z" style="pointer-events: none; fill: none; opacity: 1;"></path><g><g class="mark-symbol role-legend-symbol" style="pointer-events: none;"><path transform="translate(6,6)" d="M-5,-5h10v10h-10Z" style="fill: #4c78a8; stroke-width: 1.5; opacity: 1;"></path></g><g class="mark-text role-legend-label" style="pointer-events: none;"><text text-anchor="start" transform="translate(16,9)" style="font-family: sans-serif; font-size: 10px; fill: #000; opacity: 1;">ojdk / zlib-bundled</text></g></g><path class="foreground" d="" style="pointer-events: none; display: none; fill: none;"></path></g><g transform="translate(0,13)"><path class="background" d="M0,0h118v11h-118Z" style="pointer-events: none; fill: none; opacity: 1;"></path><g><g class="mark-symbol role-legend-symbol" style="pointer-events: none;"><path transform="translate(6,6)" d="M-5,-5h10v10h-10Z" style="fill: #f58518; stroke-width: 1.5; opacity: 1;"></path></g><g class="mark-text role-legend-label" style="pointer-events: none;"><text text-anchor="start" transform="translate(16,9)" style="font-family: sans-serif; font-size: 10px; fill: #000; opacity: 1;">ojdk / zlib-system</text></g></g><path class="foreground" d="" style="pointer-events: none; display: none; fill: none;"></path></g><g transform="translate(0,26)"><path class="background" d="M0,0h118v11h-118Z" style="pointer-events: none; fill: none; opacity: 1;"></path><g><g class="mark-symbol role-legend-symbol" style="pointer-events: none;"><path transform="translate(6,6)" d="M-5,-5h10v10h-10Z" style="fill: #e45756; stroke-width: 1.5; opacity: 1;"></path></g><g class="mark-text role-legend-label" style="pointer-events: none;"><text text-anchor="start" transform="translate(16,9)" style="font-family: sans-serif; font-size: 10px; fill: #000; opacity: 1;">ojdk / zlib-cloudflare</text></g></g><path class="foreground" d="" style="pointer-events: none; display: none; fill: none;"></path></g><g transform="translate(0,39)"><path class="background" d="M0,0h118v11h-118Z" style="pointer-events: none; fill: none; opacity: 1;"></path><g><g class="mark-symbol role-legend-symbol" style="pointer-events: none;"><path transform="translate(6,6)" d="M-5,-5h10v10h-10Z" style="fill: #72b7b2; stroke-width: 1.5; opacity: 1;"></path></g><g class="mark-text role-legend-label" style="pointer-events: none;"><text text-anchor="start" transform="translate(16,9)" style="font-family: sans-serif; font-size: 10px; fill: #000; opacity: 1;">ojdk / zlib-chromium</text></g></g><path class="foreground" d="" style="pointer-events: none; display: none; fill: none;"></path></g></g></g><path class="foreground" d="" style="pointer-events: none; display: none; fill: none;"></path></g></g></g><path class="foreground" d="" style="pointer-events: none; display: none; fill: none;"></path></g></g></g><path class="foreground" d="" style="display: none; fill: none;"></path></g></g></g></svg>