<svg class="marks" width="1280" height="960" viewBox="0 0 640 480" version="1.1" xmlns="http://www.w3.org/2000/svg" xmlns:xlink="http://www.w3.org/1999/xlink"><rect width="640" height="480" style="fill: white;"></rect><g transform="translate(45,27)"><g class="mark-group role-frame root"><g transform="translate(0,0)"><path class="background" d="M0.5,0.5h589v416h-589Z" style="fill: none; stroke: #ddd;"></path><g><g class="mark-group role-axis"><g transform="translate(0.5,416.5)"><path class="background" d="M0,0h0v0h0Z" style="pointer-events: none; fill: none;"></path><g><g class="mark-rule role-axis-grid" style="pointer-events: none;"><line transform="translate(0,-416)" x2="0" y2="416" style="fill: none; stroke: #ddd; stroke-width: 1; opacity: 1;"></line><line transform="translate(29,-416)" x2="0" y2="416" style="fill: none; stroke: #ddd; stroke-width: 1; opacity: 1;"></line><line transform="translate(59,-416)" x2="0" y2="416" style="fill: none; stroke: #ddd; stroke-width: 1; opacity: 1;"></line><line transform="translate(88,-416)" x2="0" y2="416" style="fill: none; stroke: #ddd; stroke-width: 1; opacity: 1;"></line><line transform="translate(118,-416)" x2="0" y2="416" style="fill: none; stroke: #ddd; stroke-width: 1; opacity: 1;"></line><line transform="translate(147,-416)" x2="0" y2="416" style="fill: none; stroke: #ddd; stroke-width: 1; opacity: 1;"></line><line transform="translate(177,-416)" x2="0" y2="416" style="fill: none; stroke: #ddd; stroke-width: 1; opacity: 1;"></line><line transform="translate(206,-416)" x2="0" y2="416" style="fill: none; stroke: #ddd; stroke-width: 1; opacity: 1;"></line><line transform="translate(236,-416)" x2="0" y2="416" style="fill: none; stroke: #ddd; stroke-width: 1; opacity: 1;"></line><line transform="translate(265,-416)" x2="0" y2="416" style="fill: none; stroke: #ddd; stroke-width: 1; opacity: 1;"></line><line transform="translate(294,-416)" x2="0" y2="416" style="fill: none; stroke: #ddd; stroke-width: 1; opacity: 1;"></line><line transform="translate(324,-416)" x2="0" y2="416" style="fill: none; stroke: #ddd; stroke-width: 1; opacity: 1;"></line><line transform="translate(353,-416)" x2="0" y2="416" style="fill: none; stroke: #ddd; stroke-width: 1; opacity: 1;"></line><line transform="translate(383,-416)" x2="0" y2="416" style="fill: none; stroke: #ddd; stroke-width: 1; opacity: 1;"></line><line transform="translate(412,-416)" x2="0" y2="416" style="fill: none; stroke: #ddd; stroke-width: 1; opacity: 1;"></line><line transform="translate(442,-416)" x2="0" y2="416" style="fill: none; stroke: #ddd; stroke-width: 1; opacity: 1;"></line><line transform="translate(471,-416)" x2="0" y2="416" style="fill: none; stroke: #ddd; stroke-width: 1; opacity: 1;"></line><line transform="translate(501,-416)" x2="0" y2="416" style="fill: none; stroke: #ddd; stroke-width: 1; opacity: 1;"></line><line transform="translate(530,-416)" x2="0" y2="416" style="fill: none; stroke: #ddd; stroke-width: 1; opacity: 1;"></line><line transform="translate(560,-416)" x2="0" y2="416" style="fill: none; stroke: #ddd; stroke-width: 1; opacity: 1;"></line><line transform="translate(589,-416)" x2="0" y2="416" style="fill: none; stroke: #ddd; stroke-width: 1; opacity: 1;"></line></g></g><path class="foreground" d="" style="pointer-events: none; display: none; fill: none;"></path></g></g><g class="mark-group role-axis"><g transform="translate(0.5,0.5)"><path class="background" d="M0,0h0v0h0Z" style="pointer-events: none; fill: none;"></path><g><g class="mark-rule role-axis-grid" style="pointer-events: none;"><line transform="translate(0,416)" x2="589" y2="0" style="fill: none; stroke: #ddd; stroke-width: 1; opacity: 1;"></line><line transform="translate(0,374)" x2="589" y2="0" style="fill: none; stroke: #ddd; stroke-width: 1; opacity: 1;"></line><line transform="translate(0,333)" x2="589" y2="0" style="fill: none; stroke: #ddd; stroke-width: 1; opacity: 1;"></line><line transform="translate(0,291)" x2="589" y2="0" style="fill: none; stroke: #ddd; stroke-width: 1; opacity: 1;"></line><line transform="translate(0,250)" x2="589" y2="0" style="fill: none; stroke: #ddd; stroke-width: 1; opacity: 1;"></line><line transform="translate(0,208)" x2="589" y2="0" style="fill: none; stroke: #ddd; stroke-width: 1; opacity: 1;"></line><line transform="translate(0,166)" x2="589" y2="0" style="fill: none; stroke: #ddd; stroke-width: 1; opacity: 1;"></line><line transform="translate(0,125)" x2="589" y2="0" style="fill: none; stroke: #ddd; stroke-width: 1; opacity: 1;"></line><line transform="translate(0,83)" x2="589" y2="0" style="fill: none; stroke: #ddd; stroke-width: 1; opacity: 1;"></line><line transform="translate(0,42)" x2="589" y2="0" style="fill: none; stroke: #ddd; stroke-width: 1; opacity: 1;"></line><line transform="translate(0,0)" x2="589" y2="0" style="fill: none; stroke: #ddd; stroke-width: 1; opacity: 1;"></line></g></g><path class="foreground" d="" style="pointer-events: none; display: none; fill: none;"></path></g></g><g class="mark-group role-axis"><g transform="translate(0.5,416.5)"><path class="background" d="M0,0h0v0h0Z" style="pointer-events: none; fill: none;"></path><g><g class="mark-rule role-axis-tick" style="pointer-events: none;"><line transform="translate(0,0)" x2="0" y2="5" style="fill: none; stroke: #888; stroke-width: 1; opacity: 1;"></line><line transform="translate(29,0)" x2="0" y2="5" style="fill: none; stroke: #888; stroke-width: 1; opacity: 1;"></line><line transform="translate(59,0)" x2="0" y2="5" style="fill: none; stroke: #888; stroke-width: 1; opacity: 1;"></line><line transform="translate(88,0)" x2="0" y2="5" style="fill: none; stroke: #888; stroke-width: 1; opacity: 1;"></line><line transform="translate(118,0)" x2="0" y2="5" style="fill: none; stroke: #888; stroke-width: 1; opacity: 1;"></line><line transform="translate(147,0)" x2="0" y2="5" style="fill: none; stroke: #888; stroke-width: 1; opacity: 1;"></line><line transform="translate(177,0)" x2="0" y2="5" style="fill: none; stroke: #888; stroke-width: 1; opacity: 1;"></line><line transform="translate(206,0)" x2="0" y2="5" style="fill: none; stroke: #888; stroke-width: 1; opacity: 1;"></line><line transform="translate(236,0)" x2="0" y2="5" style="fill: none; stroke: #888; stroke-width: 1; opacity: 1;"></line><line transform="translate(265,0)" x2="0" y2="5" style="fill: none; stroke: #888; stroke-width: 1; opacity: 1;"></line><line transform="translate(294,0)" x2="0" y2="5" style="fill: none; stroke: #888; stroke-width: 1; opacity: 1;"></line><line transform="translate(324,0)" x2="0" y2="5" style="fill: none; stroke: #888; stroke-width: 1; opacity: 1;"></line><line transform="translate(353,0)" x2="0" y2="5" style="fill: none; stroke: #888; stroke-width: 1; opacity: 1;"></line><line transform="translate(383,0)" x2="0" y2="5" style="fill: none; stroke: #888; stroke-width: 1; opacity: 1;"></line><line transform="translate(412,0)" x2="0" y2="5" style="fill: none; stroke: #888; stroke-width: 1; opacity: 1;"></line><line transform="translate(442,0)" x2="0" y2="5" style="fill: none; stroke: #888; stroke-width: 1; opacity: 1;"></line><line transform="translate(471,0)" x2="0" y2="5" style="fill: none; stroke: #888; stroke-width: 1; opacity: 1;"></line><line transform="translate(501,0)" x2="0" y2="5" style="fill: none; stroke: #888; stroke-width: 1; opacity: 1;"></line><line transform="translate(530,0)" x2="0" y2="5" style="fill: none; stroke: #888; stroke-width: 1; opacity: 1;"></line><line transform="translate(560,0)" x2="0" y2="5" style="fill: none; stroke: #888; stroke-width: 1; opacity: 1;"></line><line transform="translate(589,0)" x2="0" y2="5" style="fill: none; stroke: #888; stroke-width: 1; opacity: 1;"></line></g><g class="mark-text role-axis-label" style="pointer-events: none;"><text text-anchor="start" transform="translate(0,15)" style="font-family: sans-serif; font-size: 10px; fill: #000; opacity: 1;">1.8</text><text text-anchor="middle" transform="translate(29.449999999999964,15)" style="font-family: sans-serif; font-size: 10px; fill: #000; opacity: 1;">1.9</text><text text-anchor="middle" transform="translate(58.9,15)" style="font-family: sans-serif; font-size: 10px; fill: #000; opacity: 1;">2.0</text><text text-anchor="middle" transform="translate(88.35000000000002,15)" style="font-family: sans-serif; font-size: 10px; fill: #000; opacity: 1;">2.1</text><text text-anchor="middle" transform="translate(117.80000000000005,15)" style="font-family: sans-serif; font-size: 10px; fill: #000; opacity: 1;">2.2</text><text text-anchor="middle" transform="translate(147.24999999999994,15)" style="font-family: sans-serif; font-size: 10px; fill: #000; opacity: 1;">2.3</text><text text-anchor="middle" transform="translate(176.7,15)" style="font-family: sans-serif; font-size: 10px; fill: #000; opacity: 1;">2.4</text><text text-anchor="middle" transform="translate(206.15,15)" style="font-family: sans-serif; font-size: 10px; fill: #000; opacity: 1;">2.5</text><text text-anchor="middle" transform="translate(235.60000000000005,15)" style="font-family: sans-serif; font-size: 10px; fill: #000; opacity: 1;">2.6</text><text text-anchor="middle" transform="translate(265.05000000000007,15)" style="font-family: sans-serif; font-size: 10px; fill: #000; opacity: 1;">2.7</text><text text-anchor="middle" transform="translate(294.49999999999994,15)" style="font-family: sans-serif; font-size: 10px; fill: #000; opacity: 1;">2.8</text><text text-anchor="middle" transform="translate(323.95000000000005,15)" style="font-family: sans-serif; font-size: 10px; fill: #000; opacity: 1;">2.9</text><text text-anchor="middle" transform="translate(353.40000000000003,15)" style="font-family: sans-serif; font-size: 10px; fill: #000; opacity: 1;">3.0</text><text text-anchor="middle" transform="translate(382.8500000000001,15)" style="font-family: sans-serif; font-size: 10px; fill: #000; opacity: 1;">3.1</text><text text-anchor="middle" transform="translate(412.3000000000001,15)" style="font-family: sans-serif; font-size: 10px; fill: #000; opacity: 1;">3.2</text><text text-anchor="middle" transform="translate(441.75,15)" style="font-family: sans-serif; font-size: 10px; fill: #000; opacity: 1;">3.3</text><text text-anchor="middle" transform="translate(471.20000000000005,15)" style="font-family: sans-serif; font-size: 10px; fill: #000; opacity: 1;">3.4</text><text text-anchor="middle" transform="translate(500.65000000000003,15)" style="font-family: sans-serif; font-size: 10px; fill: #000; opacity: 1;">3.5</text><text text-anchor="middle" transform="translate(530.1,15)" style="font-family: sans-serif; font-size: 10px; fill: #000; opacity: 1;">3.6</text><text text-anchor="middle" transform="translate(559.5500000000001,15)" style="font-family: sans-serif; font-size: 10px; fill: #000; opacity: 1;">3.7</text><text text-anchor="end" transform="translate(589,15)" style="font-family: sans-serif; font-size: 10px; fill: #000; opacity: 1;">3.8</text></g><g class="mark-rule role-axis-domain" style="pointer-events: none;"><line transform="translate(0,0)" x2="589" y2="0" style="fill: none; stroke: #888; stroke-width: 1; opacity: 1;"></line></g><g class="mark-text role-axis-title" style="pointer-events: none;"><text text-anchor="middle" transform="translate(294.5,30)" style="font-family: sans-serif; font-size: 11px; font-weight: bold; fill: #000; opacity: 1;">Compression ratio</text></g></g><path class="foreground" d="" style="pointer-events: none; display: none; fill: none;"></path></g></g><g class="mark-group role-axis"><g transform="translate(0.5,0.5)"><path class="background" d="M0,0h0v0h0Z" style="pointer-events: none; fill: none;"></path><g><g class="mark-rule role-axis-tick" style="pointer-events: none;"><line transform="translate(0,416)" x2="-5" y2="0" style="fill: none; stroke: #888; stroke-width: 1; opacity: 1;"></line><line transform="translate(0,374)" x2="-5" y2="0" style="fill: none; stroke: #888; stroke-width: 1; opacity: 1;"></line><line transform="translate(0,333)" x2="-5" y2="0" style="fill: none; stroke: #888; stroke-width: 1; opacity: 1;"></line><line transform="translate(0,291)" x2="-5" y2="0" style="fill: none; stroke: #888; stroke-width: 1; opacity: 1;"></line><line transform="translate(0,250)" x2="-5" y2="0" style="fill: none; stroke: #888; stroke-width: 1; opacity: 1;"></line><line transform="translate(0,208)" x2="-5" y2="0" style="fill: none; stroke: #888; stroke-width: 1; opacity: 1;"></line><line transform="translate(0,166)" x2="-5" y2="0" style="fill: none; stroke: #888; stroke-width: 1; opacity: 1;"></line><line transform="translate(0,125)" x2="-5" y2="0" style="fill: none; stroke: #888; stroke-width: 1; opacity: 1;"></line><line transform="translate(0,83)" x2="-5" y2="0" style="fill: none; stroke: #888; stroke-width: 1; opacity: 1;"></line><line transform="translate(0,42)" x2="-5" y2="0" style="fill: none; stroke: #888; stroke-width: 1; opacity: 1;"></line><line transform="translate(0,0)" x2="-5" y2="0" style="fill: none; stroke: #888; stroke-width: 1; opacity: 1;"></line></g><g class="mark-text role-axis-label" style="pointer-events: none;"><text text-anchor="end" transform="translate(-7,419)" style="font-family: sans-serif; font-size: 10px; fill: #000; opacity: 1;">0</text><text text-anchor="end" transform="translate(-7,377.40000000000003)" style="font-family: sans-serif; font-size: 10px; fill: #000; opacity: 1;">20</text><text text-anchor="end" transform="translate(-7,335.8)" style="font-family: sans-serif; font-size: 10px; fill: #000; opacity: 1;">40</text><text text-anchor="end" transform="translate(-7,294.2)" style="font-family: sans-serif; font-size: 10px; fill: #000; opacity: 1;">60</text><text text-anchor="end" transform="translate(-7,252.6)" style="font-family: sans-serif; font-size: 10px; fill: #000; opacity: 1;">80</text><text text-anchor="end" transform="translate(-7,211)" style="font-family: sans-serif; font-size: 10px; fill: #000; opacity: 1;">100</text><text text-anchor="end" transform="translate(-7,169.4)" style="font-family: sans-serif; font-size: 10px; fill: #000; opacity: 1;">120</text><text text-anchor="end" transform="translate(-7,127.80000000000001)" style="font-family: sans-serif; font-size: 10px; fill: #000; opacity: 1;">140</text><text text-anchor="end" transform="translate(-7,86.19999999999999)" style="font-family: sans-serif; font-size: 10px; fill: #000; opacity: 1;">160</text><text text-anchor="end" transform="translate(-7,44.599999999999994)" style="font-family: sans-serif; font-size: 10px; fill: #000; opacity: 1;">180</text><text text-anchor="end" transform="translate(-7,3)" style="font-family: sans-serif; font-size: 10px; fill: #000; opacity: 1;">200</text></g><g class="mark-rule role-axis-domain" style="pointer-events: none;"><line transform="translate(0,416)" x2="0" y2="-416" style="fill: none; stroke: #888; stroke-width: 1; opacity: 1;"></line></g><g class="mark-text role-axis-title" style="pointer-events: none;"><text text-anchor="middle" transform="translate(-29,208) rotate(-90) translate(0,-2)" style="font-family: sans-serif; font-size: 11px; font-weight: bold; fill: #000; opacity: 1;">Throughput (kb/ms)</text></g></g><path class="foreground" d="" style="pointer-events: none; display: none; fill: none;"></path></g></g><g class="mark-group role-scope layer_0_layer_0_layer_0_pathgroup"><g transform="translate(0,0)"><path class="background" d="M0,0h589v416h-589Z" style="fill: none;"></path><g><g class="mark-line role-mark layer_0_layer_0_layer_0_marks"><path d="M315.11500000000007,311.1472L353.40000000000003,323.41504000000003L397.57500000000005,348.14207999999996L441.75,347.6096L500.65000000000003,370.54368L518.32,394.87968L530.1,401.24863999999997L538.9350000000001,408.99039999999997L538.9350000000001,409.00288" style="fill: none; stroke: #54a24b; stroke-width: 2;"></path></g></g><path class="foreground" d="" style="display: none; fill: none;"></path></g><g transform="translate(0,0)"><path class="background" d="M0,0h589v416h-589Z" style="fill: none;"></path><g><g class="mark-line role-mark layer_0_layer_0_layer_0_marks"><path d="M315.11500000000007,287.93440000000004L353.40000000000003,302.31552L397.57500000000005,337.07232L441.75,331.56032L500.65000000000003,363.67552L530.1,387.91168L538.9350000000001,393.57344L541.8800000000001,401.752L541.8800000000001,401.70208" style="fill: none; stroke: #e45756; stroke-width: 2;"></path></g></g><path class="foreground" d="" style="display: none; fill: none;"></path></g><g transform="translate(0,0)"><path class="background" d="M0,0h589v416h-589Z" style="fill: none;"></path><g><g class="mark-line role-mark layer_0_layer_0_layer_0_marks"><path d="M129.58000000000007,90.34688000000001L359.2900000000001,283.0464L368.125,282.19776L376.9600000000001,283.63712000000004L456.4750000000001,356.824L500.65000000000003,367.12L533.045,390.22048L533.045,391.248L538.9350000000001,398.4864L538.9350000000001,399.86752" style="fill: none; stroke: #f58518; stroke-width: 2;"></path></g></g><path class="foreground" d="" style="display: none; fill: none;"></path></g><g transform="translate(0,0)"><path class="background" d="M0,0h589v416h-589Z" style="fill: none;"></path><g><g class="mark-line role-mark layer_0_layer_0_layer_0_marks"><path d="M250.325,26.51999999999999L294.49999999999994,37.194559999999996L306.28000000000003,53.27712000000001L344.5650000000001,215.78336000000002" style="fill: none; stroke: #4c78a8; stroke-width: 2;"></path></g></g><path class="foreground" d="" style="display: none; fill: none;"></path></g><g transform="translate(0,0)"><path class="background" d="M0,0h589v416h-589Z" style="fill: none;"></path><g><g class="mark-line role-mark layer_0_layer_0_layer_0_marks"><path d="M47.11999999999998,221.46592L326.8950000000001,312.40352L403.46500000000003,343.75744L462.36500000000007,349.1488L477.09000000000003,365.03999999999996L506.5400000000001,385.8608L530.1,400.57887999999997L538.9350000000001,408.8032L538.9350000000001,408.8448" style="fill: none; stroke: #72b7b2; stroke-width: 2;"></path></g></g><path class="foreground" d="" style="display: none; fill: none;"></path></g><g transform="translate(0,0)"><path class="background" d="M0,0h589v416h-589Z" style="fill: none;"></path><g><g class="mark-line role-mark layer_0_layer_0_layer_0_marks"><path d="M291.555,340.09664000000004L332.7850000000001,347.03136L382.8500000000001,368.18912L421.13500000000005,363.11808L480.0350000000001,383.9888L518.32,398.91071999999997L530.1,403.88608L538.9350000000001,410.18016L538.9350000000001,410.2176" style="fill: none; stroke: #eeca3b; stroke-width: 2;"></path></g></g><path class="foreground" d="" style="display: none; fill: none;"></path></g></g><g class="mark-symbol role-mark layer_0_layer_0_layer_1_marks"><path transform="translate(315.11500000000007,311.1472)" d="M2.7386127875258306,0A2.7386127875258306,2.7386127875258306,0,1,1,-2.7386127875258306,0A2.7386127875258306,2.7386127875258306,0,1,1,2.7386127875258306,0" style="fill: #54a24b; stroke-width: 2; opacity: 1;"></path><path transform="translate(353.40000000000003,323.41504000000003)" d="M2.7386127875258306,0A2.7386127875258306,2.7386127875258306,0,1,1,-2.7386127875258306,0A2.7386127875258306,2.7386127875258306,0,1,1,2.7386127875258306,0" style="fill: #54a24b; stroke-width: 2; opacity: 1;"></path><path transform="translate(397.57500000000005,348.14207999999996)" d="M2.7386127875258306,0A2.7386127875258306,2.7386127875258306,0,1,1,-2.7386127875258306,0A2.7386127875258306,2.7386127875258306,0,1,1,2.7386127875258306,0" style="fill: #54a24b; stroke-width: 2; opacity: 1;"></path><path transform="translate(441.75,347.6096)" d="M2.7386127875258306,0A2.7386127875258306,2.7386127875258306,0,1,1,-2.7386127875258306,0A2.7386127875258306,2.7386127875258306,0,1,1,2.7386127875258306,0" style="fill: #54a24b; stroke-width: 2; opacity: 1;"></path><path transform="translate(500.65000000000003,370.54368)" d="M2.7386127875258306,0A2.7386127875258306,2.7386127875258306,0,1,1,-2.7386127875258306,0A2.7386127875258306,2.7386127875258306,0,1,1,2.7386127875258306,0" style="fill: #54a24b; stroke-width: 2; opacity: 1;"></path><path transform="translate(518.32,394.87968)" d="M2.7386127875258306,0A2.7386127875258306,2.7386127875258306,0,1,1,-2.7386127875258306,0A2.7386127875258306,2.7386127875258306,0,1,1,2.7386127875258306,0" style="fill: #54a24b; stroke-width: 2; opacity: 1;"></path><path transform="translate(530.1,401.24863999999997)" d="M2.7386127875258306,0A2.7386127875258306,2.7386127875258306,0,1,1,-2.7386127875258306,0A2.7386127875258306,2.7386127875258306,0,1,1,2.7386127875258306,0" style="fill: #54a24b; stroke-width: 2; opacity: 1;"></path><path transform="translate(538.9350000000001,408.99039999999997)" d="M2.7386127875258306,0A2.7386127875258306,2.7386127875258306,0,1,1,-2.7386127875258306,0A2.7386127875258306,2.7386127875258306,0,1,1,2.7386127875258306,0" style="fill: #54a24b; stroke-width: 2; opacity: 1;"></path><path transform="translate(538.9350000000001,409.00288)" d="M2.7386127875258306,0A2.7386127875258306,2.7386127875258306,0,1,1,-2.7386127875258306,0A2.7386127875258306,2.7386127875258306,0,1,1,2.7386127875258306,0" style="fill: #54a24b; stroke-width: 2; opacity: 1;"></path><path transform="translate(315.11500000000007,287.93440000000004)" d="M2.7386127875258306,0A2.7386127875258306,2.7386127875258306,0,1,1,-2.7386127875258306,0A2.7386127875258306,2.7386127875258306,0,1,1,2.7386127875258306,0" style="fill: #e45756; stroke-width: 2; opacity: 1;"></path><path transform="translate(353.40000000000003,302.31552)" d="M2.7386127875258306,0A2.7386127875258306,2.7386127875258306,0,1,1,-2.7386127875258306,0A2.7386127875258306,2.7386127875258306,0,1,1,2.7386127875258306,0" style="fill: #e45756; stroke-width: 2; opacity: 1;"></path><path transform="translate(397.57500000000005,337.07232)" d="M2.7386127875258306,0A2.7386127875258306,2.7386127875258306,0,1,1,-2.7386127875258306,0A2.7386127875258306,2.7386127875258306,0,1,1,2.7386127875258306,0" style="fill: #e45756; stroke-width: 2; opacity: 1;"></path><path transform="translate(441.75,331.56032)" d="M2.7386127875258306,0A2.7386127875258306,2.7386127875258306,0,1,1,-2.7386127875258306,0A2.7386127875258306,2.7386127875258306,0,1,1,2.7386127875258306,0" style="fill: #e45756; stroke-width: 2; opacity: 1;"></path><path transform="translate(500.65000000000003,363.67552)" d="M2.7386127875258306,0A2.7386127875258306,2.7386127875258306,0,1,1,-2.7386127875258306,0A2.7386127875258306,2.7386127875258306,0,1,1,2.7386127875258306,0" style="fill: #e45756; stroke-width: 2; opacity: 1;"></path><path transform="translate(530.1,387.91168)" d="M2.7386127875258306,0A2.7386127875258306,2.7386127875258306,0,1,1,-2.7386127875258306,0A2.7386127875258306,2.7386127875258306,0,1,1,2.7386127875258306,0" style="fill: #e45756; stroke-width: 2; opacity: 1;"></path><path transform="translate(538.9350000000001,393.57344)" d="M2.7386127875258306,0A2.7386127875258306,2.7386127875258306,0,1,1,-2.7386127875258306,0A2.7386127875258306,2.7386127875258306,0,1,1,2.7386127875258306,0" style="fill: #e45756; stroke-width: 2; opacity: 1;"></path><path transform="translate(541.8800000000001,401.752)" d="M2.7386127875258306,0A2.7386127875258306,2.7386127875258306,0,1,1,-2.7386127875258306,0A2.7386127875258306,2.7386127875258306,0,1,1,2.7386127875258306,0" style="fill: #e45756; stroke-width: 2; opacity: 1;"></path><path transform="translate(541.8800000000001,401.70208)" d="M2.7386127875258306,0A2.7386127875258306,2.7386127875258306,0,1,1,-2.7386127875258306,0A2.7386127875258306,2.7386127875258306,0,1,1,2.7386127875258306,0" style="fill: #e45756; stroke-width: 2; opacity: 1;"></path><path transform="translate(129.58000000000007,90.34688000000001)" d="M2.7386127875258306,0A2.7386127875258306,2.7386127875258306,0,1,1,-2.7386127875258306,0A2.7386127875258306,2.7386127875258306,0,1,1,2.7386127875258306,0" style="fill: #f58518; stroke-width: 2; opacity: 1;"></path><path transform="translate(359.2900000000001,283.0464)" d="M2.7386127875258306,0A2.7386127875258306,2.7386127875258306,0,1,1,-2.7386127875258306,0A2.7386127875258306,2.7386127875258306,0,1,1,2.7386127875258306,0" style="fill: #f58518; stroke-width: 2; opacity: 1;"></path><path transform="translate(368.125,282.19776)" d="M2.7386127875258306,0A2.7386127875258306,2.7386127875258306,0,1,1,-2.7386127875258306,0A2.7386127875258306,2.7386127875258306,0,1,1,2.7386127875258306,0" style="fill: #f58518; stroke-width: 2; opacity: 1;"></path><path transform="translate(376.9600000000001,283.63712000000004)" d="M2.7386127875258306,0A2.7386127875258306,2.7386127875258306,0,1,1,-2.7386127875258306,0A2.7386127875258306,2.7386127875258306,0,1,1,2.7386127875258306,0" style="fill: #f58518; stroke-width: 2; opacity: 1;"></path><path transform="translate(456.4750000000001,356.824)" d="M2.7386127875258306,0A2.7386127875258306,2.7386127875258306,0,1,1,-2.7386127875258306,0A2.7386127875258306,2.7386127875258306,0,1,1,2.7386127875258306,0" style="fill: #f58518; stroke-width: 2; opacity: 1;"></path><path transform="translate(500.65000000000003,367.12)" d="M2.7386127875258306,0A2.7386127875258306,2.7386127875258306,0,1,1,-2.7386127875258306,0A2.7386127875258306,2.7386127875258306,0,1,1,2.7386127875258306,0" style="fill: #f58518; stroke-width: 2; opacity: 1;"></path><path transform="translate(533.045,390.22048)" d="M2.7386127875258306,0A2.7386127875258306,2.7386127875258306,0,1,1,-2.7386127875258306,0A2.7386127875258306,2.7386127875258306,0,1,1,2.7386127875258306,0" style="fill: #f58518; stroke-width: 2; opacity: 1;"></path><path transform="translate(533.045,391.248)" d="M2.7386127875258306,0A2.7386127875258306,2.7386127875258306,0,1,1,-2.7386127875258306,0A2.7386127875258306,2.7386127875258306,0,1,1,2.7386127875258306,0" style="fill: #f58518; stroke-width: 2; opacity: 1;"></path><path transform="translate(538.9350000000001,398.4864)" d="M2.7386127875258306,0A2.7386127875258306,2.7386127875258306,0,1,1,-2.7386127875258306,0A2.7386127875258306,2.7386127875258306,0,1,1,2.7386127875258306,0" style="fill: #f58518; stroke-width: 2; opacity: 1;"></path><path transform="translate(538.9350000000001,399.86752)" d="M2.7386127875258306,0A2.7386127875258306,2.7386127875258306,0,1,1,-2.7386127875258306,0A2.7386127875258306,2.7386127875258306,0,1,1,2.7386127875258306,0" style="fill: #f58518; stroke-width: 2; opacity: 1;"></path><path transform="translate(250.325,26.51999999999999)" d="M2.7386127875258306,0A2.7386127875258306,2.7386127875258306,0,1,1,-2.7386127875258306,0A2.7386127875258306,2.7386127875258306,0,1,1,2.7386127875258306,0" style="fill: #4c78a8; stroke-width: 2; opacity: 1;"></path><path transform="translate(294.49999999999994,37.194559999999996)" d="M2.7386127875258306,0A2.7386127875258306,2.7386127875258306,0,1,1,-2.7386127875258306,0A2.7386127875258306,2.7386127875258306,0,1,1,2.7386127875258306,0" style="fill: #4c78a8; stroke-width: 2; opacity: 1;"></path><path transform="translate(306.28000000000003,53.27712000000001)" d="M2.7386127875258306,0A2.7386127875258306,2.7386127875258306,0,1,1,-2.7386127875258306,0A2.7386127875258306,2.7386127875258306,0,1,1,2.7386127875258306,0" style="fill: #4c78a8; stroke-width: 2; opacity: 1;"></path><path transform="translate(344.5650000000001,215.78336000000002)" d="M2.7386127875258306,0A2.7386127875258306,2.7386127875258306,0,1,1,-2.7386127875258306,0A2.7386127875258306,2.7386127875258306,0,1,1,2.7386127875258306,0" style="fill: #4c78a8; stroke-width: 2; opacity: 1;"></path><path transform="translate(47.11999999999998,221.46592)" d="M2.7386127875258306,0A2.7386127875258306,2.7386127875258306,0,1,1,-2.7386127875258306,0A2.7386127875258306,2.7386127875258306,0,1,1,2.7386127875258306,0" style="fill: #72b7b2; stroke-width: 2; opacity: 1;"></path><path transform="translate(326.8950000000001,312.40352)" d="M2.7386127875258306,0A2.7386127875258306,2.7386127875258306,0,1,1,-2.7386127875258306,0A2.7386127875258306,2.7386127875258306,0,1,1,2.7386127875258306,0" style="fill: #72b7b2; stroke-width: 2; opacity: 1;"></path><path transform="translate(403.46500000000003,343.75744)" d="M2.7386127875258306,0A2.7386127875258306,2.7386127875258306,0,1,1,-2.7386127875258306,0A2.7386127875258306,2.7386127875258306,0,1,1,2.7386127875258306,0" style="fill: #72b7b2; stroke-width: 2; opacity: 1;"></path><path transform="translate(462.36500000000007,349.1488)" d="M2.7386127875258306,0A2.7386127875258306,2.7386127875258306,0,1,1,-2.7386127875258306,0A2.7386127875258306,2.7386127875258306,0,1,1,2.7386127875258306,0" style="fill: #72b7b2; stroke-width: 2; opacity: 1;"></path><path transform="translate(477.09000000000003,365.03999999999996)" d="M2.7386127875258306,0A2.7386127875258306,2.7386127875258306,0,1,1,-2.7386127875258306,0A2.7386127875258306,2.7386127875258306,0,1,1,2.7386127875258306,0" style="fill: #72b7b2; stroke-width: 2; opacity: 1;"></path><path transform="translate(506.5400000000001,385.8608)" d="M2.7386127875258306,0A2.7386127875258306,2.7386127875258306,0,1,1,-2.7386127875258306,0A2.7386127875258306,2.7386127875258306,0,1,1,2.7386127875258306,0" style="fill: #72b7b2; stroke-width: 2; opacity: 1;"></path><path transform="translate(530.1,400.57887999999997)" d="M2.7386127875258306,0A2.7386127875258306,2.7386127875258306,0,1,1,-2.7386127875258306,0A2.7386127875258306,2.7386127875258306,0,1,1,2.7386127875258306,0" style="fill: #72b7b2; stroke-width: 2; opacity: 1;"></path><path transform="translate(538.9350000000001,408.8032)" d="M2.7386127875258306,0A2.7386127875258306,2.7386127875258306,0,1,1,-2.7386127875258306,0A2.7386127875258306,2.7386127875258306,0,1,1,2.7386127875258306,0" style="fill: #72b7b2; stroke-width: 2; opacity: 1;"></path><path transform="translate(538.9350000000001,408.8448)" d="M2.7386127875258306,0A2.7386127875258306,2.7386127875258306,0,1,1,-2.7386127875258306,0A2.7386127875258306,2.7386127875258306,0,1,1,2.7386127875258306,0" style="fill: #72b7b2; stroke-width: 2; opacity: 1;"></path><path transform="translate(291.555,340.09664000000004)" d="M2.7386127875258306,0A2.7386127875258306,2.7386127875258306,0,1,1,-2.7386127875258306,0A2.7386127875258306,2.7386127875258306,0,1,1,2.7386127875258306,0" style="fill: #eeca3b; stroke-width: 2; opacity: 1;"></path><path transform="translate(332.7850000000001,347.03136)" d="M2.7386127875258306,0A2.7386127875258306,2.7386127875258306,0,1,1,-2.7386127875258306,0A2.7386127875258306,2.7386127875258306,0,1,1,2.7386127875258306,0" style="fill: #eeca3b; stroke-width: 2; opacity: 1;"></path><path transform="translate(382.8500000000001,368.18912)" d="M2.7386127875258306,0A2.7386127875258306,2.7386127875258306,0,1,1,-2.7386127875258306,0A2.7386127875258306,2.7386127875258306,0,1,1,2.7386127875258306,0" style="fill: #eeca3b; stroke-width: 2; opacity: 1;"></path><path transform="translate(421.13500000000005,363.11808)" d="M2.7386127875258306,0A2.7386127875258306,2.7386127875258306,0,1,1,-2.7386127875258306,0A2.7386127875258306,2.7386127875258306,0,1,1,2.7386127875258306,0" style="fill: #eeca3b; stroke-width: 2; opacity: 1;"></path><path transform="translate(480.0350000000001,383.9888)" d="M2.7386127875258306,0A2.7386127875258306,2.7386127875258306,0,1,1,-2.7386127875258306,0A2.7386127875258306,2.7386127875258306,0,1,1,2.7386127875258306,0" style="fill: #eeca3b; stroke-width: 2; opacity: 1;"></path><path transform="translate(518.32,398.91071999999997)" d="M2.7386127875258306,0A2.7386127875258306,2.7386127875258306,0,1,1,-2.7386127875258306,0A2.7386127875258306,2.7386127875258306,0,1,1,2.7386127875258306,0" style="fill: #eeca3b; stroke-width: 2; opacity: 1;"></path><path transform="translate(530.1,403.88608)" d="M2.7386127875258306,0A2.7386127875258306,2.7386127875258306,0,1,1,-2.7386127875258306,0A2.7386127875258306,2.7386127875258306,0,1,1,2.7386127875258306,0" style="fill: #eeca3b; stroke-width: 2; opacity: 1;"></path><path transform="translate(538.9350000000001,410.18016)" d="M2.7386127875258306,0A2.7386127875258306,2.7386127875258306,0,1,1,-2.7386127875258306,0A2.7386127875258306,2.7386127875258306,0,1,1,2.7386127875258306,0" style="fill: #eeca3b; stroke-width: 2; opacity: 1;"></path><path transform="translate(538.9350000000001,410.2176)" d="M2.7386127875258306,0A2.7386127875258306,2.7386127875258306,0,1,1,-2.7386127875258306,0A2.7386127875258306,2.7386127875258306,0,1,1,2.7386127875258306,0" style="fill: #eeca3b; stroke-width: 2; opacity: 1;"></path></g><g class="mark-text role-mark layer_0_layer_1_marks"><text text-anchor="end" transform="translate(320.11500000000007,306.1472)" style="font-family: sans-serif; font-size: 11px; fill: #54a24b;">1</text><text text-anchor="end" transform="translate(358.40000000000003,318.41504000000003)" style="font-family: sans-serif; font-size: 11px; fill: #54a24b;">2</text><text text-anchor="end" transform="translate(402.57500000000005,343.14207999999996)" style="font-family: sans-serif; font-size: 11px; fill: #54a24b;">3</text><text text-anchor="end" transform="translate(446.75,342.6096)" style="font-family: sans-serif; font-size: 11px; fill: #54a24b;">4</text><text text-anchor="end" transform="translate(505.65000000000003,365.54368)" style="font-family: sans-serif; font-size: 11px; fill: #54a24b;">5</text><text text-anchor="end" transform="translate(523.32,389.87968)" style="font-family: sans-serif; font-size: 11px; fill: #54a24b;">6</text><text text-anchor="end" transform="translate(535.1,396.24863999999997)" style="font-family: sans-serif; font-size: 11px; fill: #54a24b;">7</text><text text-anchor="end" transform="translate(543.9350000000001,403.99039999999997)" style="font-family: sans-serif; font-size: 11px; fill: #54a24b;">8</text><text text-anchor="end" transform="translate(543.9350000000001,404.00288)" style="font-family: sans-serif; font-size: 11px; fill: #54a24b;">9</text><text text-anchor="end" transform="translate(320.11500000000007,282.93440000000004)" style="font-family: sans-serif; font-size: 11px; fill: #e45756;">1</text><text text-anchor="end" transform="translate(358.40000000000003,297.31552)" style="font-family: sans-serif; font-size: 11px; fill: #e45756;">2</text><text text-anchor="end" transform="translate(402.57500000000005,332.07232)" style="font-family: sans-serif; font-size: 11px; fill: #e45756;">3</text><text text-anchor="end" transform="translate(446.75,326.56032)" style="font-family: sans-serif; font-size: 11px; fill: #e45756;">4</text><text text-anchor="end" transform="translate(505.65000000000003,358.67552)" style="font-family: sans-serif; font-size: 11px; fill: #e45756;">5</text><text text-anchor="end" transform="translate(535.1,382.91168)" style="font-family: sans-serif; font-size: 11px; fill: #e45756;">6</text><text text-anchor="end" transform="translate(543.9350000000001,388.57344)" style="font-family: sans-serif; font-size: 11px; fill: #e45756;">7</text><text text-anchor="end" transform="translate(546.8800000000001,396.752)" style="font-family: sans-serif; font-size: 11px; fill: #e45756;">8</text><text text-anchor="end" transform="translate(546.8800000000001,396.70208)" style="font-family: sans-serif; font-size: 11px; fill: #e45756;">9</text><text text-anchor="end" transform="translate(134.58000000000007,85.34688000000001)" style="font-family: sans-serif; font-size: 11px; fill: #f58518;">-2</text><text text-anchor="end" transform="translate(364.2900000000001,278.0464)" style="font-family: sans-serif; font-size: 11px; fill: #f58518;">1</text><text text-anchor="end" transform="translate(373.125,277.19776)" style="font-family: sans-serif; font-size: 11px; fill: #f58518;">2</text><text text-anchor="end" transform="translate(381.9600000000001,278.63712000000004)" style="font-family: sans-serif; font-size: 11px; fill: #f58518;">3</text><text text-anchor="end" transform="translate(461.4750000000001,351.824)" style="font-family: sans-serif; font-size: 11px; fill: #f58518;">4</text><text text-anchor="end" transform="translate(505.65000000000003,362.12)" style="font-family: sans-serif; font-size: 11px; fill: #f58518;">5</text><text text-anchor="end" transform="translate(538.045,385.22048)" style="font-family: sans-serif; font-size: 11px; fill: #f58518;">6</text><text text-anchor="end" transform="translate(538.045,386.248)" style="font-family: sans-serif; font-size: 11px; fill: #f58518;">7</text><text text-anchor="end" transform="translate(543.9350000000001,393.4864)" style="font-family: sans-serif; font-size: 11px; fill: #f58518;">8</text><text text-anchor="end" transform="translate(543.9350000000001,394.86752)" style="font-family: sans-serif; font-size: 11px; fill: #f58518;">9</text><text text-anchor="end" transform="translate(255.325,21.51999999999999)" style="font-family: sans-serif; font-size: 11px; fill: #4c78a8;">0</text><text text-anchor="end" transform="translate(299.49999999999994,32.194559999999996)" style="font-family: sans-serif; font-size: 11px; fill: #4c78a8;">1</text><text text-anchor="end" transform="translate(311.28000000000003,48.27712000000001)" style="font-family: sans-serif; font-size: 11px; fill: #4c78a8;">2</text><text text-anchor="end" transform="translate(349.5650000000001,210.78336000000002)" style="font-family: sans-serif; font-size: 11px; fill: #4c78a8;">3</text><text text-anchor="end" transform="translate(52.11999999999998,216.46592)" style="font-family: sans-serif; font-size: 11px; fill: #72b7b2;">1</text><text text-anchor="end" transform="translate(331.8950000000001,307.40352)" style="font-family: sans-serif; font-size: 11px; fill: #72b7b2;">2</text><text text-anchor="end" transform="translate(408.46500000000003,338.75744)" style="font-family: sans-serif; font-size: 11px; fill: #72b7b2;">3</text><text text-anchor="end" transform="translate(467.36500000000007,344.1488)" style="font-family: sans-serif; font-size: 11px; fill: #72b7b2;">4</text><text text-anchor="end" transform="translate(482.09000000000003,360.03999999999996)" style="font-family: sans-serif; font-size: 11px; fill: #72b7b2;">5</text><text text-anchor="end" transform="translate(511.5400000000001,380.8608)" style="font-family: sans-serif; font-size: 11px; fill: #72b7b2;">6</text><text text-anchor="end" transform="translate(535.1,395.57887999999997)" style="font-family: sans-serif; font-size: 11px; fill: #72b7b2;">7</text><text text-anchor="end" transform="translate(543.9350000000001,403.8032)" style="font-family: sans-serif; font-size: 11px; fill: #72b7b2;">8</text><text text-anchor="end" transform="translate(543.9350000000001,403.8448)" style="font-family: sans-serif; font-size: 11px; fill: #72b7b2;">9</text><text text-anchor="end" transform="translate(296.555,335.09664000000004)" style="font-family: sans-serif; font-size: 11px; fill: #eeca3b;">1</text><text text-anchor="end" transform="translate(337.7850000000001,342.03136)" style="font-family: sans-serif; font-size: 11px; fill: #eeca3b;">2</text><text text-anchor="end" transform="translate(387.8500000000001,363.18912)" style="font-family: sans-serif; font-size: 11px; fill: #eeca3b;">3</text><text text-anchor="end" transform="translate(426.13500000000005,358.11808)" style="font-family: sans-serif; font-size: 11px; fill: #eeca3b;">4</text><text text-anchor="end" transform="translate(485.0350000000001,378.9888)" style="font-family: sans-serif; font-size: 11px; fill: #eeca3b;">5</text><text text-anchor="end" transform="translate(523.32,393.91071999999997)" style="font-family: sans-serif; font-size: 11px; fill: #eeca3b;">6</text><text text-anchor="end" transform="translate(535.1,398.88608)" style="font-family: sans-serif; font-size: 11px; fill: #eeca3b;">7</text><text text-anchor="end" transform="translate(543.9350000000001,405.18016)" style="font-family: sans-serif; font-size: 11px; fill: #eeca3b;">8</text><text text-anchor="end" transform="translate(543.9350000000001,405.2176)" style="font-family: sans-serif; font-size: 11px; fill: #eeca3b;">9</text></g><g class="mark-group role-title"><g transform="translate(294.5,-22)"><path class="background" d="M0,0h0v0h0Z" style="pointer-events: none; fill: none;"></path><g><g class="mark-text role-title-text" style="pointer-events: none;"><text text-anchor="middle" transform="translate(0,10)" style="font-family: sans-serif; font-size: 13px; font-weight: bold; fill: #000; opacity: 1;">Deflater throughput/ratio per level for 'silesia/reymont' on i7-8650U / 1900MHz</text></g></g><path class="foreground" d="" style="pointer-events: none; display: none; fill: none;"></path></g></g><g class="mark-group role-legend"><g transform="translate(506,0)"><path class="background" d="M0.5,0.5h83v109h-83Z" style="pointer-events: none; fill: #ffffff; stroke: #000000;"></path><g><g class="mark-group role-legend-entry"><g transform="translate(8,8)"><path class="background" d="M0,0h0v0h0Z" style="pointer-events: none; fill: none;"></path><g><g class="mark-group role-scope"><g transform="translate(0,0)"><path class="background" d="M0,0h67v12.5h-67Z" style="pointer-events: none; fill: none; opacity: 1;"></path><g><g class="mark-symbol role-legend-symbol" style="pointer-events: none;"><path transform="translate(6,6)" d="M5,0A5,5,0,1,1,-5,0A5,5,0,1,1,5,0" style="fill: #4c78a8; stroke: #4c78a8; stroke-width: 1.5; opacity: 1;"></path></g><g class="mark-text role-legend-label" style="pointer-events: none;"><text text-anchor="start" transform="translate(16,9)" style="font-family: sans-serif; font-size: 10px; fill: #000; opacity: 1;">isal</text></g></g><path class="foreground" d="" style="pointer-events: none; display: none; fill: none;"></path></g><g transform="translate(0,16)"><path class="background" d="M0,0h67v12.5h-67Z" style="pointer-events: none; fill: none; opacity: 1;"></path><g><g class="mark-symbol role-legend-symbol" style="pointer-events: none;"><path transform="translate(6,6)" d="M5,0A5,5,0,1,1,-5,0A5,5,0,1,1,5,0" style="fill: #f58518; stroke: #f58518; stroke-width: 1.5; opacity: 1;"></path></g><g class="mark-text role-legend-label" style="pointer-events: none;"><text text-anchor="start" transform="translate(16,9)" style="font-family: sans-serif; font-size: 10px; fill: #000; opacity: 1;">ipp</text></g></g><path class="foreground" d="" style="pointer-events: none; display: none; fill: none;"></path></g><g transform="translate(0,32)"><path class="background" d="M0,0h67v12.5h-67Z" style="pointer-events: none; fill: none; opacity: 1;"></path><g><g class="mark-symbol role-legend-symbol" style="pointer-events: none;"><path transform="translate(6,6)" d="M5,0A5,5,0,1,1,-5,0A5,5,0,1,1,5,0" style="fill: #e45756; stroke: #e45756; stroke-width: 1.5; opacity: 1;"></path></g><g class="mark-text role-legend-label" style="pointer-events: none;"><text text-anchor="start" transform="translate(16,9)" style="font-family: sans-serif; font-size: 10px; fill: #000; opacity: 1;">cloudflare</text></g></g><path class="foreground" d="" style="pointer-events: none; display: none; fill: none;"></path></g><g transform="translate(0,48)"><path class="background" d="M0,0h67v12.5h-67Z" style="pointer-events: none; fill: none; opacity: 1;"></path><g><g class="mark-symbol role-legend-symbol" style="pointer-events: none;"><path transform="translate(6,6)" d="M5,0A5,5,0,1,1,-5,0A5,5,0,1,1,5,0" style="fill: #72b7b2; stroke: #72b7b2; stroke-width: 1.5; opacity: 1;"></path></g><g class="mark-text role-legend-label" style="pointer-events: none;"><text text-anchor="start" transform="translate(16,9)" style="font-family: sans-serif; font-size: 10px; fill: #000; opacity: 1;">ng</text></g></g><path class="foreground" d="" style="pointer-events: none; display: none; fill: none;"></path></g><g transform="translate(0,64)"><path class="background" d="M0,0h67v12.5h-67Z" style="pointer-events: none; fill: none; opacity: 1;"></path><g><g class="mark-symbol role-legend-symbol" style="pointer-events: none;"><path transform="translate(6,6)" d="M5,0A5,5,0,1,1,-5,0A5,5,0,1,1,5,0" style="fill: #54a24b; stroke: #54a24b; stroke-width: 1.5; opacity: 1;"></path></g><g class="mark-text role-legend-label" style="pointer-events: none;"><text text-anchor="start" transform="translate(16,9)" style="font-family: sans-serif; font-size: 10px; fill: #000; opacity: 1;">chromium</text></g></g><path class="foreground" d="" style="pointer-events: none; display: none; fill: none;"></path></g><g transform="translate(0,80)"><path class="background" d="M0,0h67v12.5h-67Z" style="pointer-events: none; fill: none; opacity: 1;"></path><g><g class="mark-symbol role-legend-symbol" style="pointer-events: none;"><path transform="translate(6,6)" d="M5,0A5,5,0,1,1,-5,0A5,5,0,1,1,5,0" style="fill: #eeca3b; stroke: #eeca3b; stroke-width: 1.5; opacity: 1;"></path></g><g class="mark-text role-legend-label" style="pointer-events: none;"><text text-anchor="start" transform="translate(16,9)" style="font-family: sans-serif; font-size: 10px; fill: #000; opacity: 1;">zlib</text></g></g><path class="foreground" d="" style="pointer-events: none; display: none; fill: none;"></path></g></g></g><path class="foreground" d="" style="pointer-events: none; display: none; fill: none;"></path></g></g></g><path class="foreground" d="" style="pointer-events: none; display: none; fill: none;"></path></g></g></g><path class="foreground" d="" style="display: none; fill: none;"></path></g></g></g></svg>