<svg class="marks" width="2174" height="568" viewBox="0 0 1087 284" version="1.1" xmlns="http://www.w3.org/2000/svg" xmlns:xlink="http://www.w3.org/1999/xlink"><rect width="1087" height="284" style="fill: white;"></rect><g transform="translate(46,68)"><g class="mark-group role-frame root"><g transform="translate(0,0)"><path class="background" d="M0,0h0v0h0Z" style="fill: none;"></path><g><g class="mark-group role-row-header row_header"><g transform="translate(-1,0)"><path class="background" d="M0,0h0v200h0Z" style="fill: none;"></path><g><g class="mark-group role-axis"><g transform="translate(0.5,0.5)"><path class="background" d="M0,0h0v0h0Z" style="pointer-events: none; fill: none;"></path><g><g class="mark-rule role-axis-tick" style="pointer-events: none;"><line transform="translate(0,200)" x2="-5" y2="0" style="fill: none; stroke: #888; stroke-width: 1; opacity: 1;"></line><line transform="translate(0,169)" x2="-5" y2="0" style="fill: none; stroke: #888; stroke-width: 1; opacity: 1;"></line><line transform="translate(0,138)" x2="-5" y2="0" style="fill: none; stroke: #888; stroke-width: 1; opacity: 1;"></line><line transform="translate(0,108)" x2="-5" y2="0" style="fill: none; stroke: #888; stroke-width: 1; opacity: 1;"></line><line transform="translate(0,77)" x2="-5" y2="0" style="fill: none; stroke: #888; stroke-width: 1; opacity: 1;"></line><line transform="translate(0,46)" x2="-5" y2="0" style="fill: none; stroke: #888; stroke-width: 1; opacity: 1;"></line><line transform="translate(0,15)" x2="-5" y2="0" style="fill: none; stroke: #888; stroke-width: 1; opacity: 1;"></line></g><g class="mark-text role-axis-label" style="pointer-events: none;"><text text-anchor="end" transform="translate(-7,203)" style="font-family: sans-serif; font-size: 10px; fill: #000; opacity: 1;">0</text><text text-anchor="end" transform="translate(-7,172.23076923076923)" style="font-family: sans-serif; font-size: 10px; fill: #000; opacity: 1;">20</text><text text-anchor="end" transform="translate(-7,141.46153846153845)" style="font-family: sans-serif; font-size: 10px; fill: #000; opacity: 1;">40</text><text text-anchor="end" transform="translate(-7,110.6923076923077)" style="font-family: sans-serif; font-size: 10px; fill: #000; opacity: 1;">60</text><text text-anchor="end" transform="translate(-7,79.92307692307692)" style="font-family: sans-serif; font-size: 10px; fill: #000; opacity: 1;">80</text><text text-anchor="end" transform="translate(-7,49.153846153846146)" style="font-family: sans-serif; font-size: 10px; fill: #000; opacity: 1;">100</text><text text-anchor="end" transform="translate(-7,18.384615384615373)" style="font-family: sans-serif; font-size: 10px; fill: #000; opacity: 1;">120</text></g><g class="mark-rule role-axis-domain" style="pointer-events: none;"><line transform="translate(0,200)" x2="0" y2="-200" style="fill: none; stroke: #888; stroke-width: 1; opacity: 1;"></line></g><g class="mark-text role-axis-title" style="pointer-events: none;"><text text-anchor="middle" transform="translate(-29,100) rotate(-90) translate(0,-2)" style="font-family: sans-serif; font-size: 11px; font-weight: bold; fill: #000; opacity: 1;">Throughput (kb/ms)</text></g></g><path class="foreground" d="" style="pointer-events: none; display: none; fill: none;"></path></g></g></g><path class="foreground" d="" style="display: none; fill: none;"></path></g></g><g class="mark-group role-column-footer column_footer"><g transform="translate(0,201)"><path class="background" d="M0,0h140v0h-140Z" style="fill: none;"></path><g><g class="mark-group role-axis"><g transform="translate(0.5,0.5)"><path class="background" d="M0,0h0v0h0Z" style="pointer-events: none; fill: none;"></path><g><g class="mark-rule role-axis-domain" style="pointer-events: none;"><line transform="translate(0,0)" x2="140" y2="0" style="fill: none; stroke: #888; stroke-width: 0; opacity: 1;"></line></g></g><path class="foreground" d="" style="pointer-events: none; display: none; fill: none;"></path></g></g><g class="mark-group role-title"><g transform="translate(70,10)"><path class="background" d="M0,0h0v0h0Z" style="pointer-events: none; fill: none;"></path><g><g class="mark-text role-title-text" style="pointer-events: none;"><text text-anchor="middle" transform="translate(0,-2)" style="font-family: sans-serif; font-size: 10px; fill: #000; opacity: 1;">dickens</text></g></g><path class="foreground" d="" style="pointer-events: none; display: none; fill: none;"></path></g></g></g><path class="foreground" d="" style="display: none; fill: none;"></path></g><g transform="translate(162,201)"><path class="background" d="M0,0h140v0h-140Z" style="fill: none;"></path><g><g class="mark-group role-axis"><g transform="translate(0.5,0.5)"><path class="background" d="M0,0h0v0h0Z" style="pointer-events: none; fill: none;"></path><g><g class="mark-rule role-axis-domain" style="pointer-events: none;"><line transform="translate(0,0)" x2="140" y2="0" style="fill: none; stroke: #888; stroke-width: 0; opacity: 1;"></line></g></g><path class="foreground" d="" style="pointer-events: none; display: none; fill: none;"></path></g></g><g class="mark-group role-title"><g transform="translate(70,10)"><path class="background" d="M0,0h0v0h0Z" style="pointer-events: none; fill: none;"></path><g><g class="mark-text role-title-text" style="pointer-events: none;"><text text-anchor="middle" transform="translate(0,-2)" style="font-family: sans-serif; font-size: 10px; fill: #000; opacity: 1;">mozilla</text></g></g><path class="foreground" d="" style="pointer-events: none; display: none; fill: none;"></path></g></g></g><path class="foreground" d="" style="display: none; fill: none;"></path></g><g transform="translate(324,201)"><path class="background" d="M0,0h140v0h-140Z" style="fill: none;"></path><g><g class="mark-group role-axis"><g transform="translate(0.5,0.5)"><path class="background" d="M0,0h0v0h0Z" style="pointer-events: none; fill: none;"></path><g><g class="mark-rule role-axis-domain" style="pointer-events: none;"><line transform="translate(0,0)" x2="140" y2="0" style="fill: none; stroke: #888; stroke-width: 0; opacity: 1;"></line></g></g><path class="foreground" d="" style="pointer-events: none; display: none; fill: none;"></path></g></g><g class="mark-group role-title"><g transform="translate(70,10)"><path class="background" d="M0,0h0v0h0Z" style="pointer-events: none; fill: none;"></path><g><g class="mark-text role-title-text" style="pointer-events: none;"><text text-anchor="middle" transform="translate(0,-2)" style="font-family: sans-serif; font-size: 10px; fill: #000; opacity: 1;">mr</text></g></g><path class="foreground" d="" style="pointer-events: none; display: none; fill: none;"></path></g></g></g><path class="foreground" d="" style="display: none; fill: none;"></path></g><g transform="translate(486,201)"><path class="background" d="M0,0h140v0h-140Z" style="fill: none;"></path><g><g class="mark-group role-axis"><g transform="translate(0.5,0.5)"><path class="background" d="M0,0h0v0h0Z" style="pointer-events: none; fill: none;"></path><g><g class="mark-rule role-axis-domain" style="pointer-events: none;"><line transform="translate(0,0)" x2="140" y2="0" style="fill: none; stroke: #888; stroke-width: 0; opacity: 1;"></line></g></g><path class="foreground" d="" style="pointer-events: none; display: none; fill: none;"></path></g></g><g class="mark-group role-title"><g transform="translate(70,10)"><path class="background" d="M0,0h0v0h0Z" style="pointer-events: none; fill: none;"></path><g><g class="mark-text role-title-text" style="pointer-events: none;"><text text-anchor="middle" transform="translate(0,-2)" style="font-family: sans-serif; font-size: 10px; fill: #000; opacity: 1;">nci</text></g></g><path class="foreground" d="" style="pointer-events: none; display: none; fill: none;"></path></g></g></g><path class="foreground" d="" style="display: none; fill: none;"></path></g><g transform="translate(648,201)"><path class="background" d="M0,0h140v0h-140Z" style="fill: none;"></path><g><g class="mark-group role-axis"><g transform="translate(0.5,0.5)"><path class="background" d="M0,0h0v0h0Z" style="pointer-events: none; fill: none;"></path><g><g class="mark-rule role-axis-domain" style="pointer-events: none;"><line transform="translate(0,0)" x2="140" y2="0" style="fill: none; stroke: #888; stroke-width: 0; opacity: 1;"></line></g></g><path class="foreground" d="" style="pointer-events: none; display: none; fill: none;"></path></g></g><g class="mark-group role-title"><g transform="translate(70,10)"><path class="background" d="M0,0h0v0h0Z" style="pointer-events: none; fill: none;"></path><g><g class="mark-text role-title-text" style="pointer-events: none;"><text text-anchor="middle" transform="translate(0,-2)" style="font-family: sans-serif; font-size: 10px; fill: #000; opacity: 1;">ooffice</text></g></g><path class="foreground" d="" style="pointer-events: none; display: none; fill: none;"></path></g></g></g><path class="foreground" d="" style="display: none; fill: none;"></path></g><g transform="translate(810,201)"><path class="background" d="M0,0h140v0h-140Z" style="fill: none;"></path><g><g class="mark-group role-axis"><g transform="translate(0.5,0.5)"><path class="background" d="M0,0h0v0h0Z" style="pointer-events: none; fill: none;"></path><g><g class="mark-rule role-axis-domain" style="pointer-events: none;"><line transform="translate(0,0)" x2="140" y2="0" style="fill: none; stroke: #888; stroke-width: 0; opacity: 1;"></line></g></g><path class="foreground" d="" style="pointer-events: none; display: none; fill: none;"></path></g></g><g class="mark-group role-title"><g transform="translate(70,10)"><path class="background" d="M0,0h0v0h0Z" style="pointer-events: none; fill: none;"></path><g><g class="mark-text role-title-text" style="pointer-events: none;"><text text-anchor="middle" transform="translate(0,-2)" style="font-family: sans-serif; font-size: 10px; fill: #000; opacity: 1;">osdb</text></g></g><path class="foreground" d="" style="pointer-events: none; display: none; fill: none;"></path></g></g></g><path class="foreground" d="" style="display: none; fill: none;"></path></g></g><g class="mark-group role-scope cell"><g transform="translate(0,0)"><path class="background" d="M0.5,0.5h140v200h-140Z" style="fill: none; stroke: none;"></path><g><g class="mark-group role-axis"><g transform="translate(0.5,0.5)"><path class="background" d="M0,0h0v0h0Z" style="pointer-events: none; fill: none;"></path><g><g class="mark-rule role-axis-grid" style="pointer-events: none;"><line transform="translate(0,200)" x2="140" y2="0" style="fill: none; stroke: #ddd; stroke-width: 1; opacity: 1;"></line><line transform="translate(0,169)" x2="140" y2="0" style="fill: none; stroke: #ddd; stroke-width: 1; opacity: 1;"></line><line transform="translate(0,138)" x2="140" y2="0" style="fill: none; stroke: #ddd; stroke-width: 1; opacity: 1;"></line><line transform="translate(0,108)" x2="140" y2="0" style="fill: none; stroke: #ddd; stroke-width: 1; opacity: 1;"></line><line transform="translate(0,77)" x2="140" y2="0" style="fill: none; stroke: #ddd; stroke-width: 1; opacity: 1;"></line><line transform="translate(0,46)" x2="140" y2="0" style="fill: none; stroke: #ddd; stroke-width: 1; opacity: 1;"></line><line transform="translate(0,15)" x2="140" y2="0" style="fill: none; stroke: #ddd; stroke-width: 1; opacity: 1;"></line></g></g><path class="foreground" d="" style="pointer-events: none; display: none; fill: none;"></path></g></g><g class="mark-rect role-mark child_layer_0_marks"><path d="M21,187.9446153846154h18v12.055384615384611h-18Z" style="fill: #f58518;"></path><path d="M101,175.2492307692308h18v24.750769230769208h-18Z" style="fill: #eeca3b;"></path><path d="M81,177.6153846153846h18v22.384615384615387h-18Z" style="fill: #54a24b;"></path><path d="M121,51.44307692307692h18v148.55692307692308h-18Z" style="fill: #b279a2;"></path><path d="M61,180.59692307692308h18v19.403076923076924h-18Z" style="fill: #72b7b2;"></path><path d="M41,168.12h18v31.879999999999995h-18Z" style="fill: #e45756;"></path><path d="M1,188.2246153846154h18v11.77538461538461h-18Z" style="fill: #4c78a8;"></path></g><g class="mark-text role-mark child_layer_1_marks"><text text-anchor="start" transform="translate(30,187.9446153846154) rotate(270) translate(5,3)" style="font-family: sans-serif; font-size: 11px; fill: black;">102%</text><text text-anchor="start" transform="translate(110,175.2492307692308) rotate(270) translate(5,3)" style="font-family: sans-serif; font-size: 11px; fill: black;">210%</text><text text-anchor="start" transform="translate(90,177.6153846153846) rotate(270) translate(5,3)" style="font-family: sans-serif; font-size: 11px; fill: black;">190%</text><text text-anchor="start" transform="translate(130,51.44307692307692) rotate(270) translate(5,3)" style="font-family: sans-serif; font-size: 11px; fill: black;">1262%</text><text text-anchor="start" transform="translate(70,180.59692307692308) rotate(270) translate(5,3)" style="font-family: sans-serif; font-size: 11px; fill: black;">165%</text><text text-anchor="start" transform="translate(50,168.12) rotate(270) translate(5,3)" style="font-family: sans-serif; font-size: 11px; fill: black;">271%</text><text text-anchor="start" transform="translate(10,188.2246153846154) rotate(270) translate(5,3)" style="font-family: sans-serif; font-size: 11px; fill: black;">100%</text></g></g><path class="foreground" d="" style="display: none; fill: none;"></path></g><g transform="translate(162,0)"><path class="background" d="M0.5,0.5h140v200h-140Z" style="fill: none; stroke: none;"></path><g><g class="mark-group role-axis"><g transform="translate(0.5,0.5)"><path class="background" d="M0,0h0v0h0Z" style="pointer-events: none; fill: none;"></path><g><g class="mark-rule role-axis-grid" style="pointer-events: none;"><line transform="translate(0,200)" x2="140" y2="0" style="fill: none; stroke: #ddd; stroke-width: 1; opacity: 1;"></line><line transform="translate(0,169)" x2="140" y2="0" style="fill: none; stroke: #ddd; stroke-width: 1; opacity: 1;"></line><line transform="translate(0,138)" x2="140" y2="0" style="fill: none; stroke: #ddd; stroke-width: 1; opacity: 1;"></line><line transform="translate(0,108)" x2="140" y2="0" style="fill: none; stroke: #ddd; stroke-width: 1; opacity: 1;"></line><line transform="translate(0,77)" x2="140" y2="0" style="fill: none; stroke: #ddd; stroke-width: 1; opacity: 1;"></line><line transform="translate(0,46)" x2="140" y2="0" style="fill: none; stroke: #ddd; stroke-width: 1; opacity: 1;"></line><line transform="translate(0,15)" x2="140" y2="0" style="fill: none; stroke: #ddd; stroke-width: 1; opacity: 1;"></line></g></g><path class="foreground" d="" style="pointer-events: none; display: none; fill: none;"></path></g></g><g class="mark-rect role-mark child_layer_0_marks"><path d="M21,176.19384615384615h18v23.806153846153848h-18Z" style="fill: #f58518;"></path><path d="M101,167.02153846153846h18v32.978461538461545h-18Z" style="fill: #eeca3b;"></path><path d="M81,172.9476923076923h18v27.052307692307693h-18Z" style="fill: #54a24b;"></path><path d="M121,55.56923076923077h18v144.43076923076922h-18Z" style="fill: #b279a2;"></path><path d="M61,169.04923076923077h18v30.950769230769225h-18Z" style="fill: #72b7b2;"></path><path d="M41,164.44923076923078h18v35.55076923076922h-18Z" style="fill: #e45756;"></path><path d="M1,183.86153846153846h18v16.13846153846154h-18Z" style="fill: #4c78a8;"></path></g><g class="mark-text role-mark child_layer_1_marks"><text text-anchor="start" transform="translate(30,176.19384615384615) rotate(270) translate(5,3)" style="font-family: sans-serif; font-size: 11px; fill: black;">148%</text><text text-anchor="start" transform="translate(110,167.02153846153846) rotate(270) translate(5,3)" style="font-family: sans-serif; font-size: 11px; fill: black;">204%</text><text text-anchor="start" transform="translate(90,172.9476923076923) rotate(270) translate(5,3)" style="font-family: sans-serif; font-size: 11px; fill: black;">168%</text><text text-anchor="start" transform="translate(130,55.56923076923077) rotate(270) translate(5,3)" style="font-family: sans-serif; font-size: 11px; fill: black;">895%</text><text text-anchor="start" transform="translate(70,169.04923076923077) rotate(270) translate(5,3)" style="font-family: sans-serif; font-size: 11px; fill: black;">192%</text><text text-anchor="start" transform="translate(50,164.44923076923078) rotate(270) translate(5,3)" style="font-family: sans-serif; font-size: 11px; fill: black;">220%</text><text text-anchor="start" transform="translate(10,183.86153846153846) rotate(270) translate(5,3)" style="font-family: sans-serif; font-size: 11px; fill: black;">100%</text></g></g><path class="foreground" d="" style="display: none; fill: none;"></path></g><g transform="translate(324,0)"><path class="background" d="M0.5,0.5h140v200h-140Z" style="fill: none; stroke: none;"></path><g><g class="mark-group role-axis"><g transform="translate(0.5,0.5)"><path class="background" d="M0,0h0v0h0Z" style="pointer-events: none; fill: none;"></path><g><g class="mark-rule role-axis-grid" style="pointer-events: none;"><line transform="translate(0,200)" x2="140" y2="0" style="fill: none; stroke: #ddd; stroke-width: 1; opacity: 1;"></line><line transform="translate(0,169)" x2="140" y2="0" style="fill: none; stroke: #ddd; stroke-width: 1; opacity: 1;"></line><line transform="translate(0,138)" x2="140" y2="0" style="fill: none; stroke: #ddd; stroke-width: 1; opacity: 1;"></line><line transform="translate(0,108)" x2="140" y2="0" style="fill: none; stroke: #ddd; stroke-width: 1; opacity: 1;"></line><line transform="translate(0,77)" x2="140" y2="0" style="fill: none; stroke: #ddd; stroke-width: 1; opacity: 1;"></line><line transform="translate(0,46)" x2="140" y2="0" style="fill: none; stroke: #ddd; stroke-width: 1; opacity: 1;"></line><line transform="translate(0,15)" x2="140" y2="0" style="fill: none; stroke: #ddd; stroke-width: 1; opacity: 1;"></line></g></g><path class="foreground" d="" style="pointer-events: none; display: none; fill: none;"></path></g></g><g class="mark-rect role-mark child_layer_0_marks"><path d="M21,184.49846153846156h18v15.501538461538445h-18Z" style="fill: #f58518;"></path><path d="M101,170.2153846153846h18v29.784615384615392h-18Z" style="fill: #eeca3b;"></path><path d="M81,177.92615384615385h18v22.073846153846148h-18Z" style="fill: #54a24b;"></path><path d="M121,33.85846153846155h18v166.14153846153846h-18Z" style="fill: #b279a2;"></path><path d="M61,171.89538461538461h18v28.104615384615386h-18Z" style="fill: #72b7b2;"></path><path d="M41,165.36923076923077h18v34.63076923076923h-18Z" style="fill: #e45756;"></path><path d="M1,186.73846153846154h18v13.261538461538464h-18Z" style="fill: #4c78a8;"></path></g><g class="mark-text role-mark child_layer_1_marks"><text text-anchor="start" transform="translate(30,184.49846153846156) rotate(270) translate(5,3)" style="font-family: sans-serif; font-size: 11px; fill: black;">117%</text><text text-anchor="start" transform="translate(110,170.2153846153846) rotate(270) translate(5,3)" style="font-family: sans-serif; font-size: 11px; fill: black;">225%</text><text text-anchor="start" transform="translate(90,177.92615384615385) rotate(270) translate(5,3)" style="font-family: sans-serif; font-size: 11px; fill: black;">166%</text><text text-anchor="start" transform="translate(130,33.85846153846155) rotate(270) translate(5,3)" style="font-family: sans-serif; font-size: 11px; fill: black;">1253%</text><text text-anchor="start" transform="translate(70,171.89538461538461) rotate(270) translate(5,3)" style="font-family: sans-serif; font-size: 11px; fill: black;">212%</text><text text-anchor="start" transform="translate(50,165.36923076923077) rotate(270) translate(5,3)" style="font-family: sans-serif; font-size: 11px; fill: black;">261%</text><text text-anchor="start" transform="translate(10,186.73846153846154) rotate(270) translate(5,3)" style="font-family: sans-serif; font-size: 11px; fill: black;">100%</text></g></g><path class="foreground" d="" style="display: none; fill: none;"></path></g><g transform="translate(486,0)"><path class="background" d="M0.5,0.5h140v200h-140Z" style="fill: none; stroke: none;"></path><g><g class="mark-group role-axis"><g transform="translate(0.5,0.5)"><path class="background" d="M0,0h0v0h0Z" style="pointer-events: none; fill: none;"></path><g><g class="mark-rule role-axis-grid" style="pointer-events: none;"><line transform="translate(0,200)" x2="140" y2="0" style="fill: none; stroke: #ddd; stroke-width: 1; opacity: 1;"></line><line transform="translate(0,169)" x2="140" y2="0" style="fill: none; stroke: #ddd; stroke-width: 1; opacity: 1;"></line><line transform="translate(0,138)" x2="140" y2="0" style="fill: none; stroke: #ddd; stroke-width: 1; opacity: 1;"></line><line transform="translate(0,108)" x2="140" y2="0" style="fill: none; stroke: #ddd; stroke-width: 1; opacity: 1;"></line><line transform="translate(0,77)" x2="140" y2="0" style="fill: none; stroke: #ddd; stroke-width: 1; opacity: 1;"></line><line transform="translate(0,46)" x2="140" y2="0" style="fill: none; stroke: #ddd; stroke-width: 1; opacity: 1;"></line><line transform="translate(0,15)" x2="140" y2="0" style="fill: none; stroke: #ddd; stroke-width: 1; opacity: 1;"></line></g></g><path class="foreground" d="" style="pointer-events: none; display: none; fill: none;"></path></g></g><g class="mark-rect role-mark child_layer_0_marks"><path d="M21,139.76307692307694h18v60.23692307692306h-18Z" style="fill: #f58518;"></path><path d="M101,99.60923076923076h18v100.39076923076924h-18Z" style="fill: #eeca3b;"></path><path d="M81,120.5630769230769h18v79.4369230769231h-18Z" style="fill: #54a24b;"></path><path d="M121,7.7384615384615385h18v192.26153846153846h-18Z" style="fill: #b279a2;"></path><path d="M61,136.51384615384615h18v63.486153846153854h-18Z" style="fill: #72b7b2;"></path><path d="M41,104.63692307692307h18v95.36307692307693h-18Z" style="fill: #e45756;"></path><path d="M1,149.1076923076923h18v50.892307692307696h-18Z" style="fill: #4c78a8;"></path></g><g class="mark-text role-mark child_layer_1_marks"><text text-anchor="start" transform="translate(30,139.76307692307694) rotate(270) translate(5,3)" style="font-family: sans-serif; font-size: 11px; fill: black;">118%</text><text text-anchor="start" transform="translate(110,99.60923076923076) rotate(270) translate(5,3)" style="font-family: sans-serif; font-size: 11px; fill: black;">197%</text><text text-anchor="start" transform="translate(90,120.5630769230769) rotate(270) translate(5,3)" style="font-family: sans-serif; font-size: 11px; fill: black;">156%</text><text text-anchor="start" transform="translate(130,7.7384615384615385) rotate(270) translate(5,3)" style="font-family: sans-serif; font-size: 11px; fill: black;">378%</text><text text-anchor="start" transform="translate(70,136.51384615384615) rotate(270) translate(5,3)" style="font-family: sans-serif; font-size: 11px; fill: black;">125%</text><text text-anchor="start" transform="translate(50,104.63692307692307) rotate(270) translate(5,3)" style="font-family: sans-serif; font-size: 11px; fill: black;">187%</text><text text-anchor="start" transform="translate(10,149.1076923076923) rotate(270) translate(5,3)" style="font-family: sans-serif; font-size: 11px; fill: black;">100%</text></g></g><path class="foreground" d="" style="display: none; fill: none;"></path></g><g transform="translate(648,0)"><path class="background" d="M0.5,0.5h140v200h-140Z" style="fill: none; stroke: none;"></path><g><g class="mark-group role-axis"><g transform="translate(0.5,0.5)"><path class="background" d="M0,0h0v0h0Z" style="pointer-events: none; fill: none;"></path><g><g class="mark-rule role-axis-grid" style="pointer-events: none;"><line transform="translate(0,200)" x2="140" y2="0" style="fill: none; stroke: #ddd; stroke-width: 1; opacity: 1;"></line><line transform="translate(0,169)" x2="140" y2="0" style="fill: none; stroke: #ddd; stroke-width: 1; opacity: 1;"></line><line transform="translate(0,138)" x2="140" y2="0" style="fill: none; stroke: #ddd; stroke-width: 1; opacity: 1;"></line><line transform="translate(0,108)" x2="140" y2="0" style="fill: none; stroke: #ddd; stroke-width: 1; opacity: 1;"></line><line transform="translate(0,77)" x2="140" y2="0" style="fill: none; stroke: #ddd; stroke-width: 1; opacity: 1;"></line><line transform="translate(0,46)" x2="140" y2="0" style="fill: none; stroke: #ddd; stroke-width: 1; opacity: 1;"></line><line transform="translate(0,15)" x2="140" y2="0" style="fill: none; stroke: #ddd; stroke-width: 1; opacity: 1;"></line></g></g><path class="foreground" d="" style="pointer-events: none; display: none; fill: none;"></path></g></g><g class="mark-rect role-mark child_layer_0_marks"><path d="M21,182.69538461538463h18v17.304615384615374h-18Z" style="fill: #f58518;"></path><path d="M101,171.0276923076923h18v28.97230769230771h-18Z" style="fill: #eeca3b;"></path><path d="M81,175.13846153846154h18v24.86153846153846h-18Z" style="fill: #54a24b;"></path><path d="M121,64.7476923076923h18v135.25230769230768h-18Z" style="fill: #b279a2;"></path><path d="M61,177.0523076923077h18v22.947692307692307h-18Z" style="fill: #72b7b2;"></path><path d="M41,168.9476923076923h18v31.052307692307693h-18Z" style="fill: #e45756;"></path><path d="M1,187.0430769230769h18v12.95692307692309h-18Z" style="fill: #4c78a8;"></path></g><g class="mark-text role-mark child_layer_1_marks"><text text-anchor="start" transform="translate(30,182.69538461538463) rotate(270) translate(5,3)" style="font-family: sans-serif; font-size: 11px; fill: black;">134%</text><text text-anchor="start" transform="translate(110,171.0276923076923) rotate(270) translate(5,3)" style="font-family: sans-serif; font-size: 11px; fill: black;">224%</text><text text-anchor="start" transform="translate(90,175.13846153846154) rotate(270) translate(5,3)" style="font-family: sans-serif; font-size: 11px; fill: black;">192%</text><text text-anchor="start" transform="translate(130,64.7476923076923) rotate(270) translate(5,3)" style="font-family: sans-serif; font-size: 11px; fill: black;">1044%</text><text text-anchor="start" transform="translate(70,177.0523076923077) rotate(270) translate(5,3)" style="font-family: sans-serif; font-size: 11px; fill: black;">177%</text><text text-anchor="start" transform="translate(50,168.9476923076923) rotate(270) translate(5,3)" style="font-family: sans-serif; font-size: 11px; fill: black;">240%</text><text text-anchor="start" transform="translate(10,187.0430769230769) rotate(270) translate(5,3)" style="font-family: sans-serif; font-size: 11px; fill: black;">100%</text></g></g><path class="foreground" d="" style="display: none; fill: none;"></path></g><g transform="translate(810,0)"><path class="background" d="M0.5,0.5h140v200h-140Z" style="fill: none; stroke: none;"></path><g><g class="mark-group role-axis"><g transform="translate(0.5,0.5)"><path class="background" d="M0,0h0v0h0Z" style="pointer-events: none; fill: none;"></path><g><g class="mark-rule role-axis-grid" style="pointer-events: none;"><line transform="translate(0,200)" x2="140" y2="0" style="fill: none; stroke: #ddd; stroke-width: 1; opacity: 1;"></line><line transform="translate(0,169)" x2="140" y2="0" style="fill: none; stroke: #ddd; stroke-width: 1; opacity: 1;"></line><line transform="translate(0,138)" x2="140" y2="0" style="fill: none; stroke: #ddd; stroke-width: 1; opacity: 1;"></line><line transform="translate(0,108)" x2="140" y2="0" style="fill: none; stroke: #ddd; stroke-width: 1; opacity: 1;"></line><line transform="translate(0,77)" x2="140" y2="0" style="fill: none; stroke: #ddd; stroke-width: 1; opacity: 1;"></line><line transform="translate(0,46)" x2="140" y2="0" style="fill: none; stroke: #ddd; stroke-width: 1; opacity: 1;"></line><line transform="translate(0,15)" x2="140" y2="0" style="fill: none; stroke: #ddd; stroke-width: 1; opacity: 1;"></line></g></g><path class="foreground" d="" style="pointer-events: none; display: none; fill: none;"></path></g></g><g class="mark-rect role-mark child_layer_0_marks"><path d="M21,170.71384615384616h18v29.286153846153837h-18Z" style="fill: #f58518;"></path><path d="M101,150.6646153846154h18v49.33538461538461h-18Z" style="fill: #eeca3b;"></path><path d="M81,162.16h18v37.84h-18Z" style="fill: #54a24b;"></path><path d="M121,43.26769230769229h18v156.7323076923077h-18Z" style="fill: #b279a2;"></path><path d="M61,161.48923076923077h18v38.51076923076923h-18Z" style="fill: #72b7b2;"></path><path d="M41,149.2553846153846h18v50.7446153846154h-18Z" style="fill: #e45756;"></path><path d="M1,178.29538461538462h18v21.70461538461538h-18Z" style="fill: #4c78a8;"></path></g><g class="mark-text role-mark child_layer_1_marks"><text text-anchor="start" transform="translate(30,170.71384615384616) rotate(270) translate(5,3)" style="font-family: sans-serif; font-size: 11px; fill: black;">135%</text><text text-anchor="start" transform="translate(110,150.6646153846154) rotate(270) translate(5,3)" style="font-family: sans-serif; font-size: 11px; fill: black;">227%</text><text text-anchor="start" transform="translate(90,162.16) rotate(270) translate(5,3)" style="font-family: sans-serif; font-size: 11px; fill: black;">174%</text><text text-anchor="start" transform="translate(130,43.26769230769229) rotate(270) translate(5,3)" style="font-family: sans-serif; font-size: 11px; fill: black;">722%</text><text text-anchor="start" transform="translate(70,161.48923076923077) rotate(270) translate(5,3)" style="font-family: sans-serif; font-size: 11px; fill: black;">177%</text><text text-anchor="start" transform="translate(50,149.2553846153846) rotate(270) translate(5,3)" style="font-family: sans-serif; font-size: 11px; fill: black;">234%</text><text text-anchor="start" transform="translate(10,178.29538461538462) rotate(270) translate(5,3)" style="font-family: sans-serif; font-size: 11px; fill: black;">100%</text></g></g><path class="foreground" d="" style="display: none; fill: none;"></path></g></g><g class="mark-group role-title"><g transform="translate(497.5,-62.261538461538464)"><path class="background" d="M0,0h0v0h0Z" style="pointer-events: none; fill: none;"></path><g><g class="mark-text role-title-text" style="pointer-events: none;"><text text-anchor="middle" transform="translate(0,10)" style="font-family: sans-serif; font-size: 13px; font-weight: bold; fill: #000; opacity: 1;">Deflater throughput for Silesia corpus (part1) at compression level 6 on i7-8650U / 1900MHz</text></g></g><path class="foreground" d="" style="pointer-events: none; display: none; fill: none;"></path></g></g><g class="mark-group role-legend"><g transform="translate(969,0)"><path class="background" d="M0,0h67v89h-67Z" style="pointer-events: none; fill: none;"></path><g><g class="mark-group role-legend-entry"><g transform="translate(0,0)"><path class="background" d="M0,0h0v0h0Z" style="pointer-events: none; fill: none;"></path><g><g class="mark-group role-scope"><g transform="translate(0,0)"><path class="background" d="M0,0h67v11h-67Z" style="pointer-events: none; fill: none; opacity: 1;"></path><g><g class="mark-symbol role-legend-symbol" style="pointer-events: none;"><path transform="translate(6,6)" d="M-5,-5h10v10h-10Z" style="fill: #4c78a8; stroke-width: 1.5; opacity: 1;"></path></g><g class="mark-text role-legend-label" style="pointer-events: none;"><text text-anchor="start" transform="translate(16,9)" style="font-family: sans-serif; font-size: 10px; fill: #000; opacity: 1;">zlib</text></g></g><path class="foreground" d="" style="pointer-events: none; display: none; fill: none;"></path></g><g transform="translate(0,13)"><path class="background" d="M0,0h67v11h-67Z" style="pointer-events: none; fill: none; opacity: 1;"></path><g><g class="mark-symbol role-legend-symbol" style="pointer-events: none;"><path transform="translate(6,6)" d="M-5,-5h10v10h-10Z" style="fill: #f58518; stroke-width: 1.5; opacity: 1;"></path></g><g class="mark-text role-legend-label" style="pointer-events: none;"><text text-anchor="start" transform="translate(16,9)" style="font-family: sans-serif; font-size: 10px; fill: #000; opacity: 1;">chromium</text></g></g><path class="foreground" d="" style="pointer-events: none; display: none; fill: none;"></path></g><g transform="translate(0,26)"><path class="background" d="M0,0h67v11h-67Z" style="pointer-events: none; fill: none; opacity: 1;"></path><g><g class="mark-symbol role-legend-symbol" style="pointer-events: none;"><path transform="translate(6,6)" d="M-5,-5h10v10h-10Z" style="fill: #e45756; stroke-width: 1.5; opacity: 1;"></path></g><g class="mark-text role-legend-label" style="pointer-events: none;"><text text-anchor="start" transform="translate(16,9)" style="font-family: sans-serif; font-size: 10px; fill: #000; opacity: 1;">ng</text></g></g><path class="foreground" d="" style="pointer-events: none; display: none; fill: none;"></path></g><g transform="translate(0,39)"><path class="background" d="M0,0h67v11h-67Z" style="pointer-events: none; fill: none; opacity: 1;"></path><g><g class="mark-symbol role-legend-symbol" style="pointer-events: none;"><path transform="translate(6,6)" d="M-5,-5h10v10h-10Z" style="fill: #72b7b2; stroke-width: 1.5; opacity: 1;"></path></g><g class="mark-text role-legend-label" style="pointer-events: none;"><text text-anchor="start" transform="translate(16,9)" style="font-family: sans-serif; font-size: 10px; fill: #000; opacity: 1;">jtkukunas</text></g></g><path class="foreground" d="" style="pointer-events: none; display: none; fill: none;"></path></g><g transform="translate(0,52)"><path class="background" d="M0,0h67v11h-67Z" style="pointer-events: none; fill: none; opacity: 1;"></path><g><g class="mark-symbol role-legend-symbol" style="pointer-events: none;"><path transform="translate(6,6)" d="M-5,-5h10v10h-10Z" style="fill: #54a24b; stroke-width: 1.5; opacity: 1;"></path></g><g class="mark-text role-legend-label" style="pointer-events: none;"><text text-anchor="start" transform="translate(16,9)" style="font-family: sans-serif; font-size: 10px; fill: #000; opacity: 1;">ipp</text></g></g><path class="foreground" d="" style="pointer-events: none; display: none; fill: none;"></path></g><g transform="translate(0,65)"><path class="background" d="M0,0h67v11h-67Z" style="pointer-events: none; fill: none; opacity: 1;"></path><g><g class="mark-symbol role-legend-symbol" style="pointer-events: none;"><path transform="translate(6,6)" d="M-5,-5h10v10h-10Z" style="fill: #eeca3b; stroke-width: 1.5; opacity: 1;"></path></g><g class="mark-text role-legend-label" style="pointer-events: none;"><text text-anchor="start" transform="translate(16,9)" style="font-family: sans-serif; font-size: 10px; fill: #000; opacity: 1;">cloudflare</text></g></g><path class="foreground" d="" style="pointer-events: none; display: none; fill: none;"></path></g><g transform="translate(0,78)"><path class="background" d="M0,0h67v11h-67Z" style="pointer-events: none; fill: none; opacity: 1;"></path><g><g class="mark-symbol role-legend-symbol" style="pointer-events: none;"><path transform="translate(6,6)" d="M-5,-5h10v10h-10Z" style="fill: #b279a2; stroke-width: 1.5; opacity: 1;"></path></g><g class="mark-text role-legend-label" style="pointer-events: none;"><text text-anchor="start" transform="translate(16,9)" style="font-family: sans-serif; font-size: 10px; fill: #000; opacity: 1;">isal</text></g></g><path class="foreground" d="" style="pointer-events: none; display: none; fill: none;"></path></g></g></g><path class="foreground" d="" style="pointer-events: none; display: none; fill: none;"></path></g></g></g><path class="foreground" d="" style="pointer-events: none; display: none; fill: none;"></path></g></g></g><path class="foreground" d="" style="display: none; fill: none;"></path></g></g></g></svg>