<svg class="marks" width="1280" height="960" viewBox="0 0 640 480" version="1.1" xmlns="http://www.w3.org/2000/svg" xmlns:xlink="http://www.w3.org/1999/xlink"><rect width="640" height="480" style="fill: white;"></rect><g transform="translate(45,27)"><g class="mark-group role-frame root"><g transform="translate(0,0)"><path class="background" d="M0.5,0.5h589v416h-589Z" style="fill: none; stroke: #ddd;"></path><g><g class="mark-group role-axis"><g transform="translate(0.5,416.5)"><path class="background" d="M0,0h0v0h0Z" style="pointer-events: none; fill: none;"></path><g><g class="mark-rule role-axis-grid" style="pointer-events: none;"><line transform="translate(0,-416)" x2="0" y2="416" style="fill: none; stroke: #ddd; stroke-width: 1; opacity: 1;"></line><line transform="translate(42,-416)" x2="0" y2="416" style="fill: none; stroke: #ddd; stroke-width: 1; opacity: 1;"></line><line transform="translate(84,-416)" x2="0" y2="416" style="fill: none; stroke: #ddd; stroke-width: 1; opacity: 1;"></line><line transform="translate(126,-416)" x2="0" y2="416" style="fill: none; stroke: #ddd; stroke-width: 1; opacity: 1;"></line><line transform="translate(168,-416)" x2="0" y2="416" style="fill: none; stroke: #ddd; stroke-width: 1; opacity: 1;"></line><line transform="translate(210,-416)" x2="0" y2="416" style="fill: none; stroke: #ddd; stroke-width: 1; opacity: 1;"></line><line transform="translate(252,-416)" x2="0" y2="416" style="fill: none; stroke: #ddd; stroke-width: 1; opacity: 1;"></line><line transform="translate(294,-416)" x2="0" y2="416" style="fill: none; stroke: #ddd; stroke-width: 1; opacity: 1;"></line><line transform="translate(337,-416)" x2="0" y2="416" style="fill: none; stroke: #ddd; stroke-width: 1; opacity: 1;"></line><line transform="translate(379,-416)" x2="0" y2="416" style="fill: none; stroke: #ddd; stroke-width: 1; opacity: 1;"></line><line transform="translate(421,-416)" x2="0" y2="416" style="fill: none; stroke: #ddd; stroke-width: 1; opacity: 1;"></line><line transform="translate(463,-416)" x2="0" y2="416" style="fill: none; stroke: #ddd; stroke-width: 1; opacity: 1;"></line><line transform="translate(505,-416)" x2="0" y2="416" style="fill: none; stroke: #ddd; stroke-width: 1; opacity: 1;"></line><line transform="translate(547,-416)" x2="0" y2="416" style="fill: none; stroke: #ddd; stroke-width: 1; opacity: 1;"></line><line transform="translate(589,-416)" x2="0" y2="416" style="fill: none; stroke: #ddd; stroke-width: 1; opacity: 1;"></line></g></g><path class="foreground" d="" style="pointer-events: none; display: none; fill: none;"></path></g></g><g class="mark-group role-axis"><g transform="translate(0.5,0.5)"><path class="background" d="M0,0h0v0h0Z" style="pointer-events: none; fill: none;"></path><g><g class="mark-rule role-axis-grid" style="pointer-events: none;"><line transform="translate(0,416)" x2="589" y2="0" style="fill: none; stroke: #ddd; stroke-width: 1; opacity: 1;"></line><line transform="translate(0,370)" x2="589" y2="0" style="fill: none; stroke: #ddd; stroke-width: 1; opacity: 1;"></line><line transform="translate(0,324)" x2="589" y2="0" style="fill: none; stroke: #ddd; stroke-width: 1; opacity: 1;"></line><line transform="translate(0,277)" x2="589" y2="0" style="fill: none; stroke: #ddd; stroke-width: 1; opacity: 1;"></line><line transform="translate(0,231)" x2="589" y2="0" style="fill: none; stroke: #ddd; stroke-width: 1; opacity: 1;"></line><line transform="translate(0,185)" x2="589" y2="0" style="fill: none; stroke: #ddd; stroke-width: 1; opacity: 1;"></line><line transform="translate(0,139)" x2="589" y2="0" style="fill: none; stroke: #ddd; stroke-width: 1; opacity: 1;"></line><line transform="translate(0,92)" x2="589" y2="0" style="fill: none; stroke: #ddd; stroke-width: 1; opacity: 1;"></line><line transform="translate(0,46)" x2="589" y2="0" style="fill: none; stroke: #ddd; stroke-width: 1; opacity: 1;"></line><line transform="translate(0,0)" x2="589" y2="0" style="fill: none; stroke: #ddd; stroke-width: 1; opacity: 1;"></line></g></g><path class="foreground" d="" style="pointer-events: none; display: none; fill: none;"></path></g></g><g class="mark-group role-axis"><g transform="translate(0.5,416.5)"><path class="background" d="M0,0h0v0h0Z" style="pointer-events: none; fill: none;"></path><g><g class="mark-rule role-axis-tick" style="pointer-events: none;"><line transform="translate(0,0)" x2="0" y2="5" style="fill: none; stroke: #888; stroke-width: 1; opacity: 1;"></line><line transform="translate(42,0)" x2="0" y2="5" style="fill: none; stroke: #888; stroke-width: 1; opacity: 1;"></line><line transform="translate(84,0)" x2="0" y2="5" style="fill: none; stroke: #888; stroke-width: 1; opacity: 1;"></line><line transform="translate(126,0)" x2="0" y2="5" style="fill: none; stroke: #888; stroke-width: 1; opacity: 1;"></line><line transform="translate(168,0)" x2="0" y2="5" style="fill: none; stroke: #888; stroke-width: 1; opacity: 1;"></line><line transform="translate(210,0)" x2="0" y2="5" style="fill: none; stroke: #888; stroke-width: 1; opacity: 1;"></line><line transform="translate(252,0)" x2="0" y2="5" style="fill: none; stroke: #888; stroke-width: 1; opacity: 1;"></line><line transform="translate(294,0)" x2="0" y2="5" style="fill: none; stroke: #888; stroke-width: 1; opacity: 1;"></line><line transform="translate(337,0)" x2="0" y2="5" style="fill: none; stroke: #888; stroke-width: 1; opacity: 1;"></line><line transform="translate(379,0)" x2="0" y2="5" style="fill: none; stroke: #888; stroke-width: 1; opacity: 1;"></line><line transform="translate(421,0)" x2="0" y2="5" style="fill: none; stroke: #888; stroke-width: 1; opacity: 1;"></line><line transform="translate(463,0)" x2="0" y2="5" style="fill: none; stroke: #888; stroke-width: 1; opacity: 1;"></line><line transform="translate(505,0)" x2="0" y2="5" style="fill: none; stroke: #888; stroke-width: 1; opacity: 1;"></line><line transform="translate(547,0)" x2="0" y2="5" style="fill: none; stroke: #888; stroke-width: 1; opacity: 1;"></line><line transform="translate(589,0)" x2="0" y2="5" style="fill: none; stroke: #888; stroke-width: 1; opacity: 1;"></line></g><g class="mark-text role-axis-label" style="pointer-events: none;"><text text-anchor="start" transform="translate(0,15)" style="font-family: sans-serif; font-size: 10px; fill: #000; opacity: 1;">2.1</text><text text-anchor="middle" transform="translate(42.07142857142861,15)" style="font-family: sans-serif; font-size: 10px; fill: #000; opacity: 1;">2.2</text><text text-anchor="middle" transform="translate(84.14285714285704,15)" style="font-family: sans-serif; font-size: 10px; fill: #000; opacity: 1;">2.3</text><text text-anchor="middle" transform="translate(126.21428571428564,15)" style="font-family: sans-serif; font-size: 10px; fill: #000; opacity: 1;">2.4</text><text text-anchor="middle" transform="translate(168.28571428571425,15)" style="font-family: sans-serif; font-size: 10px; fill: #000; opacity: 1;">2.5</text><text text-anchor="middle" transform="translate(210.35714285714286,15)" style="font-family: sans-serif; font-size: 10px; fill: #000; opacity: 1;">2.6</text><text text-anchor="middle" transform="translate(252.42857142857147,15)" style="font-family: sans-serif; font-size: 10px; fill: #000; opacity: 1;">2.7</text><text text-anchor="middle" transform="translate(294.4999999999999,15)" style="font-family: sans-serif; font-size: 10px; fill: #000; opacity: 1;">2.8</text><text text-anchor="middle" transform="translate(336.5714285714285,15)" style="font-family: sans-serif; font-size: 10px; fill: #000; opacity: 1;">2.9</text><text text-anchor="middle" transform="translate(378.6428571428571,15)" style="font-family: sans-serif; font-size: 10px; fill: #000; opacity: 1;">3.0</text><text text-anchor="middle" transform="translate(420.7142857142857,15)" style="font-family: sans-serif; font-size: 10px; fill: #000; opacity: 1;">3.1</text><text text-anchor="middle" transform="translate(462.78571428571433,15)" style="font-family: sans-serif; font-size: 10px; fill: #000; opacity: 1;">3.2</text><text text-anchor="middle" transform="translate(504.8571428571428,15)" style="font-family: sans-serif; font-size: 10px; fill: #000; opacity: 1;">3.3</text><text text-anchor="middle" transform="translate(546.9285714285713,15)" style="font-family: sans-serif; font-size: 10px; fill: #000; opacity: 1;">3.4</text><text text-anchor="end" transform="translate(589,15)" style="font-family: sans-serif; font-size: 10px; fill: #000; opacity: 1;">3.5</text></g><g class="mark-rule role-axis-domain" style="pointer-events: none;"><line transform="translate(0,0)" x2="589" y2="0" style="fill: none; stroke: #888; stroke-width: 1; opacity: 1;"></line></g><g class="mark-text role-axis-title" style="pointer-events: none;"><text text-anchor="middle" transform="translate(294.5,30)" style="font-family: sans-serif; font-size: 11px; font-weight: bold; fill: #000; opacity: 1;">Compression ratio</text></g></g><path class="foreground" d="" style="pointer-events: none; display: none; fill: none;"></path></g></g><g class="mark-group role-axis"><g transform="translate(0.5,0.5)"><path class="background" d="M0,0h0v0h0Z" style="pointer-events: none; fill: none;"></path><g><g class="mark-rule role-axis-tick" style="pointer-events: none;"><line transform="translate(0,416)" x2="-5" y2="0" style="fill: none; stroke: #888; stroke-width: 1; opacity: 1;"></line><line transform="translate(0,370)" x2="-5" y2="0" style="fill: none; stroke: #888; stroke-width: 1; opacity: 1;"></line><line transform="translate(0,324)" x2="-5" y2="0" style="fill: none; stroke: #888; stroke-width: 1; opacity: 1;"></line><line transform="translate(0,277)" x2="-5" y2="0" style="fill: none; stroke: #888; stroke-width: 1; opacity: 1;"></line><line transform="translate(0,231)" x2="-5" y2="0" style="fill: none; stroke: #888; stroke-width: 1; opacity: 1;"></line><line transform="translate(0,185)" x2="-5" y2="0" style="fill: none; stroke: #888; stroke-width: 1; opacity: 1;"></line><line transform="translate(0,139)" x2="-5" y2="0" style="fill: none; stroke: #888; stroke-width: 1; opacity: 1;"></line><line transform="translate(0,92)" x2="-5" y2="0" style="fill: none; stroke: #888; stroke-width: 1; opacity: 1;"></line><line transform="translate(0,46)" x2="-5" y2="0" style="fill: none; stroke: #888; stroke-width: 1; opacity: 1;"></line><line transform="translate(0,0)" x2="-5" y2="0" style="fill: none; stroke: #888; stroke-width: 1; opacity: 1;"></line></g><g class="mark-text role-axis-label" style="pointer-events: none;"><text text-anchor="end" transform="translate(-7,419)" style="font-family: sans-serif; font-size: 10px; fill: #000; opacity: 1;">0</text><text text-anchor="end" transform="translate(-7,372.77777777777777)" style="font-family: sans-serif; font-size: 10px; fill: #000; opacity: 1;">20</text><text text-anchor="end" transform="translate(-7,326.55555555555554)" style="font-family: sans-serif; font-size: 10px; fill: #000; opacity: 1;">40</text><text text-anchor="end" transform="translate(-7,280.33333333333337)" style="font-family: sans-serif; font-size: 10px; fill: #000; opacity: 1;">60</text><text text-anchor="end" transform="translate(-7,234.11111111111111)" style="font-family: sans-serif; font-size: 10px; fill: #000; opacity: 1;">80</text><text text-anchor="end" transform="translate(-7,187.88888888888889)" style="font-family: sans-serif; font-size: 10px; fill: #000; opacity: 1;">100</text><text text-anchor="end" transform="translate(-7,141.66666666666669)" style="font-family: sans-serif; font-size: 10px; fill: #000; opacity: 1;">120</text><text text-anchor="end" transform="translate(-7,95.44444444444444)" style="font-family: sans-serif; font-size: 10px; fill: #000; opacity: 1;">140</text><text text-anchor="end" transform="translate(-7,49.22222222222224)" style="font-family: sans-serif; font-size: 10px; fill: #000; opacity: 1;">160</text><text text-anchor="end" transform="translate(-7,3)" style="font-family: sans-serif; font-size: 10px; fill: #000; opacity: 1;">180</text></g><g class="mark-rule role-axis-domain" style="pointer-events: none;"><line transform="translate(0,416)" x2="0" y2="-416" style="fill: none; stroke: #888; stroke-width: 1; opacity: 1;"></line></g><g class="mark-text role-axis-title" style="pointer-events: none;"><text text-anchor="middle" transform="translate(-29,208) rotate(-90) translate(0,-2)" style="font-family: sans-serif; font-size: 11px; font-weight: bold; fill: #000; opacity: 1;">Throughput (kb/ms)</text></g></g><path class="foreground" d="" style="pointer-events: none; display: none; fill: none;"></path></g></g><g class="mark-group role-scope layer_0_layer_0_layer_0_pathgroup"><g transform="translate(0,0)"><path class="background" d="M0,0h589v416h-589Z" style="fill: none;"></path><g><g class="mark-line role-mark layer_0_layer_0_layer_0_marks"><path d="M332.36428571428576,309.5548444444444L382.8499999999999,320.6712888888889L420.7142857142857,331.8016L483.82142857142856,342.88568888888886L538.5142857142857,360.0526222222222L546.9285714285713,384.92942222222223L555.3428571428572,390.36515555555553L559.5500000000001,397.0026666666667L559.5500000000001,396.95644444444446" style="fill: none; stroke: #eeca3b; stroke-width: 2;"></path></g></g><path class="foreground" d="" style="display: none; fill: none;"></path></g><g transform="translate(0,0)"><path class="background" d="M0,0h589v416h-589Z" style="fill: none;"></path><g><g class="mark-line role-mark layer_0_layer_0_layer_0_marks"><path d="M332.36428571428576,287.1278222222222L382.8499999999999,294.5002666666667L420.7142857142857,313.8304L483.82142857142856,324.4337777777778L538.5142857142857,348.74204444444445L555.3428571428572,365.13706666666667L563.7571428571429,371.60817777777777L567.9642857142858,379.2903111111111L567.9642857142858,379.94666666666666" style="fill: none; stroke: #e45756; stroke-width: 2;"></path></g></g><path class="foreground" d="" style="display: none; fill: none;"></path></g><g transform="translate(0,0)"><path class="background" d="M0,0h589v416h-589Z" style="fill: none;"></path><g><g class="mark-line role-mark layer_0_layer_0_layer_0_marks"><path d="M96.76428571428572,110.7392L374.43571428571437,307.4702222222222L391.2642857142856,307.09582222222224L403.8857142857143,305.69528888888885L471.2000000000001,343.88408888888887L525.8928571428572,358.60124444444443L542.7214285714286,375.6942222222222L542.7214285714286,375.6849777777778L551.1357142857144,383.16835555555554L551.1357142857144,384.4533333333333" style="fill: none; stroke: #f58518; stroke-width: 2;"></path></g></g><path class="foreground" d="" style="display: none; fill: none;"></path></g><g transform="translate(0,0)"><path class="background" d="M0,0h589v416h-589Z" style="fill: none;"></path><g><g class="mark-line role-mark layer_0_layer_0_layer_0_marks"><path d="M256.63571428571424,38.59093333333333L307.12142857142857,37.37991111111107L332.36428571428576,52.93831111111112L374.43571428571437,215.75146666666666" style="fill: none; stroke: #4c78a8; stroke-width: 2;"></path></g></g><path class="foreground" d="" style="display: none; fill: none;"></path></g><g transform="translate(0,0)"><path class="background" d="M0,0h589v416h-589Z" style="fill: none;"></path><g><g class="mark-line role-mark layer_0_layer_0_layer_0_marks"><path d="M332.36428571428576,310.8906666666667L382.8499999999999,319.0858666666667L420.7142857142857,332.78613333333334L517.4785714285715,345.2014222222222L534.3071428571429,349.9484444444444L534.3071428571429,376.70186666666666L555.3428571428572,390.7996444444445L559.5500000000001,396.62364444444444L559.5500000000001,396.80853333333334" style="fill: none; stroke: #72b7b2; stroke-width: 2;"></path></g></g><path class="foreground" d="" style="display: none; fill: none;"></path></g><g transform="translate(0,0)"><path class="background" d="M0,0h589v416h-589Z" style="fill: none;"></path><g><g class="mark-line role-mark layer_0_layer_0_layer_0_marks"><path d="M37.86428571428565,224.7047111111111L349.19285714285724,301.1747555555556L458.57857142857137,323.76355555555557L504.8571428571428,337.77813333333336L534.3071428571429,345.31235555555554L546.9285714285713,360.2144L555.3428571428572,385.5904L563.7571428571429,374.88533333333334L567.9642857142858,381.62915555555554" style="fill: none; stroke: #54a24b; stroke-width: 2;"></path></g></g><path class="foreground" d="" style="display: none; fill: none;"></path></g><g transform="translate(0,0)"><path class="background" d="M0,0h589v416h-589Z" style="fill: none;"></path><g><g class="mark-line role-mark layer_0_layer_0_layer_0_marks"><path d="M281.87857142857143,340.65777777777777L340.77857142857147,347.4524444444445L395.4714285714286,363.79662222222225L458.57857142857137,364.33742222222224L517.4785714285715,380.33031111111114L542.7214285714286,391.46986666666663L555.3428571428572,396.20764444444444L559.5500000000001,401.4631111111111L559.5500000000001,401.4769777777778" style="fill: none; stroke: #b279a2; stroke-width: 2;"></path></g></g><path class="foreground" d="" style="display: none; fill: none;"></path></g></g><g class="mark-symbol role-mark layer_0_layer_0_layer_1_marks"><path transform="translate(332.36428571428576,309.5548444444444)" d="M2.7386127875258306,0A2.7386127875258306,2.7386127875258306,0,1,1,-2.7386127875258306,0A2.7386127875258306,2.7386127875258306,0,1,1,2.7386127875258306,0" style="fill: #eeca3b; stroke-width: 2; opacity: 1;"></path><path transform="translate(382.8499999999999,320.6712888888889)" d="M2.7386127875258306,0A2.7386127875258306,2.7386127875258306,0,1,1,-2.7386127875258306,0A2.7386127875258306,2.7386127875258306,0,1,1,2.7386127875258306,0" style="fill: #eeca3b; stroke-width: 2; opacity: 1;"></path><path transform="translate(420.7142857142857,331.8016)" d="M2.7386127875258306,0A2.7386127875258306,2.7386127875258306,0,1,1,-2.7386127875258306,0A2.7386127875258306,2.7386127875258306,0,1,1,2.7386127875258306,0" style="fill: #eeca3b; stroke-width: 2; opacity: 1;"></path><path transform="translate(483.82142857142856,342.88568888888886)" d="M2.7386127875258306,0A2.7386127875258306,2.7386127875258306,0,1,1,-2.7386127875258306,0A2.7386127875258306,2.7386127875258306,0,1,1,2.7386127875258306,0" style="fill: #eeca3b; stroke-width: 2; opacity: 1;"></path><path transform="translate(538.5142857142857,360.0526222222222)" d="M2.7386127875258306,0A2.7386127875258306,2.7386127875258306,0,1,1,-2.7386127875258306,0A2.7386127875258306,2.7386127875258306,0,1,1,2.7386127875258306,0" style="fill: #eeca3b; stroke-width: 2; opacity: 1;"></path><path transform="translate(546.9285714285713,384.92942222222223)" d="M2.7386127875258306,0A2.7386127875258306,2.7386127875258306,0,1,1,-2.7386127875258306,0A2.7386127875258306,2.7386127875258306,0,1,1,2.7386127875258306,0" style="fill: #eeca3b; stroke-width: 2; opacity: 1;"></path><path transform="translate(555.3428571428572,390.36515555555553)" d="M2.7386127875258306,0A2.7386127875258306,2.7386127875258306,0,1,1,-2.7386127875258306,0A2.7386127875258306,2.7386127875258306,0,1,1,2.7386127875258306,0" style="fill: #eeca3b; stroke-width: 2; opacity: 1;"></path><path transform="translate(559.5500000000001,397.0026666666667)" d="M2.7386127875258306,0A2.7386127875258306,2.7386127875258306,0,1,1,-2.7386127875258306,0A2.7386127875258306,2.7386127875258306,0,1,1,2.7386127875258306,0" style="fill: #eeca3b; stroke-width: 2; opacity: 1;"></path><path transform="translate(559.5500000000001,396.95644444444446)" d="M2.7386127875258306,0A2.7386127875258306,2.7386127875258306,0,1,1,-2.7386127875258306,0A2.7386127875258306,2.7386127875258306,0,1,1,2.7386127875258306,0" style="fill: #eeca3b; stroke-width: 2; opacity: 1;"></path><path transform="translate(332.36428571428576,287.1278222222222)" d="M2.7386127875258306,0A2.7386127875258306,2.7386127875258306,0,1,1,-2.7386127875258306,0A2.7386127875258306,2.7386127875258306,0,1,1,2.7386127875258306,0" style="fill: #e45756; stroke-width: 2; opacity: 1;"></path><path transform="translate(382.8499999999999,294.5002666666667)" d="M2.7386127875258306,0A2.7386127875258306,2.7386127875258306,0,1,1,-2.7386127875258306,0A2.7386127875258306,2.7386127875258306,0,1,1,2.7386127875258306,0" style="fill: #e45756; stroke-width: 2; opacity: 1;"></path><path transform="translate(420.7142857142857,313.8304)" d="M2.7386127875258306,0A2.7386127875258306,2.7386127875258306,0,1,1,-2.7386127875258306,0A2.7386127875258306,2.7386127875258306,0,1,1,2.7386127875258306,0" style="fill: #e45756; stroke-width: 2; opacity: 1;"></path><path transform="translate(483.82142857142856,324.4337777777778)" d="M2.7386127875258306,0A2.7386127875258306,2.7386127875258306,0,1,1,-2.7386127875258306,0A2.7386127875258306,2.7386127875258306,0,1,1,2.7386127875258306,0" style="fill: #e45756; stroke-width: 2; opacity: 1;"></path><path transform="translate(538.5142857142857,348.74204444444445)" d="M2.7386127875258306,0A2.7386127875258306,2.7386127875258306,0,1,1,-2.7386127875258306,0A2.7386127875258306,2.7386127875258306,0,1,1,2.7386127875258306,0" style="fill: #e45756; stroke-width: 2; opacity: 1;"></path><path transform="translate(555.3428571428572,365.13706666666667)" d="M2.7386127875258306,0A2.7386127875258306,2.7386127875258306,0,1,1,-2.7386127875258306,0A2.7386127875258306,2.7386127875258306,0,1,1,2.7386127875258306,0" style="fill: #e45756; stroke-width: 2; opacity: 1;"></path><path transform="translate(563.7571428571429,371.60817777777777)" d="M2.7386127875258306,0A2.7386127875258306,2.7386127875258306,0,1,1,-2.7386127875258306,0A2.7386127875258306,2.7386127875258306,0,1,1,2.7386127875258306,0" style="fill: #e45756; stroke-width: 2; opacity: 1;"></path><path transform="translate(567.9642857142858,379.2903111111111)" d="M2.7386127875258306,0A2.7386127875258306,2.7386127875258306,0,1,1,-2.7386127875258306,0A2.7386127875258306,2.7386127875258306,0,1,1,2.7386127875258306,0" style="fill: #e45756; stroke-width: 2; opacity: 1;"></path><path transform="translate(567.9642857142858,379.94666666666666)" d="M2.7386127875258306,0A2.7386127875258306,2.7386127875258306,0,1,1,-2.7386127875258306,0A2.7386127875258306,2.7386127875258306,0,1,1,2.7386127875258306,0" style="fill: #e45756; stroke-width: 2; opacity: 1;"></path><path transform="translate(96.76428571428572,110.7392)" d="M2.7386127875258306,0A2.7386127875258306,2.7386127875258306,0,1,1,-2.7386127875258306,0A2.7386127875258306,2.7386127875258306,0,1,1,2.7386127875258306,0" style="fill: #f58518; stroke-width: 2; opacity: 1;"></path><path transform="translate(374.43571428571437,307.4702222222222)" d="M2.7386127875258306,0A2.7386127875258306,2.7386127875258306,0,1,1,-2.7386127875258306,0A2.7386127875258306,2.7386127875258306,0,1,1,2.7386127875258306,0" style="fill: #f58518; stroke-width: 2; opacity: 1;"></path><path transform="translate(391.2642857142856,307.09582222222224)" d="M2.7386127875258306,0A2.7386127875258306,2.7386127875258306,0,1,1,-2.7386127875258306,0A2.7386127875258306,2.7386127875258306,0,1,1,2.7386127875258306,0" style="fill: #f58518; stroke-width: 2; opacity: 1;"></path><path transform="translate(403.8857142857143,305.69528888888885)" d="M2.7386127875258306,0A2.7386127875258306,2.7386127875258306,0,1,1,-2.7386127875258306,0A2.7386127875258306,2.7386127875258306,0,1,1,2.7386127875258306,0" style="fill: #f58518; stroke-width: 2; opacity: 1;"></path><path transform="translate(471.2000000000001,343.88408888888887)" d="M2.7386127875258306,0A2.7386127875258306,2.7386127875258306,0,1,1,-2.7386127875258306,0A2.7386127875258306,2.7386127875258306,0,1,1,2.7386127875258306,0" style="fill: #f58518; stroke-width: 2; opacity: 1;"></path><path transform="translate(525.8928571428572,358.60124444444443)" d="M2.7386127875258306,0A2.7386127875258306,2.7386127875258306,0,1,1,-2.7386127875258306,0A2.7386127875258306,2.7386127875258306,0,1,1,2.7386127875258306,0" style="fill: #f58518; stroke-width: 2; opacity: 1;"></path><path transform="translate(542.7214285714286,375.6942222222222)" d="M2.7386127875258306,0A2.7386127875258306,2.7386127875258306,0,1,1,-2.7386127875258306,0A2.7386127875258306,2.7386127875258306,0,1,1,2.7386127875258306,0" style="fill: #f58518; stroke-width: 2; opacity: 1;"></path><path transform="translate(542.7214285714286,375.6849777777778)" d="M2.7386127875258306,0A2.7386127875258306,2.7386127875258306,0,1,1,-2.7386127875258306,0A2.7386127875258306,2.7386127875258306,0,1,1,2.7386127875258306,0" style="fill: #f58518; stroke-width: 2; opacity: 1;"></path><path transform="translate(551.1357142857144,383.16835555555554)" d="M2.7386127875258306,0A2.7386127875258306,2.7386127875258306,0,1,1,-2.7386127875258306,0A2.7386127875258306,2.7386127875258306,0,1,1,2.7386127875258306,0" style="fill: #f58518; stroke-width: 2; opacity: 1;"></path><path transform="translate(551.1357142857144,384.4533333333333)" d="M2.7386127875258306,0A2.7386127875258306,2.7386127875258306,0,1,1,-2.7386127875258306,0A2.7386127875258306,2.7386127875258306,0,1,1,2.7386127875258306,0" style="fill: #f58518; stroke-width: 2; opacity: 1;"></path><path transform="translate(256.63571428571424,38.59093333333333)" d="M2.7386127875258306,0A2.7386127875258306,2.7386127875258306,0,1,1,-2.7386127875258306,0A2.7386127875258306,2.7386127875258306,0,1,1,2.7386127875258306,0" style="fill: #4c78a8; stroke-width: 2; opacity: 1;"></path><path transform="translate(307.12142857142857,37.37991111111107)" d="M2.7386127875258306,0A2.7386127875258306,2.7386127875258306,0,1,1,-2.7386127875258306,0A2.7386127875258306,2.7386127875258306,0,1,1,2.7386127875258306,0" style="fill: #4c78a8; stroke-width: 2; opacity: 1;"></path><path transform="translate(332.36428571428576,52.93831111111112)" d="M2.7386127875258306,0A2.7386127875258306,2.7386127875258306,0,1,1,-2.7386127875258306,0A2.7386127875258306,2.7386127875258306,0,1,1,2.7386127875258306,0" style="fill: #4c78a8; stroke-width: 2; opacity: 1;"></path><path transform="translate(374.43571428571437,215.75146666666666)" d="M2.7386127875258306,0A2.7386127875258306,2.7386127875258306,0,1,1,-2.7386127875258306,0A2.7386127875258306,2.7386127875258306,0,1,1,2.7386127875258306,0" style="fill: #4c78a8; stroke-width: 2; opacity: 1;"></path><path transform="translate(332.36428571428576,310.8906666666667)" d="M2.7386127875258306,0A2.7386127875258306,2.7386127875258306,0,1,1,-2.7386127875258306,0A2.7386127875258306,2.7386127875258306,0,1,1,2.7386127875258306,0" style="fill: #72b7b2; stroke-width: 2; opacity: 1;"></path><path transform="translate(382.8499999999999,319.0858666666667)" d="M2.7386127875258306,0A2.7386127875258306,2.7386127875258306,0,1,1,-2.7386127875258306,0A2.7386127875258306,2.7386127875258306,0,1,1,2.7386127875258306,0" style="fill: #72b7b2; stroke-width: 2; opacity: 1;"></path><path transform="translate(420.7142857142857,332.78613333333334)" d="M2.7386127875258306,0A2.7386127875258306,2.7386127875258306,0,1,1,-2.7386127875258306,0A2.7386127875258306,2.7386127875258306,0,1,1,2.7386127875258306,0" style="fill: #72b7b2; stroke-width: 2; opacity: 1;"></path><path transform="translate(517.4785714285715,345.2014222222222)" d="M2.7386127875258306,0A2.7386127875258306,2.7386127875258306,0,1,1,-2.7386127875258306,0A2.7386127875258306,2.7386127875258306,0,1,1,2.7386127875258306,0" style="fill: #72b7b2; stroke-width: 2; opacity: 1;"></path><path transform="translate(534.3071428571429,349.9484444444444)" d="M2.7386127875258306,0A2.7386127875258306,2.7386127875258306,0,1,1,-2.7386127875258306,0A2.7386127875258306,2.7386127875258306,0,1,1,2.7386127875258306,0" style="fill: #72b7b2; stroke-width: 2; opacity: 1;"></path><path transform="translate(534.3071428571429,376.70186666666666)" d="M2.7386127875258306,0A2.7386127875258306,2.7386127875258306,0,1,1,-2.7386127875258306,0A2.7386127875258306,2.7386127875258306,0,1,1,2.7386127875258306,0" style="fill: #72b7b2; stroke-width: 2; opacity: 1;"></path><path transform="translate(555.3428571428572,390.7996444444445)" d="M2.7386127875258306,0A2.7386127875258306,2.7386127875258306,0,1,1,-2.7386127875258306,0A2.7386127875258306,2.7386127875258306,0,1,1,2.7386127875258306,0" style="fill: #72b7b2; stroke-width: 2; opacity: 1;"></path><path transform="translate(559.5500000000001,396.62364444444444)" d="M2.7386127875258306,0A2.7386127875258306,2.7386127875258306,0,1,1,-2.7386127875258306,0A2.7386127875258306,2.7386127875258306,0,1,1,2.7386127875258306,0" style="fill: #72b7b2; stroke-width: 2; opacity: 1;"></path><path transform="translate(559.5500000000001,396.80853333333334)" d="M2.7386127875258306,0A2.7386127875258306,2.7386127875258306,0,1,1,-2.7386127875258306,0A2.7386127875258306,2.7386127875258306,0,1,1,2.7386127875258306,0" style="fill: #72b7b2; stroke-width: 2; opacity: 1;"></path><path transform="translate(37.86428571428565,224.7047111111111)" d="M2.7386127875258306,0A2.7386127875258306,2.7386127875258306,0,1,1,-2.7386127875258306,0A2.7386127875258306,2.7386127875258306,0,1,1,2.7386127875258306,0" style="fill: #54a24b; stroke-width: 2; opacity: 1;"></path><path transform="translate(349.19285714285724,301.1747555555556)" d="M2.7386127875258306,0A2.7386127875258306,2.7386127875258306,0,1,1,-2.7386127875258306,0A2.7386127875258306,2.7386127875258306,0,1,1,2.7386127875258306,0" style="fill: #54a24b; stroke-width: 2; opacity: 1;"></path><path transform="translate(458.57857142857137,323.76355555555557)" d="M2.7386127875258306,0A2.7386127875258306,2.7386127875258306,0,1,1,-2.7386127875258306,0A2.7386127875258306,2.7386127875258306,0,1,1,2.7386127875258306,0" style="fill: #54a24b; stroke-width: 2; opacity: 1;"></path><path transform="translate(504.8571428571428,337.77813333333336)" d="M2.7386127875258306,0A2.7386127875258306,2.7386127875258306,0,1,1,-2.7386127875258306,0A2.7386127875258306,2.7386127875258306,0,1,1,2.7386127875258306,0" style="fill: #54a24b; stroke-width: 2; opacity: 1;"></path><path transform="translate(534.3071428571429,345.31235555555554)" d="M2.7386127875258306,0A2.7386127875258306,2.7386127875258306,0,1,1,-2.7386127875258306,0A2.7386127875258306,2.7386127875258306,0,1,1,2.7386127875258306,0" style="fill: #54a24b; stroke-width: 2; opacity: 1;"></path><path transform="translate(546.9285714285713,360.2144)" d="M2.7386127875258306,0A2.7386127875258306,2.7386127875258306,0,1,1,-2.7386127875258306,0A2.7386127875258306,2.7386127875258306,0,1,1,2.7386127875258306,0" style="fill: #54a24b; stroke-width: 2; opacity: 1;"></path><path transform="translate(563.7571428571429,374.88533333333334)" d="M2.7386127875258306,0A2.7386127875258306,2.7386127875258306,0,1,1,-2.7386127875258306,0A2.7386127875258306,2.7386127875258306,0,1,1,2.7386127875258306,0" style="fill: #54a24b; stroke-width: 2; opacity: 1;"></path><path transform="translate(567.9642857142858,381.62915555555554)" d="M2.7386127875258306,0A2.7386127875258306,2.7386127875258306,0,1,1,-2.7386127875258306,0A2.7386127875258306,2.7386127875258306,0,1,1,2.7386127875258306,0" style="fill: #54a24b; stroke-width: 2; opacity: 1;"></path><path transform="translate(555.3428571428572,385.5904)" d="M2.7386127875258306,0A2.7386127875258306,2.7386127875258306,0,1,1,-2.7386127875258306,0A2.7386127875258306,2.7386127875258306,0,1,1,2.7386127875258306,0" style="fill: #54a24b; stroke-width: 2; opacity: 1;"></path><path transform="translate(281.87857142857143,340.65777777777777)" d="M2.7386127875258306,0A2.7386127875258306,2.7386127875258306,0,1,1,-2.7386127875258306,0A2.7386127875258306,2.7386127875258306,0,1,1,2.7386127875258306,0" style="fill: #b279a2; stroke-width: 2; opacity: 1;"></path><path transform="translate(340.77857142857147,347.4524444444445)" d="M2.7386127875258306,0A2.7386127875258306,2.7386127875258306,0,1,1,-2.7386127875258306,0A2.7386127875258306,2.7386127875258306,0,1,1,2.7386127875258306,0" style="fill: #b279a2; stroke-width: 2; opacity: 1;"></path><path transform="translate(395.4714285714286,363.79662222222225)" d="M2.7386127875258306,0A2.7386127875258306,2.7386127875258306,0,1,1,-2.7386127875258306,0A2.7386127875258306,2.7386127875258306,0,1,1,2.7386127875258306,0" style="fill: #b279a2; stroke-width: 2; opacity: 1;"></path><path transform="translate(458.57857142857137,364.33742222222224)" d="M2.7386127875258306,0A2.7386127875258306,2.7386127875258306,0,1,1,-2.7386127875258306,0A2.7386127875258306,2.7386127875258306,0,1,1,2.7386127875258306,0" style="fill: #b279a2; stroke-width: 2; opacity: 1;"></path><path transform="translate(517.4785714285715,380.33031111111114)" d="M2.7386127875258306,0A2.7386127875258306,2.7386127875258306,0,1,1,-2.7386127875258306,0A2.7386127875258306,2.7386127875258306,0,1,1,2.7386127875258306,0" style="fill: #b279a2; stroke-width: 2; opacity: 1;"></path><path transform="translate(542.7214285714286,391.46986666666663)" d="M2.7386127875258306,0A2.7386127875258306,2.7386127875258306,0,1,1,-2.7386127875258306,0A2.7386127875258306,2.7386127875258306,0,1,1,2.7386127875258306,0" style="fill: #b279a2; stroke-width: 2; opacity: 1;"></path><path transform="translate(555.3428571428572,396.20764444444444)" d="M2.7386127875258306,0A2.7386127875258306,2.7386127875258306,0,1,1,-2.7386127875258306,0A2.7386127875258306,2.7386127875258306,0,1,1,2.7386127875258306,0" style="fill: #b279a2; stroke-width: 2; opacity: 1;"></path><path transform="translate(559.5500000000001,401.4631111111111)" d="M2.7386127875258306,0A2.7386127875258306,2.7386127875258306,0,1,1,-2.7386127875258306,0A2.7386127875258306,2.7386127875258306,0,1,1,2.7386127875258306,0" style="fill: #b279a2; stroke-width: 2; opacity: 1;"></path><path transform="translate(559.5500000000001,401.4769777777778)" d="M2.7386127875258306,0A2.7386127875258306,2.7386127875258306,0,1,1,-2.7386127875258306,0A2.7386127875258306,2.7386127875258306,0,1,1,2.7386127875258306,0" style="fill: #b279a2; stroke-width: 2; opacity: 1;"></path></g><g class="mark-text role-mark layer_0_layer_1_marks"><text text-anchor="end" transform="translate(337.36428571428576,304.5548444444444)" style="font-family: sans-serif; font-size: 11px; fill: #eeca3b;">1</text><text text-anchor="end" transform="translate(387.8499999999999,315.6712888888889)" style="font-family: sans-serif; font-size: 11px; fill: #eeca3b;">2</text><text text-anchor="end" transform="translate(425.7142857142857,326.8016)" style="font-family: sans-serif; font-size: 11px; fill: #eeca3b;">3</text><text text-anchor="end" transform="translate(488.82142857142856,337.88568888888886)" style="font-family: sans-serif; font-size: 11px; fill: #eeca3b;">4</text><text text-anchor="end" transform="translate(543.5142857142857,355.0526222222222)" style="font-family: sans-serif; font-size: 11px; fill: #eeca3b;">5</text><text text-anchor="end" transform="translate(551.9285714285713,379.92942222222223)" style="font-family: sans-serif; font-size: 11px; fill: #eeca3b;">6</text><text text-anchor="end" transform="translate(560.3428571428572,385.36515555555553)" style="font-family: sans-serif; font-size: 11px; fill: #eeca3b;">7</text><text text-anchor="end" transform="translate(564.5500000000001,392.0026666666667)" style="font-family: sans-serif; font-size: 11px; fill: #eeca3b;">8</text><text text-anchor="end" transform="translate(564.5500000000001,391.95644444444446)" style="font-family: sans-serif; font-size: 11px; fill: #eeca3b;">9</text><text text-anchor="end" transform="translate(337.36428571428576,282.1278222222222)" style="font-family: sans-serif; font-size: 11px; fill: #e45756;">1</text><text text-anchor="end" transform="translate(387.8499999999999,289.5002666666667)" style="font-family: sans-serif; font-size: 11px; fill: #e45756;">2</text><text text-anchor="end" transform="translate(425.7142857142857,308.8304)" style="font-family: sans-serif; font-size: 11px; fill: #e45756;">3</text><text text-anchor="end" transform="translate(488.82142857142856,319.4337777777778)" style="font-family: sans-serif; font-size: 11px; fill: #e45756;">4</text><text text-anchor="end" transform="translate(543.5142857142857,343.74204444444445)" style="font-family: sans-serif; font-size: 11px; fill: #e45756;">5</text><text text-anchor="end" transform="translate(560.3428571428572,360.13706666666667)" style="font-family: sans-serif; font-size: 11px; fill: #e45756;">6</text><text text-anchor="end" transform="translate(568.7571428571429,366.60817777777777)" style="font-family: sans-serif; font-size: 11px; fill: #e45756;">7</text><text text-anchor="end" transform="translate(572.9642857142858,374.2903111111111)" style="font-family: sans-serif; font-size: 11px; fill: #e45756;">8</text><text text-anchor="end" transform="translate(572.9642857142858,374.94666666666666)" style="font-family: sans-serif; font-size: 11px; fill: #e45756;">9</text><text text-anchor="end" transform="translate(101.76428571428572,105.7392)" style="font-family: sans-serif; font-size: 11px; fill: #f58518;">-2</text><text text-anchor="end" transform="translate(379.43571428571437,302.4702222222222)" style="font-family: sans-serif; font-size: 11px; fill: #f58518;">1</text><text text-anchor="end" transform="translate(396.2642857142856,302.09582222222224)" style="font-family: sans-serif; font-size: 11px; fill: #f58518;">2</text><text text-anchor="end" transform="translate(408.8857142857143,300.69528888888885)" style="font-family: sans-serif; font-size: 11px; fill: #f58518;">3</text><text text-anchor="end" transform="translate(476.2000000000001,338.88408888888887)" style="font-family: sans-serif; font-size: 11px; fill: #f58518;">4</text><text text-anchor="end" transform="translate(530.8928571428572,353.60124444444443)" style="font-family: sans-serif; font-size: 11px; fill: #f58518;">5</text><text text-anchor="end" transform="translate(547.7214285714286,370.6942222222222)" style="font-family: sans-serif; font-size: 11px; fill: #f58518;">6</text><text text-anchor="end" transform="translate(547.7214285714286,370.6849777777778)" style="font-family: sans-serif; font-size: 11px; fill: #f58518;">7</text><text text-anchor="end" transform="translate(556.1357142857144,378.16835555555554)" style="font-family: sans-serif; font-size: 11px; fill: #f58518;">8</text><text text-anchor="end" transform="translate(556.1357142857144,379.4533333333333)" style="font-family: sans-serif; font-size: 11px; fill: #f58518;">9</text><text text-anchor="end" transform="translate(261.63571428571424,33.59093333333333)" style="font-family: sans-serif; font-size: 11px; fill: #4c78a8;">0</text><text text-anchor="end" transform="translate(312.12142857142857,32.37991111111107)" style="font-family: sans-serif; font-size: 11px; fill: #4c78a8;">1</text><text text-anchor="end" transform="translate(337.36428571428576,47.93831111111112)" style="font-family: sans-serif; font-size: 11px; fill: #4c78a8;">2</text><text text-anchor="end" transform="translate(379.43571428571437,210.75146666666666)" style="font-family: sans-serif; font-size: 11px; fill: #4c78a8;">3</text><text text-anchor="end" transform="translate(337.36428571428576,305.8906666666667)" style="font-family: sans-serif; font-size: 11px; fill: #72b7b2;">1</text><text text-anchor="end" transform="translate(387.8499999999999,314.0858666666667)" style="font-family: sans-serif; font-size: 11px; fill: #72b7b2;">2</text><text text-anchor="end" transform="translate(425.7142857142857,327.78613333333334)" style="font-family: sans-serif; font-size: 11px; fill: #72b7b2;">3</text><text text-anchor="end" transform="translate(522.4785714285715,340.2014222222222)" style="font-family: sans-serif; font-size: 11px; fill: #72b7b2;">4</text><text text-anchor="end" transform="translate(539.3071428571429,344.9484444444444)" style="font-family: sans-serif; font-size: 11px; fill: #72b7b2;">5</text><text text-anchor="end" transform="translate(539.3071428571429,371.70186666666666)" style="font-family: sans-serif; font-size: 11px; fill: #72b7b2;">6</text><text text-anchor="end" transform="translate(560.3428571428572,385.7996444444445)" style="font-family: sans-serif; font-size: 11px; fill: #72b7b2;">7</text><text text-anchor="end" transform="translate(564.5500000000001,391.62364444444444)" style="font-family: sans-serif; font-size: 11px; fill: #72b7b2;">8</text><text text-anchor="end" transform="translate(564.5500000000001,391.80853333333334)" style="font-family: sans-serif; font-size: 11px; fill: #72b7b2;">9</text><text text-anchor="end" transform="translate(42.86428571428565,219.7047111111111)" style="font-family: sans-serif; font-size: 11px; fill: #54a24b;">1</text><text text-anchor="end" transform="translate(354.19285714285724,296.1747555555556)" style="font-family: sans-serif; font-size: 11px; fill: #54a24b;">2</text><text text-anchor="end" transform="translate(463.57857142857137,318.76355555555557)" style="font-family: sans-serif; font-size: 11px; fill: #54a24b;">3</text><text text-anchor="end" transform="translate(509.8571428571428,332.77813333333336)" style="font-family: sans-serif; font-size: 11px; fill: #54a24b;">4</text><text text-anchor="end" transform="translate(539.3071428571429,340.31235555555554)" style="font-family: sans-serif; font-size: 11px; fill: #54a24b;">5</text><text text-anchor="end" transform="translate(551.9285714285713,355.2144)" style="font-family: sans-serif; font-size: 11px; fill: #54a24b;">6</text><text text-anchor="end" transform="translate(568.7571428571429,369.88533333333334)" style="font-family: sans-serif; font-size: 11px; fill: #54a24b;">7</text><text text-anchor="end" transform="translate(572.9642857142858,376.62915555555554)" style="font-family: sans-serif; font-size: 11px; fill: #54a24b;">8</text><text text-anchor="end" transform="translate(560.3428571428572,380.5904)" style="font-family: sans-serif; font-size: 11px; fill: #54a24b;">9</text><text text-anchor="end" transform="translate(286.87857142857143,335.65777777777777)" style="font-family: sans-serif; font-size: 11px; fill: #b279a2;">1</text><text text-anchor="end" transform="translate(345.77857142857147,342.4524444444445)" style="font-family: sans-serif; font-size: 11px; fill: #b279a2;">2</text><text text-anchor="end" transform="translate(400.4714285714286,358.79662222222225)" style="font-family: sans-serif; font-size: 11px; fill: #b279a2;">3</text><text text-anchor="end" transform="translate(463.57857142857137,359.33742222222224)" style="font-family: sans-serif; font-size: 11px; fill: #b279a2;">4</text><text text-anchor="end" transform="translate(522.4785714285715,375.33031111111114)" style="font-family: sans-serif; font-size: 11px; fill: #b279a2;">5</text><text text-anchor="end" transform="translate(547.7214285714286,386.46986666666663)" style="font-family: sans-serif; font-size: 11px; fill: #b279a2;">6</text><text text-anchor="end" transform="translate(560.3428571428572,391.20764444444444)" style="font-family: sans-serif; font-size: 11px; fill: #b279a2;">7</text><text text-anchor="end" transform="translate(564.5500000000001,396.4631111111111)" style="font-family: sans-serif; font-size: 11px; fill: #b279a2;">8</text><text text-anchor="end" transform="translate(564.5500000000001,396.4769777777778)" style="font-family: sans-serif; font-size: 11px; fill: #b279a2;">9</text></g><g class="mark-group role-title"><g transform="translate(294.5,-22)"><path class="background" d="M0,0h0v0h0Z" style="pointer-events: none; fill: none;"></path><g><g class="mark-text role-title-text" style="pointer-events: none;"><text text-anchor="middle" transform="translate(0,10)" style="font-family: sans-serif; font-size: 13px; font-weight: bold; fill: #000; opacity: 1;">Deflater throughput/ratio per level for 'silesia/webster' on i7-8650U / 1900MHz</text></g></g><path class="foreground" d="" style="pointer-events: none; display: none; fill: none;"></path></g></g><g class="mark-group role-legend"><g transform="translate(506,0)"><path class="background" d="M0.5,0.5h83v125h-83Z" style="pointer-events: none; fill: #ffffff; stroke: #000000;"></path><g><g class="mark-group role-legend-entry"><g transform="translate(8,8)"><path class="background" d="M0,0h0v0h0Z" style="pointer-events: none; fill: none;"></path><g><g class="mark-group role-scope"><g transform="translate(0,0)"><path class="background" d="M0,0h67v12.5h-67Z" style="pointer-events: none; fill: none; opacity: 1;"></path><g><g class="mark-symbol role-legend-symbol" style="pointer-events: none;"><path transform="translate(6,6)" d="M5,0A5,5,0,1,1,-5,0A5,5,0,1,1,5,0" style="fill: #4c78a8; stroke: #4c78a8; stroke-width: 1.5; opacity: 1;"></path></g><g class="mark-text role-legend-label" style="pointer-events: none;"><text text-anchor="start" transform="translate(16,9)" style="font-family: sans-serif; font-size: 10px; fill: #000; opacity: 1;">isal</text></g></g><path class="foreground" d="" style="pointer-events: none; display: none; fill: none;"></path></g><g transform="translate(0,16)"><path class="background" d="M0,0h67v12.5h-67Z" style="pointer-events: none; fill: none; opacity: 1;"></path><g><g class="mark-symbol role-legend-symbol" style="pointer-events: none;"><path transform="translate(6,6)" d="M5,0A5,5,0,1,1,-5,0A5,5,0,1,1,5,0" style="fill: #f58518; stroke: #f58518; stroke-width: 1.5; opacity: 1;"></path></g><g class="mark-text role-legend-label" style="pointer-events: none;"><text text-anchor="start" transform="translate(16,9)" style="font-family: sans-serif; font-size: 10px; fill: #000; opacity: 1;">ipp</text></g></g><path class="foreground" d="" style="pointer-events: none; display: none; fill: none;"></path></g><g transform="translate(0,32)"><path class="background" d="M0,0h67v12.5h-67Z" style="pointer-events: none; fill: none; opacity: 1;"></path><g><g class="mark-symbol role-legend-symbol" style="pointer-events: none;"><path transform="translate(6,6)" d="M5,0A5,5,0,1,1,-5,0A5,5,0,1,1,5,0" style="fill: #e45756; stroke: #e45756; stroke-width: 1.5; opacity: 1;"></path></g><g class="mark-text role-legend-label" style="pointer-events: none;"><text text-anchor="start" transform="translate(16,9)" style="font-family: sans-serif; font-size: 10px; fill: #000; opacity: 1;">cloudflare</text></g></g><path class="foreground" d="" style="pointer-events: none; display: none; fill: none;"></path></g><g transform="translate(0,48)"><path class="background" d="M0,0h67v12.5h-67Z" style="pointer-events: none; fill: none; opacity: 1;"></path><g><g class="mark-symbol role-legend-symbol" style="pointer-events: none;"><path transform="translate(6,6)" d="M5,0A5,5,0,1,1,-5,0A5,5,0,1,1,5,0" style="fill: #72b7b2; stroke: #72b7b2; stroke-width: 1.5; opacity: 1;"></path></g><g class="mark-text role-legend-label" style="pointer-events: none;"><text text-anchor="start" transform="translate(16,9)" style="font-family: sans-serif; font-size: 10px; fill: #000; opacity: 1;">jtkukunas</text></g></g><path class="foreground" d="" style="pointer-events: none; display: none; fill: none;"></path></g><g transform="translate(0,64)"><path class="background" d="M0,0h67v12.5h-67Z" style="pointer-events: none; fill: none; opacity: 1;"></path><g><g class="mark-symbol role-legend-symbol" style="pointer-events: none;"><path transform="translate(6,6)" d="M5,0A5,5,0,1,1,-5,0A5,5,0,1,1,5,0" style="fill: #54a24b; stroke: #54a24b; stroke-width: 1.5; opacity: 1;"></path></g><g class="mark-text role-legend-label" style="pointer-events: none;"><text text-anchor="start" transform="translate(16,9)" style="font-family: sans-serif; font-size: 10px; fill: #000; opacity: 1;">ng</text></g></g><path class="foreground" d="" style="pointer-events: none; display: none; fill: none;"></path></g><g transform="translate(0,80)"><path class="background" d="M0,0h67v12.5h-67Z" style="pointer-events: none; fill: none; opacity: 1;"></path><g><g class="mark-symbol role-legend-symbol" style="pointer-events: none;"><path transform="translate(6,6)" d="M5,0A5,5,0,1,1,-5,0A5,5,0,1,1,5,0" style="fill: #eeca3b; stroke: #eeca3b; stroke-width: 1.5; opacity: 1;"></path></g><g class="mark-text role-legend-label" style="pointer-events: none;"><text text-anchor="start" transform="translate(16,9)" style="font-family: sans-serif; font-size: 10px; fill: #000; opacity: 1;">chromium</text></g></g><path class="foreground" d="" style="pointer-events: none; display: none; fill: none;"></path></g><g transform="translate(0,96)"><path class="background" d="M0,0h67v12.5h-67Z" style="pointer-events: none; fill: none; opacity: 1;"></path><g><g class="mark-symbol role-legend-symbol" style="pointer-events: none;"><path transform="translate(6,6)" d="M5,0A5,5,0,1,1,-5,0A5,5,0,1,1,5,0" style="fill: #b279a2; stroke: #b279a2; stroke-width: 1.5; opacity: 1;"></path></g><g class="mark-text role-legend-label" style="pointer-events: none;"><text text-anchor="start" transform="translate(16,9)" style="font-family: sans-serif; font-size: 10px; fill: #000; opacity: 1;">zlib</text></g></g><path class="foreground" d="" style="pointer-events: none; display: none; fill: none;"></path></g></g></g><path class="foreground" d="" style="pointer-events: none; display: none; fill: none;"></path></g></g></g><path class="foreground" d="" style="pointer-events: none; display: none; fill: none;"></path></g></g></g><path class="foreground" d="" style="display: none; fill: none;"></path></g></g></g></svg>