<svg class="marks" width="2574" height="576" viewBox="0 0 1287 288" version="1.1" xmlns="http://www.w3.org/2000/svg" xmlns:xlink="http://www.w3.org/1999/xlink"><rect width="1287" height="288" style="fill: white;"></rect><g transform="translate(40,72)"><g class="mark-group role-frame root"><g transform="translate(0,0)"><path class="background" d="M0,0h0v0h0Z" style="fill: none;"></path><g><g class="mark-group role-row-header row_header"><g transform="translate(-1,0)"><path class="background" d="M0,0h0v200h0Z" style="fill: none;"></path><g><g class="mark-group role-axis"><g transform="translate(0.5,0.5)"><path class="background" d="M0,0h0v0h0Z" style="pointer-events: none; fill: none;"></path><g><g class="mark-rule role-axis-tick" style="pointer-events: none;"><line transform="translate(0,200)" x2="-5" y2="0" style="fill: none; stroke: #888; stroke-width: 1; opacity: 1;"></line><line transform="translate(0,169)" x2="-5" y2="0" style="fill: none; stroke: #888; stroke-width: 1; opacity: 1;"></line><line transform="translate(0,138)" x2="-5" y2="0" style="fill: none; stroke: #888; stroke-width: 1; opacity: 1;"></line><line transform="translate(0,108)" x2="-5" y2="0" style="fill: none; stroke: #888; stroke-width: 1; opacity: 1;"></line><line transform="translate(0,77)" x2="-5" y2="0" style="fill: none; stroke: #888; stroke-width: 1; opacity: 1;"></line><line transform="translate(0,46)" x2="-5" y2="0" style="fill: none; stroke: #888; stroke-width: 1; opacity: 1;"></line><line transform="translate(0,15)" x2="-5" y2="0" style="fill: none; stroke: #888; stroke-width: 1; opacity: 1;"></line></g><g class="mark-text role-axis-label" style="pointer-events: none;"><text text-anchor="end" transform="translate(-7,203)" style="font-family: sans-serif; font-size: 10px; fill: #000; opacity: 1;">0</text><text text-anchor="end" transform="translate(-7,172.23076923076923)" style="font-family: sans-serif; font-size: 10px; fill: #000; opacity: 1;">10</text><text text-anchor="end" transform="translate(-7,141.46153846153845)" style="font-family: sans-serif; font-size: 10px; fill: #000; opacity: 1;">20</text><text text-anchor="end" transform="translate(-7,110.6923076923077)" style="font-family: sans-serif; font-size: 10px; fill: #000; opacity: 1;">30</text><text text-anchor="end" transform="translate(-7,79.92307692307692)" style="font-family: sans-serif; font-size: 10px; fill: #000; opacity: 1;">40</text><text text-anchor="end" transform="translate(-7,49.153846153846146)" style="font-family: sans-serif; font-size: 10px; fill: #000; opacity: 1;">50</text><text text-anchor="end" transform="translate(-7,18.384615384615373)" style="font-family: sans-serif; font-size: 10px; fill: #000; opacity: 1;">60</text></g><g class="mark-rule role-axis-domain" style="pointer-events: none;"><line transform="translate(0,200)" x2="0" y2="-200" style="fill: none; stroke: #888; stroke-width: 1; opacity: 1;"></line></g><g class="mark-text role-axis-title" style="pointer-events: none;"><text text-anchor="middle" transform="translate(-23,100) rotate(-90) translate(0,-2)" style="font-family: sans-serif; font-size: 11px; font-weight: bold; fill: #000; opacity: 1;">Throughput (kb/ms)</text></g></g><path class="foreground" d="" style="pointer-events: none; display: none; fill: none;"></path></g></g></g><path class="foreground" d="" style="display: none; fill: none;"></path></g></g><g class="mark-group role-column-footer column_footer"><g transform="translate(0,201)"><path class="background" d="M0,0h80v0h-80Z" style="fill: none;"></path><g><g class="mark-group role-axis"><g transform="translate(0.5,0.5)"><path class="background" d="M0,0h0v0h0Z" style="pointer-events: none; fill: none;"></path><g><g class="mark-rule role-axis-domain" style="pointer-events: none;"><line transform="translate(0,0)" x2="80" y2="0" style="fill: none; stroke: #888; stroke-width: 0; opacity: 1;"></line></g></g><path class="foreground" d="" style="pointer-events: none; display: none; fill: none;"></path></g></g><g class="mark-group role-title"><g transform="translate(40,10)"><path class="background" d="M0,0h0v0h0Z" style="pointer-events: none; fill: none;"></path><g><g class="mark-text role-title-text" style="pointer-events: none;"><text text-anchor="middle" transform="translate(0,-2)" style="font-family: sans-serif; font-size: 10px; fill: #000; opacity: 1;">dickens</text></g></g><path class="foreground" d="" style="pointer-events: none; display: none; fill: none;"></path></g></g></g><path class="foreground" d="" style="display: none; fill: none;"></path></g><g transform="translate(102,201)"><path class="background" d="M0,0h80v0h-80Z" style="fill: none;"></path><g><g class="mark-group role-axis"><g transform="translate(0.5,0.5)"><path class="background" d="M0,0h0v0h0Z" style="pointer-events: none; fill: none;"></path><g><g class="mark-rule role-axis-domain" style="pointer-events: none;"><line transform="translate(0,0)" x2="80" y2="0" style="fill: none; stroke: #888; stroke-width: 0; opacity: 1;"></line></g></g><path class="foreground" d="" style="pointer-events: none; display: none; fill: none;"></path></g></g><g class="mark-group role-title"><g transform="translate(40,10)"><path class="background" d="M0,0h0v0h0Z" style="pointer-events: none; fill: none;"></path><g><g class="mark-text role-title-text" style="pointer-events: none;"><text text-anchor="middle" transform="translate(0,-2)" style="font-family: sans-serif; font-size: 10px; fill: #000; opacity: 1;">mozilla</text></g></g><path class="foreground" d="" style="pointer-events: none; display: none; fill: none;"></path></g></g></g><path class="foreground" d="" style="display: none; fill: none;"></path></g><g transform="translate(204,201)"><path class="background" d="M0,0h80v0h-80Z" style="fill: none;"></path><g><g class="mark-group role-axis"><g transform="translate(0.5,0.5)"><path class="background" d="M0,0h0v0h0Z" style="pointer-events: none; fill: none;"></path><g><g class="mark-rule role-axis-domain" style="pointer-events: none;"><line transform="translate(0,0)" x2="80" y2="0" style="fill: none; stroke: #888; stroke-width: 0; opacity: 1;"></line></g></g><path class="foreground" d="" style="pointer-events: none; display: none; fill: none;"></path></g></g><g class="mark-group role-title"><g transform="translate(40,10)"><path class="background" d="M0,0h0v0h0Z" style="pointer-events: none; fill: none;"></path><g><g class="mark-text role-title-text" style="pointer-events: none;"><text text-anchor="middle" transform="translate(0,-2)" style="font-family: sans-serif; font-size: 10px; fill: #000; opacity: 1;">mr</text></g></g><path class="foreground" d="" style="pointer-events: none; display: none; fill: none;"></path></g></g></g><path class="foreground" d="" style="display: none; fill: none;"></path></g><g transform="translate(306,201)"><path class="background" d="M0,0h80v0h-80Z" style="fill: none;"></path><g><g class="mark-group role-axis"><g transform="translate(0.5,0.5)"><path class="background" d="M0,0h0v0h0Z" style="pointer-events: none; fill: none;"></path><g><g class="mark-rule role-axis-domain" style="pointer-events: none;"><line transform="translate(0,0)" x2="80" y2="0" style="fill: none; stroke: #888; stroke-width: 0; opacity: 1;"></line></g></g><path class="foreground" d="" style="pointer-events: none; display: none; fill: none;"></path></g></g><g class="mark-group role-title"><g transform="translate(40,10)"><path class="background" d="M0,0h0v0h0Z" style="pointer-events: none; fill: none;"></path><g><g class="mark-text role-title-text" style="pointer-events: none;"><text text-anchor="middle" transform="translate(0,-2)" style="font-family: sans-serif; font-size: 10px; fill: #000; opacity: 1;">nci</text></g></g><path class="foreground" d="" style="pointer-events: none; display: none; fill: none;"></path></g></g></g><path class="foreground" d="" style="display: none; fill: none;"></path></g><g transform="translate(408,201)"><path class="background" d="M0,0h80v0h-80Z" style="fill: none;"></path><g><g class="mark-group role-axis"><g transform="translate(0.5,0.5)"><path class="background" d="M0,0h0v0h0Z" style="pointer-events: none; fill: none;"></path><g><g class="mark-rule role-axis-domain" style="pointer-events: none;"><line transform="translate(0,0)" x2="80" y2="0" style="fill: none; stroke: #888; stroke-width: 0; opacity: 1;"></line></g></g><path class="foreground" d="" style="pointer-events: none; display: none; fill: none;"></path></g></g><g class="mark-group role-title"><g transform="translate(40,10)"><path class="background" d="M0,0h0v0h0Z" style="pointer-events: none; fill: none;"></path><g><g class="mark-text role-title-text" style="pointer-events: none;"><text text-anchor="middle" transform="translate(0,-2)" style="font-family: sans-serif; font-size: 10px; fill: #000; opacity: 1;">ooffice</text></g></g><path class="foreground" d="" style="pointer-events: none; display: none; fill: none;"></path></g></g></g><path class="foreground" d="" style="display: none; fill: none;"></path></g><g transform="translate(510,201)"><path class="background" d="M0,0h80v0h-80Z" style="fill: none;"></path><g><g class="mark-group role-axis"><g transform="translate(0.5,0.5)"><path class="background" d="M0,0h0v0h0Z" style="pointer-events: none; fill: none;"></path><g><g class="mark-rule role-axis-domain" style="pointer-events: none;"><line transform="translate(0,0)" x2="80" y2="0" style="fill: none; stroke: #888; stroke-width: 0; opacity: 1;"></line></g></g><path class="foreground" d="" style="pointer-events: none; display: none; fill: none;"></path></g></g><g class="mark-group role-title"><g transform="translate(40,10)"><path class="background" d="M0,0h0v0h0Z" style="pointer-events: none; fill: none;"></path><g><g class="mark-text role-title-text" style="pointer-events: none;"><text text-anchor="middle" transform="translate(0,-2)" style="font-family: sans-serif; font-size: 10px; fill: #000; opacity: 1;">reymont</text></g></g><path class="foreground" d="" style="pointer-events: none; display: none; fill: none;"></path></g></g></g><path class="foreground" d="" style="display: none; fill: none;"></path></g><g transform="translate(612,201)"><path class="background" d="M0,0h80v0h-80Z" style="fill: none;"></path><g><g class="mark-group role-axis"><g transform="translate(0.5,0.5)"><path class="background" d="M0,0h0v0h0Z" style="pointer-events: none; fill: none;"></path><g><g class="mark-rule role-axis-domain" style="pointer-events: none;"><line transform="translate(0,0)" x2="80" y2="0" style="fill: none; stroke: #888; stroke-width: 0; opacity: 1;"></line></g></g><path class="foreground" d="" style="pointer-events: none; display: none; fill: none;"></path></g></g><g class="mark-group role-title"><g transform="translate(40,10)"><path class="background" d="M0,0h0v0h0Z" style="pointer-events: none; fill: none;"></path><g><g class="mark-text role-title-text" style="pointer-events: none;"><text text-anchor="middle" transform="translate(0,-2)" style="font-family: sans-serif; font-size: 10px; fill: #000; opacity: 1;">samba</text></g></g><path class="foreground" d="" style="pointer-events: none; display: none; fill: none;"></path></g></g></g><path class="foreground" d="" style="display: none; fill: none;"></path></g><g transform="translate(714,201)"><path class="background" d="M0,0h80v0h-80Z" style="fill: none;"></path><g><g class="mark-group role-axis"><g transform="translate(0.5,0.5)"><path class="background" d="M0,0h0v0h0Z" style="pointer-events: none; fill: none;"></path><g><g class="mark-rule role-axis-domain" style="pointer-events: none;"><line transform="translate(0,0)" x2="80" y2="0" style="fill: none; stroke: #888; stroke-width: 0; opacity: 1;"></line></g></g><path class="foreground" d="" style="pointer-events: none; display: none; fill: none;"></path></g></g><g class="mark-group role-title"><g transform="translate(40,10)"><path class="background" d="M0,0h0v0h0Z" style="pointer-events: none; fill: none;"></path><g><g class="mark-text role-title-text" style="pointer-events: none;"><text text-anchor="middle" transform="translate(0,-2)" style="font-family: sans-serif; font-size: 10px; fill: #000; opacity: 1;">sao</text></g></g><path class="foreground" d="" style="pointer-events: none; display: none; fill: none;"></path></g></g></g><path class="foreground" d="" style="display: none; fill: none;"></path></g><g transform="translate(816,201)"><path class="background" d="M0,0h80v0h-80Z" style="fill: none;"></path><g><g class="mark-group role-axis"><g transform="translate(0.5,0.5)"><path class="background" d="M0,0h0v0h0Z" style="pointer-events: none; fill: none;"></path><g><g class="mark-rule role-axis-domain" style="pointer-events: none;"><line transform="translate(0,0)" x2="80" y2="0" style="fill: none; stroke: #888; stroke-width: 0; opacity: 1;"></line></g></g><path class="foreground" d="" style="pointer-events: none; display: none; fill: none;"></path></g></g><g class="mark-group role-title"><g transform="translate(40,10)"><path class="background" d="M0,0h0v0h0Z" style="pointer-events: none; fill: none;"></path><g><g class="mark-text role-title-text" style="pointer-events: none;"><text text-anchor="middle" transform="translate(0,-2)" style="font-family: sans-serif; font-size: 10px; fill: #000; opacity: 1;">webster</text></g></g><path class="foreground" d="" style="pointer-events: none; display: none; fill: none;"></path></g></g></g><path class="foreground" d="" style="display: none; fill: none;"></path></g><g transform="translate(918,201)"><path class="background" d="M0,0h80v0h-80Z" style="fill: none;"></path><g><g class="mark-group role-axis"><g transform="translate(0.5,0.5)"><path class="background" d="M0,0h0v0h0Z" style="pointer-events: none; fill: none;"></path><g><g class="mark-rule role-axis-domain" style="pointer-events: none;"><line transform="translate(0,0)" x2="80" y2="0" style="fill: none; stroke: #888; stroke-width: 0; opacity: 1;"></line></g></g><path class="foreground" d="" style="pointer-events: none; display: none; fill: none;"></path></g></g><g class="mark-group role-title"><g transform="translate(40,10)"><path class="background" d="M0,0h0v0h0Z" style="pointer-events: none; fill: none;"></path><g><g class="mark-text role-title-text" style="pointer-events: none;"><text text-anchor="middle" transform="translate(0,-2)" style="font-family: sans-serif; font-size: 10px; fill: #000; opacity: 1;">xml</text></g></g><path class="foreground" d="" style="pointer-events: none; display: none; fill: none;"></path></g></g></g><path class="foreground" d="" style="display: none; fill: none;"></path></g><g transform="translate(1020,201)"><path class="background" d="M0,0h80v0h-80Z" style="fill: none;"></path><g><g class="mark-group role-axis"><g transform="translate(0.5,0.5)"><path class="background" d="M0,0h0v0h0Z" style="pointer-events: none; fill: none;"></path><g><g class="mark-rule role-axis-domain" style="pointer-events: none;"><line transform="translate(0,0)" x2="80" y2="0" style="fill: none; stroke: #888; stroke-width: 0; opacity: 1;"></line></g></g><path class="foreground" d="" style="pointer-events: none; display: none; fill: none;"></path></g></g><g class="mark-group role-title"><g transform="translate(40,10)"><path class="background" d="M0,0h0v0h0Z" style="pointer-events: none; fill: none;"></path><g><g class="mark-text role-title-text" style="pointer-events: none;"><text text-anchor="middle" transform="translate(0,-2)" style="font-family: sans-serif; font-size: 10px; fill: #000; opacity: 1;">x.ray</text></g></g><path class="foreground" d="" style="pointer-events: none; display: none; fill: none;"></path></g></g></g><path class="foreground" d="" style="display: none; fill: none;"></path></g></g><g class="mark-group role-scope cell"><g transform="translate(0,0)"><path class="background" d="M0.5,0.5h80v200h-80Z" style="fill: none; stroke: none;"></path><g><g class="mark-group role-axis"><g transform="translate(0.5,0.5)"><path class="background" d="M0,0h0v0h0Z" style="pointer-events: none; fill: none;"></path><g><g class="mark-rule role-axis-grid" style="pointer-events: none;"><line transform="translate(0,200)" x2="80" y2="0" style="fill: none; stroke: #ddd; stroke-width: 1; opacity: 1;"></line><line transform="translate(0,169)" x2="80" y2="0" style="fill: none; stroke: #ddd; stroke-width: 1; opacity: 1;"></line><line transform="translate(0,138)" x2="80" y2="0" style="fill: none; stroke: #ddd; stroke-width: 1; opacity: 1;"></line><line transform="translate(0,108)" x2="80" y2="0" style="fill: none; stroke: #ddd; stroke-width: 1; opacity: 1;"></line><line transform="translate(0,77)" x2="80" y2="0" style="fill: none; stroke: #ddd; stroke-width: 1; opacity: 1;"></line><line transform="translate(0,46)" x2="80" y2="0" style="fill: none; stroke: #ddd; stroke-width: 1; opacity: 1;"></line><line transform="translate(0,15)" x2="80" y2="0" style="fill: none; stroke: #ddd; stroke-width: 1; opacity: 1;"></line></g></g><path class="foreground" d="" style="pointer-events: none; display: none; fill: none;"></path></g></g><g class="mark-rect role-mark child_layer_0_marks"><path d="M1,175.66153846153847h18v24.33846153846153h-18Z" style="fill: #4c78a8;"></path><path d="M41,171.5876923076923h18v28.412307692307706h-18Z" style="fill: #e45756;"></path><path d="M61,148.22153846153844h18v51.778461538461556h-18Z" style="fill: #72b7b2;"></path><path d="M21,173.63076923076923h18v26.369230769230768h-18Z" style="fill: #f58518;"></path></g><g class="mark-text role-mark child_layer_1_marks"><text text-anchor="start" transform="translate(10,175.66153846153847) rotate(270) translate(5,3)" style="font-family: sans-serif; font-size: 11px; fill: black;">100%</text><text text-anchor="start" transform="translate(50,171.5876923076923) rotate(270) translate(5,3)" style="font-family: sans-serif; font-size: 11px; fill: black;">117%</text><text text-anchor="start" transform="translate(70,148.22153846153844) rotate(270) translate(5,3)" style="font-family: sans-serif; font-size: 11px; fill: black;">213%</text><text text-anchor="start" transform="translate(30,173.63076923076923) rotate(270) translate(5,3)" style="font-family: sans-serif; font-size: 11px; fill: black;">108%</text></g></g><path class="foreground" d="" style="display: none; fill: none;"></path></g><g transform="translate(102,0)"><path class="background" d="M0.5,0.5h80v200h-80Z" style="fill: none; stroke: none;"></path><g><g class="mark-group role-axis"><g transform="translate(0.5,0.5)"><path class="background" d="M0,0h0v0h0Z" style="pointer-events: none; fill: none;"></path><g><g class="mark-rule role-axis-grid" style="pointer-events: none;"><line transform="translate(0,200)" x2="80" y2="0" style="fill: none; stroke: #ddd; stroke-width: 1; opacity: 1;"></line><line transform="translate(0,169)" x2="80" y2="0" style="fill: none; stroke: #ddd; stroke-width: 1; opacity: 1;"></line><line transform="translate(0,138)" x2="80" y2="0" style="fill: none; stroke: #ddd; stroke-width: 1; opacity: 1;"></line><line transform="translate(0,108)" x2="80" y2="0" style="fill: none; stroke: #ddd; stroke-width: 1; opacity: 1;"></line><line transform="translate(0,77)" x2="80" y2="0" style="fill: none; stroke: #ddd; stroke-width: 1; opacity: 1;"></line><line transform="translate(0,46)" x2="80" y2="0" style="fill: none; stroke: #ddd; stroke-width: 1; opacity: 1;"></line><line transform="translate(0,15)" x2="80" y2="0" style="fill: none; stroke: #ddd; stroke-width: 1; opacity: 1;"></line></g></g><path class="foreground" d="" style="pointer-events: none; display: none; fill: none;"></path></g></g><g class="mark-rect role-mark child_layer_0_marks"><path d="M1,162.59076923076924h18v37.40923076923076h-18Z" style="fill: #4c78a8;"></path><path d="M41,145.02153846153846h18v54.978461538461545h-18Z" style="fill: #e45756;"></path><path d="M61,125.72923076923077h18v74.27076923076923h-18Z" style="fill: #72b7b2;"></path><path d="M21,161.29846153846154h18v38.70153846153846h-18Z" style="fill: #f58518;"></path></g><g class="mark-text role-mark child_layer_1_marks"><text text-anchor="start" transform="translate(10,162.59076923076924) rotate(270) translate(5,3)" style="font-family: sans-serif; font-size: 11px; fill: black;">100%</text><text text-anchor="start" transform="translate(50,145.02153846153846) rotate(270) translate(5,3)" style="font-family: sans-serif; font-size: 11px; fill: black;">147%</text><text text-anchor="start" transform="translate(70,125.72923076923077) rotate(270) translate(5,3)" style="font-family: sans-serif; font-size: 11px; fill: black;">199%</text><text text-anchor="start" transform="translate(30,161.29846153846154) rotate(270) translate(5,3)" style="font-family: sans-serif; font-size: 11px; fill: black;">103%</text></g></g><path class="foreground" d="" style="display: none; fill: none;"></path></g><g transform="translate(204,0)"><path class="background" d="M0.5,0.5h80v200h-80Z" style="fill: none; stroke: none;"></path><g><g class="mark-group role-axis"><g transform="translate(0.5,0.5)"><path class="background" d="M0,0h0v0h0Z" style="pointer-events: none; fill: none;"></path><g><g class="mark-rule role-axis-grid" style="pointer-events: none;"><line transform="translate(0,200)" x2="80" y2="0" style="fill: none; stroke: #ddd; stroke-width: 1; opacity: 1;"></line><line transform="translate(0,169)" x2="80" y2="0" style="fill: none; stroke: #ddd; stroke-width: 1; opacity: 1;"></line><line transform="translate(0,138)" x2="80" y2="0" style="fill: none; stroke: #ddd; stroke-width: 1; opacity: 1;"></line><line transform="translate(0,108)" x2="80" y2="0" style="fill: none; stroke: #ddd; stroke-width: 1; opacity: 1;"></line><line transform="translate(0,77)" x2="80" y2="0" style="fill: none; stroke: #ddd; stroke-width: 1; opacity: 1;"></line><line transform="translate(0,46)" x2="80" y2="0" style="fill: none; stroke: #ddd; stroke-width: 1; opacity: 1;"></line><line transform="translate(0,15)" x2="80" y2="0" style="fill: none; stroke: #ddd; stroke-width: 1; opacity: 1;"></line></g></g><path class="foreground" d="" style="pointer-events: none; display: none; fill: none;"></path></g></g><g class="mark-rect role-mark child_layer_0_marks"><path d="M1,171.2h18v28.80000000000001h-18Z" style="fill: #4c78a8;"></path><path d="M41,166.16h18v33.84h-18Z" style="fill: #e45756;"></path><path d="M61,137.2923076923077h18v62.7076923076923h-18Z" style="fill: #72b7b2;"></path><path d="M21,170.3323076923077h18v29.667692307692306h-18Z" style="fill: #f58518;"></path></g><g class="mark-text role-mark child_layer_1_marks"><text text-anchor="start" transform="translate(10,171.2) rotate(270) translate(5,3)" style="font-family: sans-serif; font-size: 11px; fill: black;">100%</text><text text-anchor="start" transform="translate(50,166.16) rotate(270) translate(5,3)" style="font-family: sans-serif; font-size: 11px; fill: black;">118%</text><text text-anchor="start" transform="translate(70,137.2923076923077) rotate(270) translate(5,3)" style="font-family: sans-serif; font-size: 11px; fill: black;">218%</text><text text-anchor="start" transform="translate(30,170.3323076923077) rotate(270) translate(5,3)" style="font-family: sans-serif; font-size: 11px; fill: black;">103%</text></g></g><path class="foreground" d="" style="display: none; fill: none;"></path></g><g transform="translate(306,0)"><path class="background" d="M0.5,0.5h80v200h-80Z" style="fill: none; stroke: none;"></path><g><g class="mark-group role-axis"><g transform="translate(0.5,0.5)"><path class="background" d="M0,0h0v0h0Z" style="pointer-events: none; fill: none;"></path><g><g class="mark-rule role-axis-grid" style="pointer-events: none;"><line transform="translate(0,200)" x2="80" y2="0" style="fill: none; stroke: #ddd; stroke-width: 1; opacity: 1;"></line><line transform="translate(0,169)" x2="80" y2="0" style="fill: none; stroke: #ddd; stroke-width: 1; opacity: 1;"></line><line transform="translate(0,138)" x2="80" y2="0" style="fill: none; stroke: #ddd; stroke-width: 1; opacity: 1;"></line><line transform="translate(0,108)" x2="80" y2="0" style="fill: none; stroke: #ddd; stroke-width: 1; opacity: 1;"></line><line transform="translate(0,77)" x2="80" y2="0" style="fill: none; stroke: #ddd; stroke-width: 1; opacity: 1;"></line><line transform="translate(0,46)" x2="80" y2="0" style="fill: none; stroke: #ddd; stroke-width: 1; opacity: 1;"></line><line transform="translate(0,15)" x2="80" y2="0" style="fill: none; stroke: #ddd; stroke-width: 1; opacity: 1;"></line></g></g><path class="foreground" d="" style="pointer-events: none; display: none; fill: none;"></path></g></g><g class="mark-rect role-mark child_layer_0_marks"><path d="M1,92.82461538461537h18v107.17538461538463h-18Z" style="fill: #4c78a8;"></path><path d="M41,69.55076923076923h18v130.44923076923078h-18Z" style="fill: #e45756;"></path><path d="M61,3.6738461538461387h18v196.32615384615386h-18Z" style="fill: #72b7b2;"></path><path d="M21,85.83384615384615h18v114.16615384615385h-18Z" style="fill: #f58518;"></path></g><g class="mark-text role-mark child_layer_1_marks"><text text-anchor="start" transform="translate(10,92.82461538461537) rotate(270) translate(5,3)" style="font-family: sans-serif; font-size: 11px; fill: black;">100%</text><text text-anchor="start" transform="translate(50,69.55076923076923) rotate(270) translate(5,3)" style="font-family: sans-serif; font-size: 11px; fill: black;">122%</text><text text-anchor="start" transform="translate(70,3.6738461538461387) rotate(270) translate(5,3)" style="font-family: sans-serif; font-size: 11px; fill: black;">183%</text><text text-anchor="start" transform="translate(30,85.83384615384615) rotate(270) translate(5,3)" style="font-family: sans-serif; font-size: 11px; fill: black;">107%</text></g></g><path class="foreground" d="" style="display: none; fill: none;"></path></g><g transform="translate(408,0)"><path class="background" d="M0.5,0.5h80v200h-80Z" style="fill: none; stroke: none;"></path><g><g class="mark-group role-axis"><g transform="translate(0.5,0.5)"><path class="background" d="M0,0h0v0h0Z" style="pointer-events: none; fill: none;"></path><g><g class="mark-rule role-axis-grid" style="pointer-events: none;"><line transform="translate(0,200)" x2="80" y2="0" style="fill: none; stroke: #ddd; stroke-width: 1; opacity: 1;"></line><line transform="translate(0,169)" x2="80" y2="0" style="fill: none; stroke: #ddd; stroke-width: 1; opacity: 1;"></line><line transform="translate(0,138)" x2="80" y2="0" style="fill: none; stroke: #ddd; stroke-width: 1; opacity: 1;"></line><line transform="translate(0,108)" x2="80" y2="0" style="fill: none; stroke: #ddd; stroke-width: 1; opacity: 1;"></line><line transform="translate(0,77)" x2="80" y2="0" style="fill: none; stroke: #ddd; stroke-width: 1; opacity: 1;"></line><line transform="translate(0,46)" x2="80" y2="0" style="fill: none; stroke: #ddd; stroke-width: 1; opacity: 1;"></line><line transform="translate(0,15)" x2="80" y2="0" style="fill: none; stroke: #ddd; stroke-width: 1; opacity: 1;"></line></g></g><path class="foreground" d="" style="pointer-events: none; display: none; fill: none;"></path></g></g><g class="mark-rect role-mark child_layer_0_marks"><path d="M1,171.05846153846153h18v28.94153846153847h-18Z" style="fill: #4c78a8;"></path><path d="M41,162.28307692307692h18v37.71692307692308h-18Z" style="fill: #e45756;"></path><path d="M61,135.68615384615384h18v64.31384615384616h-18Z" style="fill: #72b7b2;"></path><path d="M21,170.84307692307692h18v29.15692307692308h-18Z" style="fill: #f58518;"></path></g><g class="mark-text role-mark child_layer_1_marks"><text text-anchor="start" transform="translate(10,171.05846153846153) rotate(270) translate(5,3)" style="font-family: sans-serif; font-size: 11px; fill: black;">100%</text><text text-anchor="start" transform="translate(50,162.28307692307692) rotate(270) translate(5,3)" style="font-family: sans-serif; font-size: 11px; fill: black;">130%</text><text text-anchor="start" transform="translate(70,135.68615384615384) rotate(270) translate(5,3)" style="font-family: sans-serif; font-size: 11px; fill: black;">222%</text><text text-anchor="start" transform="translate(30,170.84307692307692) rotate(270) translate(5,3)" style="font-family: sans-serif; font-size: 11px; fill: black;">101%</text></g></g><path class="foreground" d="" style="display: none; fill: none;"></path></g><g transform="translate(510,0)"><path class="background" d="M0.5,0.5h80v200h-80Z" style="fill: none; stroke: none;"></path><g><g class="mark-group role-axis"><g transform="translate(0.5,0.5)"><path class="background" d="M0,0h0v0h0Z" style="pointer-events: none; fill: none;"></path><g><g class="mark-rule role-axis-grid" style="pointer-events: none;"><line transform="translate(0,200)" x2="80" y2="0" style="fill: none; stroke: #ddd; stroke-width: 1; opacity: 1;"></line><line transform="translate(0,169)" x2="80" y2="0" style="fill: none; stroke: #ddd; stroke-width: 1; opacity: 1;"></line><line transform="translate(0,138)" x2="80" y2="0" style="fill: none; stroke: #ddd; stroke-width: 1; opacity: 1;"></line><line transform="translate(0,108)" x2="80" y2="0" style="fill: none; stroke: #ddd; stroke-width: 1; opacity: 1;"></line><line transform="translate(0,77)" x2="80" y2="0" style="fill: none; stroke: #ddd; stroke-width: 1; opacity: 1;"></line><line transform="translate(0,46)" x2="80" y2="0" style="fill: none; stroke: #ddd; stroke-width: 1; opacity: 1;"></line><line transform="translate(0,15)" x2="80" y2="0" style="fill: none; stroke: #ddd; stroke-width: 1; opacity: 1;"></line></g></g><path class="foreground" d="" style="pointer-events: none; display: none; fill: none;"></path></g></g><g class="mark-rect role-mark child_layer_0_marks"><path d="M1,174.36923076923077h18v25.630769230769232h-18Z" style="fill: #4c78a8;"></path><path d="M41,168.48000000000002h18v31.519999999999982h-18Z" style="fill: #e45756;"></path><path d="M61,153.73538461538462h18v46.26461538461538h-18Z" style="fill: #72b7b2;"></path><path d="M21,170.51692307692306h18v29.483076923076936h-18Z" style="fill: #f58518;"></path></g><g class="mark-text role-mark child_layer_1_marks"><text text-anchor="start" transform="translate(10,174.36923076923077) rotate(270) translate(5,3)" style="font-family: sans-serif; font-size: 11px; fill: black;">100%</text><text text-anchor="start" transform="translate(50,168.48000000000002) rotate(270) translate(5,3)" style="font-family: sans-serif; font-size: 11px; fill: black;">123%</text><text text-anchor="start" transform="translate(70,153.73538461538462) rotate(270) translate(5,3)" style="font-family: sans-serif; font-size: 11px; fill: black;">181%</text><text text-anchor="start" transform="translate(30,170.51692307692306) rotate(270) translate(5,3)" style="font-family: sans-serif; font-size: 11px; fill: black;">115%</text></g></g><path class="foreground" d="" style="display: none; fill: none;"></path></g><g transform="translate(612,0)"><path class="background" d="M0.5,0.5h80v200h-80Z" style="fill: none; stroke: none;"></path><g><g class="mark-group role-axis"><g transform="translate(0.5,0.5)"><path class="background" d="M0,0h0v0h0Z" style="pointer-events: none; fill: none;"></path><g><g class="mark-rule role-axis-grid" style="pointer-events: none;"><line transform="translate(0,200)" x2="80" y2="0" style="fill: none; stroke: #ddd; stroke-width: 1; opacity: 1;"></line><line transform="translate(0,169)" x2="80" y2="0" style="fill: none; stroke: #ddd; stroke-width: 1; opacity: 1;"></line><line transform="translate(0,138)" x2="80" y2="0" style="fill: none; stroke: #ddd; stroke-width: 1; opacity: 1;"></line><line transform="translate(0,108)" x2="80" y2="0" style="fill: none; stroke: #ddd; stroke-width: 1; opacity: 1;"></line><line transform="translate(0,77)" x2="80" y2="0" style="fill: none; stroke: #ddd; stroke-width: 1; opacity: 1;"></line><line transform="translate(0,46)" x2="80" y2="0" style="fill: none; stroke: #ddd; stroke-width: 1; opacity: 1;"></line><line transform="translate(0,15)" x2="80" y2="0" style="fill: none; stroke: #ddd; stroke-width: 1; opacity: 1;"></line></g></g><path class="foreground" d="" style="pointer-events: none; display: none; fill: none;"></path></g></g><g class="mark-rect role-mark child_layer_0_marks"><path d="M1,141.72307692307692h18v58.27692307692308h-18Z" style="fill: #4c78a8;"></path><path d="M41,128.98461538461538h18v71.01538461538462h-18Z" style="fill: #e45756;"></path><path d="M61,97.58153846153846h18v102.41846153846154h-18Z" style="fill: #72b7b2;"></path><path d="M21,139.35384615384615h18v60.64615384615385h-18Z" style="fill: #f58518;"></path></g><g class="mark-text role-mark child_layer_1_marks"><text text-anchor="start" transform="translate(10,141.72307692307692) rotate(270) translate(5,3)" style="font-family: sans-serif; font-size: 11px; fill: black;">100%</text><text text-anchor="start" transform="translate(50,128.98461538461538) rotate(270) translate(5,3)" style="font-family: sans-serif; font-size: 11px; fill: black;">122%</text><text text-anchor="start" transform="translate(70,97.58153846153846) rotate(270) translate(5,3)" style="font-family: sans-serif; font-size: 11px; fill: black;">176%</text><text text-anchor="start" transform="translate(30,139.35384615384615) rotate(270) translate(5,3)" style="font-family: sans-serif; font-size: 11px; fill: black;">104%</text></g></g><path class="foreground" d="" style="display: none; fill: none;"></path></g><g transform="translate(714,0)"><path class="background" d="M0.5,0.5h80v200h-80Z" style="fill: none; stroke: none;"></path><g><g class="mark-group role-axis"><g transform="translate(0.5,0.5)"><path class="background" d="M0,0h0v0h0Z" style="pointer-events: none; fill: none;"></path><g><g class="mark-rule role-axis-grid" style="pointer-events: none;"><line transform="translate(0,200)" x2="80" y2="0" style="fill: none; stroke: #ddd; stroke-width: 1; opacity: 1;"></line><line transform="translate(0,169)" x2="80" y2="0" style="fill: none; stroke: #ddd; stroke-width: 1; opacity: 1;"></line><line transform="translate(0,138)" x2="80" y2="0" style="fill: none; stroke: #ddd; stroke-width: 1; opacity: 1;"></line><line transform="translate(0,108)" x2="80" y2="0" style="fill: none; stroke: #ddd; stroke-width: 1; opacity: 1;"></line><line transform="translate(0,77)" x2="80" y2="0" style="fill: none; stroke: #ddd; stroke-width: 1; opacity: 1;"></line><line transform="translate(0,46)" x2="80" y2="0" style="fill: none; stroke: #ddd; stroke-width: 1; opacity: 1;"></line><line transform="translate(0,15)" x2="80" y2="0" style="fill: none; stroke: #ddd; stroke-width: 1; opacity: 1;"></line></g></g><path class="foreground" d="" style="pointer-events: none; display: none; fill: none;"></path></g></g><g class="mark-rect role-mark child_layer_0_marks"><path d="M1,174.99692307692308h18v25.003076923076918h-18Z" style="fill: #4c78a8;"></path><path d="M41,169.85846153846154h18v30.14153846153846h-18Z" style="fill: #e45756;"></path><path d="M61,147.1323076923077h18v52.867692307692295h-18Z" style="fill: #72b7b2;"></path><path d="M21,174.76923076923077h18v25.230769230769226h-18Z" style="fill: #f58518;"></path></g><g class="mark-text role-mark child_layer_1_marks"><text text-anchor="start" transform="translate(10,174.99692307692308) rotate(270) translate(5,3)" style="font-family: sans-serif; font-size: 11px; fill: black;">100%</text><text text-anchor="start" transform="translate(50,169.85846153846154) rotate(270) translate(5,3)" style="font-family: sans-serif; font-size: 11px; fill: black;">121%</text><text text-anchor="start" transform="translate(70,147.1323076923077) rotate(270) translate(5,3)" style="font-family: sans-serif; font-size: 11px; fill: black;">211%</text><text text-anchor="start" transform="translate(30,174.76923076923077) rotate(270) translate(5,3)" style="font-family: sans-serif; font-size: 11px; fill: black;">101%</text></g></g><path class="foreground" d="" style="display: none; fill: none;"></path></g><g transform="translate(816,0)"><path class="background" d="M0.5,0.5h80v200h-80Z" style="fill: none; stroke: none;"></path><g><g class="mark-group role-axis"><g transform="translate(0.5,0.5)"><path class="background" d="M0,0h0v0h0Z" style="pointer-events: none; fill: none;"></path><g><g class="mark-rule role-axis-grid" style="pointer-events: none;"><line transform="translate(0,200)" x2="80" y2="0" style="fill: none; stroke: #ddd; stroke-width: 1; opacity: 1;"></line><line transform="translate(0,169)" x2="80" y2="0" style="fill: none; stroke: #ddd; stroke-width: 1; opacity: 1;"></line><line transform="translate(0,138)" x2="80" y2="0" style="fill: none; stroke: #ddd; stroke-width: 1; opacity: 1;"></line><line transform="translate(0,108)" x2="80" y2="0" style="fill: none; stroke: #ddd; stroke-width: 1; opacity: 1;"></line><line transform="translate(0,77)" x2="80" y2="0" style="fill: none; stroke: #ddd; stroke-width: 1; opacity: 1;"></line><line transform="translate(0,46)" x2="80" y2="0" style="fill: none; stroke: #ddd; stroke-width: 1; opacity: 1;"></line><line transform="translate(0,15)" x2="80" y2="0" style="fill: none; stroke: #ddd; stroke-width: 1; opacity: 1;"></line></g></g><path class="foreground" d="" style="pointer-events: none; display: none; fill: none;"></path></g></g><g class="mark-rect role-mark child_layer_0_marks"><path d="M1,161.00307692307692h18v38.99692307692308h-18Z" style="fill: #4c78a8;"></path><path d="M41,153.83384615384617h18v46.16615384615383h-18Z" style="fill: #e45756;"></path><path d="M61,126.86153846153844h18v73.13846153846156h-18Z" style="fill: #72b7b2;"></path><path d="M21,160.0123076923077h18v39.9876923076923h-18Z" style="fill: #f58518;"></path></g><g class="mark-text role-mark child_layer_1_marks"><text text-anchor="start" transform="translate(10,161.00307692307692) rotate(270) translate(5,3)" style="font-family: sans-serif; font-size: 11px; fill: black;">100%</text><text text-anchor="start" transform="translate(50,153.83384615384617) rotate(270) translate(5,3)" style="font-family: sans-serif; font-size: 11px; fill: black;">118%</text><text text-anchor="start" transform="translate(70,126.86153846153844) rotate(270) translate(5,3)" style="font-family: sans-serif; font-size: 11px; fill: black;">188%</text><text text-anchor="start" transform="translate(30,160.0123076923077) rotate(270) translate(5,3)" style="font-family: sans-serif; font-size: 11px; fill: black;">103%</text></g></g><path class="foreground" d="" style="display: none; fill: none;"></path></g><g transform="translate(918,0)"><path class="background" d="M0.5,0.5h80v200h-80Z" style="fill: none; stroke: none;"></path><g><g class="mark-group role-axis"><g transform="translate(0.5,0.5)"><path class="background" d="M0,0h0v0h0Z" style="pointer-events: none; fill: none;"></path><g><g class="mark-rule role-axis-grid" style="pointer-events: none;"><line transform="translate(0,200)" x2="80" y2="0" style="fill: none; stroke: #ddd; stroke-width: 1; opacity: 1;"></line><line transform="translate(0,169)" x2="80" y2="0" style="fill: none; stroke: #ddd; stroke-width: 1; opacity: 1;"></line><line transform="translate(0,138)" x2="80" y2="0" style="fill: none; stroke: #ddd; stroke-width: 1; opacity: 1;"></line><line transform="translate(0,108)" x2="80" y2="0" style="fill: none; stroke: #ddd; stroke-width: 1; opacity: 1;"></line><line transform="translate(0,77)" x2="80" y2="0" style="fill: none; stroke: #ddd; stroke-width: 1; opacity: 1;"></line><line transform="translate(0,46)" x2="80" y2="0" style="fill: none; stroke: #ddd; stroke-width: 1; opacity: 1;"></line><line transform="translate(0,15)" x2="80" y2="0" style="fill: none; stroke: #ddd; stroke-width: 1; opacity: 1;"></line></g></g><path class="foreground" d="" style="pointer-events: none; display: none; fill: none;"></path></g></g><g class="mark-rect role-mark child_layer_0_marks"><path d="M1,119.64307692307692h18v80.35692307692308h-18Z" style="fill: #4c78a8;"></path><path d="M41,99.5323076923077h18v100.4676923076923h-18Z" style="fill: #e45756;"></path><path d="M61,49.82153846153845h18v150.17846153846153h-18Z" style="fill: #72b7b2;"></path><path d="M21,115.29230769230769h18v84.70769230769231h-18Z" style="fill: #f58518;"></path></g><g class="mark-text role-mark child_layer_1_marks"><text text-anchor="start" transform="translate(10,119.64307692307692) rotate(270) translate(5,3)" style="font-family: sans-serif; font-size: 11px; fill: black;">100%</text><text text-anchor="start" transform="translate(50,99.5323076923077) rotate(270) translate(5,3)" style="font-family: sans-serif; font-size: 11px; fill: black;">125%</text><text text-anchor="start" transform="translate(70,49.82153846153845) rotate(270) translate(5,3)" style="font-family: sans-serif; font-size: 11px; fill: black;">187%</text><text text-anchor="start" transform="translate(30,115.29230769230769) rotate(270) translate(5,3)" style="font-family: sans-serif; font-size: 11px; fill: black;">105%</text></g></g><path class="foreground" d="" style="display: none; fill: none;"></path></g><g transform="translate(1020,0)"><path class="background" d="M0.5,0.5h80v200h-80Z" style="fill: none; stroke: none;"></path><g><g class="mark-group role-axis"><g transform="translate(0.5,0.5)"><path class="background" d="M0,0h0v0h0Z" style="pointer-events: none; fill: none;"></path><g><g class="mark-rule role-axis-grid" style="pointer-events: none;"><line transform="translate(0,200)" x2="80" y2="0" style="fill: none; stroke: #ddd; stroke-width: 1; opacity: 1;"></line><line transform="translate(0,169)" x2="80" y2="0" style="fill: none; stroke: #ddd; stroke-width: 1; opacity: 1;"></line><line transform="translate(0,138)" x2="80" y2="0" style="fill: none; stroke: #ddd; stroke-width: 1; opacity: 1;"></line><line transform="translate(0,108)" x2="80" y2="0" style="fill: none; stroke: #ddd; stroke-width: 1; opacity: 1;"></line><line transform="translate(0,77)" x2="80" y2="0" style="fill: none; stroke: #ddd; stroke-width: 1; opacity: 1;"></line><line transform="translate(0,46)" x2="80" y2="0" style="fill: none; stroke: #ddd; stroke-width: 1; opacity: 1;"></line><line transform="translate(0,15)" x2="80" y2="0" style="fill: none; stroke: #ddd; stroke-width: 1; opacity: 1;"></line></g></g><path class="foreground" d="" style="pointer-events: none; display: none; fill: none;"></path></g></g><g class="mark-rect role-mark child_layer_0_marks"><path d="M1,163.4523076923077h18v36.5476923076923h-18Z" style="fill: #4c78a8;"></path><path d="M41,155.82153846153847h18v44.178461538461534h-18Z" style="fill: #e45756;"></path><path d="M61,130.25846153846152h18v69.74153846153848h-18Z" style="fill: #72b7b2;"></path><path d="M21,163.86461538461538h18v36.13538461538462h-18Z" style="fill: #f58518;"></path></g><g class="mark-text role-mark child_layer_1_marks"><text text-anchor="start" transform="translate(10,163.4523076923077) rotate(270) translate(5,3)" style="font-family: sans-serif; font-size: 11px; fill: black;">100%</text><text text-anchor="start" transform="translate(50,155.82153846153847) rotate(270) translate(5,3)" style="font-family: sans-serif; font-size: 11px; fill: black;">121%</text><text text-anchor="start" transform="translate(70,130.25846153846152) rotate(270) translate(5,3)" style="font-family: sans-serif; font-size: 11px; fill: black;">191%</text><text text-anchor="start" transform="translate(30,163.86461538461538) rotate(270) translate(5,3)" style="font-family: sans-serif; font-size: 11px; fill: black;">99%</text></g></g><path class="foreground" d="" style="display: none; fill: none;"></path></g></g><g class="mark-group role-title"><g transform="translate(603.5,-66.32615384615386)"><path class="background" d="M0,0h0v0h0Z" style="pointer-events: none; fill: none;"></path><g><g class="mark-text role-title-text" style="pointer-events: none;"><text text-anchor="middle" transform="translate(0,10)" style="font-family: sans-serif; font-size: 13px; font-weight: bold; fill: #000; opacity: 1;">Deflater throughput on i7-8650U / 1900MHz</text></g></g><path class="foreground" d="" style="pointer-events: none; display: none; fill: none;"></path></g></g><g class="mark-group role-legend"><g transform="translate(1119,0)"><path class="background" d="M0,0h123v50h-123Z" style="pointer-events: none; fill: none;"></path><g><g class="mark-group role-legend-entry"><g transform="translate(0,0)"><path class="background" d="M0,0h0v0h0Z" style="pointer-events: none; fill: none;"></path><g><g class="mark-group role-scope"><g transform="translate(0,0)"><path class="background" d="M0,0h123v11h-123Z" style="pointer-events: none; fill: none; opacity: 1;"></path><g><g class="mark-symbol role-legend-symbol" style="pointer-events: none;"><path transform="translate(6,6)" d="M-5,-5h10v10h-10Z" style="fill: #4c78a8; stroke-width: 1.5; opacity: 1;"></path></g><g class="mark-text role-legend-label" style="pointer-events: none;"><text text-anchor="start" transform="translate(16,9)" style="font-family: sans-serif; font-size: 10px; fill: #000; opacity: 1;">corretto11-bundled</text></g></g><path class="foreground" d="" style="pointer-events: none; display: none; fill: none;"></path></g><g transform="translate(0,13)"><path class="background" d="M0,0h123v11h-123Z" style="pointer-events: none; fill: none; opacity: 1;"></path><g><g class="mark-symbol role-legend-symbol" style="pointer-events: none;"><path transform="translate(6,6)" d="M-5,-5h10v10h-10Z" style="fill: #f58518; stroke-width: 1.5; opacity: 1;"></path></g><g class="mark-text role-legend-label" style="pointer-events: none;"><text text-anchor="start" transform="translate(16,9)" style="font-family: sans-serif; font-size: 10px; fill: #000; opacity: 1;">corretto11-system</text></g></g><path class="foreground" d="" style="pointer-events: none; display: none; fill: none;"></path></g><g transform="translate(0,26)"><path class="background" d="M0,0h123v11h-123Z" style="pointer-events: none; fill: none; opacity: 1;"></path><g><g class="mark-symbol role-legend-symbol" style="pointer-events: none;"><path transform="translate(6,6)" d="M-5,-5h10v10h-10Z" style="fill: #e45756; stroke-width: 1.5; opacity: 1;"></path></g><g class="mark-text role-legend-label" style="pointer-events: none;"><text text-anchor="start" transform="translate(16,9)" style="font-family: sans-serif; font-size: 10px; fill: #000; opacity: 1;">corretto11-chromium</text></g></g><path class="foreground" d="" style="pointer-events: none; display: none; fill: none;"></path></g><g transform="translate(0,39)"><path class="background" d="M0,0h123v11h-123Z" style="pointer-events: none; fill: none; opacity: 1;"></path><g><g class="mark-symbol role-legend-symbol" style="pointer-events: none;"><path transform="translate(6,6)" d="M-5,-5h10v10h-10Z" style="fill: #72b7b2; stroke-width: 1.5; opacity: 1;"></path></g><g class="mark-text role-legend-label" style="pointer-events: none;"><text text-anchor="start" transform="translate(16,9)" style="font-family: sans-serif; font-size: 10px; fill: #000; opacity: 1;">corretto11-cloudflare</text></g></g><path class="foreground" d="" style="pointer-events: none; display: none; fill: none;"></path></g></g></g><path class="foreground" d="" style="pointer-events: none; display: none; fill: none;"></path></g></g></g><path class="foreground" d="" style="pointer-events: none; display: none; fill: none;"></path></g></g></g><path class="foreground" d="" style="display: none; fill: none;"></path></g></g></g></svg>