<svg class="marks" width="1280" height="960" viewBox="0 0 640 480" version="1.1" xmlns="http://www.w3.org/2000/svg" xmlns:xlink="http://www.w3.org/1999/xlink"><rect width="640" height="480" style="fill: white;"></rect><g transform="translate(39,27)"><g class="mark-group role-frame root"><g transform="translate(0,0)"><path class="background" d="M0.5,0.5h595v416h-595Z" style="fill: none; stroke: #ddd;"></path><g><g class="mark-group role-axis"><g transform="translate(0.5,416.5)"><path class="background" d="M0,0h0v0h0Z" style="pointer-events: none; fill: none;"></path><g><g class="mark-rule role-axis-grid" style="pointer-events: none;"><line transform="translate(0,-416)" x2="0" y2="416" style="fill: none; stroke: #ddd; stroke-width: 1; opacity: 1;"></line><line transform="translate(33,-416)" x2="0" y2="416" style="fill: none; stroke: #ddd; stroke-width: 1; opacity: 1;"></line><line transform="translate(66,-416)" x2="0" y2="416" style="fill: none; stroke: #ddd; stroke-width: 1; opacity: 1;"></line><line transform="translate(99,-416)" x2="0" y2="416" style="fill: none; stroke: #ddd; stroke-width: 1; opacity: 1;"></line><line transform="translate(132,-416)" x2="0" y2="416" style="fill: none; stroke: #ddd; stroke-width: 1; opacity: 1;"></line><line transform="translate(165,-416)" x2="0" y2="416" style="fill: none; stroke: #ddd; stroke-width: 1; opacity: 1;"></line><line transform="translate(198,-416)" x2="0" y2="416" style="fill: none; stroke: #ddd; stroke-width: 1; opacity: 1;"></line><line transform="translate(231,-416)" x2="0" y2="416" style="fill: none; stroke: #ddd; stroke-width: 1; opacity: 1;"></line><line transform="translate(264,-416)" x2="0" y2="416" style="fill: none; stroke: #ddd; stroke-width: 1; opacity: 1;"></line><line transform="translate(298,-416)" x2="0" y2="416" style="fill: none; stroke: #ddd; stroke-width: 1; opacity: 1;"></line><line transform="translate(331,-416)" x2="0" y2="416" style="fill: none; stroke: #ddd; stroke-width: 1; opacity: 1;"></line><line transform="translate(364,-416)" x2="0" y2="416" style="fill: none; stroke: #ddd; stroke-width: 1; opacity: 1;"></line><line transform="translate(397,-416)" x2="0" y2="416" style="fill: none; stroke: #ddd; stroke-width: 1; opacity: 1;"></line><line transform="translate(430,-416)" x2="0" y2="416" style="fill: none; stroke: #ddd; stroke-width: 1; opacity: 1;"></line><line transform="translate(463,-416)" x2="0" y2="416" style="fill: none; stroke: #ddd; stroke-width: 1; opacity: 1;"></line><line transform="translate(496,-416)" x2="0" y2="416" style="fill: none; stroke: #ddd; stroke-width: 1; opacity: 1;"></line><line transform="translate(529,-416)" x2="0" y2="416" style="fill: none; stroke: #ddd; stroke-width: 1; opacity: 1;"></line><line transform="translate(562,-416)" x2="0" y2="416" style="fill: none; stroke: #ddd; stroke-width: 1; opacity: 1;"></line><line transform="translate(595,-416)" x2="0" y2="416" style="fill: none; stroke: #ddd; stroke-width: 1; opacity: 1;"></line></g></g><path class="foreground" d="" style="pointer-events: none; display: none; fill: none;"></path></g></g><g class="mark-group role-axis"><g transform="translate(0.5,0.5)"><path class="background" d="M0,0h0v0h0Z" style="pointer-events: none; fill: none;"></path><g><g class="mark-rule role-axis-grid" style="pointer-events: none;"><line transform="translate(0,416)" x2="595" y2="0" style="fill: none; stroke: #ddd; stroke-width: 1; opacity: 1;"></line><line transform="translate(0,370)" x2="595" y2="0" style="fill: none; stroke: #ddd; stroke-width: 1; opacity: 1;"></line><line transform="translate(0,324)" x2="595" y2="0" style="fill: none; stroke: #ddd; stroke-width: 1; opacity: 1;"></line><line transform="translate(0,277)" x2="595" y2="0" style="fill: none; stroke: #ddd; stroke-width: 1; opacity: 1;"></line><line transform="translate(0,231)" x2="595" y2="0" style="fill: none; stroke: #ddd; stroke-width: 1; opacity: 1;"></line><line transform="translate(0,185)" x2="595" y2="0" style="fill: none; stroke: #ddd; stroke-width: 1; opacity: 1;"></line><line transform="translate(0,139)" x2="595" y2="0" style="fill: none; stroke: #ddd; stroke-width: 1; opacity: 1;"></line><line transform="translate(0,92)" x2="595" y2="0" style="fill: none; stroke: #ddd; stroke-width: 1; opacity: 1;"></line><line transform="translate(0,46)" x2="595" y2="0" style="fill: none; stroke: #ddd; stroke-width: 1; opacity: 1;"></line><line transform="translate(0,0)" x2="595" y2="0" style="fill: none; stroke: #ddd; stroke-width: 1; opacity: 1;"></line></g></g><path class="foreground" d="" style="pointer-events: none; display: none; fill: none;"></path></g></g><g class="mark-group role-axis"><g transform="translate(0.5,416.5)"><path class="background" d="M0,0h0v0h0Z" style="pointer-events: none; fill: none;"></path><g><g class="mark-rule role-axis-tick" style="pointer-events: none;"><line transform="translate(0,0)" x2="0" y2="5" style="fill: none; stroke: #888; stroke-width: 1; opacity: 1;"></line><line transform="translate(33,0)" x2="0" y2="5" style="fill: none; stroke: #888; stroke-width: 1; opacity: 1;"></line><line transform="translate(66,0)" x2="0" y2="5" style="fill: none; stroke: #888; stroke-width: 1; opacity: 1;"></line><line transform="translate(99,0)" x2="0" y2="5" style="fill: none; stroke: #888; stroke-width: 1; opacity: 1;"></line><line transform="translate(132,0)" x2="0" y2="5" style="fill: none; stroke: #888; stroke-width: 1; opacity: 1;"></line><line transform="translate(165,0)" x2="0" y2="5" style="fill: none; stroke: #888; stroke-width: 1; opacity: 1;"></line><line transform="translate(198,0)" x2="0" y2="5" style="fill: none; stroke: #888; stroke-width: 1; opacity: 1;"></line><line transform="translate(231,0)" x2="0" y2="5" style="fill: none; stroke: #888; stroke-width: 1; opacity: 1;"></line><line transform="translate(264,0)" x2="0" y2="5" style="fill: none; stroke: #888; stroke-width: 1; opacity: 1;"></line><line transform="translate(298,0)" x2="0" y2="5" style="fill: none; stroke: #888; stroke-width: 1; opacity: 1;"></line><line transform="translate(331,0)" x2="0" y2="5" style="fill: none; stroke: #888; stroke-width: 1; opacity: 1;"></line><line transform="translate(364,0)" x2="0" y2="5" style="fill: none; stroke: #888; stroke-width: 1; opacity: 1;"></line><line transform="translate(397,0)" x2="0" y2="5" style="fill: none; stroke: #888; stroke-width: 1; opacity: 1;"></line><line transform="translate(430,0)" x2="0" y2="5" style="fill: none; stroke: #888; stroke-width: 1; opacity: 1;"></line><line transform="translate(463,0)" x2="0" y2="5" style="fill: none; stroke: #888; stroke-width: 1; opacity: 1;"></line><line transform="translate(496,0)" x2="0" y2="5" style="fill: none; stroke: #888; stroke-width: 1; opacity: 1;"></line><line transform="translate(529,0)" x2="0" y2="5" style="fill: none; stroke: #888; stroke-width: 1; opacity: 1;"></line><line transform="translate(562,0)" x2="0" y2="5" style="fill: none; stroke: #888; stroke-width: 1; opacity: 1;"></line><line transform="translate(595,0)" x2="0" y2="5" style="fill: none; stroke: #888; stroke-width: 1; opacity: 1;"></line></g><g class="mark-text role-axis-label" style="pointer-events: none;"><text text-anchor="start" transform="translate(0,15)" style="font-family: sans-serif; font-size: 10px; fill: #000; opacity: 1;">2.60</text><text text-anchor="middle" transform="translate(33.0555555555549,15)" style="font-family: sans-serif; font-size: 10px; fill: #000; opacity: 1;">2.61</text><text text-anchor="middle" transform="translate(66.11111111111127,15)" style="font-family: sans-serif; font-size: 10px; fill: #000; opacity: 1;">2.62</text><text text-anchor="middle" transform="translate(99.16666666666619,15)" style="font-family: sans-serif; font-size: 10px; fill: #000; opacity: 1;">2.63</text><text text-anchor="middle" transform="translate(132.22222222222254,15)" style="font-family: sans-serif; font-size: 10px; fill: #000; opacity: 1;">2.64</text><text text-anchor="middle" transform="translate(165.27777777777746,15)" style="font-family: sans-serif; font-size: 10px; fill: #000; opacity: 1;">2.65</text><text text-anchor="middle" transform="translate(198.33333333333383,15)" style="font-family: sans-serif; font-size: 10px; fill: #000; opacity: 1;">2.66</text><text text-anchor="middle" transform="translate(231.38888888888872,15)" style="font-family: sans-serif; font-size: 10px; fill: #000; opacity: 1;">2.67</text><text text-anchor="middle" transform="translate(264.4444444444451,15)" style="font-family: sans-serif; font-size: 10px; fill: #000; opacity: 1;">2.68</text><text text-anchor="middle" transform="translate(297.5,15)" style="font-family: sans-serif; font-size: 10px; fill: #000; opacity: 1;">2.69</text><text text-anchor="middle" transform="translate(330.55555555555634,15)" style="font-family: sans-serif; font-size: 10px; fill: #000; opacity: 1;">2.70</text><text text-anchor="middle" transform="translate(363.61111111111126,15)" style="font-family: sans-serif; font-size: 10px; fill: #000; opacity: 1;">2.71</text><text text-anchor="middle" transform="translate(396.66666666666765,15)" style="font-family: sans-serif; font-size: 10px; fill: #000; opacity: 1;">2.72</text><text text-anchor="middle" transform="translate(429.72222222222257,15)" style="font-family: sans-serif; font-size: 10px; fill: #000; opacity: 1;">2.73</text><text text-anchor="middle" transform="translate(462.7777777777789,15)" style="font-family: sans-serif; font-size: 10px; fill: #000; opacity: 1;">2.74</text><text text-anchor="middle" transform="translate(495.8333333333338,15)" style="font-family: sans-serif; font-size: 10px; fill: #000; opacity: 1;">2.75</text><text text-anchor="middle" transform="translate(528.8888888888887,15)" style="font-family: sans-serif; font-size: 10px; fill: #000; opacity: 1;">2.76</text><text text-anchor="middle" transform="translate(561.9444444444451,15)" style="font-family: sans-serif; font-size: 10px; fill: #000; opacity: 1;">2.77</text><text text-anchor="end" transform="translate(595,15)" style="font-family: sans-serif; font-size: 10px; fill: #000; opacity: 1;">2.78</text></g><g class="mark-rule role-axis-domain" style="pointer-events: none;"><line transform="translate(0,0)" x2="595" y2="0" style="fill: none; stroke: #888; stroke-width: 1; opacity: 1;"></line></g><g class="mark-text role-axis-title" style="pointer-events: none;"><text text-anchor="middle" transform="translate(297.5,30)" style="font-family: sans-serif; font-size: 11px; font-weight: bold; fill: #000; opacity: 1;">Compression ratio</text></g></g><path class="foreground" d="" style="pointer-events: none; display: none; fill: none;"></path></g></g><g class="mark-group role-axis"><g transform="translate(0.5,0.5)"><path class="background" d="M0,0h0v0h0Z" style="pointer-events: none; fill: none;"></path><g><g class="mark-rule role-axis-tick" style="pointer-events: none;"><line transform="translate(0,416)" x2="-5" y2="0" style="fill: none; stroke: #888; stroke-width: 1; opacity: 1;"></line><line transform="translate(0,370)" x2="-5" y2="0" style="fill: none; stroke: #888; stroke-width: 1; opacity: 1;"></line><line transform="translate(0,324)" x2="-5" y2="0" style="fill: none; stroke: #888; stroke-width: 1; opacity: 1;"></line><line transform="translate(0,277)" x2="-5" y2="0" style="fill: none; stroke: #888; stroke-width: 1; opacity: 1;"></line><line transform="translate(0,231)" x2="-5" y2="0" style="fill: none; stroke: #888; stroke-width: 1; opacity: 1;"></line><line transform="translate(0,185)" x2="-5" y2="0" style="fill: none; stroke: #888; stroke-width: 1; opacity: 1;"></line><line transform="translate(0,139)" x2="-5" y2="0" style="fill: none; stroke: #888; stroke-width: 1; opacity: 1;"></line><line transform="translate(0,92)" x2="-5" y2="0" style="fill: none; stroke: #888; stroke-width: 1; opacity: 1;"></line><line transform="translate(0,46)" x2="-5" y2="0" style="fill: none; stroke: #888; stroke-width: 1; opacity: 1;"></line><line transform="translate(0,0)" x2="-5" y2="0" style="fill: none; stroke: #888; stroke-width: 1; opacity: 1;"></line></g><g class="mark-text role-axis-label" style="pointer-events: none;"><text text-anchor="end" transform="translate(-7,419)" style="font-family: sans-serif; font-size: 10px; fill: #000; opacity: 1;">0</text><text text-anchor="end" transform="translate(-7,372.77777777777777)" style="font-family: sans-serif; font-size: 10px; fill: #000; opacity: 1;">10</text><text text-anchor="end" transform="translate(-7,326.55555555555554)" style="font-family: sans-serif; font-size: 10px; fill: #000; opacity: 1;">20</text><text text-anchor="end" transform="translate(-7,280.33333333333337)" style="font-family: sans-serif; font-size: 10px; fill: #000; opacity: 1;">30</text><text text-anchor="end" transform="translate(-7,234.11111111111111)" style="font-family: sans-serif; font-size: 10px; fill: #000; opacity: 1;">40</text><text text-anchor="end" transform="translate(-7,187.88888888888889)" style="font-family: sans-serif; font-size: 10px; fill: #000; opacity: 1;">50</text><text text-anchor="end" transform="translate(-7,141.66666666666669)" style="font-family: sans-serif; font-size: 10px; fill: #000; opacity: 1;">60</text><text text-anchor="end" transform="translate(-7,95.44444444444444)" style="font-family: sans-serif; font-size: 10px; fill: #000; opacity: 1;">70</text><text text-anchor="end" transform="translate(-7,49.22222222222224)" style="font-family: sans-serif; font-size: 10px; fill: #000; opacity: 1;">80</text><text text-anchor="end" transform="translate(-7,3)" style="font-family: sans-serif; font-size: 10px; fill: #000; opacity: 1;">90</text></g><g class="mark-rule role-axis-domain" style="pointer-events: none;"><line transform="translate(0,416)" x2="0" y2="-416" style="fill: none; stroke: #888; stroke-width: 1; opacity: 1;"></line></g><g class="mark-text role-axis-title" style="pointer-events: none;"><text text-anchor="middle" transform="translate(-23,208) rotate(-90) translate(0,-2)" style="font-family: sans-serif; font-size: 11px; font-weight: bold; fill: #000; opacity: 1;">Throughput (kb/ms)</text></g></g><path class="foreground" d="" style="pointer-events: none; display: none; fill: none;"></path></g></g><g class="mark-group role-scope layer_0_layer_0_layer_0_pathgroup"><g transform="translate(0,0)"><path class="background" d="M0,0h595v416h-595Z" style="fill: none;"></path><g><g class="mark-line role-mark layer_0_layer_0_layer_0_marks"><path d="M0,133.3788444444444L66.11111111111127,160.20622222222227L330.55555555555634,308.63502222222223L363.61111111111126,232.1095111111111L363.61111111111126,231.06488888888887L363.61111111111126,349.86524444444444L396.66666666666765,362.19733333333335L396.66666666666765,387.20355555555557L396.66666666666765,391.456" style="fill: none; stroke: #72b7b2; stroke-width: 2;"></path></g></g><path class="foreground" d="" style="display: none; fill: none;"></path></g><g transform="translate(0,0)"><path class="background" d="M0,0h595v416h-595Z" style="fill: none;"></path><g><g class="mark-line role-mark layer_0_layer_0_layer_0_marks"><path d="M0,132.9166222222222L66.11111111111127,160.60373333333334L330.55555555555634,308.74595555555555L363.61111111111126,232.1095111111111L363.61111111111126,231.49013333333335L363.61111111111126,349.8929777777778L396.66666666666765,362.2528L396.66666666666765,387.2405333333333L396.66666666666765,391.4744888888889" style="fill: none; stroke: #f58518; stroke-width: 2;"></path></g></g><path class="foreground" d="" style="display: none; fill: none;"></path></g><g transform="translate(0,0)"><path class="background" d="M0,0h595v416h-595Z" style="fill: none;"></path><g><g class="mark-line role-mark layer_0_layer_0_layer_0_marks"><path d="M99.16666666666619,34.41706666666666L198.33333333333383,71.63519999999997L429.72222222222257,154.05866666666665L462.7777777777789,123.43182222222224L528.8888888888887,213.42648888888888L561.9444444444451,265.91644444444444L561.9444444444451,278.5720888888889L561.9444444444451,309.72586666666666L561.9444444444451,342.4881777777778" style="fill: none; stroke: #4c78a8; stroke-width: 2;"></path></g></g><path class="foreground" d="" style="display: none; fill: none;"></path></g><g transform="translate(0,0)"><path class="background" d="M0,0h595v416h-595Z" style="fill: none;"></path><g><g class="mark-line role-mark layer_0_layer_0_layer_0_marks"><path d="M0,116.33208888888885L66.11111111111127,146.12693333333337L330.55555555555634,304.8078222222222L363.61111111111126,223.1516444444444L363.61111111111126,226.45191111111112L363.61111111111126,347.60035555555555L396.66666666666765,360.5240888888889L396.66666666666765,386.5934222222222L396.66666666666765,391.0215111111111" style="fill: none; stroke: #e45756; stroke-width: 2;"></path></g></g><path class="foreground" d="" style="display: none; fill: none;"></path></g></g><g class="mark-symbol role-mark layer_0_layer_0_layer_1_marks"><path transform="translate(0,133.3788444444444)" d="M2.7386127875258306,0A2.7386127875258306,2.7386127875258306,0,1,1,-2.7386127875258306,0A2.7386127875258306,2.7386127875258306,0,1,1,2.7386127875258306,0" style="fill: #72b7b2; stroke-width: 2; opacity: 1;"></path><path transform="translate(66.11111111111127,160.20622222222227)" d="M2.7386127875258306,0A2.7386127875258306,2.7386127875258306,0,1,1,-2.7386127875258306,0A2.7386127875258306,2.7386127875258306,0,1,1,2.7386127875258306,0" style="fill: #72b7b2; stroke-width: 2; opacity: 1;"></path><path transform="translate(363.61111111111126,232.1095111111111)" d="M2.7386127875258306,0A2.7386127875258306,2.7386127875258306,0,1,1,-2.7386127875258306,0A2.7386127875258306,2.7386127875258306,0,1,1,2.7386127875258306,0" style="fill: #72b7b2; stroke-width: 2; opacity: 1;"></path><path transform="translate(363.61111111111126,231.06488888888887)" d="M2.7386127875258306,0A2.7386127875258306,2.7386127875258306,0,1,1,-2.7386127875258306,0A2.7386127875258306,2.7386127875258306,0,1,1,2.7386127875258306,0" style="fill: #72b7b2; stroke-width: 2; opacity: 1;"></path><path transform="translate(330.55555555555634,308.63502222222223)" d="M2.7386127875258306,0A2.7386127875258306,2.7386127875258306,0,1,1,-2.7386127875258306,0A2.7386127875258306,2.7386127875258306,0,1,1,2.7386127875258306,0" style="fill: #72b7b2; stroke-width: 2; opacity: 1;"></path><path transform="translate(363.61111111111126,349.86524444444444)" d="M2.7386127875258306,0A2.7386127875258306,2.7386127875258306,0,1,1,-2.7386127875258306,0A2.7386127875258306,2.7386127875258306,0,1,1,2.7386127875258306,0" style="fill: #72b7b2; stroke-width: 2; opacity: 1;"></path><path transform="translate(396.66666666666765,362.19733333333335)" d="M2.7386127875258306,0A2.7386127875258306,2.7386127875258306,0,1,1,-2.7386127875258306,0A2.7386127875258306,2.7386127875258306,0,1,1,2.7386127875258306,0" style="fill: #72b7b2; stroke-width: 2; opacity: 1;"></path><path transform="translate(396.66666666666765,387.20355555555557)" d="M2.7386127875258306,0A2.7386127875258306,2.7386127875258306,0,1,1,-2.7386127875258306,0A2.7386127875258306,2.7386127875258306,0,1,1,2.7386127875258306,0" style="fill: #72b7b2; stroke-width: 2; opacity: 1;"></path><path transform="translate(396.66666666666765,391.456)" d="M2.7386127875258306,0A2.7386127875258306,2.7386127875258306,0,1,1,-2.7386127875258306,0A2.7386127875258306,2.7386127875258306,0,1,1,2.7386127875258306,0" style="fill: #72b7b2; stroke-width: 2; opacity: 1;"></path><path transform="translate(0,132.9166222222222)" d="M2.7386127875258306,0A2.7386127875258306,2.7386127875258306,0,1,1,-2.7386127875258306,0A2.7386127875258306,2.7386127875258306,0,1,1,2.7386127875258306,0" style="fill: #f58518; stroke-width: 2; opacity: 1;"></path><path transform="translate(66.11111111111127,160.60373333333334)" d="M2.7386127875258306,0A2.7386127875258306,2.7386127875258306,0,1,1,-2.7386127875258306,0A2.7386127875258306,2.7386127875258306,0,1,1,2.7386127875258306,0" style="fill: #f58518; stroke-width: 2; opacity: 1;"></path><path transform="translate(363.61111111111126,232.1095111111111)" d="M2.7386127875258306,0A2.7386127875258306,2.7386127875258306,0,1,1,-2.7386127875258306,0A2.7386127875258306,2.7386127875258306,0,1,1,2.7386127875258306,0" style="fill: #f58518; stroke-width: 2; opacity: 1;"></path><path transform="translate(363.61111111111126,231.49013333333335)" d="M2.7386127875258306,0A2.7386127875258306,2.7386127875258306,0,1,1,-2.7386127875258306,0A2.7386127875258306,2.7386127875258306,0,1,1,2.7386127875258306,0" style="fill: #f58518; stroke-width: 2; opacity: 1;"></path><path transform="translate(330.55555555555634,308.74595555555555)" d="M2.7386127875258306,0A2.7386127875258306,2.7386127875258306,0,1,1,-2.7386127875258306,0A2.7386127875258306,2.7386127875258306,0,1,1,2.7386127875258306,0" style="fill: #f58518; stroke-width: 2; opacity: 1;"></path><path transform="translate(363.61111111111126,349.8929777777778)" d="M2.7386127875258306,0A2.7386127875258306,2.7386127875258306,0,1,1,-2.7386127875258306,0A2.7386127875258306,2.7386127875258306,0,1,1,2.7386127875258306,0" style="fill: #f58518; stroke-width: 2; opacity: 1;"></path><path transform="translate(396.66666666666765,362.2528)" d="M2.7386127875258306,0A2.7386127875258306,2.7386127875258306,0,1,1,-2.7386127875258306,0A2.7386127875258306,2.7386127875258306,0,1,1,2.7386127875258306,0" style="fill: #f58518; stroke-width: 2; opacity: 1;"></path><path transform="translate(396.66666666666765,387.2405333333333)" d="M2.7386127875258306,0A2.7386127875258306,2.7386127875258306,0,1,1,-2.7386127875258306,0A2.7386127875258306,2.7386127875258306,0,1,1,2.7386127875258306,0" style="fill: #f58518; stroke-width: 2; opacity: 1;"></path><path transform="translate(396.66666666666765,391.4744888888889)" d="M2.7386127875258306,0A2.7386127875258306,2.7386127875258306,0,1,1,-2.7386127875258306,0A2.7386127875258306,2.7386127875258306,0,1,1,2.7386127875258306,0" style="fill: #f58518; stroke-width: 2; opacity: 1;"></path><path transform="translate(99.16666666666619,34.41706666666666)" d="M2.7386127875258306,0A2.7386127875258306,2.7386127875258306,0,1,1,-2.7386127875258306,0A2.7386127875258306,2.7386127875258306,0,1,1,2.7386127875258306,0" style="fill: #4c78a8; stroke-width: 2; opacity: 1;"></path><path transform="translate(198.33333333333383,71.63519999999997)" d="M2.7386127875258306,0A2.7386127875258306,2.7386127875258306,0,1,1,-2.7386127875258306,0A2.7386127875258306,2.7386127875258306,0,1,1,2.7386127875258306,0" style="fill: #4c78a8; stroke-width: 2; opacity: 1;"></path><path transform="translate(429.72222222222257,154.05866666666665)" d="M2.7386127875258306,0A2.7386127875258306,2.7386127875258306,0,1,1,-2.7386127875258306,0A2.7386127875258306,2.7386127875258306,0,1,1,2.7386127875258306,0" style="fill: #4c78a8; stroke-width: 2; opacity: 1;"></path><path transform="translate(462.7777777777789,123.43182222222224)" d="M2.7386127875258306,0A2.7386127875258306,2.7386127875258306,0,1,1,-2.7386127875258306,0A2.7386127875258306,2.7386127875258306,0,1,1,2.7386127875258306,0" style="fill: #4c78a8; stroke-width: 2; opacity: 1;"></path><path transform="translate(528.8888888888887,213.42648888888888)" d="M2.7386127875258306,0A2.7386127875258306,2.7386127875258306,0,1,1,-2.7386127875258306,0A2.7386127875258306,2.7386127875258306,0,1,1,2.7386127875258306,0" style="fill: #4c78a8; stroke-width: 2; opacity: 1;"></path><path transform="translate(561.9444444444451,265.91644444444444)" d="M2.7386127875258306,0A2.7386127875258306,2.7386127875258306,0,1,1,-2.7386127875258306,0A2.7386127875258306,2.7386127875258306,0,1,1,2.7386127875258306,0" style="fill: #4c78a8; stroke-width: 2; opacity: 1;"></path><path transform="translate(561.9444444444451,278.5720888888889)" d="M2.7386127875258306,0A2.7386127875258306,2.7386127875258306,0,1,1,-2.7386127875258306,0A2.7386127875258306,2.7386127875258306,0,1,1,2.7386127875258306,0" style="fill: #4c78a8; stroke-width: 2; opacity: 1;"></path><path transform="translate(561.9444444444451,309.72586666666666)" d="M2.7386127875258306,0A2.7386127875258306,2.7386127875258306,0,1,1,-2.7386127875258306,0A2.7386127875258306,2.7386127875258306,0,1,1,2.7386127875258306,0" style="fill: #4c78a8; stroke-width: 2; opacity: 1;"></path><path transform="translate(561.9444444444451,342.4881777777778)" d="M2.7386127875258306,0A2.7386127875258306,2.7386127875258306,0,1,1,-2.7386127875258306,0A2.7386127875258306,2.7386127875258306,0,1,1,2.7386127875258306,0" style="fill: #4c78a8; stroke-width: 2; opacity: 1;"></path><path transform="translate(0,116.33208888888885)" d="M2.7386127875258306,0A2.7386127875258306,2.7386127875258306,0,1,1,-2.7386127875258306,0A2.7386127875258306,2.7386127875258306,0,1,1,2.7386127875258306,0" style="fill: #e45756; stroke-width: 2; opacity: 1;"></path><path transform="translate(66.11111111111127,146.12693333333337)" d="M2.7386127875258306,0A2.7386127875258306,2.7386127875258306,0,1,1,-2.7386127875258306,0A2.7386127875258306,2.7386127875258306,0,1,1,2.7386127875258306,0" style="fill: #e45756; stroke-width: 2; opacity: 1;"></path><path transform="translate(363.61111111111126,223.1516444444444)" d="M2.7386127875258306,0A2.7386127875258306,2.7386127875258306,0,1,1,-2.7386127875258306,0A2.7386127875258306,2.7386127875258306,0,1,1,2.7386127875258306,0" style="fill: #e45756; stroke-width: 2; opacity: 1;"></path><path transform="translate(363.61111111111126,226.45191111111112)" d="M2.7386127875258306,0A2.7386127875258306,2.7386127875258306,0,1,1,-2.7386127875258306,0A2.7386127875258306,2.7386127875258306,0,1,1,2.7386127875258306,0" style="fill: #e45756; stroke-width: 2; opacity: 1;"></path><path transform="translate(330.55555555555634,304.8078222222222)" d="M2.7386127875258306,0A2.7386127875258306,2.7386127875258306,0,1,1,-2.7386127875258306,0A2.7386127875258306,2.7386127875258306,0,1,1,2.7386127875258306,0" style="fill: #e45756; stroke-width: 2; opacity: 1;"></path><path transform="translate(363.61111111111126,347.60035555555555)" d="M2.7386127875258306,0A2.7386127875258306,2.7386127875258306,0,1,1,-2.7386127875258306,0A2.7386127875258306,2.7386127875258306,0,1,1,2.7386127875258306,0" style="fill: #e45756; stroke-width: 2; opacity: 1;"></path><path transform="translate(396.66666666666765,360.5240888888889)" d="M2.7386127875258306,0A2.7386127875258306,2.7386127875258306,0,1,1,-2.7386127875258306,0A2.7386127875258306,2.7386127875258306,0,1,1,2.7386127875258306,0" style="fill: #e45756; stroke-width: 2; opacity: 1;"></path><path transform="translate(396.66666666666765,386.5934222222222)" d="M2.7386127875258306,0A2.7386127875258306,2.7386127875258306,0,1,1,-2.7386127875258306,0A2.7386127875258306,2.7386127875258306,0,1,1,2.7386127875258306,0" style="fill: #e45756; stroke-width: 2; opacity: 1;"></path><path transform="translate(396.66666666666765,391.0215111111111)" d="M2.7386127875258306,0A2.7386127875258306,2.7386127875258306,0,1,1,-2.7386127875258306,0A2.7386127875258306,2.7386127875258306,0,1,1,2.7386127875258306,0" style="fill: #e45756; stroke-width: 2; opacity: 1;"></path></g><g class="mark-text role-mark layer_0_layer_1_marks"><text text-anchor="end" transform="translate(5,128.3788444444444)" style="font-family: sans-serif; font-size: 11px; fill: #72b7b2;">1</text><text text-anchor="end" transform="translate(71.11111111111127,155.20622222222227)" style="font-family: sans-serif; font-size: 11px; fill: #72b7b2;">2</text><text text-anchor="end" transform="translate(368.61111111111126,227.1095111111111)" style="font-family: sans-serif; font-size: 11px; fill: #72b7b2;">3</text><text text-anchor="end" transform="translate(368.61111111111126,226.06488888888887)" style="font-family: sans-serif; font-size: 11px; fill: #72b7b2;">4</text><text text-anchor="end" transform="translate(335.55555555555634,303.63502222222223)" style="font-family: sans-serif; font-size: 11px; fill: #72b7b2;">5</text><text text-anchor="end" transform="translate(368.61111111111126,344.86524444444444)" style="font-family: sans-serif; font-size: 11px; fill: #72b7b2;">6</text><text text-anchor="end" transform="translate(401.66666666666765,357.19733333333335)" style="font-family: sans-serif; font-size: 11px; fill: #72b7b2;">7</text><text text-anchor="end" transform="translate(401.66666666666765,382.20355555555557)" style="font-family: sans-serif; font-size: 11px; fill: #72b7b2;">8</text><text text-anchor="end" transform="translate(401.66666666666765,386.456)" style="font-family: sans-serif; font-size: 11px; fill: #72b7b2;">9</text><text text-anchor="end" transform="translate(5,127.9166222222222)" style="font-family: sans-serif; font-size: 11px; fill: #f58518;">1</text><text text-anchor="end" transform="translate(71.11111111111127,155.60373333333334)" style="font-family: sans-serif; font-size: 11px; fill: #f58518;">2</text><text text-anchor="end" transform="translate(368.61111111111126,227.1095111111111)" style="font-family: sans-serif; font-size: 11px; fill: #f58518;">3</text><text text-anchor="end" transform="translate(368.61111111111126,226.49013333333335)" style="font-family: sans-serif; font-size: 11px; fill: #f58518;">4</text><text text-anchor="end" transform="translate(335.55555555555634,303.74595555555555)" style="font-family: sans-serif; font-size: 11px; fill: #f58518;">5</text><text text-anchor="end" transform="translate(368.61111111111126,344.8929777777778)" style="font-family: sans-serif; font-size: 11px; fill: #f58518;">6</text><text text-anchor="end" transform="translate(401.66666666666765,357.2528)" style="font-family: sans-serif; font-size: 11px; fill: #f58518;">7</text><text text-anchor="end" transform="translate(401.66666666666765,382.2405333333333)" style="font-family: sans-serif; font-size: 11px; fill: #f58518;">8</text><text text-anchor="end" transform="translate(401.66666666666765,386.4744888888889)" style="font-family: sans-serif; font-size: 11px; fill: #f58518;">9</text><text text-anchor="end" transform="translate(104.16666666666619,29.417066666666663)" style="font-family: sans-serif; font-size: 11px; fill: #4c78a8;">1</text><text text-anchor="end" transform="translate(203.33333333333383,66.63519999999997)" style="font-family: sans-serif; font-size: 11px; fill: #4c78a8;">2</text><text text-anchor="end" transform="translate(434.72222222222257,149.05866666666665)" style="font-family: sans-serif; font-size: 11px; fill: #4c78a8;">3</text><text text-anchor="end" transform="translate(467.7777777777789,118.43182222222224)" style="font-family: sans-serif; font-size: 11px; fill: #4c78a8;">4</text><text text-anchor="end" transform="translate(533.8888888888887,208.42648888888888)" style="font-family: sans-serif; font-size: 11px; fill: #4c78a8;">5</text><text text-anchor="end" transform="translate(566.9444444444451,260.91644444444444)" style="font-family: sans-serif; font-size: 11px; fill: #4c78a8;">6</text><text text-anchor="end" transform="translate(566.9444444444451,273.5720888888889)" style="font-family: sans-serif; font-size: 11px; fill: #4c78a8;">7</text><text text-anchor="end" transform="translate(566.9444444444451,304.72586666666666)" style="font-family: sans-serif; font-size: 11px; fill: #4c78a8;">8</text><text text-anchor="end" transform="translate(566.9444444444451,337.4881777777778)" style="font-family: sans-serif; font-size: 11px; fill: #4c78a8;">9</text><text text-anchor="end" transform="translate(5,111.33208888888885)" style="font-family: sans-serif; font-size: 11px; fill: #e45756;">1</text><text text-anchor="end" transform="translate(71.11111111111127,141.12693333333337)" style="font-family: sans-serif; font-size: 11px; fill: #e45756;">2</text><text text-anchor="end" transform="translate(368.61111111111126,218.1516444444444)" style="font-family: sans-serif; font-size: 11px; fill: #e45756;">3</text><text text-anchor="end" transform="translate(368.61111111111126,221.45191111111112)" style="font-family: sans-serif; font-size: 11px; fill: #e45756;">4</text><text text-anchor="end" transform="translate(335.55555555555634,299.8078222222222)" style="font-family: sans-serif; font-size: 11px; fill: #e45756;">5</text><text text-anchor="end" transform="translate(368.61111111111126,342.60035555555555)" style="font-family: sans-serif; font-size: 11px; fill: #e45756;">6</text><text text-anchor="end" transform="translate(401.66666666666765,355.5240888888889)" style="font-family: sans-serif; font-size: 11px; fill: #e45756;">7</text><text text-anchor="end" transform="translate(401.66666666666765,381.5934222222222)" style="font-family: sans-serif; font-size: 11px; fill: #e45756;">8</text><text text-anchor="end" transform="translate(401.66666666666765,386.0215111111111)" style="font-family: sans-serif; font-size: 11px; fill: #e45756;">9</text></g><g class="mark-group role-title"><g transform="translate(297.5,-22)"><path class="background" d="M0,0h0v0h0Z" style="pointer-events: none; fill: none;"></path><g><g class="mark-text role-title-text" style="pointer-events: none;"><text text-anchor="middle" transform="translate(0,10)" style="font-family: sans-serif; font-size: 13px; font-weight: bold; fill: #000; opacity: 1;">Deflater throughput/ratio per level for 'silesia/mr' on Graviton 2</text></g></g><path class="foreground" d="" style="pointer-events: none; display: none; fill: none;"></path></g></g><g class="mark-group role-legend"><g transform="translate(459,0)"><path class="background" d="M0.5,0.5h134v77h-134Z" style="pointer-events: none; fill: #ffffff; stroke: #000000;"></path><g><g class="mark-group role-legend-entry"><g transform="translate(8,8)"><path class="background" d="M0,0h0v0h0Z" style="pointer-events: none; fill: none;"></path><g><g class="mark-group role-scope"><g transform="translate(0,0)"><path class="background" d="M0,0h118v12.5h-118Z" style="pointer-events: none; fill: none; opacity: 1;"></path><g><g class="mark-symbol role-legend-symbol" style="pointer-events: none;"><path transform="translate(6,6)" d="M5,0A5,5,0,1,1,-5,0A5,5,0,1,1,5,0" style="fill: #4c78a8; stroke: #4c78a8; stroke-width: 1.5; opacity: 1;"></path></g><g class="mark-text role-legend-label" style="pointer-events: none;"><text text-anchor="start" transform="translate(16,9)" style="font-family: sans-serif; font-size: 10px; fill: #000; opacity: 1;">ojdk / zlib-cloudflare</text></g></g><path class="foreground" d="" style="pointer-events: none; display: none; fill: none;"></path></g><g transform="translate(0,16)"><path class="background" d="M0,0h118v12.5h-118Z" style="pointer-events: none; fill: none; opacity: 1;"></path><g><g class="mark-symbol role-legend-symbol" style="pointer-events: none;"><path transform="translate(6,6)" d="M5,0A5,5,0,1,1,-5,0A5,5,0,1,1,5,0" style="fill: #f58518; stroke: #f58518; stroke-width: 1.5; opacity: 1;"></path></g><g class="mark-text role-legend-label" style="pointer-events: none;"><text text-anchor="start" transform="translate(16,9)" style="font-family: sans-serif; font-size: 10px; fill: #000; opacity: 1;">ojdk / zlib-chromium</text></g></g><path class="foreground" d="" style="pointer-events: none; display: none; fill: none;"></path></g><g transform="translate(0,32)"><path class="background" d="M0,0h118v12.5h-118Z" style="pointer-events: none; fill: none; opacity: 1;"></path><g><g class="mark-symbol role-legend-symbol" style="pointer-events: none;"><path transform="translate(6,6)" d="M5,0A5,5,0,1,1,-5,0A5,5,0,1,1,5,0" style="fill: #e45756; stroke: #e45756; stroke-width: 1.5; opacity: 1;"></path></g><g class="mark-text role-legend-label" style="pointer-events: none;"><text text-anchor="start" transform="translate(16,9)" style="font-family: sans-serif; font-size: 10px; fill: #000; opacity: 1;">ojdk / zlib-system</text></g></g><path class="foreground" d="" style="pointer-events: none; display: none; fill: none;"></path></g><g transform="translate(0,48)"><path class="background" d="M0,0h118v12.5h-118Z" style="pointer-events: none; fill: none; opacity: 1;"></path><g><g class="mark-symbol role-legend-symbol" style="pointer-events: none;"><path transform="translate(6,6)" d="M5,0A5,5,0,1,1,-5,0A5,5,0,1,1,5,0" style="fill: #72b7b2; stroke: #72b7b2; stroke-width: 1.5; opacity: 1;"></path></g><g class="mark-text role-legend-label" style="pointer-events: none;"><text text-anchor="start" transform="translate(16,9)" style="font-family: sans-serif; font-size: 10px; fill: #000; opacity: 1;">ojdk / zlib-bundled</text></g></g><path class="foreground" d="" style="pointer-events: none; display: none; fill: none;"></path></g></g></g><path class="foreground" d="" style="pointer-events: none; display: none; fill: none;"></path></g></g></g><path class="foreground" d="" style="pointer-events: none; display: none; fill: none;"></path></g></g></g><path class="foreground" d="" style="display: none; fill: none;"></path></g></g></g></svg>