<svg class="marks" width="2174" height="572" viewBox="0 0 1087 286" version="1.1" xmlns="http://www.w3.org/2000/svg" xmlns:xlink="http://www.w3.org/1999/xlink"><rect width="1087" height="286" style="fill: white;"></rect><g transform="translate(46,70)"><g class="mark-group role-frame root"><g transform="translate(0,0)"><path class="background" d="M0,0h0v0h0Z" style="fill: none;"></path><g><g class="mark-group role-row-header row_header"><g transform="translate(-1,0)"><path class="background" d="M0,0h0v200h0Z" style="fill: none;"></path><g><g class="mark-group role-axis"><g transform="translate(0.5,0.5)"><path class="background" d="M0,0h0v0h0Z" style="pointer-events: none; fill: none;"></path><g><g class="mark-rule role-axis-tick" style="pointer-events: none;"><line transform="translate(0,200)" x2="-5" y2="0" style="fill: none; stroke: #888; stroke-width: 1; opacity: 1;"></line><line transform="translate(0,160)" x2="-5" y2="0" style="fill: none; stroke: #888; stroke-width: 1; opacity: 1;"></line><line transform="translate(0,120)" x2="-5" y2="0" style="fill: none; stroke: #888; stroke-width: 1; opacity: 1;"></line><line transform="translate(0,80)" x2="-5" y2="0" style="fill: none; stroke: #888; stroke-width: 1; opacity: 1;"></line><line transform="translate(0,40)" x2="-5" y2="0" style="fill: none; stroke: #888; stroke-width: 1; opacity: 1;"></line><line transform="translate(0,0)" x2="-5" y2="0" style="fill: none; stroke: #888; stroke-width: 1; opacity: 1;"></line></g><g class="mark-text role-axis-label" style="pointer-events: none;"><text text-anchor="end" transform="translate(-7,203)" style="font-family: sans-serif; font-size: 10px; fill: #000; opacity: 1;">0</text><text text-anchor="end" transform="translate(-7,163)" style="font-family: sans-serif; font-size: 10px; fill: #000; opacity: 1;">20</text><text text-anchor="end" transform="translate(-7,123)" style="font-family: sans-serif; font-size: 10px; fill: #000; opacity: 1;">40</text><text text-anchor="end" transform="translate(-7,83)" style="font-family: sans-serif; font-size: 10px; fill: #000; opacity: 1;">60</text><text text-anchor="end" transform="translate(-7,42.99999999999999)" style="font-family: sans-serif; font-size: 10px; fill: #000; opacity: 1;">80</text><text text-anchor="end" transform="translate(-7,3)" style="font-family: sans-serif; font-size: 10px; fill: #000; opacity: 1;">100</text></g><g class="mark-rule role-axis-domain" style="pointer-events: none;"><line transform="translate(0,200)" x2="0" y2="-200" style="fill: none; stroke: #888; stroke-width: 1; opacity: 1;"></line></g><g class="mark-text role-axis-title" style="pointer-events: none;"><text text-anchor="middle" transform="translate(-29,100) rotate(-90) translate(0,-2)" style="font-family: sans-serif; font-size: 11px; font-weight: bold; fill: #000; opacity: 1;">Throughput (kb/ms)</text></g></g><path class="foreground" d="" style="pointer-events: none; display: none; fill: none;"></path></g></g></g><path class="foreground" d="" style="display: none; fill: none;"></path></g></g><g class="mark-group role-column-footer column_footer"><g transform="translate(0,201)"><path class="background" d="M0,0h140v0h-140Z" style="fill: none;"></path><g><g class="mark-group role-axis"><g transform="translate(0.5,0.5)"><path class="background" d="M0,0h0v0h0Z" style="pointer-events: none; fill: none;"></path><g><g class="mark-rule role-axis-domain" style="pointer-events: none;"><line transform="translate(0,0)" x2="140" y2="0" style="fill: none; stroke: #888; stroke-width: 0; opacity: 1;"></line></g></g><path class="foreground" d="" style="pointer-events: none; display: none; fill: none;"></path></g></g><g class="mark-group role-title"><g transform="translate(70,10)"><path class="background" d="M0,0h0v0h0Z" style="pointer-events: none; fill: none;"></path><g><g class="mark-text role-title-text" style="pointer-events: none;"><text text-anchor="middle" transform="translate(0,-2)" style="font-family: sans-serif; font-size: 10px; fill: #000; opacity: 1;">dickens</text></g></g><path class="foreground" d="" style="pointer-events: none; display: none; fill: none;"></path></g></g></g><path class="foreground" d="" style="display: none; fill: none;"></path></g><g transform="translate(162,201)"><path class="background" d="M0,0h140v0h-140Z" style="fill: none;"></path><g><g class="mark-group role-axis"><g transform="translate(0.5,0.5)"><path class="background" d="M0,0h0v0h0Z" style="pointer-events: none; fill: none;"></path><g><g class="mark-rule role-axis-domain" style="pointer-events: none;"><line transform="translate(0,0)" x2="140" y2="0" style="fill: none; stroke: #888; stroke-width: 0; opacity: 1;"></line></g></g><path class="foreground" d="" style="pointer-events: none; display: none; fill: none;"></path></g></g><g class="mark-group role-title"><g transform="translate(70,10)"><path class="background" d="M0,0h0v0h0Z" style="pointer-events: none; fill: none;"></path><g><g class="mark-text role-title-text" style="pointer-events: none;"><text text-anchor="middle" transform="translate(0,-2)" style="font-family: sans-serif; font-size: 10px; fill: #000; opacity: 1;">mozilla</text></g></g><path class="foreground" d="" style="pointer-events: none; display: none; fill: none;"></path></g></g></g><path class="foreground" d="" style="display: none; fill: none;"></path></g><g transform="translate(324,201)"><path class="background" d="M0,0h140v0h-140Z" style="fill: none;"></path><g><g class="mark-group role-axis"><g transform="translate(0.5,0.5)"><path class="background" d="M0,0h0v0h0Z" style="pointer-events: none; fill: none;"></path><g><g class="mark-rule role-axis-domain" style="pointer-events: none;"><line transform="translate(0,0)" x2="140" y2="0" style="fill: none; stroke: #888; stroke-width: 0; opacity: 1;"></line></g></g><path class="foreground" d="" style="pointer-events: none; display: none; fill: none;"></path></g></g><g class="mark-group role-title"><g transform="translate(70,10)"><path class="background" d="M0,0h0v0h0Z" style="pointer-events: none; fill: none;"></path><g><g class="mark-text role-title-text" style="pointer-events: none;"><text text-anchor="middle" transform="translate(0,-2)" style="font-family: sans-serif; font-size: 10px; fill: #000; opacity: 1;">mr</text></g></g><path class="foreground" d="" style="pointer-events: none; display: none; fill: none;"></path></g></g></g><path class="foreground" d="" style="display: none; fill: none;"></path></g><g transform="translate(486,201)"><path class="background" d="M0,0h140v0h-140Z" style="fill: none;"></path><g><g class="mark-group role-axis"><g transform="translate(0.5,0.5)"><path class="background" d="M0,0h0v0h0Z" style="pointer-events: none; fill: none;"></path><g><g class="mark-rule role-axis-domain" style="pointer-events: none;"><line transform="translate(0,0)" x2="140" y2="0" style="fill: none; stroke: #888; stroke-width: 0; opacity: 1;"></line></g></g><path class="foreground" d="" style="pointer-events: none; display: none; fill: none;"></path></g></g><g class="mark-group role-title"><g transform="translate(70,10)"><path class="background" d="M0,0h0v0h0Z" style="pointer-events: none; fill: none;"></path><g><g class="mark-text role-title-text" style="pointer-events: none;"><text text-anchor="middle" transform="translate(0,-2)" style="font-family: sans-serif; font-size: 10px; fill: #000; opacity: 1;">nci</text></g></g><path class="foreground" d="" style="pointer-events: none; display: none; fill: none;"></path></g></g></g><path class="foreground" d="" style="display: none; fill: none;"></path></g><g transform="translate(648,201)"><path class="background" d="M0,0h140v0h-140Z" style="fill: none;"></path><g><g class="mark-group role-axis"><g transform="translate(0.5,0.5)"><path class="background" d="M0,0h0v0h0Z" style="pointer-events: none; fill: none;"></path><g><g class="mark-rule role-axis-domain" style="pointer-events: none;"><line transform="translate(0,0)" x2="140" y2="0" style="fill: none; stroke: #888; stroke-width: 0; opacity: 1;"></line></g></g><path class="foreground" d="" style="pointer-events: none; display: none; fill: none;"></path></g></g><g class="mark-group role-title"><g transform="translate(70,10)"><path class="background" d="M0,0h0v0h0Z" style="pointer-events: none; fill: none;"></path><g><g class="mark-text role-title-text" style="pointer-events: none;"><text text-anchor="middle" transform="translate(0,-2)" style="font-family: sans-serif; font-size: 10px; fill: #000; opacity: 1;">ooffice</text></g></g><path class="foreground" d="" style="pointer-events: none; display: none; fill: none;"></path></g></g></g><path class="foreground" d="" style="display: none; fill: none;"></path></g><g transform="translate(810,201)"><path class="background" d="M0,0h140v0h-140Z" style="fill: none;"></path><g><g class="mark-group role-axis"><g transform="translate(0.5,0.5)"><path class="background" d="M0,0h0v0h0Z" style="pointer-events: none; fill: none;"></path><g><g class="mark-rule role-axis-domain" style="pointer-events: none;"><line transform="translate(0,0)" x2="140" y2="0" style="fill: none; stroke: #888; stroke-width: 0; opacity: 1;"></line></g></g><path class="foreground" d="" style="pointer-events: none; display: none; fill: none;"></path></g></g><g class="mark-group role-title"><g transform="translate(70,10)"><path class="background" d="M0,0h0v0h0Z" style="pointer-events: none; fill: none;"></path><g><g class="mark-text role-title-text" style="pointer-events: none;"><text text-anchor="middle" transform="translate(0,-2)" style="font-family: sans-serif; font-size: 10px; fill: #000; opacity: 1;">osdb</text></g></g><path class="foreground" d="" style="pointer-events: none; display: none; fill: none;"></path></g></g></g><path class="foreground" d="" style="display: none; fill: none;"></path></g></g><g class="mark-group role-scope cell"><g transform="translate(0,0)"><path class="background" d="M0.5,0.5h140v200h-140Z" style="fill: none; stroke: none;"></path><g><g class="mark-group role-axis"><g transform="translate(0.5,0.5)"><path class="background" d="M0,0h0v0h0Z" style="pointer-events: none; fill: none;"></path><g><g class="mark-rule role-axis-grid" style="pointer-events: none;"><line transform="translate(0,200)" x2="140" y2="0" style="fill: none; stroke: #ddd; stroke-width: 1; opacity: 1;"></line><line transform="translate(0,160)" x2="140" y2="0" style="fill: none; stroke: #ddd; stroke-width: 1; opacity: 1;"></line><line transform="translate(0,120)" x2="140" y2="0" style="fill: none; stroke: #ddd; stroke-width: 1; opacity: 1;"></line><line transform="translate(0,80)" x2="140" y2="0" style="fill: none; stroke: #ddd; stroke-width: 1; opacity: 1;"></line><line transform="translate(0,40)" x2="140" y2="0" style="fill: none; stroke: #ddd; stroke-width: 1; opacity: 1;"></line><line transform="translate(0,0)" x2="140" y2="0" style="fill: none; stroke: #ddd; stroke-width: 1; opacity: 1;"></line></g></g><path class="foreground" d="" style="pointer-events: none; display: none; fill: none;"></path></g></g><g class="mark-rect role-mark child_layer_0_marks"><path d="M81,98.912h18v101.088h-18Z" style="fill: #54a24b;"></path><path d="M21,94.75600000000001h18v105.24399999999999h-18Z" style="fill: #f58518;"></path><path d="M101,103.444h18v96.556h-18Z" style="fill: #eeca3b;"></path><path d="M121,5.915999999999988h18v194.084h-18Z" style="fill: #b279a2;"></path><path d="M41,104.216h18v95.784h-18Z" style="fill: #e45756;"></path><path d="M61,113.89200000000001h18v86.10799999999999h-18Z" style="fill: #72b7b2;"></path><path d="M1,130.74400000000003h18v69.25599999999997h-18Z" style="fill: #4c78a8;"></path></g><g class="mark-text role-mark child_layer_1_marks"><text text-anchor="start" transform="translate(90,98.912) rotate(270) translate(5,3)" style="font-family: sans-serif; font-size: 11px; fill: black;">146%</text><text text-anchor="start" transform="translate(30,94.75600000000001) rotate(270) translate(5,3)" style="font-family: sans-serif; font-size: 11px; fill: black;">152%</text><text text-anchor="start" transform="translate(110,103.444) rotate(270) translate(5,3)" style="font-family: sans-serif; font-size: 11px; fill: black;">139%</text><text text-anchor="start" transform="translate(130,5.915999999999988) rotate(270) translate(5,3)" style="font-family: sans-serif; font-size: 11px; fill: black;">280%</text><text text-anchor="start" transform="translate(50,104.216) rotate(270) translate(5,3)" style="font-family: sans-serif; font-size: 11px; fill: black;">138%</text><text text-anchor="start" transform="translate(70,113.89200000000001) rotate(270) translate(5,3)" style="font-family: sans-serif; font-size: 11px; fill: black;">124%</text><text text-anchor="start" transform="translate(10,130.74400000000003) rotate(270) translate(5,3)" style="font-family: sans-serif; font-size: 11px; fill: black;">100%</text></g></g><path class="foreground" d="" style="display: none; fill: none;"></path></g><g transform="translate(162,0)"><path class="background" d="M0.5,0.5h140v200h-140Z" style="fill: none; stroke: none;"></path><g><g class="mark-group role-axis"><g transform="translate(0.5,0.5)"><path class="background" d="M0,0h0v0h0Z" style="pointer-events: none; fill: none;"></path><g><g class="mark-rule role-axis-grid" style="pointer-events: none;"><line transform="translate(0,200)" x2="140" y2="0" style="fill: none; stroke: #ddd; stroke-width: 1; opacity: 1;"></line><line transform="translate(0,160)" x2="140" y2="0" style="fill: none; stroke: #ddd; stroke-width: 1; opacity: 1;"></line><line transform="translate(0,120)" x2="140" y2="0" style="fill: none; stroke: #ddd; stroke-width: 1; opacity: 1;"></line><line transform="translate(0,80)" x2="140" y2="0" style="fill: none; stroke: #ddd; stroke-width: 1; opacity: 1;"></line><line transform="translate(0,40)" x2="140" y2="0" style="fill: none; stroke: #ddd; stroke-width: 1; opacity: 1;"></line><line transform="translate(0,0)" x2="140" y2="0" style="fill: none; stroke: #ddd; stroke-width: 1; opacity: 1;"></line></g></g><path class="foreground" d="" style="pointer-events: none; display: none; fill: none;"></path></g></g><g class="mark-rect role-mark child_layer_0_marks"><path d="M81,81.87600000000002h18v118.12399999999998h-18Z" style="fill: #54a24b;"></path><path d="M21,84.564h18v115.436h-18Z" style="fill: #f58518;"></path><path d="M101,70.34h18v129.66h-18Z" style="fill: #eeca3b;"></path><path d="M121,38.039999999999985h18v161.96h-18Z" style="fill: #b279a2;"></path><path d="M41,108.744h18v91.256h-18Z" style="fill: #e45756;"></path><path d="M61,87.13199999999999h18v112.86800000000001h-18Z" style="fill: #72b7b2;"></path><path d="M1,118.61600000000001h18v81.38399999999999h-18Z" style="fill: #4c78a8;"></path></g><g class="mark-text role-mark child_layer_1_marks"><text text-anchor="start" transform="translate(90,81.87600000000002) rotate(270) translate(5,3)" style="font-family: sans-serif; font-size: 11px; fill: black;">145%</text><text text-anchor="start" transform="translate(30,84.564) rotate(270) translate(5,3)" style="font-family: sans-serif; font-size: 11px; fill: black;">142%</text><text text-anchor="start" transform="translate(110,70.34) rotate(270) translate(5,3)" style="font-family: sans-serif; font-size: 11px; fill: black;">159%</text><text text-anchor="start" transform="translate(130,38.039999999999985) rotate(270) translate(5,3)" style="font-family: sans-serif; font-size: 11px; fill: black;">199%</text><text text-anchor="start" transform="translate(50,108.744) rotate(270) translate(5,3)" style="font-family: sans-serif; font-size: 11px; fill: black;">112%</text><text text-anchor="start" transform="translate(70,87.13199999999999) rotate(270) translate(5,3)" style="font-family: sans-serif; font-size: 11px; fill: black;">139%</text><text text-anchor="start" transform="translate(10,118.61600000000001) rotate(270) translate(5,3)" style="font-family: sans-serif; font-size: 11px; fill: black;">100%</text></g></g><path class="foreground" d="" style="display: none; fill: none;"></path></g><g transform="translate(324,0)"><path class="background" d="M0.5,0.5h140v200h-140Z" style="fill: none; stroke: none;"></path><g><g class="mark-group role-axis"><g transform="translate(0.5,0.5)"><path class="background" d="M0,0h0v0h0Z" style="pointer-events: none; fill: none;"></path><g><g class="mark-rule role-axis-grid" style="pointer-events: none;"><line transform="translate(0,200)" x2="140" y2="0" style="fill: none; stroke: #ddd; stroke-width: 1; opacity: 1;"></line><line transform="translate(0,160)" x2="140" y2="0" style="fill: none; stroke: #ddd; stroke-width: 1; opacity: 1;"></line><line transform="translate(0,120)" x2="140" y2="0" style="fill: none; stroke: #ddd; stroke-width: 1; opacity: 1;"></line><line transform="translate(0,80)" x2="140" y2="0" style="fill: none; stroke: #ddd; stroke-width: 1; opacity: 1;"></line><line transform="translate(0,40)" x2="140" y2="0" style="fill: none; stroke: #ddd; stroke-width: 1; opacity: 1;"></line><line transform="translate(0,0)" x2="140" y2="0" style="fill: none; stroke: #ddd; stroke-width: 1; opacity: 1;"></line></g></g><path class="foreground" d="" style="pointer-events: none; display: none; fill: none;"></path></g></g><g class="mark-rect role-mark child_layer_0_marks"><path d="M81,87.78399999999999h18v112.21600000000001h-18Z" style="fill: #54a24b;"></path><path d="M21,93.9h18v106.1h-18Z" style="fill: #f58518;"></path><path d="M101,79.5h18v120.5h-18Z" style="fill: #eeca3b;"></path><path d="M121,17.376000000000012h18v182.624h-18Z" style="fill: #b279a2;"></path><path d="M41,112.22400000000002h18v87.77599999999998h-18Z" style="fill: #e45756;"></path><path d="M61,103.244h18v96.756h-18Z" style="fill: #72b7b2;"></path><path d="M1,124.50000000000001h18v75.49999999999999h-18Z" style="fill: #4c78a8;"></path></g><g class="mark-text role-mark child_layer_1_marks"><text text-anchor="start" transform="translate(90,87.78399999999999) rotate(270) translate(5,3)" style="font-family: sans-serif; font-size: 11px; fill: black;">149%</text><text text-anchor="start" transform="translate(30,93.9) rotate(270) translate(5,3)" style="font-family: sans-serif; font-size: 11px; fill: black;">141%</text><text text-anchor="start" transform="translate(110,79.5) rotate(270) translate(5,3)" style="font-family: sans-serif; font-size: 11px; fill: black;">160%</text><text text-anchor="start" transform="translate(130,17.376000000000012) rotate(270) translate(5,3)" style="font-family: sans-serif; font-size: 11px; fill: black;">242%</text><text text-anchor="start" transform="translate(50,112.22400000000002) rotate(270) translate(5,3)" style="font-family: sans-serif; font-size: 11px; fill: black;">116%</text><text text-anchor="start" transform="translate(70,103.244) rotate(270) translate(5,3)" style="font-family: sans-serif; font-size: 11px; fill: black;">128%</text><text text-anchor="start" transform="translate(10,124.50000000000001) rotate(270) translate(5,3)" style="font-family: sans-serif; font-size: 11px; fill: black;">100%</text></g></g><path class="foreground" d="" style="display: none; fill: none;"></path></g><g transform="translate(486,0)"><path class="background" d="M0.5,0.5h140v200h-140Z" style="fill: none; stroke: none;"></path><g><g class="mark-group role-axis"><g transform="translate(0.5,0.5)"><path class="background" d="M0,0h0v0h0Z" style="pointer-events: none; fill: none;"></path><g><g class="mark-rule role-axis-grid" style="pointer-events: none;"><line transform="translate(0,200)" x2="140" y2="0" style="fill: none; stroke: #ddd; stroke-width: 1; opacity: 1;"></line><line transform="translate(0,160)" x2="140" y2="0" style="fill: none; stroke: #ddd; stroke-width: 1; opacity: 1;"></line><line transform="translate(0,120)" x2="140" y2="0" style="fill: none; stroke: #ddd; stroke-width: 1; opacity: 1;"></line><line transform="translate(0,80)" x2="140" y2="0" style="fill: none; stroke: #ddd; stroke-width: 1; opacity: 1;"></line><line transform="translate(0,40)" x2="140" y2="0" style="fill: none; stroke: #ddd; stroke-width: 1; opacity: 1;"></line><line transform="translate(0,0)" x2="140" y2="0" style="fill: none; stroke: #ddd; stroke-width: 1; opacity: 1;"></line></g></g><path class="foreground" d="" style="pointer-events: none; display: none; fill: none;"></path></g></g><g class="mark-rect role-mark child_layer_0_marks"><path d="M81,135.188h18v64.81200000000001h-18Z" style="fill: #54a24b;"></path><path d="M21,131.624h18v68.376h-18Z" style="fill: #f58518;"></path><path d="M101,132.472h18v67.52799999999999h-18Z" style="fill: #eeca3b;"></path><path d="M121,99.064h18v100.936h-18Z" style="fill: #b279a2;"></path><path d="M41,146.136h18v53.864000000000004h-18Z" style="fill: #e45756;"></path><path d="M61,135.364h18v64.636h-18Z" style="fill: #72b7b2;"></path><path d="M1,156.18h18v43.81999999999999h-18Z" style="fill: #4c78a8;"></path></g><g class="mark-text role-mark child_layer_1_marks"><text text-anchor="start" transform="translate(90,135.188) rotate(270) translate(5,3)" style="font-family: sans-serif; font-size: 11px; fill: black;">148%</text><text text-anchor="start" transform="translate(30,131.624) rotate(270) translate(5,3)" style="font-family: sans-serif; font-size: 11px; fill: black;">156%</text><text text-anchor="start" transform="translate(110,132.472) rotate(270) translate(5,3)" style="font-family: sans-serif; font-size: 11px; fill: black;">154%</text><text text-anchor="start" transform="translate(130,99.064) rotate(270) translate(5,3)" style="font-family: sans-serif; font-size: 11px; fill: black;">230%</text><text text-anchor="start" transform="translate(50,146.136) rotate(270) translate(5,3)" style="font-family: sans-serif; font-size: 11px; fill: black;">123%</text><text text-anchor="start" transform="translate(70,135.364) rotate(270) translate(5,3)" style="font-family: sans-serif; font-size: 11px; fill: black;">148%</text><text text-anchor="start" transform="translate(10,156.18) rotate(270) translate(5,3)" style="font-family: sans-serif; font-size: 11px; fill: black;">100%</text></g></g><path class="foreground" d="" style="display: none; fill: none;"></path></g><g transform="translate(648,0)"><path class="background" d="M0.5,0.5h140v200h-140Z" style="fill: none; stroke: none;"></path><g><g class="mark-group role-axis"><g transform="translate(0.5,0.5)"><path class="background" d="M0,0h0v0h0Z" style="pointer-events: none; fill: none;"></path><g><g class="mark-rule role-axis-grid" style="pointer-events: none;"><line transform="translate(0,200)" x2="140" y2="0" style="fill: none; stroke: #ddd; stroke-width: 1; opacity: 1;"></line><line transform="translate(0,160)" x2="140" y2="0" style="fill: none; stroke: #ddd; stroke-width: 1; opacity: 1;"></line><line transform="translate(0,120)" x2="140" y2="0" style="fill: none; stroke: #ddd; stroke-width: 1; opacity: 1;"></line><line transform="translate(0,80)" x2="140" y2="0" style="fill: none; stroke: #ddd; stroke-width: 1; opacity: 1;"></line><line transform="translate(0,40)" x2="140" y2="0" style="fill: none; stroke: #ddd; stroke-width: 1; opacity: 1;"></line><line transform="translate(0,0)" x2="140" y2="0" style="fill: none; stroke: #ddd; stroke-width: 1; opacity: 1;"></line></g></g><path class="foreground" d="" style="pointer-events: none; display: none; fill: none;"></path></g></g><g class="mark-rect role-mark child_layer_0_marks"><path d="M81,87.04799999999999h18v112.95200000000001h-18Z" style="fill: #54a24b;"></path><path d="M21,92.86800000000002h18v107.13199999999998h-18Z" style="fill: #f58518;"></path><path d="M101,74.50399999999999h18v125.49600000000001h-18Z" style="fill: #eeca3b;"></path><path d="M121,29.259999999999998h18v170.74h-18Z" style="fill: #b279a2;"></path><path d="M41,111.128h18v88.872h-18Z" style="fill: #e45756;"></path><path d="M61,93.916h18v106.084h-18Z" style="fill: #72b7b2;"></path><path d="M1,121.91200000000002h18v78.08799999999998h-18Z" style="fill: #4c78a8;"></path></g><g class="mark-text role-mark child_layer_1_marks"><text text-anchor="start" transform="translate(90,87.04799999999999) rotate(270) translate(5,3)" style="font-family: sans-serif; font-size: 11px; fill: black;">145%</text><text text-anchor="start" transform="translate(30,92.86800000000002) rotate(270) translate(5,3)" style="font-family: sans-serif; font-size: 11px; fill: black;">137%</text><text text-anchor="start" transform="translate(110,74.50399999999999) rotate(270) translate(5,3)" style="font-family: sans-serif; font-size: 11px; fill: black;">161%</text><text text-anchor="start" transform="translate(130,29.259999999999998) rotate(270) translate(5,3)" style="font-family: sans-serif; font-size: 11px; fill: black;">219%</text><text text-anchor="start" transform="translate(50,111.128) rotate(270) translate(5,3)" style="font-family: sans-serif; font-size: 11px; fill: black;">114%</text><text text-anchor="start" transform="translate(70,93.916) rotate(270) translate(5,3)" style="font-family: sans-serif; font-size: 11px; fill: black;">136%</text><text text-anchor="start" transform="translate(10,121.91200000000002) rotate(270) translate(5,3)" style="font-family: sans-serif; font-size: 11px; fill: black;">100%</text></g></g><path class="foreground" d="" style="display: none; fill: none;"></path></g><g transform="translate(810,0)"><path class="background" d="M0.5,0.5h140v200h-140Z" style="fill: none; stroke: none;"></path><g><g class="mark-group role-axis"><g transform="translate(0.5,0.5)"><path class="background" d="M0,0h0v0h0Z" style="pointer-events: none; fill: none;"></path><g><g class="mark-rule role-axis-grid" style="pointer-events: none;"><line transform="translate(0,200)" x2="140" y2="0" style="fill: none; stroke: #ddd; stroke-width: 1; opacity: 1;"></line><line transform="translate(0,160)" x2="140" y2="0" style="fill: none; stroke: #ddd; stroke-width: 1; opacity: 1;"></line><line transform="translate(0,120)" x2="140" y2="0" style="fill: none; stroke: #ddd; stroke-width: 1; opacity: 1;"></line><line transform="translate(0,80)" x2="140" y2="0" style="fill: none; stroke: #ddd; stroke-width: 1; opacity: 1;"></line><line transform="translate(0,40)" x2="140" y2="0" style="fill: none; stroke: #ddd; stroke-width: 1; opacity: 1;"></line><line transform="translate(0,0)" x2="140" y2="0" style="fill: none; stroke: #ddd; stroke-width: 1; opacity: 1;"></line></g></g><path class="foreground" d="" style="pointer-events: none; display: none; fill: none;"></path></g></g><g class="mark-rect role-mark child_layer_0_marks"><path d="M81,82.33199999999998h18v117.66800000000002h-18Z" style="fill: #54a24b;"></path><path d="M21,89.49600000000002h18v110.50399999999998h-18Z" style="fill: #f58518;"></path><path d="M101,74.74799999999999h18v125.25200000000001h-18Z" style="fill: #eeca3b;"></path><path d="M121,15.952000000000034h18v184.04799999999997h-18Z" style="fill: #b279a2;"></path><path d="M41,99.97999999999998h18v100.02000000000002h-18Z" style="fill: #e45756;"></path><path d="M61,88.27199999999999h18v111.72800000000001h-18Z" style="fill: #72b7b2;"></path><path d="M1,118.68400000000001h18v81.31599999999999h-18Z" style="fill: #4c78a8;"></path></g><g class="mark-text role-mark child_layer_1_marks"><text text-anchor="start" transform="translate(90,82.33199999999998) rotate(270) translate(5,3)" style="font-family: sans-serif; font-size: 11px; fill: black;">145%</text><text text-anchor="start" transform="translate(30,89.49600000000002) rotate(270) translate(5,3)" style="font-family: sans-serif; font-size: 11px; fill: black;">136%</text><text text-anchor="start" transform="translate(110,74.74799999999999) rotate(270) translate(5,3)" style="font-family: sans-serif; font-size: 11px; fill: black;">154%</text><text text-anchor="start" transform="translate(130,15.952000000000034) rotate(270) translate(5,3)" style="font-family: sans-serif; font-size: 11px; fill: black;">226%</text><text text-anchor="start" transform="translate(50,99.97999999999998) rotate(270) translate(5,3)" style="font-family: sans-serif; font-size: 11px; fill: black;">123%</text><text text-anchor="start" transform="translate(70,88.27199999999999) rotate(270) translate(5,3)" style="font-family: sans-serif; font-size: 11px; fill: black;">137%</text><text text-anchor="start" transform="translate(10,118.68400000000001) rotate(270) translate(5,3)" style="font-family: sans-serif; font-size: 11px; fill: black;">100%</text></g></g><path class="foreground" d="" style="display: none; fill: none;"></path></g></g><g class="mark-group role-title"><g transform="translate(497.5,-64.084)"><path class="background" d="M0,0h0v0h0Z" style="pointer-events: none; fill: none;"></path><g><g class="mark-text role-title-text" style="pointer-events: none;"><text text-anchor="middle" transform="translate(0,10)" style="font-family: sans-serif; font-size: 13px; font-weight: bold; fill: #000; opacity: 1;">Inflater throughput for Silesia corpus (part1) at compression level 6 on i7-8650U / 1900MHz</text></g></g><path class="foreground" d="" style="pointer-events: none; display: none; fill: none;"></path></g></g><g class="mark-group role-legend"><g transform="translate(969,0)"><path class="background" d="M0,0h67v89h-67Z" style="pointer-events: none; fill: none;"></path><g><g class="mark-group role-legend-entry"><g transform="translate(0,0)"><path class="background" d="M0,0h0v0h0Z" style="pointer-events: none; fill: none;"></path><g><g class="mark-group role-scope"><g transform="translate(0,0)"><path class="background" d="M0,0h67v11h-67Z" style="pointer-events: none; fill: none; opacity: 1;"></path><g><g class="mark-symbol role-legend-symbol" style="pointer-events: none;"><path transform="translate(6,6)" d="M-5,-5h10v10h-10Z" style="fill: #4c78a8; stroke-width: 1.5; opacity: 1;"></path></g><g class="mark-text role-legend-label" style="pointer-events: none;"><text text-anchor="start" transform="translate(16,9)" style="font-family: sans-serif; font-size: 10px; fill: #000; opacity: 1;">zlib</text></g></g><path class="foreground" d="" style="pointer-events: none; display: none; fill: none;"></path></g><g transform="translate(0,13)"><path class="background" d="M0,0h67v11h-67Z" style="pointer-events: none; fill: none; opacity: 1;"></path><g><g class="mark-symbol role-legend-symbol" style="pointer-events: none;"><path transform="translate(6,6)" d="M-5,-5h10v10h-10Z" style="fill: #f58518; stroke-width: 1.5; opacity: 1;"></path></g><g class="mark-text role-legend-label" style="pointer-events: none;"><text text-anchor="start" transform="translate(16,9)" style="font-family: sans-serif; font-size: 10px; fill: #000; opacity: 1;">cloudflare</text></g></g><path class="foreground" d="" style="pointer-events: none; display: none; fill: none;"></path></g><g transform="translate(0,26)"><path class="background" d="M0,0h67v11h-67Z" style="pointer-events: none; fill: none; opacity: 1;"></path><g><g class="mark-symbol role-legend-symbol" style="pointer-events: none;"><path transform="translate(6,6)" d="M-5,-5h10v10h-10Z" style="fill: #e45756; stroke-width: 1.5; opacity: 1;"></path></g><g class="mark-text role-legend-label" style="pointer-events: none;"><text text-anchor="start" transform="translate(16,9)" style="font-family: sans-serif; font-size: 10px; fill: #000; opacity: 1;">jtkukunas</text></g></g><path class="foreground" d="" style="pointer-events: none; display: none; fill: none;"></path></g><g transform="translate(0,39)"><path class="background" d="M0,0h67v11h-67Z" style="pointer-events: none; fill: none; opacity: 1;"></path><g><g class="mark-symbol role-legend-symbol" style="pointer-events: none;"><path transform="translate(6,6)" d="M-5,-5h10v10h-10Z" style="fill: #72b7b2; stroke-width: 1.5; opacity: 1;"></path></g><g class="mark-text role-legend-label" style="pointer-events: none;"><text text-anchor="start" transform="translate(16,9)" style="font-family: sans-serif; font-size: 10px; fill: #000; opacity: 1;">ng</text></g></g><path class="foreground" d="" style="pointer-events: none; display: none; fill: none;"></path></g><g transform="translate(0,52)"><path class="background" d="M0,0h67v11h-67Z" style="pointer-events: none; fill: none; opacity: 1;"></path><g><g class="mark-symbol role-legend-symbol" style="pointer-events: none;"><path transform="translate(6,6)" d="M-5,-5h10v10h-10Z" style="fill: #54a24b; stroke-width: 1.5; opacity: 1;"></path></g><g class="mark-text role-legend-label" style="pointer-events: none;"><text text-anchor="start" transform="translate(16,9)" style="font-family: sans-serif; font-size: 10px; fill: #000; opacity: 1;">chromium</text></g></g><path class="foreground" d="" style="pointer-events: none; display: none; fill: none;"></path></g><g transform="translate(0,65)"><path class="background" d="M0,0h67v11h-67Z" style="pointer-events: none; fill: none; opacity: 1;"></path><g><g class="mark-symbol role-legend-symbol" style="pointer-events: none;"><path transform="translate(6,6)" d="M-5,-5h10v10h-10Z" style="fill: #eeca3b; stroke-width: 1.5; opacity: 1;"></path></g><g class="mark-text role-legend-label" style="pointer-events: none;"><text text-anchor="start" transform="translate(16,9)" style="font-family: sans-serif; font-size: 10px; fill: #000; opacity: 1;">ipp</text></g></g><path class="foreground" d="" style="pointer-events: none; display: none; fill: none;"></path></g><g transform="translate(0,78)"><path class="background" d="M0,0h67v11h-67Z" style="pointer-events: none; fill: none; opacity: 1;"></path><g><g class="mark-symbol role-legend-symbol" style="pointer-events: none;"><path transform="translate(6,6)" d="M-5,-5h10v10h-10Z" style="fill: #b279a2; stroke-width: 1.5; opacity: 1;"></path></g><g class="mark-text role-legend-label" style="pointer-events: none;"><text text-anchor="start" transform="translate(16,9)" style="font-family: sans-serif; font-size: 10px; fill: #000; opacity: 1;">isal</text></g></g><path class="foreground" d="" style="pointer-events: none; display: none; fill: none;"></path></g></g></g><path class="foreground" d="" style="pointer-events: none; display: none; fill: none;"></path></g></g></g><path class="foreground" d="" style="pointer-events: none; display: none; fill: none;"></path></g></g></g><path class="foreground" d="" style="display: none; fill: none;"></path></g></g></g></svg>